<?xml version="1.0" standalone="no"?>
<!DOCTYPE svg PUBLIC "-//W3C//DTD SVG 1.1//EN" "http://www.w3.org/Graphics/SVG/1.1/DTD/svg11.dtd" >
<svg>
<metadata>
Created by FontForge 20131121 at Fri Sep 04 15:21:48 2015

Copyright (c) 2015 by Newlyn Works Limited. All rights reserved.
</metadata>
<defs>
<font id="Telkom123-Bold" horiz-adv-x="630" >
  <font-face 
    font-family="Telkom 123 Bold"
    font-weight="700"
    font-stretch="normal"
    units-per-em="1000"
    panose-1="2 0 0 0 0 0 0 0 0 0"
    ascent="800"
    descent="-200"
    x-height="555"
    cap-height="733"
    bbox="-329 -244 3280 1029"
    underline-thickness="50"
    underline-position="-50"
    unicode-range="U+000D-FB02"
  />
<missing-glyph horiz-adv-x="628" 
d="M78 729h472v-729h-472v729zM432 118v493h-236v-493h236z" />
    <glyph glyph-name="fi" unicode="fi" horiz-adv-x="640" 
d="M575 4q-18 -5 -36 -6.5t-40 -1.5t-40 1.5t-36 6.5v421h-171v-421q-18 -5 -36 -6.5t-40 -1.5t-40 1.5t-36 6.5v421h-60q-5 16 -6.5 31t-1.5 34t1.5 34t6.5 31h60v72q0 85 49.5 134.5t146.5 49.5q38 0 75 -7t73 -19q0 -16 -3 -31t-8 -32q-8 -34 -23 -60q-20 8 -42.5 13
t-48.5 5q-35 0 -51 -16t-16 -51v-58h323v-551z" />
    <glyph glyph-name="fl" unicode="fl" horiz-adv-x="640" 
d="M499 803q22 0 40 -1.5t36 -6.5v-793q-12 -3 -28.5 -5.5t-36.5 -2.5q-36 0 -61.5 19t-25.5 59v562q-33 46 -91 46q-80 0 -80 -80v-45h91q5 -16 6.5 -31t1.5 -34t-1.5 -34t-6.5 -31h-91v-421q-18 -5 -36 -6.5t-40 -1.5t-40 1.5t-36 6.5v421h-60q-5 16 -6.5 31t-1.5 34
t1.5 34t6.5 31h60v56q0 200 196 200q71 0 127 -36v20q18 5 36 6.5t40 1.5z" />
    <glyph glyph-name="Telkom" unicode="Telkom" horiz-adv-x="3333" 
d="M1156 799q40 0 78 -6v-797q-8 -2 -24 -4.5t-34 -2.5q-17 0 -34 3.5t-31 13.5t-23 27t-9 44v716q40 6 77 6zM1326 793q36 6 77 6q39 0 78 -6v-797q-39 -6 -78 -6q-41 0 -77 6v797zM590 780q3 -17 4.5 -33.5t1.5 -34.5q0 -36 -6 -67h-198v-649q-20 -2 -28.5 -2.5
t-14.5 -1.5t-13 -1h-23q-22 0 -44.5 1.5t-38.5 3.5v649h-199q-6 31 -6 67q0 18 1.5 34.5t4.5 33.5h559zM1001 304q0 -20 -1 -40t-5 -34h-366q5 -68 48 -96t109 -28q38 0 76 7t75 20q12 -23 21 -52q5 -16 7 -32t4 -34q-88 -32 -196 -32q-144 0 -221.5 74t-77.5 217
q0 65 19 119.5t54.5 94.5t87 62t116.5 22q57 0 103 -19.5t79 -55t50.5 -84.5t17.5 -109zM3091 572q102 0 145.5 -55.5t43.5 -162.5v-358q-41 -6 -78 -6q-40 0 -79 6v318q0 60 -15 91t-60 31q-29 0 -49 -10.5t-32 -28.5t-17.5 -43t-5.5 -55v-303q-39 -6 -78 -6t-79 6v318
q0 60 -14.5 91t-60.5 31q-30 0 -50 -10.5t-32 -30t-16.5 -46t-4.5 -58.5v-295q-41 -6 -80 -6q-38 0 -78 6v563q20 4 33 5t33 1q21 0 33.5 -1.5t29.5 -4.5q2 -3 5 -13.5t5.5 -23.5t4.5 -25t2 -16q26 43 66 67t93 24q134 0 170 -100q26 48 67 74t98 26zM2101 -15
q-66 0 -117 21.5t-85.5 60.5t-52.5 92.5t-18 117.5q0 66 18.5 120t53.5 92.5t85.5 60t115.5 21.5q64 0 115 -21t86 -60t53.5 -93t18.5 -120t-18.5 -120t-53.5 -92t-85.5 -59t-115.5 -21zM1836 -4q-45 -6 -88 -6q-39 0 -82 6l-165 295l141 268q43 6 88 6q40 0 81 -6
l-146 -261zM2101 100q22 0 41.5 8t33.5 22t22.5 33t8.5 41v73v76q0 21 -8.5 40t-22.5 33t-33.5 22t-41.5 8t-41 -8t-33.5 -22t-22.5 -33t-8 -40v-73v-76q0 -22 8 -41t22.5 -33t33.5 -22t41 -8zM749 455q-55 0 -84 -30t-35 -87h223q-2 51 -28 84t-76 33z" />
    <glyph glyph-name=".notdef" horiz-adv-x="628" 
d="M78 729h472v-729h-472v729zM432 118v493h-236v-493h236z" />
    <glyph glyph-name="space" unicode=" " horiz-adv-x="228" 
 />
    <glyph glyph-name="NULL" horiz-adv-x="0" 
 />
    <glyph glyph-name="nonmarkingreturn" unicode="&#xd;" horiz-adv-x="190" 
 />
    <glyph glyph-name="uni00A0" unicode="&#xa0;" horiz-adv-x="228" 
 />
    <glyph glyph-name="A" unicode="A" horiz-adv-x="704" 
d="M703 4q-20 -5 -40.5 -6.5t-44.5 -1.5t-44.5 1.5t-40.5 6.5h-1l-51 157h-266l-51 -157q-20 -5 -39 -6.5t-43 -1.5q-23 0 -42 1.5t-39 6.5l261 721q21 5 42.5 6.5t46.5 1.5q26 0 47.5 -1.5t42.5 -6.5zM438 296l-89 275l-89 -275h178z" />
    <glyph glyph-name="B" unicode="B" horiz-adv-x="670" 
d="M512 389q119 -37 119 -168q0 -221 -270 -221h-286v729h282q124 0 185 -45t61 -140q0 -112 -91 -155zM230 591v-158h119q49 0 71 19t22 62q0 41 -22.5 59t-73.5 18h-116zM352 137q63 0 90.5 22t27.5 71q0 47 -28.5 68t-92.5 21h-119v-182h122z" />
    <glyph glyph-name="C" unicode="C" horiz-adv-x="621" 
d="M586 123q16 -34 22 -64q-46 -36 -110 -55.5t-131 -19.5q-74 0 -133.5 23.5t-102.5 71t-66 119t-23 166.5q0 90 22 161t64 119.5t103 74.5t140 26q31 0 61.5 -5t58.5 -14t52.5 -21t42.5 -25q-6 -30 -22 -64q-8 -17 -16 -31t-18 -27q-35 24 -71 35t-74 11q-89 0 -136.5 -57
t-47.5 -183q0 -62 12.5 -107t35.5 -74t55.5 -42.5t72.5 -13.5q60 0 100.5 16.5t74.5 37.5q10 -13 18 -27t16 -31z" />
    <glyph glyph-name="D" unicode="D" horiz-adv-x="710" 
d="M75 729h241q179 0 264.5 -90.5t85.5 -273.5q0 -184 -85.5 -274.5t-264.5 -90.5h-241v729zM292 138q61 0 102.5 11t66 37t35 70t10.5 109t-10.5 108.5t-35 69.5t-66 37t-102.5 11h-65v-453h65z" />
    <glyph glyph-name="E" unicode="E" horiz-adv-x="603" 
d="M556 139q5 -17 6.5 -33.5t1.5 -36.5t-1.5 -36t-6.5 -33h-481v729h472q5 -17 6.5 -33.5t1.5 -36.5t-1.5 -36t-6.5 -33h-317v-149h279q5 -16 6.5 -32t1.5 -36q0 -19 -1.5 -35t-6.5 -32h-279v-167h326v0z" />
    <glyph glyph-name="F" unicode="F" horiz-adv-x="589" 
d="M227 590v-187h281q5 -16 6.5 -32t1.5 -36t-1.5 -36t-6.5 -32h-281v-263q-18 -5 -36 -6.5t-40 -1.5t-40 1.5t-36 6.5v725h471q5 -17 6.5 -33.5t1.5 -36.5t-1.5 -36t-6.5 -33h-319z" />
    <glyph glyph-name="G" unicode="G" horiz-adv-x="680" 
d="M630 404v-350q-22 -15 -51.5 -28t-63 -22.5t-70 -14.5t-72.5 -5q-330 0 -330 380q0 381 347 381q31 0 62 -5t59.5 -14t53 -21t42.5 -25q-6 -30 -22 -64q-8 -17 -16 -31t-18 -27q-35 22 -72.5 34t-82.5 12q-100 0 -147 -57t-47 -183t42.5 -182.5t138.5 -56.5q33 0 60 5.5
t45 13.5v135h-124q-5 15 -6.5 30t-1.5 33q0 17 1.5 32t6.5 30h266z" />
    <glyph glyph-name="H" unicode="H" horiz-adv-x="749" 
d="M598 733q22 0 40 -1.5t36 -6.5v-721q-18 -5 -36 -6.5t-40 -1.5t-40 1.5t-36 6.5v296h-295v-296q-18 -5 -36 -6.5t-40 -1.5t-40 1.5t-36 6.5v721q18 5 36 6.5t40 1.5t40 -1.5t36 -6.5v-286h295v286q18 5 36 6.5t40 1.5z" />
    <glyph glyph-name="I" unicode="I" horiz-adv-x="302" 
d="M151 733q22 0 40 -1.5t36 -6.5v-721q-18 -5 -36 -6.5t-40 -1.5t-40 1.5t-36 6.5v721q18 5 36 6.5t40 1.5z" />
    <glyph glyph-name="J" unicode="J" horiz-adv-x="433" 
d="M286 733q22 0 40 -1.5t36 -6.5v-516q0 -65 -16.5 -107.5t-44 -67t-62 -34.5t-70.5 -10q-44 0 -81 9.5t-75 28.5q2 17 5.5 33t9.5 34q13 37 30 62q17 -10 40 -18.5t47 -8.5q12 0 23.5 3t21 10.5t15 20.5t5.5 33v528q18 5 36 6.5t40 1.5z" />
    <glyph glyph-name="K" unicode="K" horiz-adv-x="677" 
d="M75 725q18 5 36 6.5t40 1.5t40 -1.5t36 -6.5v-721q-18 -5 -36 -6.5t-40 -1.5t-40 1.5t-36 6.5v721zM678 4h-1q-22 -5 -44 -6.5t-48 -1.5t-48 1.5t-44 6.5h-2l-248 359l242 362q21 5 42.5 6.5t47.5 1.5t47.5 -1.5t43.5 -6.5l-243 -355z" />
    <glyph glyph-name="L" unicode="L" horiz-adv-x="563" 
d="M539 139q5 -17 6.5 -33.5t1.5 -36.5t-1.5 -36t-6.5 -33h-464v725q18 5 36 6.5t40 1.5t40 -1.5t36 -6.5v-586h312v0z" />
    <glyph glyph-name="M" unicode="M" horiz-adv-x="891" 
d="M826 4q-18 -5 -36 -6.5t-40 -1.5t-40 1.5t-36 6.5h-1l3 399q0 18 0.5 40.5t0.5 44.5t0.5 42.5t0.5 34.5h-2q-2 -11 -6.5 -28.5t-11 -37.5t-13.5 -40.5t-13 -37.5l-126 -357q-14 -5 -28.5 -6.5t-31.5 -1.5t-31.5 1.5t-28.5 6.5l-122 357q-5 15 -12 35t-14 40.5t-12.5 38.5
t-7.5 30h-2q0 -14 0.5 -34.5t0.5 -42.5v-44.5v-40.5l-6 -399q-18 -5 -36 -6.5t-39 -1.5q-22 0 -40 1.5t-36 6.5l31 721q26 5 52 6.5t57 1.5q32 0 58.5 -1.5t52.5 -6.5l136 -409h4l135 409q26 5 51.5 6.5t57.5 1.5t58 -1.5t52 -6.5z" />
    <glyph glyph-name="N" unicode="N" horiz-adv-x="752" 
d="M605 733q21 0 38.5 -1.5t34.5 -6.5v-721q-24 -5 -47.5 -6.5t-52.5 -1.5t-52.5 1.5t-47.5 6.5l-204 413q-8 15 -16.5 34.5l-17 39t-16 37t-11.5 28.5q1 -10 2.5 -26t2.5 -34t1.5 -36.5t0.5 -33.5v-422q-17 -5 -34.5 -6.5t-38.5 -1.5t-38.5 1.5t-34.5 6.5v721q25 5 50 6.5
t55 1.5t54.5 -1.5t49.5 -6.5l189 -392q7 -15 16.5 -36t19.5 -43t18 -42t13 -32q-1 11 -2.5 29t-2.5 37.5t-1.5 39.5t-0.5 36v403q17 5 34.5 6.5t38.5 1.5z" />
    <glyph glyph-name="O" unicode="O" horiz-adv-x="732" 
d="M366 -16q-81 0 -141.5 26t-101 74.5t-60.5 119t-20 160.5q0 180 80.5 280.5t242.5 100.5t242.5 -100.5t80.5 -280.5q0 -90 -20 -160.5t-60.5 -119t-101 -74.5t-141.5 -26zM366 125q163 0 163 238q0 241 -163 241q-164 0 -164 -241q0 -238 164 -238z" />
    <glyph glyph-name="P" unicode="P" horiz-adv-x="623" 
d="M332 729q64 0 113 -19t82 -52.5t50 -80.5t17 -103q0 -57 -17 -103.5t-50 -80t-82 -52t-113 -18.5h-105v-216q-18 -5 -36 -6.5t-40 -1.5t-40 1.5t-36 6.5v725h257zM315 358q63 0 91 27.5t28 88.5q0 59 -28 88t-91 29h-88v-233h88z" />
    <glyph glyph-name="Q" unicode="Q" horiz-adv-x="732" 
d="M689 364q0 -142 -50 -234.5t-151 -126.5l135 -179q-21 -5 -42 -6.5t-47 -1.5t-47.5 1.5t-42.5 6.5l-104 161q-75 4 -130.5 31.5t-92.5 76t-55.5 117t-18.5 154.5q0 180 80.5 280.5t242.5 100.5t242.5 -100.5t80.5 -280.5zM202 363q0 -238 164 -238q163 0 163 238
q0 241 -163 241q-164 0 -164 -241z" />
    <glyph glyph-name="R" unicode="R" horiz-adv-x="668" 
d="M647 4q-22 -5 -44 -7t-48 -2t-48 2t-44 7l-166 253h-70v-253q-18 -5 -36 -6.5t-40 -1.5t-40 1.5t-36 6.5v725h277q262 0 262 -241q0 -88 -42 -141t-111 -75zM227 387h125q104 0 104 102t-104 102h-125v-204z" />
    <glyph glyph-name="S" unicode="S" horiz-adv-x="621" 
d="M570 672q-4 -16 -10.5 -31t-15.5 -32q-17 -32 -39 -55q-39 26 -85 37.5t-91 11.5q-64 0 -93 -17.5t-29 -56.5q0 -20 7.5 -32t24.5 -20.5t44 -15t66 -14.5q55 -12 98.5 -25t73.5 -36.5t46 -62t16 -99.5q0 -62 -19 -107.5t-54 -75t-85 -44t-113 -14.5q-98 0 -169 26
t-113 61q5 16 12 31t18 32q17 32 39 55q39 -26 91 -44.5t112 -18.5q62 0 92.5 20t30.5 71q0 22 -7 35.5t-25 23t-48.5 17t-77.5 17.5q-45 9 -84.5 21.5t-69.5 36t-47.5 61t-17.5 96.5q0 101 66.5 161t205.5 60q84 0 147 -21.5t103 -51.5z" />
    <glyph glyph-name="T" unicode="T" horiz-adv-x="613" 
d="M589 729q5 -17 6.5 -33.5t1.5 -36.5t-1.5 -36t-6.5 -33h-207v-590q-18 -5 -36 -6.5t-40 -1.5t-40 1.5t-36 6.5v590h-206q-5 17 -6.5 33.5t-1.5 36.5t1.5 36t6.5 33h565v0z" />
    <glyph glyph-name="U" unicode="U" horiz-adv-x="733" 
d="M590 733q22 0 40 -1.5t36 -6.5h-1v-447q0 -68 -19.5 -122.5t-57.5 -92.5t-93.5 -58.5t-126.5 -20.5q-72 0 -128 20.5t-94 58.5t-58 92.5t-20 122.5v447q18 5 36 6.5t40 1.5t40 -1.5t36 -6.5v-437q0 -89 36.5 -125.5t111.5 -36.5q72 0 109 36.5t37 125.5v437q18 5 36 6.5
t40 1.5z" />
    <glyph glyph-name="V" unicode="V" horiz-adv-x="680" 
d="M599 731q23 0 42 -1.5t38 -6.5l-256 -719h-2q-20 -5 -39 -6.5t-43 -1.5q-23 0 -42 1.5t-39 6.5l-257 719q20 5 39.5 6.5t43.5 1.5t43.5 -1.5t39.5 -6.5h1l143 -419q8 -25 17 -51.5t17 -51.5q6 25 13 52t15 51l146 419q19 5 38 6.5t42 1.5z" />
    <glyph glyph-name="W" unicode="W" horiz-adv-x="975" 
d="M880 733q24 0 43 -1.5t39 -6.5l-174 -721q-20 -5 -40.5 -7t-45.5 -2t-45.5 2t-40.5 7q-20 73 -39 153t-35.5 157.5t-30 148t-21.5 124.5h-4q-9 -54 -23.5 -124.5t-32 -148t-37 -157.5t-37.5 -153q-20 -5 -40.5 -7t-45.5 -2q-24 0 -44.5 2t-40.5 7l-171 721q20 5 39.5 6.5
t42.5 1.5q24 0 43.5 -1.5t39.5 -6.5q16 -71 30.5 -148.5t27 -153t23 -144t19.5 -120.5h4q8 52 21.5 120.5t30 144t34.5 153t35 148.5q20 5 40 7.5t45 2.5q24 0 44 -2.5t40 -7.5q18 -71 36 -148.5t34 -153t30 -144t24 -120.5h4q5 52 15 120.5t23 144t28.5 153t31.5 148.5
q20 5 39 6.5t42 1.5z" />
    <glyph glyph-name="X" unicode="X" horiz-adv-x="652" 
d="M648 4q-21 -5 -42 -6.5t-47 -1.5t-47 1.5t-42 6.5l-148 247l-149 -247q-20 -5 -40.5 -6.5t-44.5 -1.5t-44.5 1.5t-40.5 6.5l232 366l-222 355q21 5 42 6.5t47 1.5t47 -1.5t42 -6.5l141 -243l137 243q20 5 40.5 6.5t45.5 1.5q24 0 44.5 -1.5t40.5 -6.5l-220 -365z" />
    <glyph glyph-name="Y" unicode="Y" horiz-adv-x="662" 
d="M408 300v-300q-18 -5 -36.5 -6.5t-40.5 -1.5q-23 0 -41.5 1.5t-36.5 6.5v301l-258 428q21 5 42 6.5t46 1.5q26 0 47 -1.5t42 -6.5l107 -188q14 -25 29.5 -56.5t27.5 -61.5q11 32 23.5 62.5t27.5 56.5l107 187q20 5 41 6.5t46 1.5t45.5 -1.5t40.5 -6.5z" />
    <glyph glyph-name="Z" unicode="Z" horiz-adv-x="628" 
d="M588 139q5 -17 6.5 -33.5t1.5 -36.5t-1.5 -36t-6.5 -33h-545q-5 17 -6.5 34.5t-1.5 38.5t1.5 38.5t6.5 34.5l350 444h-336q-5 17 -6.5 33.5t-1.5 36.5t1.5 36t6.5 33h508q6 -29 8.5 -51t2.5 -43q0 -23 -6 -44t-19 -37l-330 -415h367v0z" />
    <glyph glyph-name="Agrave" unicode="&#xc0;" horiz-adv-x="704" 
d="M703 4q-20 -5 -40.5 -6.5t-44.5 -1.5t-44.5 1.5t-40.5 6.5h-1l-51 157h-266l-51 -157q-20 -5 -39 -6.5t-43 -1.5q-23 0 -42 1.5t-39 6.5l261 721q21 5 42.5 6.5t46.5 1.5q26 0 47.5 -1.5t42.5 -6.5zM438 296l-89 275l-89 -275h178zM422 793q-12 -5 -24.5 -6.5t-27.5 -1.5
t-27.5 1.5t-24.5 6.5l-115 199q16 5 32 6.5t36 1.5t36 -1.5t32 -6.5z" />
    <glyph glyph-name="Aacute" unicode="&#xc1;" horiz-adv-x="704" 
d="M703 4q-20 -5 -40.5 -6.5t-44.5 -1.5t-44.5 1.5t-40.5 6.5h-1l-51 157h-266l-51 -157q-20 -5 -39 -6.5t-43 -1.5q-23 0 -42 1.5t-39 6.5l261 721q21 5 42.5 6.5t46.5 1.5q26 0 47.5 -1.5t42.5 -6.5zM438 296l-89 275l-89 -275h178zM445 1000q20 0 36 -1.5t32 -6.5
l-116 -199q-12 -5 -24.5 -6.5t-27.5 -1.5t-27.5 1.5t-24.5 6.5l84 199q16 5 32 6.5t36 1.5z" />
    <glyph glyph-name="Acircumflex" unicode="&#xc2;" horiz-adv-x="704" 
d="M703 4q-20 -5 -40.5 -6.5t-44.5 -1.5t-44.5 1.5t-40.5 6.5h-1l-51 157h-266l-51 -157q-20 -5 -39 -6.5t-43 -1.5q-23 0 -42 1.5t-39 6.5l261 721q21 5 42.5 6.5t46.5 1.5q26 0 47.5 -1.5t42.5 -6.5zM438 296l-89 275l-89 -275h178zM513 792q-12 -5 -24 -6.5t-26 -1.5
q-15 0 -27 1.5t-24 6.5l-60 114l-59 -114q-12 -5 -24 -6.5t-26 -1.5q-15 0 -27 1.5t-24 6.5l86 200q18 5 35.5 6.5t39.5 1.5t39.5 -1.5t35.5 -6.5z" />
    <glyph glyph-name="Atilde" unicode="&#xc3;" horiz-adv-x="704" 
d="M703 4q-20 -5 -40.5 -6.5t-44.5 -1.5t-44.5 1.5t-40.5 6.5h-1l-51 157h-266l-51 -157q-20 -5 -39 -6.5t-43 -1.5q-23 0 -42 1.5t-39 6.5l261 721q21 5 42.5 6.5t46.5 1.5q26 0 47.5 -1.5t42.5 -6.5zM438 296l-89 275l-89 -275h178zM519 934q14 -4 24.5 -8t20.5 -9
q-14 -66 -51 -97t-88 -31q-22 0 -39.5 5t-32.5 13q-18 8 -34 15.5t-32 7.5q-37 0 -50 -41q-24 1 -48 10q-14 4 -24.5 8t-20.5 9q15 66 51.5 97t85.5 31q28 0 49 -8.5t39 -16.5q14 -7 26 -11.5t24 -4.5q18 0 31.5 9t20.5 32q24 -1 48 -10z" />
    <glyph glyph-name="Adieresis" unicode="&#xc4;" horiz-adv-x="704" 
d="M703 4q-20 -5 -40.5 -6.5t-44.5 -1.5t-44.5 1.5t-40.5 6.5h-1l-51 157h-266l-51 -157q-20 -5 -39 -6.5t-43 -1.5q-23 0 -42 1.5t-39 6.5l261 721q21 5 42.5 6.5t46.5 1.5q26 0 47.5 -1.5t42.5 -6.5zM438 296l-89 275l-89 -275h178zM245 790q-20 0 -37.5 1.5t-34.5 6.5
q-7 28 -7 62t7 62q17 5 34.5 6.5t37.5 1.5t37.5 -1.5t34.5 -6.5q7 -28 7 -62t-7 -62q-17 -5 -34.5 -6.5t-37.5 -1.5zM461 790q-20 0 -37.5 1.5t-34.5 6.5q-7 28 -7 62t7 62q17 5 34.5 6.5t37.5 1.5t37.5 -1.5t34.5 -6.5q7 -28 7 -62t-7 -62q-17 -5 -34.5 -6.5t-37.5 -1.5z
" />
    <glyph glyph-name="Aring" unicode="&#xc5;" horiz-adv-x="704" 
d="M703 4q-20 -5 -40.5 -6.5t-44.5 -1.5t-44.5 1.5t-40.5 6.5h-1l-51 157h-266l-51 -157q-20 -5 -39 -6.5t-43 -1.5q-23 0 -42 1.5t-39 6.5l261 721q21 5 42.5 6.5t46.5 1.5q26 0 47.5 -1.5t42.5 -6.5zM438 296l-89 275l-89 -275h178zM353 789q-134 0 -134 120t134 120
t134 -120t-134 -120zM353 867q44 0 44 42t-44 42q-45 0 -45 -42t45 -42z" />
    <glyph glyph-name="AE" unicode="&#xc6;" horiz-adv-x="926" 
d="M880 139q5 -17 6.5 -33.5t1.5 -36.5t-1.5 -36t-6.5 -33h-454v178h-194l-65 -174q-20 -5 -39.5 -6.5t-43.5 -1.5t-43.5 1.5t-39.5 6.5l273 725h597q5 -17 6.5 -33t1.5 -36t-1.5 -36t-6.5 -33v-1h-290v-149h252q5 -17 6.5 -32.5t1.5 -35.5q0 -19 -1.5 -35t-6.5 -32h-252
v-167h299zM426 591h-50l-101 -277h151v277z" />
    <glyph glyph-name="Ccedilla" unicode="&#xc7;" horiz-adv-x="621" 
d="M608 59q-39 -31 -91 -49.5t-109 -23.5q19 -41 19 -75q0 -55 -31.5 -85t-89.5 -30q-35 0 -68 6.5t-59 19.5q0 13 2 24t7 25q8 25 23 44q33 -14 58 -14q24 0 37.5 13.5t13.5 39.5q0 16 -4 33q-63 8 -113.5 35.5t-86 74.5t-55 113.5t-19.5 153.5q0 90 22 161t64 119.5
t103 74.5t140 26q31 0 61.5 -5t58.5 -14t52.5 -21t42.5 -25q-6 -30 -22 -64q-8 -17 -16 -31t-18 -27q-35 24 -71 35t-74 11q-89 0 -136.5 -57t-47.5 -183q0 -62 12.5 -107t35.5 -74t55.5 -42.5t72.5 -13.5q60 0 100.5 16.5t74.5 37.5q10 -13 18 -27t16 -31q16 -34 22 -64z
" />
    <glyph glyph-name="Egrave" unicode="&#xc8;" horiz-adv-x="603" 
d="M556 139q5 -17 6.5 -33.5t1.5 -36.5t-1.5 -36t-6.5 -33h-481v729h472q5 -17 6.5 -33.5t1.5 -36.5t-1.5 -36t-6.5 -33h-317v-149h279q5 -16 6.5 -32t1.5 -36q0 -19 -1.5 -35t-6.5 -32h-279v-167h326v0zM370 793q-12 -5 -24.5 -6.5t-27.5 -1.5t-27.5 1.5t-24.5 6.5
l-115 199q16 5 32 6.5t36 1.5t36 -1.5t32 -6.5z" />
    <glyph glyph-name="Eacute" unicode="&#xc9;" horiz-adv-x="603" 
d="M556 139q5 -17 6.5 -33.5t1.5 -36.5t-1.5 -36t-6.5 -33h-481v729h472q5 -17 6.5 -33.5t1.5 -36.5t-1.5 -36t-6.5 -33h-317v-149h279q5 -16 6.5 -32t1.5 -36q0 -19 -1.5 -35t-6.5 -32h-279v-167h326v0zM393 1000q20 0 36 -1.5t32 -6.5l-116 -199q-12 -5 -24.5 -6.5
t-27.5 -1.5t-27.5 1.5t-24.5 6.5l84 199q16 5 32 6.5t36 1.5z" />
    <glyph glyph-name="Ecircumflex" unicode="&#xca;" horiz-adv-x="603" 
d="M556 139q5 -17 6.5 -33.5t1.5 -36.5t-1.5 -36t-6.5 -33h-481v729h472q5 -17 6.5 -33.5t1.5 -36.5t-1.5 -36t-6.5 -33h-317v-149h279q5 -16 6.5 -32t1.5 -36q0 -19 -1.5 -35t-6.5 -32h-279v-167h326v0zM461 792q-12 -5 -24 -6.5t-26 -1.5q-15 0 -27 1.5t-24 6.5l-60 114
l-59 -114q-12 -5 -24 -6.5t-26 -1.5q-15 0 -27 1.5t-24 6.5l86 200q18 5 35.5 6.5t39.5 1.5t39.5 -1.5t35.5 -6.5z" />
    <glyph glyph-name="Edieresis" unicode="&#xcb;" horiz-adv-x="603" 
d="M556 139q5 -17 6.5 -33.5t1.5 -36.5t-1.5 -36t-6.5 -33h-481v729h472q5 -17 6.5 -33.5t1.5 -36.5t-1.5 -36t-6.5 -33h-317v-149h279q5 -16 6.5 -32t1.5 -36q0 -19 -1.5 -35t-6.5 -32h-279v-167h326v0zM193 790q-20 0 -37.5 1.5t-34.5 6.5q-7 28 -7 62t7 62q17 5 34.5 6.5
t37.5 1.5t37.5 -1.5t34.5 -6.5q7 -28 7 -62t-7 -62q-17 -5 -34.5 -6.5t-37.5 -1.5zM409 790q-20 0 -37.5 1.5t-34.5 6.5q-7 28 -7 62t7 62q17 5 34.5 6.5t37.5 1.5t37.5 -1.5t34.5 -6.5q7 -28 7 -62t-7 -62q-17 -5 -34.5 -6.5t-37.5 -1.5z" />
    <glyph glyph-name="Igrave" unicode="&#xcc;" horiz-adv-x="302" 
d="M151 733q22 0 40 -1.5t36 -6.5v-721q-18 -5 -36 -6.5t-40 -1.5t-40 1.5t-36 6.5v721q18 5 36 6.5t40 1.5zM222 793q-12 -5 -24.5 -6.5t-27.5 -1.5t-27.5 1.5t-24.5 6.5l-115 199q16 5 32 6.5t36 1.5t36 -1.5t32 -6.5z" />
    <glyph glyph-name="Iacute" unicode="&#xcd;" horiz-adv-x="302" 
d="M151 733q22 0 40 -1.5t36 -6.5v-721q-18 -5 -36 -6.5t-40 -1.5t-40 1.5t-36 6.5v721q18 5 36 6.5t40 1.5zM245 1000q20 0 36 -1.5t32 -6.5l-116 -199q-12 -5 -24.5 -6.5t-27.5 -1.5t-27.5 1.5t-24.5 6.5l84 199q16 5 32 6.5t36 1.5z" />
    <glyph glyph-name="Icircumflex" unicode="&#xce;" horiz-adv-x="302" 
d="M151 733q22 0 40 -1.5t36 -6.5v-721q-18 -5 -36 -6.5t-40 -1.5t-40 1.5t-36 6.5v721q18 5 36 6.5t40 1.5zM312 792q-12 -5 -24 -6.5t-26 -1.5q-15 0 -27 1.5t-24 6.5l-60 114l-59 -114q-12 -5 -24 -6.5t-26 -1.5q-15 0 -27 1.5t-24 6.5l86 200q18 5 35.5 6.5t39.5 1.5
t39.5 -1.5t35.5 -6.5z" />
    <glyph glyph-name="Idieresis" unicode="&#xcf;" horiz-adv-x="302" 
d="M151 733q22 0 40 -1.5t36 -6.5v-721q-18 -5 -36 -6.5t-40 -1.5t-40 1.5t-36 6.5v721q18 5 36 6.5t40 1.5zM45 790q-20 0 -37.5 1.5t-34.5 6.5q-7 28 -7 62t7 62q17 5 34.5 6.5t37.5 1.5t37.5 -1.5t34.5 -6.5q7 -28 7 -62t-7 -62q-17 -5 -34.5 -6.5t-37.5 -1.5zM261 790
q-20 0 -37.5 1.5t-34.5 6.5q-7 28 -7 62t7 62q17 5 34.5 6.5t37.5 1.5t37.5 -1.5t34.5 -6.5q7 -28 7 -62t-7 -62q-17 -5 -34.5 -6.5t-37.5 -1.5z" />
    <glyph glyph-name="Eth" unicode="&#xd0;" horiz-adv-x="756" 
d="M362 729q179 0 264.5 -90.5t85.5 -273.5q0 -184 -85.5 -274.5t-264.5 -90.5h-241v299h-105v131h105v299h241zM338 138q61 0 102.5 11t66 37t35 70t10.5 109t-10.5 108.5t-35 69.5t-66 37t-102.5 11h-65v-161h94v-131h-94v-161h65z" />
    <glyph glyph-name="Lslash" unicode="&#x141;" horiz-adv-x="598" 
d="M574 139q5 -17 6.5 -33.5t1.5 -36.5t-1.5 -36t-6.5 -33h-464v273l-72 -31q-9 11 -14.5 22l-12.5 25q-13 27 -17 51l116 50v335q18 5 36 6.5t40 1.5t40 -1.5t36 -6.5v-268l93 40q8 -11 14 -21.5t12 -24.5q7 -15 12 -27.5t7 -26.5l-138 -59v-199h312v0z" />
    <glyph glyph-name="Ntilde" unicode="&#xd1;" horiz-adv-x="752" 
d="M605 733q21 0 38.5 -1.5t34.5 -6.5v-721q-24 -5 -47.5 -6.5t-52.5 -1.5t-52.5 1.5t-47.5 6.5l-204 413q-8 15 -16.5 34.5l-17 39t-16 37t-11.5 28.5q1 -10 2.5 -26t2.5 -34t1.5 -36.5t0.5 -33.5v-422q-17 -5 -34.5 -6.5t-38.5 -1.5t-38.5 1.5t-34.5 6.5v721q25 5 50 6.5
t55 1.5t54.5 -1.5t49.5 -6.5l189 -392q7 -15 16.5 -36t19.5 -43t18 -42t13 -32q-1 11 -2.5 29t-2.5 37.5t-1.5 39.5t-0.5 36v403q17 5 34.5 6.5t38.5 1.5zM543 934q14 -4 24.5 -8t20.5 -9q-14 -66 -51 -97t-88 -31q-22 0 -39.5 5t-32.5 13q-18 8 -34 15.5t-32 7.5
q-37 0 -50 -41q-24 1 -48 10q-14 4 -24.5 8t-20.5 9q15 66 51.5 97t85.5 31q28 0 49 -8.5t39 -16.5q14 -7 26 -11.5t24 -4.5q18 0 31.5 9t20.5 32q24 -1 48 -10z" />
    <glyph glyph-name="Ograve" unicode="&#xd2;" horiz-adv-x="732" 
d="M366 -16q-81 0 -141.5 26t-101 74.5t-60.5 119t-20 160.5q0 180 80.5 280.5t242.5 100.5t242.5 -100.5t80.5 -280.5q0 -90 -20 -160.5t-60.5 -119t-101 -74.5t-141.5 -26zM366 125q163 0 163 238q0 241 -163 241q-164 0 -164 -241q0 -238 164 -238zM435 793
q-12 -5 -24.5 -6.5t-27.5 -1.5t-27.5 1.5t-24.5 6.5l-115 199q16 5 32 6.5t36 1.5t36 -1.5t32 -6.5z" />
    <glyph glyph-name="Oacute" unicode="&#xd3;" horiz-adv-x="732" 
d="M366 -16q-81 0 -141.5 26t-101 74.5t-60.5 119t-20 160.5q0 180 80.5 280.5t242.5 100.5t242.5 -100.5t80.5 -280.5q0 -90 -20 -160.5t-60.5 -119t-101 -74.5t-141.5 -26zM366 125q163 0 163 238q0 241 -163 241q-164 0 -164 -241q0 -238 164 -238zM458 1000
q20 0 36 -1.5t32 -6.5l-116 -199q-12 -5 -24.5 -6.5t-27.5 -1.5t-27.5 1.5t-24.5 6.5l84 199q16 5 32 6.5t36 1.5z" />
    <glyph glyph-name="Ocircumflex" unicode="&#xd4;" horiz-adv-x="732" 
d="M366 -16q-81 0 -141.5 26t-101 74.5t-60.5 119t-20 160.5q0 180 80.5 280.5t242.5 100.5t242.5 -100.5t80.5 -280.5q0 -90 -20 -160.5t-60.5 -119t-101 -74.5t-141.5 -26zM366 125q163 0 163 238q0 241 -163 241q-164 0 -164 -241q0 -238 164 -238zM526 792
q-12 -5 -24 -6.5t-26 -1.5q-15 0 -27 1.5t-24 6.5l-60 114l-59 -114q-12 -5 -24 -6.5t-26 -1.5q-15 0 -27 1.5t-24 6.5l86 200q18 5 35.5 6.5t39.5 1.5t39.5 -1.5t35.5 -6.5z" />
    <glyph glyph-name="Otilde" unicode="&#xd5;" horiz-adv-x="732" 
d="M366 -16q-81 0 -141.5 26t-101 74.5t-60.5 119t-20 160.5q0 180 80.5 280.5t242.5 100.5t242.5 -100.5t80.5 -280.5q0 -90 -20 -160.5t-60.5 -119t-101 -74.5t-141.5 -26zM366 125q163 0 163 238q0 241 -163 241q-164 0 -164 -241q0 -238 164 -238zM532 934
q14 -4 24.5 -8t20.5 -9q-14 -66 -51 -97t-88 -31q-22 0 -39.5 5t-32.5 13q-18 8 -34 15.5t-32 7.5q-37 0 -50 -41q-24 1 -48 10q-14 4 -24.5 8t-20.5 9q15 66 51.5 97t85.5 31q28 0 49 -8.5t39 -16.5q14 -7 26 -11.5t24 -4.5q18 0 31.5 9t20.5 32q24 -1 48 -10z" />
    <glyph glyph-name="Odieresis" unicode="&#xd6;" horiz-adv-x="732" 
d="M366 -16q-81 0 -141.5 26t-101 74.5t-60.5 119t-20 160.5q0 180 80.5 280.5t242.5 100.5t242.5 -100.5t80.5 -280.5q0 -90 -20 -160.5t-60.5 -119t-101 -74.5t-141.5 -26zM366 125q163 0 163 238q0 241 -163 241q-164 0 -164 -241q0 -238 164 -238zM258 790
q-20 0 -37.5 1.5t-34.5 6.5q-7 28 -7 62t7 62q17 5 34.5 6.5t37.5 1.5t37.5 -1.5t34.5 -6.5q7 -28 7 -62t-7 -62q-17 -5 -34.5 -6.5t-37.5 -1.5zM474 790q-20 0 -37.5 1.5t-34.5 6.5q-7 28 -7 62t7 62q17 5 34.5 6.5t37.5 1.5t37.5 -1.5t34.5 -6.5q7 -28 7 -62t-7 -62
q-17 -5 -34.5 -6.5t-37.5 -1.5z" />
    <glyph glyph-name="Oslash" unicode="&#xd8;" horiz-adv-x="732" 
d="M617 633q72 -98 72 -269q0 -90 -20 -160.5t-60.5 -119t-101 -74.5t-141.5 -26q-78 0 -140 25l-69 -109q-31 11 -65 32q-32 20 -55 41l77 123q-71 98 -71 268q0 180 80.5 280.5t242.5 100.5q40 0 75 -6.5t65 -18.5l59 94q17 -5 31 -11.5t31 -16.5q19 -11 32.5 -21
t25.5 -24zM202 363q0 -32 3 -59t8 -50l214 340q-26 10 -61 10q-164 0 -164 -241zM366 125q163 0 163 238q0 62 -11 111l-213 -339q26 -10 61 -10z" />
    <glyph glyph-name="OE" unicode="&#x152;" horiz-adv-x="1025" 
d="M979 139q5 -17 6.5 -33.5t1.5 -36.5t-1.5 -36t-6.5 -33h-428l-3 46q-35 -30 -81.5 -46t-107.5 -16q-78 0 -137 26.5t-98.5 75.5t-60 119.5t-20.5 159.5q0 88 20.5 158t60 119.5t98.5 76t137 26.5q60 0 107.5 -17t82.5 -46l3 47h418q5 -17 6.5 -33t1.5 -36t-1.5 -36
t-6.5 -33v-1h-300v-149h262q5 -17 6.5 -32.5t1.5 -35.5q0 -19 -1.5 -35t-6.5 -32h-262v-167h309zM359 124q37 0 67 11.5t50 39t31 74t11 115.5t-11 115.5t-31 74t-50 39t-67 11.5t-66 -11.5t-49.5 -39t-31.5 -74t-11 -115.5t11 -115.5t31.5 -74t49.5 -39t66 -11.5z" />
    <glyph glyph-name="Thorn" unicode="&#xde;" horiz-adv-x="624" 
d="M332 624q126 0 194 -66.5t68 -188.5q0 -121 -68 -187.5t-194 -66.5h-105v-111q-18 -5 -36 -6.5t-40 -1.5t-40 1.5t-36 6.5v721q18 5 36 6.5t40 1.5t40 -1.5t36 -6.5v-101h105zM320 253q54 0 84 30t30 86t-30 86.5t-84 30.5h-93v-233h93z" />
    <glyph glyph-name="Scaron" unicode="&#x160;" horiz-adv-x="621" 
d="M570 672q-4 -16 -10.5 -31t-15.5 -32q-17 -32 -39 -55q-39 26 -85 37.5t-91 11.5q-64 0 -93 -17.5t-29 -56.5q0 -20 7.5 -32t24.5 -20.5t44 -15t66 -14.5q55 -12 98.5 -25t73.5 -36.5t46 -62t16 -99.5q0 -62 -19 -107.5t-54 -75t-85 -44t-113 -14.5q-98 0 -169 26
t-113 61q5 16 12 31t18 32q17 32 39 55q39 -26 91 -44.5t112 -18.5q62 0 92.5 20t30.5 71q0 22 -7 35.5t-25 23t-48.5 17t-77.5 17.5q-45 9 -84.5 21.5t-69.5 36t-47.5 61t-17.5 96.5q0 101 66.5 161t205.5 60q84 0 147 -21.5t103 -51.5zM427 1000q15 0 27 -1.5t24 -6.5
l-86 -200q-18 -5 -35.5 -6.5t-39.5 -1.5t-39.5 1.5t-35.5 6.5l-85 200q12 5 24 6.5t26 1.5q15 0 27 -1.5t24 -6.5l60 -114l59 114q12 5 24 6.5t26 1.5z" />
    <glyph glyph-name="Ugrave" unicode="&#xd9;" horiz-adv-x="733" 
d="M590 733q22 0 40 -1.5t36 -6.5h-1v-447q0 -68 -19.5 -122.5t-57.5 -92.5t-93.5 -58.5t-126.5 -20.5q-72 0 -128 20.5t-94 58.5t-58 92.5t-20 122.5v447q18 5 36 6.5t40 1.5t40 -1.5t36 -6.5v-437q0 -89 36.5 -125.5t111.5 -36.5q72 0 109 36.5t37 125.5v437q18 5 36 6.5
t40 1.5zM436 793q-12 -5 -24.5 -6.5t-27.5 -1.5t-27.5 1.5t-24.5 6.5l-115 199q16 5 32 6.5t36 1.5t36 -1.5t32 -6.5z" />
    <glyph glyph-name="Uacute" unicode="&#xda;" horiz-adv-x="733" 
d="M590 733q22 0 40 -1.5t36 -6.5h-1v-447q0 -68 -19.5 -122.5t-57.5 -92.5t-93.5 -58.5t-126.5 -20.5q-72 0 -128 20.5t-94 58.5t-58 92.5t-20 122.5v447q18 5 36 6.5t40 1.5t40 -1.5t36 -6.5v-437q0 -89 36.5 -125.5t111.5 -36.5q72 0 109 36.5t37 125.5v437q18 5 36 6.5
t40 1.5zM459 1000q20 0 36 -1.5t32 -6.5l-116 -199q-12 -5 -24.5 -6.5t-27.5 -1.5t-27.5 1.5t-24.5 6.5l84 199q16 5 32 6.5t36 1.5z" />
    <glyph glyph-name="Ucircumflex" unicode="&#xdb;" horiz-adv-x="733" 
d="M590 733q22 0 40 -1.5t36 -6.5h-1v-447q0 -68 -19.5 -122.5t-57.5 -92.5t-93.5 -58.5t-126.5 -20.5q-72 0 -128 20.5t-94 58.5t-58 92.5t-20 122.5v447q18 5 36 6.5t40 1.5t40 -1.5t36 -6.5v-437q0 -89 36.5 -125.5t111.5 -36.5q72 0 109 36.5t37 125.5v437q18 5 36 6.5
t40 1.5zM527 792q-12 -5 -24 -6.5t-26 -1.5q-15 0 -27 1.5t-24 6.5l-60 114l-59 -114q-12 -5 -24 -6.5t-26 -1.5q-15 0 -27 1.5t-24 6.5l86 200q18 5 35.5 6.5t39.5 1.5t39.5 -1.5t35.5 -6.5z" />
    <glyph glyph-name="Udieresis" unicode="&#xdc;" horiz-adv-x="733" 
d="M590 733q22 0 40 -1.5t36 -6.5h-1v-447q0 -68 -19.5 -122.5t-57.5 -92.5t-93.5 -58.5t-126.5 -20.5q-72 0 -128 20.5t-94 58.5t-58 92.5t-20 122.5v447q18 5 36 6.5t40 1.5t40 -1.5t36 -6.5v-437q0 -89 36.5 -125.5t111.5 -36.5q72 0 109 36.5t37 125.5v437q18 5 36 6.5
t40 1.5zM259 790q-20 0 -37.5 1.5t-34.5 6.5q-7 28 -7 62t7 62q17 5 34.5 6.5t37.5 1.5t37.5 -1.5t34.5 -6.5q7 -28 7 -62t-7 -62q-17 -5 -34.5 -6.5t-37.5 -1.5zM475 790q-20 0 -37.5 1.5t-34.5 6.5q-7 28 -7 62t7 62q17 5 34.5 6.5t37.5 1.5t37.5 -1.5t34.5 -6.5
q7 -28 7 -62t-7 -62q-17 -5 -34.5 -6.5t-37.5 -1.5z" />
    <glyph glyph-name="Yacute" unicode="&#xdd;" horiz-adv-x="662" 
d="M408 300v-300q-18 -5 -36.5 -6.5t-40.5 -1.5q-23 0 -41.5 1.5t-36.5 6.5v301l-258 428q21 5 42 6.5t46 1.5q26 0 47 -1.5t42 -6.5l107 -188q14 -25 29.5 -56.5t27.5 -61.5q11 32 23.5 62.5t27.5 56.5l107 187q20 5 41 6.5t46 1.5t45.5 -1.5t40.5 -6.5zM423 1000
q20 0 36 -1.5t32 -6.5l-116 -199q-12 -5 -24.5 -6.5t-27.5 -1.5t-27.5 1.5t-24.5 6.5l84 199q16 5 32 6.5t36 1.5z" />
    <glyph glyph-name="Ydieresis" unicode="&#x178;" horiz-adv-x="662" 
d="M408 300v-300q-18 -5 -36.5 -6.5t-40.5 -1.5q-23 0 -41.5 1.5t-36.5 6.5v301l-258 428q21 5 42 6.5t46 1.5q26 0 47 -1.5t42 -6.5l107 -188q14 -25 29.5 -56.5t27.5 -61.5q11 32 23.5 62.5t27.5 56.5l107 187q20 5 41 6.5t46 1.5t45.5 -1.5t40.5 -6.5zM223 790
q-20 0 -37.5 1.5t-34.5 6.5q-7 28 -7 62t7 62q17 5 34.5 6.5t37.5 1.5t37.5 -1.5t34.5 -6.5q7 -28 7 -62t-7 -62q-17 -5 -34.5 -6.5t-37.5 -1.5zM439 790q-20 0 -37.5 1.5t-34.5 6.5q-7 28 -7 62t7 62q17 5 34.5 6.5t37.5 1.5t37.5 -1.5t34.5 -6.5q7 -28 7 -62t-7 -62
q-17 -5 -34.5 -6.5t-37.5 -1.5z" />
    <glyph glyph-name="Zcaron" unicode="&#x17d;" horiz-adv-x="628" 
d="M588 139q5 -17 6.5 -33.5t1.5 -36.5t-1.5 -36t-6.5 -33h-545q-5 17 -6.5 34.5t-1.5 38.5t1.5 38.5t6.5 34.5l350 444h-336q-5 17 -6.5 33.5t-1.5 36.5t1.5 36t6.5 33h508q6 -29 8.5 -51t2.5 -43q0 -23 -6 -44t-19 -37l-330 -415h367v0zM426 1000q15 0 27 -1.5t24 -6.5
l-86 -200q-18 -5 -35.5 -6.5t-39.5 -1.5t-39.5 1.5t-35.5 6.5l-85 200q12 5 24 6.5t26 1.5q15 0 27 -1.5t24 -6.5l60 -114l59 114q12 5 24 6.5t26 1.5z" />
    <glyph glyph-name="a" unicode="a" horiz-adv-x="567" 
d="M267 571q38 0 80.5 -6.5t78 -30t58.5 -68.5t23 -122v-342q-16 -5 -31.5 -6.5t-34.5 -1.5t-34.5 1.5t-31.5 6.5l-8 66q-27 -36 -66 -60t-90 -24q-37 0 -69.5 11t-56.5 33.5t-38 57t-14 82.5q0 40 14.5 71t40.5 52t61.5 32t76.5 11q45 0 74 -5.5t55 -13.5v36
q0 47 -27.5 65.5t-78.5 18.5q-37 0 -75 -12t-63 -26q-12 11 -21 23.5t-17 28.5q-9 16 -14 30t-7 29q15 12 39.5 23t53.5 20t60.5 14.5t61.5 5.5zM251 103q52 0 78 30t26 86v7q-47 16 -99 16q-42 0 -59.5 -21t-17.5 -47q0 -30 17 -50.5t55 -20.5z" />
    <glyph glyph-name="b" unicode="b" horiz-adv-x="626" 
d="M369 571q59 0 100.5 -23t67 -63t37 -93.5t11.5 -114.5q0 -66 -12.5 -120.5t-38.5 -92.5t-67 -59t-98 -21t-97.5 20t-67.5 56l-7 -58q-16 -5 -31.5 -6.5t-34.5 -1.5t-34.5 1.5t-31.5 6.5v793q18 5 36 6.5t40 1.5t40 -1.5t36 -6.5v-289q27 31 64.5 48t87.5 17zM319 120
q33 0 53.5 11.5t32 32.5t16 49.5t4.5 63.5q0 34 -4.5 63t-16.5 50t-32.5 32.5t-52.5 11.5q-60 0 -84.5 -39.5t-24.5 -117.5q0 -79 29 -118t80 -39z" />
    <glyph glyph-name="c" unicode="c" horiz-adv-x="527" 
d="M485 108q8 -16 13 -29.5t7 -28.5q-38 -31 -90 -47.5t-105 -16.5q-130 0 -200.5 75.5t-70.5 216.5q0 140 70.5 216t200.5 76q50 0 97 -14t83 -40q-2 -17 -6 -31.5t-11 -31.5q-13 -31 -32 -52q-26 17 -57 25.5t-62 8.5q-59 0 -90.5 -41t-31.5 -116t31.5 -116t90.5 -41
q33 0 65.5 9.5t58.5 27.5q13 -11 22 -23t17 -27z" />
    <glyph glyph-name="d" unicode="d" horiz-adv-x="626" 
d="M485 803q22 0 40 -1.5t36 -6.5v-793q-16 -5 -31.5 -6.5t-34.5 -1.5t-34.5 1.5t-31.5 6.5l-8 62q-27 -38 -67.5 -59t-96.5 -21q-59 0 -100.5 23t-67 63t-37 93.5t-11.5 114.5q0 66 12.5 120.5t38.5 92.5t67 59t98 21q50 0 87.5 -16t64.5 -45v285q18 5 36 6.5t40 1.5z
M307 121q60 0 84.5 39.5t24.5 117.5q0 79 -29 118t-80 39q-33 0 -53.5 -11.5t-32 -32.5t-16 -50t-4.5 -63q0 -35 4.5 -63.5t16.5 -49.5t32.5 -32.5t52.5 -11.5z" />
    <glyph glyph-name="e" unicode="e" horiz-adv-x="581" 
d="M541 216h-337q12 -57 46 -80.5t96 -23.5q42 0 76.5 8t67.5 25q18 -19 30 -50q13 -29 16 -57q-57 -28 -108.5 -41t-104.5 -13q-69 0 -122 20.5t-89 59t-54.5 92.5t-18.5 121t17 121.5t49 92.5t79.5 59t107.5 21q70 0 118 -20.5t77 -61.5t41.5 -103t12.5 -145v-25zM298 448
q-52 0 -73.5 -31.5t-25.5 -88.5h190q-2 59 -23 89.5t-68 30.5z" />
    <glyph glyph-name="f" unicode="f" horiz-adv-x="415" 
d="M296 811q38 0 75 -7t73 -19q0 -16 -3 -31t-8 -32q-8 -34 -23 -60q-20 8 -42.5 13t-48.5 5q-35 0 -51 -16t-16 -51v-58h142q5 -16 6.5 -31t1.5 -34t-1.5 -34t-6.5 -31h-142v-421q-18 -5 -36 -6.5t-40 -1.5t-40 1.5t-36 6.5v421h-60q-5 16 -6.5 31t-1.5 34t1.5 34t6.5 31
h60v72q0 85 49.5 134.5t146.5 49.5z" />
    <glyph glyph-name="g" unicode="g" horiz-adv-x="620" 
d="M489 559q19 0 34.5 -1.5t31.5 -6.5v-554q0 -71 -25 -117.5t-63.5 -74t-84 -38.5t-87.5 -11q-63 0 -121.5 14.5t-99.5 35.5q0 28 12 61q6 17 13 30t18 26q34 -14 75.5 -25t83.5 -11q24 0 46.5 3.5t40.5 15t29 33.5t11 59v68q-27 -26 -63 -41t-83 -15q-59 0 -100.5 22
t-67 60t-37 89t-11.5 110q0 63 12.5 115t38.5 88.5t67 56.5t98 20q54 0 93.5 -17.5t66.5 -49.5l6 47q16 5 31.5 6.5t34.5 1.5zM307 141q60 0 84.5 38t24.5 112q0 76 -29 113t-80 37q-33 0 -53.5 -11t-32 -31t-16 -47.5t-4.5 -60.5t4.5 -60.5t16.5 -47.5t32.5 -31t52.5 -11z
" />
    <glyph glyph-name="h" unicode="h" horiz-adv-x="602" 
d="M362 571q88 0 133.5 -55t45.5 -164v-348q-18 -5 -36 -6.5t-40 -1.5t-40 1.5t-36 6.5v325q0 54 -16.5 77t-56.5 23q-23 0 -41.5 -8.5t-31 -28t-19.5 -51t-7 -78.5v-259q-18 -5 -36 -6.5t-40 -1.5t-40 1.5t-36 6.5v791q18 5 36 6.5t40 1.5t40 -1.5t36 -6.5v-297
q27 35 63.5 54t81.5 19z" />
    <glyph glyph-name="i" unicode="i" horiz-adv-x="282" 
d="M219 754q5 -16 6.5 -31.5t1.5 -34.5t-1.5 -34.5t-6.5 -31.5q-18 -5 -36 -6.5t-40 -1.5t-40 1.5t-36 6.5q-5 16 -6.5 31.5t-1.5 34.5t1.5 34.5t6.5 31.5q18 5 36 6.5t40 1.5t40 -1.5t36 -6.5zM65 551q18 5 36 6.5t40 1.5t40 -1.5t36 -6.5v-547q-18 -5 -36 -6.5t-40 -1.5
t-40 1.5t-36 6.5v547z" />
    <glyph glyph-name="j" unicode="j" horiz-adv-x="282" 
d="M217 754q5 -16 6.5 -31.5t1.5 -34.5t-1.5 -34.5t-6.5 -31.5q-18 -5 -36 -6.5t-40 -1.5t-40 1.5t-36 6.5q-5 16 -6.5 31.5t-1.5 34.5t1.5 34.5t6.5 31.5q18 5 36 6.5t40 1.5t40 -1.5t36 -6.5zM65 551q18 5 36 6.5t40 1.5t40 -1.5t36 -6.5v-548q0 -99 -48.5 -164
t-139.5 -83q-13 14 -21.5 29.5t-16.5 34.5q-14 35 -13 66q46 17 66.5 42.5t20.5 65.5v557z" />
    <glyph glyph-name="k" unicode="k" horiz-adv-x="585" 
d="M65 795q18 5 36 6.5t40 1.5t40 -1.5t36 -6.5v-791q-18 -5 -36 -6.5t-40 -1.5t-40 1.5t-36 6.5v791zM585 4q-21 -5 -41.5 -6.5t-46.5 -1.5t-46.5 1.5t-41.5 6.5l-176 282l163 265q20 5 39.5 6.5t43.5 1.5t43.5 -1.5t39.5 -6.5l-164 -258z" />
    <glyph glyph-name="l" unicode="l" horiz-adv-x="280" 
d="M139 803q22 0 40 -1.5t36 -6.5v-793q-12 -3 -28.5 -5.5t-36.5 -2.5q-36 0 -61.5 19t-25.5 59v723q18 5 36 6.5t40 1.5z" />
    <glyph glyph-name="m" unicode="m" horiz-adv-x="906" 
d="M671 571q87 0 130.5 -55t43.5 -164v-348q-18 -5 -36 -6.5t-40 -1.5t-40 1.5t-36 6.5v325q0 54 -15.5 77t-52.5 23q-22 0 -39.5 -8.5t-29.5 -28t-18.5 -51t-6.5 -78.5v-259q-18 -5 -36 -6.5t-40 -1.5t-40 1.5t-36 6.5v325q0 54 -15.5 77t-52.5 23q-22 0 -39.5 -8.5
t-29.5 -28t-18.5 -51t-6.5 -78.5v-259q-18 -5 -36 -6.5t-40 -1.5t-40 1.5t-36 6.5v547q16 5 31.5 6.5t34.5 1.5t34.5 -1.5t31.5 -6.5l8 -67q28 42 66 64.5t86 22.5q116 0 155 -100q27 48 67.5 74t91.5 26z" />
    <glyph glyph-name="n" unicode="n" horiz-adv-x="602" 
d="M362 571q89 0 134 -55t45 -164v-348q-18 -5 -36 -6.5t-40 -1.5t-40 1.5t-36 6.5v325q0 54 -16.5 77t-56.5 23q-23 0 -41.5 -8.5t-31 -28t-19.5 -51t-7 -78.5v-259q-18 -5 -36 -6.5t-40 -1.5t-40 1.5t-36 6.5v547q16 5 31.5 6.5t34.5 1.5t34.5 -1.5t31.5 -6.5l9 -69
q28 43 67.5 66t88.5 23z" />
    <glyph glyph-name="o" unicode="o" horiz-adv-x="616" 
d="M308 -16q-133 0 -201 77t-68 216q0 143 67.5 218.5t201.5 75.5q135 0 202 -76.5t67 -217.5q0 -142 -68.5 -217.5t-200.5 -75.5zM308 120q33 0 54 11.5t33 32.5t16.5 49.5t4.5 63.5q0 36 -5 65t-17 49.5t-33 31.5t-53 11q-33 0 -54 -11.5t-33 -32.5t-16.5 -50t-4.5 -63
q0 -36 5 -65t17 -49.5t33 -31.5t53 -11z" />
    <glyph glyph-name="p" unicode="p" horiz-adv-x="626" 
d="M369 571q59 0 100.5 -23t67 -63t37 -93.5t11.5 -114.5q0 -66 -12.5 -120.5t-38.5 -92.5t-67 -59t-98 -21q-50 0 -87.5 16t-64.5 45v-269q-18 -5 -36 -6.5t-40 -1.5t-40 1.5t-36 6.5v775q16 5 31.5 6.5t34.5 1.5t34.5 -1.5t31.5 -6.5l7 -60q28 38 68.5 59t96.5 21z
M319 120q33 0 53.5 11.5t32 32.5t16 49.5t4.5 63.5q0 34 -4.5 63t-16.5 50t-32.5 32.5t-52.5 11.5q-60 0 -84.5 -39.5t-24.5 -117.5q0 -79 29 -118t80 -39z" />
    <glyph glyph-name="q" unicode="q" horiz-adv-x="627" 
d="M562 551v-775h-1q-18 -5 -36 -6.5t-40 -1.5t-40 1.5t-36 6.5h1v274q-27 -31 -65 -48.5t-88 -17.5q-59 0 -100.5 23t-67 63t-37 93.5t-11.5 114.5q0 66 12.5 120.5t38.5 92.5t67 59t98 21t98 -20.5t68 -57.5l7 58h-1q16 5 31.5 6.5t34.5 1.5t34.5 -1.5t31.5 -6.5h1z
M307 121q60 0 84.5 39.5t24.5 117.5q0 79 -29 118t-80 39q-33 0 -53.5 -11.5t-32 -32.5t-16 -50t-4.5 -63q0 -35 4.5 -63.5t16.5 -49.5t32.5 -32.5t52.5 -11.5z" />
    <glyph glyph-name="r" unicode="r" horiz-adv-x="402" 
d="M391 564q1 -6 1 -12v-12q0 -23 -3 -48q-3 -20 -6.5 -36.5t-9.5 -33.5q-29 7 -61 7q-24 0 -42 -8.5t-30 -28t-17.5 -51t-5.5 -78.5v-259q-18 -5 -36 -6.5t-40 -1.5t-40 1.5t-36 6.5v547q16 5 31.5 6.5t34.5 1.5t34.5 -1.5t31.5 -6.5l8 -62q25 39 59.5 60.5t77.5 21.5
q14 0 25 -2t24 -5z" />
    <glyph glyph-name="s" unicode="s" horiz-adv-x="511" 
d="M290 339q50 -11 86 -24t59.5 -33t34.5 -48.5t11 -69.5q0 -44 -16 -77.5t-45 -56t-69 -34.5t-89 -12q-31 0 -58.5 2t-54 7t-53.5 14t-57 23q0 33 13 66q7 17 14 31t18 26q26 -12 48 -19.5t41.5 -12t39 -6t40.5 -1.5q42 0 59 10.5t17 32.5q0 11 -4.5 19.5t-17 15t-35 13
t-57.5 13.5q-88 18 -128 59.5t-40 110.5q0 85 54.5 134t160.5 49q55 0 100 -10.5t90 -32.5q1 -16 -2 -30.5t-9 -32.5q-11 -31 -32 -56q-28 14 -65 23t-69 9q-39 0 -61 -10t-22 -35q0 -14 5.5 -22.5t17.5 -14.5t30.5 -10.5t44.5 -9.5z" />
    <glyph glyph-name="t" unicode="t" horiz-adv-x="434" 
d="M415 73q5 -18 6.5 -32.5t1.5 -30.5q-23 -10 -57 -18t-84 -8q-33 0 -65 8.5t-57 29.5t-40.5 55.5t-15.5 86.5v261h-79q-5 16 -6.5 31t-1.5 34t1.5 34t6.5 31h84l40 163q24 7 54 7t54 -7v-163h135q5 -16 6.5 -31t1.5 -34t-1.5 -34t-6.5 -31h-135v-246q0 -35 16 -49.5
t44 -14.5q20 0 39 4.5t33 11.5q9 -14 15 -27.5t11 -30.5z" />
    <glyph glyph-name="u" unicode="u" horiz-adv-x="592" 
d="M451 559q22 0 40 -1.5t36 -6.5v-547q-16 -5 -31.5 -6.5t-34.5 -1.5t-34.5 1.5t-31.5 6.5l-8 67q-28 -42 -66 -64.5t-86 -22.5q-87 0 -130.5 55t-43.5 164v348q18 5 36 6.5t40 1.5t40 -1.5t36 -6.5v-325q0 -54 16.5 -77t51.5 -23q22 0 39.5 8.5t29.5 28t18.5 51t6.5 78.5
v259q18 5 36 6.5t40 1.5z" />
    <glyph glyph-name="v" unicode="v" horiz-adv-x="555" 
d="M466 559q23 0 41.5 -1.5t37.5 -6.5l-184 -547q-20 -5 -39.5 -6.5t-43.5 -1.5t-43.5 1.5t-39.5 6.5h-1l-184 547q19 5 38.5 6.5t42.5 1.5t42 -1.5t38 -6.5l78 -275q11 -41 19 -78t11 -58q4 21 11.5 58t18.5 78l78 275q19 5 37.5 6.5t41.5 1.5z" />
    <glyph glyph-name="w" unicode="w" horiz-adv-x="808" 
d="M721 559q21 0 39 -1.5t35 -6.5l-159 -547q-17 -5 -35 -6.5t-39 -1.5t-39 1.5t-35 6.5l-60 223q-4 15 -8.5 37t-8.5 44.5t-7 42t-4 28.5q-1 -9 -4 -28.5t-7 -41.5t-8 -44.5t-8 -37.5l-57 -223q-17 -5 -35 -6.5t-39 -1.5t-39 1.5t-35 6.5l-153 547q17 5 35.5 6.5t40.5 1.5
q21 0 39.5 -1.5t35.5 -6.5l48 -224q14 -67 21.5 -112.5t11.5 -73.5l10.5 73.5t21.5 112.5l50 224q18 5 36 6.5t41 1.5t41 -1.5t36 -6.5l50 -224q15 -66 22 -112.5t10 -72.5q3 26 11.5 72.5t22.5 113.5l48 223q17 5 35 6.5t39 1.5z" />
    <glyph glyph-name="x" unicode="x" horiz-adv-x="549" 
d="M539 4q-20 -5 -40.5 -6.5t-44.5 -1.5q-25 0 -45.5 1.5t-40.5 6.5l-106 165l-88 -165q-20 -5 -39.5 -6.5t-42.5 -1.5t-42.5 1.5t-39.5 6.5l176 283l-171 264q20 5 40.5 6.5t45.5 1.5q24 0 44.5 -1.5t40.5 -6.5l101 -157l83 157q20 5 39.5 6.5t42.5 1.5t42.5 -1.5
t39.5 -6.5l-168 -278z" />
    <glyph glyph-name="y" unicode="y" horiz-adv-x="592" 
d="M451 559q22 0 40 -1.5t36 -6.5v-554q0 -74 -24 -120.5t-60.5 -73.5t-79.5 -37t-82 -10q-42 0 -75 3t-60 9t-50 14.5t-44 20.5q0 31 10 62q6 17 12 31t15 27q33 -17 70.5 -29t88.5 -12q24 0 46.5 4t40.5 16t29 35t11 61v78q-26 -32 -62 -49t-78 -17q-43 0 -75.5 10.5
t-54.5 35.5t-33 67t-11 106v322q18 5 36 6.5t40 1.5t40 -1.5t36 -6.5v-299q0 -54 16.5 -77t51.5 -23q44 0 69 30.5t25 109.5v259q18 5 36 6.5t40 1.5z" />
    <glyph glyph-name="z" unicode="z" horiz-adv-x="539" 
d="M493 130q5 -16 6.5 -31t1.5 -34t-1.5 -34t-6.5 -31h-447q-5 14 -6.5 27t-1.5 30t1.5 30t6.5 27l253 311h-248q-5 16 -6.5 31t-1.5 34t1.5 34t6.5 31h437q5 -21 6.5 -37t1.5 -30q0 -35 -18 -59l-1 -1q-2 -2 -2 -3l-239 -295h257v0z" />
    <glyph glyph-name="agrave" unicode="&#xe0;" horiz-adv-x="567" 
d="M267 571q38 0 80.5 -6.5t78 -30t58.5 -68.5t23 -122v-342q-16 -5 -31.5 -6.5t-34.5 -1.5t-34.5 1.5t-31.5 6.5l-8 66q-27 -36 -66 -60t-90 -24q-37 0 -69.5 11t-56.5 33.5t-38 57t-14 82.5q0 40 14.5 71t40.5 52t61.5 32t76.5 11q45 0 74 -5.5t55 -13.5v36
q0 47 -27.5 65.5t-78.5 18.5q-37 0 -75 -12t-63 -26q-12 11 -21 23.5t-17 28.5q-9 16 -14 30t-7 29q15 12 39.5 23t53.5 20t60.5 14.5t61.5 5.5zM251 103q52 0 78 30t26 86v7q-47 16 -99 16q-42 0 -59.5 -21t-17.5 -47q0 -30 17 -50.5t55 -20.5zM359 619q-12 -5 -24.5 -6.5
t-27.5 -1.5t-27.5 1.5t-24.5 6.5l-115 199q16 5 32 6.5t36 1.5t36 -1.5t32 -6.5z" />
    <glyph glyph-name="aacute" unicode="&#xe1;" horiz-adv-x="567" 
d="M267 571q38 0 80.5 -6.5t78 -30t58.5 -68.5t23 -122v-342q-16 -5 -31.5 -6.5t-34.5 -1.5t-34.5 1.5t-31.5 6.5l-8 66q-27 -36 -66 -60t-90 -24q-37 0 -69.5 11t-56.5 33.5t-38 57t-14 82.5q0 40 14.5 71t40.5 52t61.5 32t76.5 11q45 0 74 -5.5t55 -13.5v36
q0 47 -27.5 65.5t-78.5 18.5q-37 0 -75 -12t-63 -26q-12 11 -21 23.5t-17 28.5q-9 16 -14 30t-7 29q15 12 39.5 23t53.5 20t60.5 14.5t61.5 5.5zM251 103q52 0 78 30t26 86v7q-47 16 -99 16q-42 0 -59.5 -21t-17.5 -47q0 -30 17 -50.5t55 -20.5zM382 826q20 0 36 -1.5
t32 -6.5l-116 -199q-12 -5 -24.5 -6.5t-27.5 -1.5t-27.5 1.5t-24.5 6.5l84 199q16 5 32 6.5t36 1.5z" />
    <glyph glyph-name="acircumflex" unicode="&#xe2;" horiz-adv-x="567" 
d="M267 571q38 0 80.5 -6.5t78 -30t58.5 -68.5t23 -122v-342q-16 -5 -31.5 -6.5t-34.5 -1.5t-34.5 1.5t-31.5 6.5l-8 66q-27 -36 -66 -60t-90 -24q-37 0 -69.5 11t-56.5 33.5t-38 57t-14 82.5q0 40 14.5 71t40.5 52t61.5 32t76.5 11q45 0 74 -5.5t55 -13.5v36
q0 47 -27.5 65.5t-78.5 18.5q-37 0 -75 -12t-63 -26q-12 11 -21 23.5t-17 28.5q-9 16 -14 30t-7 29q15 12 39.5 23t53.5 20t60.5 14.5t61.5 5.5zM251 103q52 0 78 30t26 86v7q-47 16 -99 16q-42 0 -59.5 -21t-17.5 -47q0 -30 17 -50.5t55 -20.5zM450 618q-12 -5 -24 -6.5
t-26 -1.5q-15 0 -27 1.5t-24 6.5l-60 114l-59 -114q-12 -5 -24 -6.5t-26 -1.5q-15 0 -27 1.5t-24 6.5l86 200q18 5 35.5 6.5t39.5 1.5t39.5 -1.5t35.5 -6.5z" />
    <glyph glyph-name="atilde" unicode="&#xe3;" horiz-adv-x="567" 
d="M267 571q38 0 80.5 -6.5t78 -30t58.5 -68.5t23 -122v-342q-16 -5 -31.5 -6.5t-34.5 -1.5t-34.5 1.5t-31.5 6.5l-8 66q-27 -36 -66 -60t-90 -24q-37 0 -69.5 11t-56.5 33.5t-38 57t-14 82.5q0 40 14.5 71t40.5 52t61.5 32t76.5 11q45 0 74 -5.5t55 -13.5v36
q0 47 -27.5 65.5t-78.5 18.5q-37 0 -75 -12t-63 -26q-12 11 -21 23.5t-17 28.5q-9 16 -14 30t-7 29q15 12 39.5 23t53.5 20t60.5 14.5t61.5 5.5zM251 103q52 0 78 30t26 86v7q-47 16 -99 16q-42 0 -59.5 -21t-17.5 -47q0 -30 17 -50.5t55 -20.5zM456 760q14 -4 24.5 -8
t20.5 -9q-14 -66 -51 -97t-88 -31q-22 0 -39.5 5t-32.5 13q-18 8 -34 15.5t-32 7.5q-37 0 -50 -41q-24 1 -48 10q-14 4 -24.5 8t-20.5 9q15 66 51.5 97t85.5 31q28 0 49 -8.5t39 -16.5q14 -7 26 -11.5t24 -4.5q18 0 31.5 9t20.5 32q24 -1 48 -10z" />
    <glyph glyph-name="adieresis" unicode="&#xe4;" horiz-adv-x="567" 
d="M267 571q38 0 80.5 -6.5t78 -30t58.5 -68.5t23 -122v-342q-16 -5 -31.5 -6.5t-34.5 -1.5t-34.5 1.5t-31.5 6.5l-8 66q-27 -36 -66 -60t-90 -24q-37 0 -69.5 11t-56.5 33.5t-38 57t-14 82.5q0 40 14.5 71t40.5 52t61.5 32t76.5 11q45 0 74 -5.5t55 -13.5v36
q0 47 -27.5 65.5t-78.5 18.5q-37 0 -75 -12t-63 -26q-12 11 -21 23.5t-17 28.5q-9 16 -14 30t-7 29q15 12 39.5 23t53.5 20t60.5 14.5t61.5 5.5zM251 103q52 0 78 30t26 86v7q-47 16 -99 16q-42 0 -59.5 -21t-17.5 -47q0 -30 17 -50.5t55 -20.5zM182 616q-20 0 -37.5 1.5
t-34.5 6.5q-7 28 -7 62t7 62q17 5 34.5 6.5t37.5 1.5t37.5 -1.5t34.5 -6.5q7 -28 7 -62t-7 -62q-17 -5 -34.5 -6.5t-37.5 -1.5zM398 616q-20 0 -37.5 1.5t-34.5 6.5q-7 28 -7 62t7 62q17 5 34.5 6.5t37.5 1.5t37.5 -1.5t34.5 -6.5q7 -28 7 -62t-7 -62q-17 -5 -34.5 -6.5
t-37.5 -1.5z" />
    <glyph glyph-name="aring" unicode="&#xe5;" horiz-adv-x="567" 
d="M267 571q38 0 80.5 -6.5t78 -30t58.5 -68.5t23 -122v-342q-16 -5 -31.5 -6.5t-34.5 -1.5t-34.5 1.5t-31.5 6.5l-8 66q-27 -36 -66 -60t-90 -24q-37 0 -69.5 11t-56.5 33.5t-38 57t-14 82.5q0 40 14.5 71t40.5 52t61.5 32t76.5 11q45 0 74 -5.5t55 -13.5v36
q0 47 -27.5 65.5t-78.5 18.5q-37 0 -75 -12t-63 -26q-12 11 -21 23.5t-17 28.5q-9 16 -14 30t-7 29q15 12 39.5 23t53.5 20t60.5 14.5t61.5 5.5zM251 103q52 0 78 30t26 86v7q-47 16 -99 16q-42 0 -59.5 -21t-17.5 -47q0 -30 17 -50.5t55 -20.5zM290 615q-134 0 -134 120
t134 120t134 -120t-134 -120zM290 693q44 0 44 42t-44 42q-45 0 -45 -42t45 -42z" />
    <glyph glyph-name="ae" unicode="&#xe6;" horiz-adv-x="893" 
d="M837 95q13 -29 16 -57q-59 -28 -108 -41t-100 -13q-89 0 -147 31.5t-90 85.5q-24 -51 -72 -84t-124 -33q-33 0 -65.5 10t-59 31.5t-43 56.5t-16.5 86q0 49 20.5 81t52 50t70 25t75.5 7h104v19q0 51 -27.5 70t-70.5 19q-19 0 -42 -3.5t-44.5 -8t-39.5 -9t-27 -6.5
q-8 14 -13 27.5t-10 30.5q-8 34 -7 63q13 4 35.5 10t50.5 12t59.5 10t61.5 4q21 0 43.5 -4t44.5 -14t42 -26t35 -40q33 41 78.5 63.5t105.5 22.5q58 0 100 -19.5t70 -55.5t41.5 -87t13.5 -113v-29t-1 -29h-344q5 -70 46 -98t117 -28q41 0 72.5 8t66.5 25q18 -19 30 -50z
M609 440q-45 0 -74 -30.5t-31 -83.5l202 5q-1 47 -25 78t-72 31zM249 103q20 0 38.5 7t32.5 23t22.5 43t8.5 66l-96 -3q-81 -3 -81 -68q0 -32 20 -50t55 -18z" />
    <glyph glyph-name="ccedilla" unicode="&#xe7;" horiz-adv-x="527" 
d="M505 50q-32 -26 -74 -41.5t-87 -20.5q20 -42 20 -77q0 -55 -31.5 -85t-89.5 -30q-35 0 -68 6.5t-59 19.5q0 13 2 24t7 25q8 25 23 44q33 -14 58 -14q24 0 37.5 13.5t13.5 39.5q0 13 -5 36q-103 17 -158 90t-55 198q0 140 70.5 216t200.5 76q50 0 97 -14t83 -40
q-2 -17 -6 -31.5t-11 -31.5q-13 -31 -32 -52q-26 17 -57 25.5t-62 8.5q-59 0 -90.5 -41t-31.5 -116t31.5 -116t90.5 -41q33 0 65.5 9.5t58.5 27.5q13 -11 22 -23t17 -27q8 -16 13 -29.5t7 -28.5z" />
    <glyph glyph-name="egrave" unicode="&#xe8;" horiz-adv-x="581" 
d="M541 216h-337q12 -57 46 -80.5t96 -23.5q42 0 76.5 8t67.5 25q18 -19 30 -50q13 -29 16 -57q-57 -28 -108.5 -41t-104.5 -13q-69 0 -122 20.5t-89 59t-54.5 92.5t-18.5 121t17 121.5t49 92.5t79.5 59t107.5 21q70 0 118 -20.5t77 -61.5t41.5 -103t12.5 -145v-25zM298 448
q-52 0 -73.5 -31.5t-25.5 -88.5h190q-2 59 -23 89.5t-68 30.5zM358 619q-12 -5 -24.5 -6.5t-27.5 -1.5t-27.5 1.5t-24.5 6.5l-115 199q16 5 32 6.5t36 1.5t36 -1.5t32 -6.5z" />
    <glyph glyph-name="eacute" unicode="&#xe9;" horiz-adv-x="581" 
d="M541 216h-337q12 -57 46 -80.5t96 -23.5q42 0 76.5 8t67.5 25q18 -19 30 -50q13 -29 16 -57q-57 -28 -108.5 -41t-104.5 -13q-69 0 -122 20.5t-89 59t-54.5 92.5t-18.5 121t17 121.5t49 92.5t79.5 59t107.5 21q70 0 118 -20.5t77 -61.5t41.5 -103t12.5 -145v-25zM298 448
q-52 0 -73.5 -31.5t-25.5 -88.5h190q-2 59 -23 89.5t-68 30.5zM381 826q20 0 36 -1.5t32 -6.5l-116 -199q-12 -5 -24.5 -6.5t-27.5 -1.5t-27.5 1.5t-24.5 6.5l84 199q16 5 32 6.5t36 1.5z" />
    <glyph glyph-name="ecircumflex" unicode="&#xea;" horiz-adv-x="581" 
d="M541 216h-337q12 -57 46 -80.5t96 -23.5q42 0 76.5 8t67.5 25q18 -19 30 -50q13 -29 16 -57q-57 -28 -108.5 -41t-104.5 -13q-69 0 -122 20.5t-89 59t-54.5 92.5t-18.5 121t17 121.5t49 92.5t79.5 59t107.5 21q70 0 118 -20.5t77 -61.5t41.5 -103t12.5 -145v-25zM298 448
q-52 0 -73.5 -31.5t-25.5 -88.5h190q-2 59 -23 89.5t-68 30.5zM449 618q-12 -5 -24 -6.5t-26 -1.5q-15 0 -27 1.5t-24 6.5l-60 114l-59 -114q-12 -5 -24 -6.5t-26 -1.5q-15 0 -27 1.5t-24 6.5l86 200q18 5 35.5 6.5t39.5 1.5t39.5 -1.5t35.5 -6.5z" />
    <glyph glyph-name="edieresis" unicode="&#xeb;" horiz-adv-x="581" 
d="M541 216h-337q12 -57 46 -80.5t96 -23.5q42 0 76.5 8t67.5 25q18 -19 30 -50q13 -29 16 -57q-57 -28 -108.5 -41t-104.5 -13q-69 0 -122 20.5t-89 59t-54.5 92.5t-18.5 121t17 121.5t49 92.5t79.5 59t107.5 21q70 0 118 -20.5t77 -61.5t41.5 -103t12.5 -145v-25zM298 448
q-52 0 -73.5 -31.5t-25.5 -88.5h190q-2 59 -23 89.5t-68 30.5zM181 616q-20 0 -37.5 1.5t-34.5 6.5q-7 28 -7 62t7 62q17 5 34.5 6.5t37.5 1.5t37.5 -1.5t34.5 -6.5q7 -28 7 -62t-7 -62q-17 -5 -34.5 -6.5t-37.5 -1.5zM397 616q-20 0 -37.5 1.5t-34.5 6.5q-7 28 -7 62t7 62
q17 5 34.5 6.5t37.5 1.5t37.5 -1.5t34.5 -6.5q7 -28 7 -62t-7 -62q-17 -5 -34.5 -6.5t-37.5 -1.5z" />
    <glyph glyph-name="dotlessi" unicode="&#x131;" horiz-adv-x="282" 
d="M141 559q22 0 40 -1.5t36 -6.5v-547q-18 -5 -36 -6.5t-40 -1.5t-40 1.5t-36 6.5v547q18 5 36 6.5t40 1.5z" />
    <glyph glyph-name="igrave" unicode="&#xec;" horiz-adv-x="282" 
d="M141 559q22 0 40 -1.5t36 -6.5v-547q-18 -5 -36 -6.5t-40 -1.5t-40 1.5t-36 6.5v547q18 5 36 6.5t40 1.5zM210 619q-12 -5 -24.5 -6.5t-27.5 -1.5t-27.5 1.5t-24.5 6.5l-115 199q16 5 32 6.5t36 1.5t36 -1.5t32 -6.5z" />
    <glyph glyph-name="iacute" unicode="&#xed;" horiz-adv-x="282" 
d="M141 559q22 0 40 -1.5t36 -6.5v-547q-18 -5 -36 -6.5t-40 -1.5t-40 1.5t-36 6.5v547q18 5 36 6.5t40 1.5zM233 826q20 0 36 -1.5t32 -6.5l-116 -199q-12 -5 -24.5 -6.5t-27.5 -1.5t-27.5 1.5t-24.5 6.5l84 199q16 5 32 6.5t36 1.5z" />
    <glyph glyph-name="icircumflex" unicode="&#xee;" horiz-adv-x="282" 
d="M141 559q22 0 40 -1.5t36 -6.5v-547q-18 -5 -36 -6.5t-40 -1.5t-40 1.5t-36 6.5v547q18 5 36 6.5t40 1.5zM301 618q-12 -5 -24 -6.5t-26 -1.5q-15 0 -27 1.5t-24 6.5l-60 114l-59 -114q-12 -5 -24 -6.5t-26 -1.5q-15 0 -27 1.5t-24 6.5l86 200q18 5 35.5 6.5t39.5 1.5
t39.5 -1.5t35.5 -6.5z" />
    <glyph glyph-name="idieresis" unicode="&#xef;" horiz-adv-x="282" 
d="M141 559q22 0 40 -1.5t36 -6.5v-547q-18 -5 -36 -6.5t-40 -1.5t-40 1.5t-36 6.5v547q18 5 36 6.5t40 1.5zM33 616q-20 0 -37.5 1.5t-34.5 6.5q-7 28 -7 62t7 62q17 5 34.5 6.5t37.5 1.5t37.5 -1.5t34.5 -6.5q7 -28 7 -62t-7 -62q-17 -5 -34.5 -6.5t-37.5 -1.5zM249 616
q-20 0 -37.5 1.5t-34.5 6.5q-7 28 -7 62t7 62q17 5 34.5 6.5t37.5 1.5t37.5 -1.5t34.5 -6.5q7 -28 7 -62t-7 -62q-17 -5 -34.5 -6.5t-37.5 -1.5z" />
    <glyph glyph-name="eth" unicode="&#xf0;" horiz-adv-x="602" 
d="M523 506q20 -52 28.5 -108t8.5 -116q0 -57 -13 -110.5t-43.5 -95.5t-81 -67t-125.5 -25q-257 0 -257 282q0 287 242 287q23 0 39 -2.5t29 -7.5q-11 26 -22.5 47.5t-23.5 41.5l-127 -55q-7 8 -11.5 17.5t-9.5 21.5q-10 22 -13 42l111 48q-13 18 -28 37t-32 41q30 13 68 17
q38 6 69 3q20 -21 43 -46l126 55q7 -8 11.5 -17.5t9.5 -21.5q10 -22 13 -42l-106 -46q26 -38 50.5 -83.5t44.5 -96.5zM300 121q56 0 81 34t25 111q0 81 -25 116.5t-81 35.5t-81 -35.5t-25 -116.5q0 -77 25 -111t81 -34z" />
    <glyph glyph-name="lslash" unicode="&#x142;" horiz-adv-x="420" 
d="M284 377v-375q-12 -3 -28.5 -5.5t-36.5 -2.5q-36 0 -61.5 19t-25.5 59v240l-81 -35q-9 11 -14.5 22l-12.5 25q-13 27 -17 51l125 54v366q18 5 36 6.5t40 1.5t40 -1.5t36 -6.5v-300l84 37q8 -11 14 -21.5t12 -24.5q7 -15 12 -27.5t7 -26.5z" />
    <glyph glyph-name="ntilde" unicode="&#xf1;" horiz-adv-x="602" 
d="M362 571q89 0 134 -55t45 -164v-348q-18 -5 -36 -6.5t-40 -1.5t-40 1.5t-36 6.5v325q0 54 -16.5 77t-56.5 23q-23 0 -41.5 -8.5t-31 -28t-19.5 -51t-7 -78.5v-259q-18 -5 -36 -6.5t-40 -1.5t-40 1.5t-36 6.5v547q16 5 31.5 6.5t34.5 1.5t34.5 -1.5t31.5 -6.5l9 -69
q28 43 67.5 66t88.5 23zM469 760q14 -4 24.5 -8t20.5 -9q-14 -66 -51 -97t-88 -31q-22 0 -39.5 5t-32.5 13q-18 8 -34 15.5t-32 7.5q-37 0 -50 -41q-24 1 -48 10q-14 4 -24.5 8t-20.5 9q15 66 51.5 97t85.5 31q28 0 49 -8.5t39 -16.5q14 -7 26 -11.5t24 -4.5q18 0 31.5 9
t20.5 32q24 -1 48 -10z" />
    <glyph glyph-name="ograve" unicode="&#xf2;" horiz-adv-x="616" 
d="M308 -16q-133 0 -201 77t-68 216q0 143 67.5 218.5t201.5 75.5q135 0 202 -76.5t67 -217.5q0 -142 -68.5 -217.5t-200.5 -75.5zM308 120q33 0 54 11.5t33 32.5t16.5 49.5t4.5 63.5q0 36 -5 65t-17 49.5t-33 31.5t-53 11q-33 0 -54 -11.5t-33 -32.5t-16.5 -50t-4.5 -63
q0 -36 5 -65t17 -49.5t33 -31.5t53 -11zM377 619q-12 -5 -24.5 -6.5t-27.5 -1.5t-27.5 1.5t-24.5 6.5l-115 199q16 5 32 6.5t36 1.5t36 -1.5t32 -6.5z" />
    <glyph glyph-name="oacute" unicode="&#xf3;" horiz-adv-x="616" 
d="M308 -16q-133 0 -201 77t-68 216q0 143 67.5 218.5t201.5 75.5q135 0 202 -76.5t67 -217.5q0 -142 -68.5 -217.5t-200.5 -75.5zM308 120q33 0 54 11.5t33 32.5t16.5 49.5t4.5 63.5q0 36 -5 65t-17 49.5t-33 31.5t-53 11q-33 0 -54 -11.5t-33 -32.5t-16.5 -50t-4.5 -63
q0 -36 5 -65t17 -49.5t33 -31.5t53 -11zM400 826q20 0 36 -1.5t32 -6.5l-116 -199q-12 -5 -24.5 -6.5t-27.5 -1.5t-27.5 1.5t-24.5 6.5l84 199q16 5 32 6.5t36 1.5z" />
    <glyph glyph-name="ocircumflex" unicode="&#xf4;" horiz-adv-x="616" 
d="M308 -16q-133 0 -201 77t-68 216q0 143 67.5 218.5t201.5 75.5q135 0 202 -76.5t67 -217.5q0 -142 -68.5 -217.5t-200.5 -75.5zM308 120q33 0 54 11.5t33 32.5t16.5 49.5t4.5 63.5q0 36 -5 65t-17 49.5t-33 31.5t-53 11q-33 0 -54 -11.5t-33 -32.5t-16.5 -50t-4.5 -63
q0 -36 5 -65t17 -49.5t33 -31.5t53 -11zM468 618q-12 -5 -24 -6.5t-26 -1.5q-15 0 -27 1.5t-24 6.5l-60 114l-59 -114q-12 -5 -24 -6.5t-26 -1.5q-15 0 -27 1.5t-24 6.5l86 200q18 5 35.5 6.5t39.5 1.5t39.5 -1.5t35.5 -6.5z" />
    <glyph glyph-name="otilde" unicode="&#xf5;" horiz-adv-x="616" 
d="M308 -16q-133 0 -201 77t-68 216q0 143 67.5 218.5t201.5 75.5q135 0 202 -76.5t67 -217.5q0 -142 -68.5 -217.5t-200.5 -75.5zM308 120q33 0 54 11.5t33 32.5t16.5 49.5t4.5 63.5q0 36 -5 65t-17 49.5t-33 31.5t-53 11q-33 0 -54 -11.5t-33 -32.5t-16.5 -50t-4.5 -63
q0 -36 5 -65t17 -49.5t33 -31.5t53 -11zM474 760q14 -4 24.5 -8t20.5 -9q-14 -66 -51 -97t-88 -31q-22 0 -39.5 5t-32.5 13q-18 8 -34 15.5t-32 7.5q-37 0 -50 -41q-24 1 -48 10q-14 4 -24.5 8t-20.5 9q15 66 51.5 97t85.5 31q28 0 49 -8.5t39 -16.5q14 -7 26 -11.5t24 -4.5
q18 0 31.5 9t20.5 32q24 -1 48 -10z" />
    <glyph glyph-name="odieresis" unicode="&#xf6;" horiz-adv-x="616" 
d="M308 -16q-133 0 -201 77t-68 216q0 143 67.5 218.5t201.5 75.5q135 0 202 -76.5t67 -217.5q0 -142 -68.5 -217.5t-200.5 -75.5zM308 120q33 0 54 11.5t33 32.5t16.5 49.5t4.5 63.5q0 36 -5 65t-17 49.5t-33 31.5t-53 11q-33 0 -54 -11.5t-33 -32.5t-16.5 -50t-4.5 -63
q0 -36 5 -65t17 -49.5t33 -31.5t53 -11zM200 616q-20 0 -37.5 1.5t-34.5 6.5q-7 28 -7 62t7 62q17 5 34.5 6.5t37.5 1.5t37.5 -1.5t34.5 -6.5q7 -28 7 -62t-7 -62q-17 -5 -34.5 -6.5t-37.5 -1.5zM416 616q-20 0 -37.5 1.5t-34.5 6.5q-7 28 -7 62t7 62q17 5 34.5 6.5
t37.5 1.5t37.5 -1.5t34.5 -6.5q7 -28 7 -62t-7 -62q-17 -5 -34.5 -6.5t-37.5 -1.5z" />
    <glyph glyph-name="oslash" unicode="&#xf8;" horiz-adv-x="618" 
d="M516 488q62 -76 62 -211q0 -142 -68.5 -217.5t-200.5 -75.5q-61 0 -110 17l-53 -80q-14 5 -26 11t-26 14t-24 15.5t-20 15.5l56 86q-66 75 -66 214q0 143 67.5 218.5t201.5 75.5q64 0 116 -19l47 71q14 -4 25 -8.5t25 -12.5q15 -9 25.5 -16.5t20.5 -18.5zM201 277
q0 -17 1 -32.5t3 -29.5l141 214q-18 5 -37 5q-33 0 -54 -11.5t-33 -32.5t-16.5 -50t-4.5 -63zM309 120q33 0 54 11.5t33 32.5t16.5 49.5t4.5 63.5q0 30 -3 54l-136 -208q13 -3 31 -3z" />
    <glyph glyph-name="oe" unicode="&#x153;" horiz-adv-x="950" 
d="M711 112q46 0 86.5 8t70.5 25q18 -19 30 -50q13 -29 16 -57q-53 -28 -110.5 -41t-112.5 -13q-72 0 -124.5 23t-83.5 65q-31 -42 -77 -65t-107 -23q-65 0 -113.5 22t-81 61t-49 92.5t-16.5 117.5t16.5 118t49 93t81 61t113.5 22q62 0 108.5 -22.5t77.5 -63.5q31 42 77 64
t111 22q59 0 102.5 -20t72 -56.5t42.5 -88t14 -115.5q0 -20 -0.5 -36t-1.5 -23h-344q5 -66 43.5 -93t109.5 -27zM759 326q-2 51 -26 82.5t-72 31.5q-45 0 -74 -30.5t-30 -83.5h202zM299 121q23 0 42.5 6.5t33.5 24t22 48t8 77.5q0 48 -8 79t-22 48t-33.5 23.5t-42.5 6.5
q-24 0 -43.5 -6.5t-33.5 -23.5t-21.5 -48t-7.5 -79q0 -47 7.5 -77.5t21.5 -48t33.5 -24t43.5 -6.5z" />
    <glyph glyph-name="thorn" unicode="&#xfe;" horiz-adv-x="626" 
d="M369 571q59 0 100.5 -23t67 -63t37 -93.5t11.5 -114.5q0 -66 -12.5 -120.5t-38.5 -92.5t-67 -59t-98 -21q-50 0 -87.5 16t-64.5 45v-269q-18 -5 -36 -6.5t-40 -1.5t-40 1.5t-36 6.5v1015q18 5 36 6.5t40 1.5t40 -1.5t36 -6.5v-285q27 31 64.5 48t87.5 17zM319 120
q33 0 53.5 11.5t32 32.5t16 49.5t4.5 63.5q0 34 -4.5 63t-16.5 50t-32.5 32.5t-52.5 11.5q-60 0 -84.5 -39.5t-24.5 -117.5q0 -79 29 -118t80 -39z" />
    <glyph glyph-name="scaron" unicode="&#x161;" horiz-adv-x="511" 
d="M290 339q50 -11 86 -24t59.5 -33t34.5 -48.5t11 -69.5q0 -44 -16 -77.5t-45 -56t-69 -34.5t-89 -12q-31 0 -58.5 2t-54 7t-53.5 14t-57 23q0 33 13 66q7 17 14 31t18 26q26 -12 48 -19.5t41.5 -12t39 -6t40.5 -1.5q42 0 59 10.5t17 32.5q0 11 -4.5 19.5t-17 15t-35 13
t-57.5 13.5q-88 18 -128 59.5t-40 110.5q0 85 54.5 134t160.5 49q55 0 100 -10.5t90 -32.5q1 -16 -2 -30.5t-9 -32.5q-11 -31 -32 -56q-28 14 -65 23t-69 9q-39 0 -61 -10t-22 -35q0 -14 5.5 -22.5t17.5 -14.5t30.5 -10.5t44.5 -9.5zM374 826q15 0 27 -1.5t24 -6.5l-86 -200
q-18 -5 -35.5 -6.5t-39.5 -1.5t-39.5 1.5t-35.5 6.5l-85 200q12 5 24 6.5t26 1.5q15 0 27 -1.5t24 -6.5l60 -114l59 114q12 5 24 6.5t26 1.5z" />
    <glyph glyph-name="germandbls" unicode="&#xdf;" horiz-adv-x="640" 
d="M521 340q16 -12 32.5 -26t29 -33t20.5 -44t8 -57q0 -53 -16.5 -90.5t-43.5 -60.5t-61 -33.5t-68 -10.5q-28 0 -54.5 4.5t-49.5 10.5t-41.5 13.5t-30.5 13.5q0 17 1 29.5t5 27.5q5 16 10 28.5t13 23.5q10 -3 25.5 -7t32 -7t33 -5.5t28.5 -2.5q30 0 45.5 13.5t15.5 43.5
q0 14 -9 24.5t-23.5 20.5t-32.5 20t-36 23q-28 20 -48.5 50t-20.5 79q0 36 13.5 65t30.5 53q18 27 34 50.5t16 47.5q0 38 -21.5 54t-57.5 16q-11 0 -25 -2t-27 -11t-22 -26t-9 -47v-584q-18 -5 -36 -6.5t-40 -1.5t-40 1.5t-36 6.5v589q0 69 21 111.5t55 66t77 32t87 8.5
q46 0 88 -11t73.5 -33.5t50 -56t18.5 -79.5q0 -38 -13 -67t-30 -52q-20 -27 -37.5 -47.5t-17.5 -39.5q0 -13 7 -24t19 -20.5t27 -19.5t31 -21z" />
    <glyph glyph-name="ugrave" unicode="&#xf9;" horiz-adv-x="592" 
d="M451 559q22 0 40 -1.5t36 -6.5v-547q-16 -5 -31.5 -6.5t-34.5 -1.5t-34.5 1.5t-31.5 6.5l-8 67q-28 -42 -66 -64.5t-86 -22.5q-87 0 -130.5 55t-43.5 164v348q18 5 36 6.5t40 1.5t40 -1.5t36 -6.5v-325q0 -54 16.5 -77t51.5 -23q22 0 39.5 8.5t29.5 28t18.5 51t6.5 78.5
v259q18 5 36 6.5t40 1.5zM358 619q-12 -5 -24.5 -6.5t-27.5 -1.5t-27.5 1.5t-24.5 6.5l-115 199q16 5 32 6.5t36 1.5t36 -1.5t32 -6.5z" />
    <glyph glyph-name="uacute" unicode="&#xfa;" horiz-adv-x="592" 
d="M451 559q22 0 40 -1.5t36 -6.5v-547q-16 -5 -31.5 -6.5t-34.5 -1.5t-34.5 1.5t-31.5 6.5l-8 67q-28 -42 -66 -64.5t-86 -22.5q-87 0 -130.5 55t-43.5 164v348q18 5 36 6.5t40 1.5t40 -1.5t36 -6.5v-325q0 -54 16.5 -77t51.5 -23q22 0 39.5 8.5t29.5 28t18.5 51t6.5 78.5
v259q18 5 36 6.5t40 1.5zM381 826q20 0 36 -1.5t32 -6.5l-116 -199q-12 -5 -24.5 -6.5t-27.5 -1.5t-27.5 1.5t-24.5 6.5l84 199q16 5 32 6.5t36 1.5z" />
    <glyph glyph-name="ucircumflex" unicode="&#xfb;" horiz-adv-x="592" 
d="M451 559q22 0 40 -1.5t36 -6.5v-547q-16 -5 -31.5 -6.5t-34.5 -1.5t-34.5 1.5t-31.5 6.5l-8 67q-28 -42 -66 -64.5t-86 -22.5q-87 0 -130.5 55t-43.5 164v348q18 5 36 6.5t40 1.5t40 -1.5t36 -6.5v-325q0 -54 16.5 -77t51.5 -23q22 0 39.5 8.5t29.5 28t18.5 51t6.5 78.5
v259q18 5 36 6.5t40 1.5zM449 618q-12 -5 -24 -6.5t-26 -1.5q-15 0 -27 1.5t-24 6.5l-60 114l-59 -114q-12 -5 -24 -6.5t-26 -1.5q-15 0 -27 1.5t-24 6.5l86 200q18 5 35.5 6.5t39.5 1.5t39.5 -1.5t35.5 -6.5z" />
    <glyph glyph-name="udieresis" unicode="&#xfc;" horiz-adv-x="592" 
d="M451 559q22 0 40 -1.5t36 -6.5v-547q-16 -5 -31.5 -6.5t-34.5 -1.5t-34.5 1.5t-31.5 6.5l-8 67q-28 -42 -66 -64.5t-86 -22.5q-87 0 -130.5 55t-43.5 164v348q18 5 36 6.5t40 1.5t40 -1.5t36 -6.5v-325q0 -54 16.5 -77t51.5 -23q22 0 39.5 8.5t29.5 28t18.5 51t6.5 78.5
v259q18 5 36 6.5t40 1.5zM181 616q-20 0 -37.5 1.5t-34.5 6.5q-7 28 -7 62t7 62q17 5 34.5 6.5t37.5 1.5t37.5 -1.5t34.5 -6.5q7 -28 7 -62t-7 -62q-17 -5 -34.5 -6.5t-37.5 -1.5zM397 616q-20 0 -37.5 1.5t-34.5 6.5q-7 28 -7 62t7 62q17 5 34.5 6.5t37.5 1.5t37.5 -1.5
t34.5 -6.5q7 -28 7 -62t-7 -62q-17 -5 -34.5 -6.5t-37.5 -1.5z" />
    <glyph glyph-name="yacute" unicode="&#xfd;" horiz-adv-x="592" 
d="M451 559q22 0 40 -1.5t36 -6.5v-554q0 -74 -24 -120.5t-60.5 -73.5t-79.5 -37t-82 -10q-42 0 -75 3t-60 9t-50 14.5t-44 20.5q0 31 10 62q6 17 12 31t15 27q33 -17 70.5 -29t88.5 -12q24 0 46.5 4t40.5 16t29 35t11 61v78q-26 -32 -62 -49t-78 -17q-43 0 -75.5 10.5
t-54.5 35.5t-33 67t-11 106v322q18 5 36 6.5t40 1.5t40 -1.5t36 -6.5v-299q0 -54 16.5 -77t51.5 -23q44 0 69 30.5t25 109.5v259q18 5 36 6.5t40 1.5zM386 826q20 0 36 -1.5t32 -6.5l-116 -199q-12 -5 -24.5 -6.5t-27.5 -1.5t-27.5 1.5t-24.5 6.5l84 199q16 5 32 6.5t36 1.5
z" />
    <glyph glyph-name="ydieresis" unicode="&#xff;" horiz-adv-x="592" 
d="M451 559q22 0 40 -1.5t36 -6.5v-554q0 -74 -24 -120.5t-60.5 -73.5t-79.5 -37t-82 -10q-42 0 -75 3t-60 9t-50 14.5t-44 20.5q0 31 10 62q6 17 12 31t15 27q33 -17 70.5 -29t88.5 -12q24 0 46.5 4t40.5 16t29 35t11 61v78q-26 -32 -62 -49t-78 -17q-43 0 -75.5 10.5
t-54.5 35.5t-33 67t-11 106v322q18 5 36 6.5t40 1.5t40 -1.5t36 -6.5v-299q0 -54 16.5 -77t51.5 -23q44 0 69 30.5t25 109.5v259q18 5 36 6.5t40 1.5zM186 616q-20 0 -37.5 1.5t-34.5 6.5q-7 28 -7 62t7 62q17 5 34.5 6.5t37.5 1.5t37.5 -1.5t34.5 -6.5q7 -28 7 -62t-7 -62
q-17 -5 -34.5 -6.5t-37.5 -1.5zM402 616q-20 0 -37.5 1.5t-34.5 6.5q-7 28 -7 62t7 62q17 5 34.5 6.5t37.5 1.5t37.5 -1.5t34.5 -6.5q7 -28 7 -62t-7 -62q-17 -5 -34.5 -6.5t-37.5 -1.5z" />
    <glyph glyph-name="zcaron" unicode="&#x17e;" horiz-adv-x="539" 
d="M493 130q5 -16 6.5 -31t1.5 -34t-1.5 -34t-6.5 -31h-447q-5 14 -6.5 27t-1.5 30t1.5 30t6.5 27l253 311h-248q-5 16 -6.5 31t-1.5 34t1.5 34t6.5 31h437q5 -21 6.5 -37t1.5 -30q0 -35 -18 -59l-1 -1q-2 -2 -2 -3l-239 -295h257v0zM380 826q15 0 27 -1.5t24 -6.5l-86 -200
q-18 -5 -35.5 -6.5t-39.5 -1.5t-39.5 1.5t-35.5 6.5l-85 200q12 5 24 6.5t26 1.5q15 0 27 -1.5t24 -6.5l60 -114l59 114q12 5 24 6.5t26 1.5z" />
    <glyph glyph-name="a.ss01" horiz-adv-x="626" 
d="M495 563q19 0 34.5 -1.5t31.5 -6.5v-555q-16 -5 -31.5 -6.5t-34.5 -1.5t-34.5 1.5t-31.5 6.5l-8 64q-27 -38 -67.5 -59t-96.5 -21q-59 0 -100.5 23t-67 63t-37 93.5t-11.5 114.5q0 66 12.5 120.5t38.5 92.5t67 59t98 21q56 0 97 -20t68 -56l7 60q16 5 31.5 6.5t34.5 1.5z
M307 121q60 0 84.5 39.5t24.5 117.5q0 79 -29 118t-80 39q-33 0 -53.5 -11.5t-32 -32.5t-16 -50t-4.5 -63q0 -35 4.5 -63.5t16.5 -49.5t32.5 -32.5t52.5 -11.5z" />
    <glyph glyph-name="ordfeminine" unicode="&#xaa;" horiz-adv-x="522" 
d="M251 742q29 0 64 -5.5t65 -26t50.5 -60t20.5 -107.5v-276q-24 -6 -50 -6q-25 0 -49 6l-10 59q-18 -26 -53 -48t-94 -22q-30 0 -57.5 9t-49 27.5t-34.5 47t-13 67.5q0 43 17 71t44 44t59.5 22.5t64.5 6.5q45 0 92 -14v25q0 37 -22.5 50.5t-57.5 13.5q-37 0 -72 -4.5
t-63 -15.5q-16 20 -26 48q-5 14 -7.5 26t-2.5 24q34 15 83.5 26.5t100.5 11.5zM228 358q34 0 60 21.5t30 75.5q-20 6 -42 8.5t-43 2.5q-37 0 -51 -17t-14 -38q0 -20 13.5 -36.5t46.5 -16.5z" />
    <glyph glyph-name="ordmasculine" unicode="&#xba;" horiz-adv-x="540" 
d="M270 252q-222 0 -222 246q0 245 222 245t222 -245q0 -246 -222 -246zM270 374q44 0 63.5 29t19.5 95t-19.5 95t-63.5 29t-63.5 -29t-19.5 -95t19.5 -95t63.5 -29z" />
    <glyph glyph-name="ampersand" unicode="&#x26;" horiz-adv-x="746" 
d="M750 5q-21 -8 -42.5 -10.5t-47.5 -2.5t-47 2.5t-42 10.5h1l-38 40q-41 -28 -90 -43.5t-107 -15.5q-141 0 -214.5 53.5t-73.5 153.5q0 41 9 71.5t26 53t43 39t60 30.5q-42 36 -68.5 72.5t-26.5 90.5q0 43 14 78.5t42.5 61.5t72 40.5t102.5 14.5q109 0 168 -47.5t59 -136.5
q0 -42 -8 -73t-25.5 -55t-44.5 -42t-66 -33q17 -13 29 -27l91 -94q11 34 17 72l11 71q17 6 34 8t37 2t37 -2t34 -8l-15 -91q-14 -85 -58 -152zM323 618q-39 0 -56.5 -19t-17.5 -61q0 -33 19.5 -58t50.5 -50q45 17 63 42t18 67q0 79 -77 79zM336 119q65 0 108 20l-120 126
q-13 14 -25.5 26t-25.5 23q-25 -11 -39 -22.5t-21 -24t-8.5 -26.5t-1.5 -30q0 -43 30.5 -67.5t102.5 -24.5z" />
    <glyph glyph-name="period" unicode="." horiz-adv-x="272" 
d="M136 -5q-22 0 -40 2t-36 7q-5 17 -6.5 34.5t-1.5 39.5q0 21 1.5 38.5t6.5 34.5q18 5 36 7t40 2t40 -2t36 -7q5 -17 6.5 -34.5t1.5 -38.5q0 -22 -1.5 -39.5t-6.5 -34.5q-18 -5 -36 -7t-40 -2z" />
    <glyph glyph-name="comma" unicode="," horiz-adv-x="272" 
d="M212 151q5 -17 6.5 -34.5t1.5 -38.5q0 -22 -2 -40.5t-12 -43.5l-50 -126q-20 -8 -47 -8t-47 8l32 129q-9 2 -17.5 3.5t-16.5 3.5q-5 17 -6.5 34.5t-1.5 39.5q0 21 1.5 38.5t6.5 34.5q18 5 36 7t40 2t40 -2t36 -7z" />
    <glyph glyph-name="colon" unicode=":" horiz-adv-x="288" 
d="M144 379q-22 0 -40 2t-36 7q-5 17 -6.5 34.5t-1.5 39.5q0 21 1.5 38.5t6.5 34.5q18 5 36 7t40 2t40 -2t36 -7q5 -17 6.5 -34.5t1.5 -38.5q0 -22 -1.5 -39.5t-6.5 -34.5q-18 -5 -36 -7t-40 -2zM144 -5q-22 0 -40 2t-36 7q-5 17 -6.5 34.5t-1.5 39.5q0 21 1.5 38.5
t6.5 34.5q18 5 36 7t40 2t40 -2t36 -7q5 -17 6.5 -34.5t1.5 -38.5q0 -22 -1.5 -39.5t-6.5 -34.5q-18 -5 -36 -7t-40 -2z" />
    <glyph glyph-name="semicolon" unicode=";" horiz-adv-x="294" 
d="M145 379q-22 0 -40 2t-36 7q-5 17 -6.5 34.5t-1.5 39.5q0 21 1.5 38.5t6.5 34.5q18 5 36 7t40 2t40 -2t36 -7q5 -17 6.5 -34.5t1.5 -38.5q0 -22 -1.5 -39.5t-6.5 -34.5q-18 -5 -36 -7t-40 -2zM224 151q5 -17 6.5 -34.5t1.5 -38.5q0 -22 -2 -40.5t-12 -43.5l-50 -126
q-20 -8 -47 -8t-47 8l32 129q-9 2 -17.5 3.5t-16.5 3.5q-5 17 -6.5 34.5t-1.5 39.5q0 21 1.5 38.5t6.5 34.5q18 5 36 7t40 2t40 -2t36 -7z" />
    <glyph glyph-name="ellipsis" unicode="&#x2026;" horiz-adv-x="786" 
d="M136 -5q-22 0 -40 2t-36 7q-5 17 -6.5 34.5t-1.5 39.5q0 21 1.5 38.5t6.5 34.5q18 5 36 7t40 2t40 -2t36 -7q5 -17 6.5 -34.5t1.5 -38.5q0 -22 -1.5 -39.5t-6.5 -34.5q-18 -5 -36 -7t-40 -2zM393 -5q-22 0 -40 2t-36 7q-5 17 -6.5 34.5t-1.5 39.5q0 21 1.5 38.5t6.5 34.5
q18 5 36 7t40 2t40 -2t36 -7q5 -17 6.5 -34.5t1.5 -38.5q0 -22 -1.5 -39.5t-6.5 -34.5q-18 -5 -36 -7t-40 -2zM650 -5q-22 0 -40 2t-36 7q-5 17 -6.5 34.5t-1.5 39.5q0 21 1.5 38.5t6.5 34.5q18 5 36 7t40 2t40 -2t36 -7q5 -17 6.5 -34.5t1.5 -38.5q0 -22 -1.5 -39.5
t-6.5 -34.5q-18 -5 -36 -7t-40 -2z" />
    <glyph glyph-name="exclam" unicode="!" horiz-adv-x="295" 
d="M148 206q-19 0 -34 2t-31 7l-11 514q18 5 36 6.5t40 1.5t40 -1.5t36 -6.5l-11 -514q-15 -5 -30.5 -7t-34.5 -2zM145 140q19 0 34.5 -2t31.5 -7q5 -15 6.5 -30t1.5 -33q0 -19 -1.5 -34t-6.5 -30q-16 -5 -31.5 -7t-34.5 -2t-34.5 2t-31.5 7q-5 15 -6.5 30t-1.5 34
q0 18 1.5 33t6.5 30q16 5 31.5 7t34.5 2z" />
    <glyph glyph-name="exclamdown" unicode="&#xa1;" horiz-adv-x="285" 
d="M145 415q-19 0 -34.5 2t-31.5 7q-5 15 -6.5 30t-1.5 33q0 19 1.5 34t6.5 30q16 5 31.5 7t34.5 2t34.5 -2t31.5 -7q5 -15 6.5 -30t1.5 -34q0 -18 -1.5 -33t-6.5 -30q-16 -5 -31.5 -7t-34.5 -2zM142 349q19 0 34 -2t31 -7l11 -514q-18 -5 -36 -6.5t-40 -1.5t-40 1.5
t-36 6.5l11 514q15 5 30.5 7t34.5 2z" />
    <glyph glyph-name="question" unicode="?" horiz-adv-x="537" 
d="M248 745q121 0 188 -50t67 -143q0 -42 -10.5 -72.5t-27 -53t-37 -39.5t-40.5 -34q-31 -26 -54.5 -58.5t-23.5 -87.5q-17 -5 -34 -6.5t-37 -1.5q-21 0 -38 1.5t-34 6.5q0 48 9.5 82t24.5 58t34 40.5t37 30.5q29 21 50 42t21 59q0 40 -28.5 62t-80.5 22q-42 0 -80 -9
t-65 -26q-22 23 -39 55q-9 17 -15.5 32t-10.5 31q38 29 96 44t128 15zM238 140q19 0 34.5 -2t31.5 -7q5 -15 6.5 -30t1.5 -33q0 -19 -1.5 -34t-6.5 -30q-16 -5 -31.5 -7t-34.5 -2t-34.5 2t-31.5 7q-5 15 -6.5 30t-1.5 34q0 18 1.5 33t6.5 30q16 5 31.5 7t34.5 2z" />
    <glyph glyph-name="questiondown" unicode="&#xbf;" horiz-adv-x="531" 
d="M296 415q-19 0 -34.5 2t-31.5 7q-5 15 -6.5 30t-1.5 33q0 19 1.5 34t6.5 30q16 5 31.5 7t34.5 2t34.5 -2t31.5 -7q5 -15 6.5 -30t1.5 -34q0 -18 -1.5 -33t-6.5 -30q-16 -5 -31.5 -7t-34.5 -2zM484 -68q9 -17 15.5 -32t10.5 -31q-38 -29 -96 -44t-128 -15q-121 0 -188 50
t-67 143q0 42 10.5 72t27 52.5t37 40t40.5 34.5q15 13 29.5 27t25 31.5t17 38.5t6.5 49q17 5 34 6.5t37 1.5q21 0 38 -1.5t34 -6.5q0 -48 -9.5 -82t-24.5 -58t-34 -40.5t-37 -30.5q-29 -21 -50 -42t-21 -59q0 -40 28.5 -62t80.5 -22q42 0 80 9t65 26q22 -23 39 -55z" />
    <glyph glyph-name="quotesingle" unicode="'" horiz-adv-x="229" 
d="M115 733q18 0 33 -1.5t30 -6.5l-14 -280q-12 -5 -24 -6.5t-26 -1.5t-25.5 1.5t-23.5 6.5l-14 280q15 5 30 6.5t34 1.5z" />
    <glyph glyph-name="quotedbl" unicode="&#x22;" horiz-adv-x="415" 
d="M51 725q15 5 30 6.5t34 1.5q18 0 33 -1.5t30 -6.5l-14 -280q-12 -5 -24 -6.5t-26 -1.5t-25.5 1.5t-23.5 6.5zM301 733q18 0 33 -1.5t30 -6.5l-14 -280q-12 -5 -24 -6.5t-26 -1.5t-25.5 1.5t-23.5 6.5l-14 280q15 5 30 6.5t34 1.5z" />
    <glyph glyph-name="quoteleft" unicode="&#x2018;" horiz-adv-x="262" 
d="M205 598q5 -17 6.5 -34.5t1.5 -39.5q0 -21 -1.5 -38.5t-6.5 -34.5q-18 -5 -36 -7t-40 -2t-40 2t-36 7q-5 17 -6.5 34.5t-1.5 38.5q0 22 2 40.5t12 43.5l50 126q20 8 47 8t47 -8l-32 -129q9 -2 17.5 -3.5t16.5 -3.5z" />
    <glyph glyph-name="quoteright" unicode="&#x2019;" horiz-adv-x="257" 
d="M210 731q5 -17 6.5 -34.5t1.5 -38.5q0 -22 -2 -40.5t-12 -43.5l-50 -126q-20 -8 -47 -8t-47 8l32 129q-9 2 -17.5 3.5t-16.5 3.5q-5 17 -6.5 34.5t-1.5 39.5q0 21 1.5 38.5t6.5 34.5q18 5 36 7t40 2t40 -2t36 -7z" />
    <glyph glyph-name="quotedblleft" unicode="&#x201c;" horiz-adv-x="477" 
d="M171 603q9 -2 17.5 -3.5t16.5 -3.5q5 -17 6.5 -34.5t1.5 -39.5q0 -21 -1.5 -38.5t-6.5 -34.5q-18 -5 -36 -7t-40 -2t-40 2t-36 7q-5 17 -6.5 34.5t-1.5 38.5q0 22 2 40.5t12 43.5l50 126q20 8 47 8t47 -8zM419 596q5 -17 6.5 -34.5t1.5 -39.5q0 -21 -1.5 -38.5
t-6.5 -34.5q-18 -5 -36 -7t-40 -2t-40 2t-36 7q-5 17 -6.5 34.5t-1.5 38.5q0 22 2 40.5t12 43.5l50 126q20 8 47 8t47 -8l-32 -129q9 -2 17.5 -3.5t16.5 -3.5z" />
    <glyph glyph-name="quotedblright" unicode="&#x201d;" horiz-adv-x="473" 
d="M134 740q22 0 40 -2t36 -7q5 -17 6.5 -34.5t1.5 -38.5q0 -22 -2 -40.5t-12 -43.5l-50 -126q-20 -8 -47 -8t-47 8l32 129q-9 2 -17.5 3.5t-16.5 3.5q-5 17 -6.5 34.5t-1.5 39.5q0 21 1.5 38.5t6.5 34.5q18 5 36 7t40 2zM425 731q5 -17 6.5 -34.5t1.5 -38.5q0 -22 -2 -40.5
t-12 -43.5l-50 -126q-20 -8 -47 -8t-47 8l32 129q-9 2 -17.5 3.5t-16.5 3.5q-5 17 -6.5 34.5t-1.5 39.5q0 21 1.5 38.5t6.5 34.5q18 5 36 7t40 2t40 -2t36 -7z" />
    <glyph glyph-name="quotesinglbase" unicode="&#x201a;" horiz-adv-x="272" 
d="M212 151q5 -17 6.5 -34.5t1.5 -38.5q0 -22 -2 -40.5t-12 -43.5l-50 -126q-20 -8 -47 -8t-47 8l32 129q-9 2 -17.5 3.5t-16.5 3.5q-5 17 -6.5 34.5t-1.5 39.5q0 21 1.5 38.5t6.5 34.5q18 5 36 7t40 2t40 -2t36 -7z" />
    <glyph glyph-name="quotedblbase" unicode="&#x201e;" horiz-adv-x="487" 
d="M136 160q22 0 40 -2t36 -7q5 -17 6.5 -34.5t1.5 -38.5q0 -22 -2 -40.5t-12 -43.5l-50 -126q-20 -8 -47 -8t-47 8l32 129q-9 2 -17.5 3.5t-16.5 3.5q-5 17 -6.5 34.5t-1.5 39.5q0 21 1.5 38.5t6.5 34.5q18 5 36 7t40 2zM427 151q5 -17 6.5 -34.5t1.5 -38.5q0 -22 -2 -40.5
t-12 -43.5l-50 -126q-20 -8 -47 -8t-47 8l32 129q-9 2 -17.5 3.5t-16.5 3.5q-5 17 -6.5 34.5t-1.5 39.5q0 21 1.5 38.5t6.5 34.5q18 5 36 7t40 2t40 -2t36 -7z" />
    <glyph glyph-name="guilsinglleft" unicode="&#x2039;" horiz-adv-x="390" 
d="M330 225q5 -18 6.5 -36t1.5 -40q0 -21 -1.5 -39t-6.5 -36l-293 182q-5 17 -6.5 34t-1.5 37t1.5 37t6.5 34l293 182q5 -18 6.5 -36t1.5 -40t-1.5 -40t-6.5 -36l-164 -101z" />
    <glyph glyph-name="guilsinglright" unicode="&#x203a;" horiz-adv-x="390" 
d="M353 398q5 -17 6.5 -34t1.5 -37t-1.5 -37t-6.5 -34l-293 -182q-5 18 -6.5 36t-1.5 40t1.5 40t6.5 36l164 101l-164 102q-5 18 -6.5 36t-1.5 40q0 21 1.5 39t6.5 36l293 -182v0z" />
    <glyph glyph-name="guillemotleft" unicode="&#xab;" horiz-adv-x="732" 
d="M338 504q0 -22 -1.5 -40t-6.5 -36l-164 -101l164 -102q5 -18 6.5 -36t1.5 -40q0 -21 -1.5 -39t-6.5 -36l-293 182q-5 17 -6.5 34t-1.5 37t1.5 37t6.5 34l293 182q5 -18 6.5 -36t1.5 -40zM672 225q5 -18 6.5 -36t1.5 -40q0 -21 -1.5 -39t-6.5 -36l-293 182q-5 17 -6.5 34
t-1.5 37t1.5 37t6.5 34l293 182q5 -18 6.5 -36t1.5 -40t-1.5 -40t-6.5 -36l-164 -101z" />
    <glyph glyph-name="guillemotright" unicode="&#xbb;" horiz-adv-x="733" 
d="M353 398q5 -17 6.5 -34t1.5 -37t-1.5 -37t-6.5 -34l-293 -182q-5 18 -6.5 36t-1.5 40t1.5 40t6.5 36l164 101l-164 102q-5 18 -6.5 36t-1.5 40q0 21 1.5 39t6.5 36zM696 398q5 -17 6.5 -34t1.5 -37t-1.5 -37t-6.5 -34l-293 -182q-5 18 -6.5 36t-1.5 40t1.5 40t6.5 36
l164 101l-164 102q-5 18 -6.5 36t-1.5 40q0 21 1.5 39t6.5 36z" />
    <glyph glyph-name="hyphen" unicode="-" horiz-adv-x="467" 
d="M399 384q5 -16 6.5 -31t1.5 -34t-1.5 -34.5t-6.5 -31.5h-331q-5 16 -6.5 31t-1.5 34t1.5 34.5t6.5 31.5h331v0z" />
    <glyph glyph-name="uni00AD" unicode="&#xad;" horiz-adv-x="467" 
d="M399 384q5 -16 6.5 -31t1.5 -34t-1.5 -34.5t-6.5 -31.5h-331q-5 16 -6.5 31t-1.5 34t1.5 34.5t6.5 31.5h331v0z" />
    <glyph glyph-name="endash" unicode="&#x2013;" horiz-adv-x="641" 
d="M573 384q5 -16 6.5 -31t1.5 -34t-1.5 -34.5t-6.5 -31.5h-505q-5 16 -6.5 31t-1.5 34t1.5 34.5t6.5 31.5h505v0z" />
    <glyph glyph-name="emdash" unicode="&#x2014;" horiz-adv-x="960" 
d="M892 384q5 -16 6.5 -31t1.5 -34t-1.5 -34.5t-6.5 -31.5h-824q-5 16 -6.5 31t-1.5 34t1.5 34.5t6.5 31.5h824v0z" />
    <glyph glyph-name="periodcentered" unicode="&#xb7;" horiz-adv-x="284" 
d="M142 286q-22 0 -40 2t-36 7q-5 17 -6.5 34.5t-1.5 39.5q0 21 1.5 38.5t6.5 34.5q18 5 36 7t40 2t40 -2t36 -7q5 -17 6.5 -34.5t1.5 -38.5q0 -22 -1.5 -39.5t-6.5 -34.5q-18 -5 -36 -7t-40 -2z" />
    <glyph glyph-name="bullet" unicode="&#x2022;" horiz-adv-x="456" 
d="M228 218q-39 0 -72 3t-65 13q-8 32 -11 63.5t-3 71.5q0 39 3 71.5t11 63.5q32 10 65 13t72 3t72 -3t65 -13q8 -31 11 -63.5t3 -71.5q0 -40 -3 -71.5t-11 -63.5q-32 -10 -65 -13t-72 -3z" />
    <glyph glyph-name="uni2219" unicode="&#x2219;" horiz-adv-x="290" 
d="M145 286q-22 0 -40 2t-36 7q-5 17 -6.5 34.5t-1.5 39.5q0 21 1.5 38.5t6.5 34.5q18 5 36 7t40 2t40 -2t36 -7q5 -17 6.5 -34.5t1.5 -38.5q0 -22 -1.5 -39.5t-6.5 -34.5q-18 -5 -36 -7t-40 -2z" />
    <glyph glyph-name="underscore" unicode="_" horiz-adv-x="542" 
d="M542 -72q5 -16 6.5 -31t1.5 -34t-1.5 -34.5t-6.5 -31.5v-1h-542q-5 16 -6.5 31t-1.5 34t1.5 34.5t6.5 31.5v1h542v0z" />
    <glyph glyph-name="slash" unicode="/" horiz-adv-x="409" 
d="M324 770q17 0 32 -1.5t30 -6.5l-239 -865q-15 -5 -30 -6.5t-32 -1.5q-18 0 -33 1.5t-30 6.5l239 865q15 5 30 6.5t33 1.5z" />
    <glyph glyph-name="backslash" unicode="\" horiz-adv-x="416" 
d="M394 -103q-16 -5 -31.5 -6.5t-34.5 -1.5t-34.5 1.5t-31.5 6.5h1l-240 865q16 5 31.5 6.5t35.5 1.5q19 0 34.5 -1.5t31.5 -6.5z" />
    <glyph glyph-name="uni2215" unicode="&#x2215;" horiz-adv-x="421" 
d="M362 770q17 0 32 -1.5t30 -6.5l-302 -796q-15 -5 -30 -6.5t-33 -1.5q-17 0 -32 1.5t-30 6.5l302 796q15 5 30 6.5t33 1.5z" />
    <glyph glyph-name="fraction" unicode="&#x2044;" horiz-adv-x="421" 
d="M362 770q17 0 32 -1.5t30 -6.5l-302 -796q-15 -5 -30 -6.5t-33 -1.5q-17 0 -32 1.5t-30 6.5l302 796q15 5 30 6.5t33 1.5z" />
    <glyph glyph-name="bar" unicode="|" horiz-adv-x="296" 
d="M148 835q20 0 36.5 -1.5t33.5 -6.5v-930q-17 -5 -33.5 -6.5t-36.5 -1.5t-36.5 1.5t-33.5 6.5v930q17 5 33.5 6.5t36.5 1.5z" />
    <glyph glyph-name="brokenbar" unicode="&#xa6;" horiz-adv-x="294" 
d="M147 835q20 0 36.5 -1.5t33.5 -6.5v-402q-17 -5 -33.5 -6.5t-36.5 -1.5t-36.5 1.5t-33.5 6.5v402q17 5 33.5 6.5t36.5 1.5zM77 296q17 5 33.5 6.5t36.5 1.5t36.5 -1.5t33.5 -6.5v-402q-17 -5 -33.5 -6.5t-36.5 -1.5t-36.5 1.5t-33.5 6.5v402z" />
    <glyph glyph-name="parenleft" unicode="(" horiz-adv-x="332" 
d="M316 786q-37 -52 -63 -102.5t-42.5 -102t-24 -105.5t-7.5 -114t7.5 -114t24 -105.5t42.5 -102t63 -102.5q-16 -19 -42 -37q-13 -9 -24.5 -15.5t-24.5 -11.5q-48 58 -83 115.5t-57.5 117t-33 122.5t-10.5 133t10.5 133t33 122.5t57.5 116.5t83 116q13 -5 24.5 -11.5
t24.5 -15.5t23 -17.5t19 -19.5z" />
    <glyph glyph-name="parenright" unicode=")" horiz-adv-x="332" 
d="M107 850q48 -59 83 -116t57.5 -116.5t33 -122.5t10.5 -133t-10.5 -133t-33 -122.5t-57.5 -117t-83 -115.5q-13 5 -24.5 11.5t-24.5 15.5t-23 17.5t-19 19.5q37 52 63 102.5t42.5 102t24 105.5t7.5 114t-7.5 114t-24 105.5t-42.5 102t-63 102.5q9 11 19 19.5t23 17.5
t24.5 15.5t24.5 11.5z" />
    <glyph glyph-name="bracketleft" unicode="[" horiz-adv-x="354" 
d="M316 23q5 -15 6.5 -30t1.5 -33q0 -17 -1.5 -32t-6.5 -30h-238v928h238q5 -15 6.5 -30t1.5 -33q0 -17 -1.5 -32t-6.5 -30h-108v-678h108z" />
    <glyph glyph-name="bracketright" unicode="]" horiz-adv-x="354" 
d="M276 826v-928h-238q-5 15 -6.5 30t-1.5 33q0 17 1.5 32t6.5 30h108v678h-108q-5 15 -6.5 30t-1.5 33q0 17 1.5 32t6.5 30h238z" />
    <glyph glyph-name="braceleft" unicode="{" horiz-adv-x="391" 
d="M261 103q0 -50 22 -73t72 -25q5 -14 6.5 -27t1.5 -30t-1.5 -30t-6.5 -27q-110 1 -170.5 54.5t-60.5 148.5v77q0 68 -23 99t-85 36q-5 14 -6.5 27t-1.5 30q0 16 1.5 29t6.5 27q62 4 85 33.5t23 98.5v79q0 95 60.5 149t170.5 55q5 -14 6.5 -27t1.5 -30t-1.5 -30t-6.5 -27
q-49 -3 -71.5 -26t-22.5 -73v-88q0 -31 -5 -59t-18.5 -50.5t-38 -38.5t-63.5 -23q39 -8 63 -23.5t38 -37.5t19 -50t5 -60v-88v0z" />
    <glyph glyph-name="braceright" unicode="}" horiz-adv-x="392" 
d="M376 419q5 -14 6.5 -27t1.5 -30q0 -16 -1.5 -29t-6.5 -27q-62 -4 -85 -33.5t-23 -98.5v-79q0 -95 -60.5 -149t-170.5 -55q-5 14 -6.5 27t-1.5 30t1.5 30t6.5 27q49 3 71.5 26t22.5 73v88q0 31 5 59t18.5 50.5t38 38t63.5 23.5q-39 8 -63 23.5t-38 37.5t-19 50t-5 60v88
q0 50 -22 73t-72 25q-5 14 -6.5 27t-1.5 30t1.5 30t6.5 27q110 -1 170.5 -54.5t60.5 -148.5v-77q0 -68 23 -99.5t85 -35.5z" />
    <glyph glyph-name="asterisk" unicode="*" horiz-adv-x="504" 
d="M334 492l96 -111q-19 -23 -49 -42q-15 -10 -28.5 -16.5t-28.5 -11.5l-72 122l-73 -123q-15 5 -28.5 11.5t-28.5 17.5q-29 19 -48 42l99 111l-143 29q1 16 3.5 31t8.5 32q5 17 11.5 31t15.5 27l136 -56l-15 143q16 5 31 6.5t34 1.5q18 0 33.5 -1.5t30.5 -6.5l-14 -143
l131 56q9 -13 15 -27t12 -31q5 -17 8 -32t3 -31z" />
    <glyph glyph-name="dagger" unicode="&#x2020;" 
d="M555 490q0 -19 -1.5 -34t-6.5 -31h-155v-585q-18 -5 -36 -6.5t-40 -1.5t-40 1.5t-36 6.5v585h-157q-5 16 -6.5 31t-1.5 34t1.5 34t6.5 31h157v170q18 5 36 6.5t40 1.5t40 -1.5t36 -6.5v-170h155q5 -16 6.5 -31t1.5 -34z" />
    <glyph glyph-name="daggerdbl" unicode="&#x2021;" 
d="M547 255q5 -16 6.5 -31t1.5 -34t-1.5 -34t-6.5 -31h-155v-285q-18 -5 -36 -6.5t-40 -1.5t-40 1.5t-36 6.5v285h-157q-5 16 -6.5 31t-1.5 34t1.5 34t6.5 31h157v170h-157q-5 16 -6.5 31t-1.5 34t1.5 34t6.5 31h157v170q18 5 36 6.5t40 1.5t40 -1.5t36 -6.5v-170h155
q5 -16 6.5 -31t1.5 -34t-1.5 -34t-6.5 -31h-155v-170h155z" />
    <glyph glyph-name="section" unicode="&#xa7;" horiz-adv-x="537" 
d="M445 243q47 -41 47 -99q0 -77 -57 -118.5t-162 -41.5q-58 0 -116 12.5t-107 35.5q0 31 13 64q7 17 14 30t18 25q44 -20 90.5 -30.5t88.5 -10.5q32 0 49 7.5t17 21.5q0 7 -4 13t-16 12.5t-34.5 13.5t-59.5 16q-78 18 -121 60t-43 108q0 38 8.5 69.5t24.5 56.5
q-43 40 -43 98q0 76 55 117.5t156 41.5q53 0 105 -11.5t95 -31.5q1 -16 -2 -30t-9 -31t-13.5 -29.5t-18.5 -24.5q-32 15 -69.5 23.5t-74.5 8.5q-35 0 -54 -8t-19 -24q0 -8 3 -14.5t13.5 -12.5t29.5 -11.5t52 -11.5q181 -36 181 -169q0 -73 -37 -125zM183 390
q0 -32 30.5 -53.5t87.5 -33.5q13 -2 24.5 -4.5t22.5 -6.5q6 11 9 22.5t3 22.5q0 33 -35 55t-99 36l-16 4l-16 4q-11 -22 -11 -46z" />
    <glyph glyph-name="paragraph" unicode="&#xb6;" horiz-adv-x="660" 
d="M575 729v-926q-16 -5 -32 -6.5t-36 -1.5t-36 1.5t-32 6.5v793h-76v-793q-16 -5 -32 -6.5t-36 -1.5t-36 1.5t-32 6.5v465q-100 6 -150.5 66t-50.5 163q0 112 57.5 172t166.5 60h325z" />
    <glyph glyph-name="copyright" unicode="&#xa9;" horiz-adv-x="920" 
d="M460 -102q-88 0 -165 33t-134 90t-90 134t-33 165t33 165t90 134t134 90t165 33t165 -33t134 -90t90 -134t33 -165t-33 -165t-90 -134t-134 -90t-165 -33zM460 -22q73 0 135 27t107.5 73.5t71.5 108.5t26 133t-26 133t-71.5 108.5t-107.5 73.5t-135 27t-135 -27
t-107.5 -73.5t-71.5 -108.5t-26 -133t26 -133t71.5 -108.5t107.5 -73.5t135 -27zM615 532q1 -21 -6 -46q-4 -12 -7.5 -21.5t-9.5 -18.5q-26 6 -57.5 11t-54.5 5t-44.5 -6t-38 -21t-27 -41.5t-10.5 -67.5q0 -40 8.5 -66.5t23 -42t34 -22t42.5 -6.5q35 0 69.5 7t62.5 15
q6 -9 10 -19t8 -22q3 -12 4 -22t1 -22q-12 -5 -30 -10.5t-39 -10.5t-44.5 -8.5t-45.5 -3.5q-110 0 -162.5 62t-52.5 171q0 53 15.5 96t44.5 73t70.5 46.5t94.5 16.5q22 0 44.5 -3t41.5 -7.5t33.5 -8.5t21.5 -7z" />
    <glyph glyph-name="registered" unicode="&#xae;" horiz-adv-x="920" 
d="M460 742q88 0 165 -33t134 -90t90 -134t33 -165t-33 -165t-90 -134t-134 -90t-165 -33t-165 33t-134 90t-90 134t-33 165t33 165t90 134t134 90t165 33zM460 -22q73 0 135 27t107.5 73.5t71.5 108.5t26 133t-26 133t-71.5 108.5t-107.5 73.5t-135 27t-135 -27
t-107.5 -73.5t-71.5 -108.5t-26 -133t26 -133t71.5 -108.5t107.5 -73.5t135 -27zM565 274q4 -5 10 -13t13 -17t13.5 -18t10.5 -15l70 -109q-15 -5 -30 -6.5t-33 -1.5t-33 1.5t-30 6.5l-87 151h-71v-151q-23 -8 -54 -8t-54 8v450h187q41 0 72 -11.5t52 -31.5t31.5 -47.5
t10.5 -59.5q0 -26 -7 -47t-18 -37t-25 -27t-28 -17zM473 340q26 0 43 14t17 45q0 29 -16 44t-44 15h-75v-118h75z" />
    <glyph glyph-name="trademark" unicode="&#x2122;" horiz-adv-x="807" 
d="M748 383q-20 -8 -48 -8t-48 8l-5 237l-58 -237q-16 -8 -37 -8t-37 8l-58 237l-5 -237q-20 -8 -48 -8t-48 8l17 346q14 5 29 6.5t32 1.5t32 -1.5t29 -6.5l58 -245l59 245q14 5 28.5 6.5t31.5 1.5t31 -1.5t28 -6.5zM334 729q8 -19 8 -45t-8 -45h-97v-256q-12 -5 -24.5 -6.5
t-26.5 -1.5q-15 0 -27.5 1.5t-24.5 6.5v256h-97q-8 19 -8 45t8 45h297z" />
    <glyph glyph-name="at" unicode="@" horiz-adv-x="980" 
d="M730 172q33 0 53.5 44.5t25.5 125.5q0 153 -83.5 236.5t-237.5 83.5q-76 0 -135.5 -23.5t-100.5 -68.5t-62.5 -110t-21.5 -148q0 -167 83.5 -257.5t236.5 -90.5q56 0 109.5 9t97.5 26v-2q15 -23 22 -48q8 -28 6 -54q-42 -22 -103.5 -33.5t-131.5 -11.5q-107 0 -190.5 31
t-140.5 90t-87 145.5t-30 196.5q0 111 30 197t87 145.5t140.5 90.5t190.5 31t190.5 -29t141 -84.5t87.5 -136.5t30 -184q0 -131 -61.5 -201.5t-173.5 -70.5q-28 0 -56 5t-52 14l-15 59q-43 -73 -133 -73q-84 0 -129 61t-45 173q0 111 45 171.5t129 60.5q82 0 127 -63l5 38
q8 3 21.5 4.5t28.5 1.5q40 0 60 -6l1 -342q21 -3 41 -3zM484 190q40 0 61.5 31.5t21.5 88.5t-21.5 88t-61.5 31q-38 0 -59 -31t-21 -88t21 -88.5t59 -31.5z" />
    <glyph glyph-name="numbersign" unicode="#" 
d="M477 440l-19 -152h109q8 -20 8 -47q0 -28 -8 -48h-121l-24 -189q-20 -8 -49 -8t-49 8l24 189h-108l-24 -189q-20 -8 -49 -8t-49 8l24 189h-110v-1q-8 20 -8 48t8 48h121l19 152h-111q-8 20 -8 48q0 27 8 47h123l24 190q20 8 49 8t49 -8l-24 -190h109l24 190q20 8 49 8
t49 -8l-24 -190h109q8 -20 8 -47q0 -28 -8 -48h-121zM379 440h-109l-19 -152h109z" />
    <glyph glyph-name="zero" unicode="0" 
d="M315 -13q-139 0 -207 93t-68 285q0 194 68 287t207 93t207 -93t68 -287q0 -192 -68 -285t-207 -93zM312 127q31 0 52.5 12.5t35 40.5t19.5 74t6 112q0 67 -6 112.5t-19.5 74t-35 41t-52.5 12.5t-52.5 -12.5t-35 -41t-19.5 -74t-6 -112.5q0 -66 6 -112t19.5 -74t35 -40.5
t52.5 -12.5z" />
    <glyph glyph-name="one" unicode="1" 
d="M546 126q5 -15 6.5 -30t1.5 -33t-1.5 -33t-6.5 -30h-431q-5 15 -6.5 30t-1.5 33t1.5 33t6.5 30h140v447l-120 -28l-33 129l194 51q14 4 27 6t30 2t30 -1.5t27 -6.5v-599h136zM135 544q-9 14 -14.5 29t-10.5 34q-5 18 -7 33.5t-1 32.5z" />
    <glyph glyph-name="two" unicode="2" 
d="M562 140q8 -30 8 -70t-8 -70h-486q-5 21 -7.5 49t-2.5 57q0 52 24 92.5t60 73.5t78 61.5t78 56t60 56.5t24 63q0 45 -26.5 69.5t-74.5 24.5q-47 0 -91.5 -13t-79.5 -36q-21 23 -39 55q-10 19 -16.5 35.5t-9.5 27.5q46 35 111.5 54t138.5 19q60 0 107 -15.5t79 -44.5
t49 -69.5t17 -89.5q0 -54 -20.5 -94.5t-53 -72.5t-71.5 -58.5t-76 -51.5t-67.5 -51t-44.5 -58h340v0z" />
    <glyph glyph-name="three" unicode="3" 
d="M421 394q28 -5 54.5 -18t46.5 -35.5t32 -56t12 -78.5q0 -110 -73 -164.5t-210 -54.5q-79 0 -137.5 21.5t-98.5 51.5q4 16 10.5 31t15.5 32q17 32 39 55q78 -52 157 -52q41 0 66.5 8t40 22t20 32t5.5 38q0 54 -30.5 77t-88.5 23h-102q-5 14 -7 28t-2 31t2 30.5t7 27.5h83
q60 0 89 18.5t29 64.5q0 48 -26.5 64t-74.5 16q-79 0 -157 -52q-22 23 -39 55q-9 17 -15.5 32t-10.5 31q40 30 98.5 51.5t137.5 21.5q58 0 104.5 -11t79.5 -34t50.5 -59t17.5 -87q0 -39 -10 -66.5t-27.5 -46t-40 -30t-47.5 -17.5z" />
    <glyph glyph-name="four" unicode="4" 
d="M599 213q0 -20 -1.5 -36t-6.5 -32h-93v-141q-18 -5 -36 -6.5t-40 -1.5t-40 1.5t-36 6.5v141h-314q-5 17 -6.5 34t-1.5 37t1.5 37t6.5 34l325 438q17 5 33.5 6t36.5 1t37 -1t34 -6v-444h93q5 -16 6.5 -32t1.5 -36zM346 281v234l-169 -234h169z" />
    <glyph glyph-name="five" unicode="5" 
d="M335 466q42 0 85.5 -10t79 -35.5t57.5 -69.5t22 -112q0 -71 -23 -120t-62 -79t-90 -43t-106 -13q-88 0 -148.5 22t-101.5 54q4 16 10.5 31t15.5 32q17 32 39 55q39 -23 78 -37.5t79 -14.5q69 0 106.5 28.5t37.5 82.5q0 48 -27.5 74t-78.5 26q-38 0 -63 -7t-51 -18
q-14 4 -27.5 9.5t-28.5 14.5q-15 8 -27 16t-23 19v358h439q5 -16 6.5 -31.5t1.5 -35.5t-1.5 -35.5t-6.5 -31.5h-284v-147q14 7 39 12.5t53 5.5z" />
    <glyph glyph-name="six" unicode="6" 
d="M373 460q107 0 166 -59.5t59 -170.5q0 -116 -70.5 -179.5t-198.5 -63.5q-144 0 -213 93t-69 285q0 194 77.5 287t226.5 93q59 0 108 -12t86 -29q-1 -16 -3.5 -31.5t-7.5 -33.5t-10 -32.5t-13 -28.5q-35 12 -78.5 19t-77.5 7q-38 0 -64.5 -9t-43.5 -30t-26.5 -55
t-12.5 -83q36 14 76 23.5t89 9.5zM336 122q53 0 81 28t28 79q0 50 -30 77t-84 27q-35 0 -67 -7.5t-57 -17.5q3 -50 11 -85.5t23 -58t38.5 -32.5t56.5 -10z" />
    <glyph glyph-name="seven" unicode="7" 
d="M564 729q6 -29 8.5 -51t2.5 -43q0 -25 -4.5 -42.5t-16.5 -38.5q-58 -80 -104.5 -151.5t-79 -138.5t-50 -132t-17.5 -132q-18 -5 -36 -6.5t-40 -1.5t-40 1.5t-36 6.5q0 80 19 154.5t54 146.5t84.5 144t110.5 148h-354q-5 16 -6.5 32t-1.5 36t1.5 36t6.5 32h499v0z" />
    <glyph glyph-name="eight" unicode="8" 
d="M442 392q30 -13 57.5 -30t48 -40t33 -53t12.5 -69q0 -214 -280 -214q-276 0 -276 207q0 40 10.5 70t28.5 52t42.5 37.5t51.5 27.5q-24 13 -45.5 29.5t-37 38.5t-24.5 49.5t-9 62.5q0 185 260 185q261 0 261 -184q0 -33 -10.5 -59t-28.5 -46t-42.5 -35.5t-51.5 -28.5z
M211 538q0 -20 9 -35t25 -27t37.5 -22t46.5 -19q38 16 63.5 39t25.5 65q0 74 -104 74q-103 0 -103 -75zM318 119q115 0 115 89q0 24 -11.5 42t-30.5 32t-45 25t-54 22q-43 -20 -71 -47t-28 -71q0 -92 125 -92z" />
    <glyph glyph-name="nine" unicode="9" 
d="M304 745q144 0 213 -93t69 -285q0 -194 -78.5 -287t-235.5 -93q-33 0 -64.5 4.5t-59.5 12t-51 16.5t-39 18q1 16 3.5 31.5t7.5 33.5t10 32.5t13 28.5q38 -14 82.5 -25t93.5 -11q38 0 66 9.5t47 30.5t29.5 55.5t14.5 84.5q-36 -14 -76 -25t-89 -11q-107 0 -166 59.5
t-59 170.5q0 116 70.5 179.5t198.5 63.5zM188 503q0 -50 30 -77t84 -27q35 0 67 6t57 17q-2 51 -10 86.5t-23 58t-38.5 33t-57.5 10.5q-53 0 -81 -28t-28 -79z" />
    <glyph glyph-name="uni00B9" unicode="&#xb9;" horiz-adv-x="382" 
d="M343 364q4 -11 5 -22.5t1 -25.5t-1 -25.5t-5 -22.5h-283q-4 11 -5 22.5t-1 25.5t1 25.5t5 22.5h86v249l-73 -18q-7 11 -11 22t-7 25q-4 14 -4.5 26.5t-0.5 24.5l129 34q22 5 43 5q9 0 18.5 -1t19.5 -4v-363h83v0z" />
    <glyph glyph-name="uni00B2" unicode="&#xb2;" horiz-adv-x="434" 
d="M377 377q4 -12 5 -24.5t1 -26.5t-1 -26.5t-5 -24.5h-318q-4 11 -5 22t-1 24q0 14 1 25t5 22q13 22 29 40t34 33q22 20 45 37t41 33.5t29.5 34.5t11.5 41q0 51 -66 51q-22 0 -47.5 -8t-51.5 -22q-16 17 -28 43q-6 13 -8.5 24t-4.5 24q32 21 75 32.5t90 11.5q78 0 122 -37
t44 -106q0 -44 -17 -74t-41 -52.5t-51.5 -39.5t-48.5 -35q-13 -10 -22 -22h183v0z" />
    <glyph glyph-name="uni00B3" unicode="&#xb3;" horiz-adv-x="439" 
d="M303 524q16 -3 31.5 -11t28 -21.5t20 -34t7.5 -49.5q0 -72 -50.5 -107.5t-135.5 -35.5q-47 0 -90 11.5t-75 32.5q2 13 4.5 24t8.5 24q12 26 28 43q29 -14 58 -22t54 -8q42 0 60 12t18 40q0 24 -15.5 36t-63.5 12h-42q-4 10 -5 20t-1 22t1 22t5 20h40q22 0 35 3.5t20.5 9
t10 13t2.5 16.5q0 20 -14 31t-52 11q-22 0 -49.5 -8t-53.5 -22q-16 17 -28 43q-6 13 -8.5 24t-4.5 24q32 21 75 32.5t90 11.5q37 0 67.5 -7t52.5 -21.5t34 -37.5t12 -56q0 -47 -22.5 -68t-52.5 -29z" />
    <glyph glyph-name="onequarter" unicode="&#xbc;" horiz-adv-x="976" 
d="M637 770q17 0 32 -1.5t30 -6.5l-302 -796q-15 -5 -30 -6.5t-33 -1.5q-17 0 -32 1.5t-30 6.5l302 796q15 5 30 6.5t33 1.5zM337 316q0 -14 -1 -25.5t-5 -22.5h-283q-4 11 -5 22.5t-1 25.5t1 25.5t5 22.5h86v249l-73 -18q-7 11 -11 22t-7 25q-4 14 -4.5 26.5t-0.5 24.5
l129 34q22 5 43 5q9 0 18.5 -1t19.5 -4v-363h83q4 -11 5 -22.5t1 -25.5zM949 131q0 -14 -1 -25.5t-4 -22.5h-59v-83q-14 -3 -27 -4t-29 -1q-17 0 -30 1t-27 4v83h-202q-3 12 -4 24t-1 26q0 15 1 27t4 24l206 272h1q25 6 54 6t55 -6h-1v-278h59q3 -11 4 -22t1 -25zM772 178
v117l-88 -117h88z" />
    <glyph glyph-name="onehalf" unicode="&#xbd;" horiz-adv-x="973" 
d="M633 770q17 0 32 -1.5t30 -6.5l-302 -796q-15 -5 -30 -6.5t-33 -1.5q-17 0 -32 1.5t-30 6.5l302 796q15 5 30 6.5t33 1.5zM333 316q0 -14 -1 -25.5t-5 -22.5h-283q-4 11 -5 22.5t-1 25.5t1 25.5t5 22.5h86v249l-73 -18q-7 11 -11 22t-7 25q-4 14 -4.5 26.5t-0.5 24.5
l129 34q22 5 43 5q9 0 18.5 -1t19.5 -4v-363h83q4 -11 5 -22.5t1 -25.5zM938 102q4 -12 5 -24.5t1 -26.5t-1 -26.5t-5 -24.5h-318q-4 11 -5 22t-1 24q0 14 1 25t5 22q13 22 29 40t34 33q22 20 45 37t41 33.5t29.5 34.5t11.5 41q0 51 -66 51q-22 0 -47.5 -8t-51.5 -22
q-16 17 -28 43q-6 13 -8.5 24t-4.5 24q32 21 75 32.5t90 11.5q78 0 122 -37t44 -106q0 -44 -17 -74t-41 -52.5t-51.5 -39.5t-48.5 -35q-13 -10 -22 -22h183z" />
    <glyph glyph-name="threequarters" unicode="&#xbe;" horiz-adv-x="999" 
d="M660 770q17 0 32 -1.5t30 -6.5l-302 -796q-15 -5 -30 -6.5t-33 -1.5q-17 0 -32 1.5t-30 6.5l302 796q15 5 30 6.5t33 1.5zM381 408q0 -72 -50.5 -107.5t-135.5 -35.5q-47 0 -90 11.5t-75 32.5q2 13 4.5 24t8.5 24q12 26 28 43q29 -14 58 -22t54 -8q42 0 60 12t18 40
q0 24 -15.5 36t-63.5 12h-42q-4 10 -5 20t-1 22t1 22t5 20h40q22 0 35 3.5t20.5 9t10 13t2.5 16.5q0 20 -14 31t-52 11q-22 0 -49.5 -8t-53.5 -22q-16 17 -28 43q-6 13 -8.5 24t-4.5 24q32 21 75 32.5t90 11.5q37 0 67.5 -7t52.5 -21.5t34 -37.5t12 -56q0 -47 -22.5 -68
t-52.5 -29q16 -3 31.5 -11t28 -21.5t20 -34t7.5 -49.5zM972 131q0 -14 -1 -25.5t-4 -22.5h-59v-83q-14 -3 -27 -4t-29 -1q-17 0 -30 1t-27 4v83h-202q-3 12 -4 24t-1 26q0 15 1 27t4 24l206 272h1q25 6 54 6t55 -6h-1v-278h59q3 -11 4 -22t1 -25zM795 178v117l-88 -117h88z
" />
    <glyph glyph-name="dollar" unicode="$" 
d="M589 224q0 -110 -58.5 -168.5t-160.5 -69.5v-89q-24 -6 -50 -6q-25 0 -49 6v88q-80 6 -139 30t-96 55q5 16 12 31t18 32q17 32 39 55q33 -22 75.5 -39t90.5 -22v182q-44 9 -83.5 22t-69 36t-47 60.5t-17.5 96.5q0 91 53 148.5t164 69.5v89q24 6 50 6q25 0 49 -6v-88
q68 -5 119.5 -25t86.5 -46q-4 -16 -10.5 -31t-15.5 -32q-17 -32 -39 -55q-32 20 -68 32t-73 15v-157q52 -11 92.5 -24.5t68.5 -37.5t43 -61.5t15 -96.5zM213 529q0 -26 13.5 -39.5t44.5 -22.5v130q-58 -15 -58 -68zM370 132q61 16 61 84q0 29 -13 44t-48 26v-154z" />
    <glyph glyph-name="cent" unicode="&#xa2;" 
d="M549 138q-28 -23 -63.5 -37.5t-73.5 -21.5v-125q-24 -6 -50 -6q-25 0 -49 6v122q-111 12 -170.5 86t-59.5 204q0 129 59.5 203.5t170.5 86.5v119q24 6 50 6q25 0 49 -6v-122q70 -12 122 -49q-2 -17 -6 -31.5t-11 -31.5q-13 -31 -32 -52q-32 21 -73 29v-304q45 8 78 32
q13 -11 22 -23t17 -27q8 -16 13 -29.5t7 -28.5zM244 366q0 -56 17.5 -93t51.5 -53v292q-34 -16 -51.5 -53t-17.5 -93z" />
    <glyph glyph-name="sterling" unicode="&#xa3;" 
d="M576 134q5 -16 6.5 -31.5t1.5 -35.5t-1.5 -35.5t-6.5 -31.5h-485q-10 14 -17 29.5t-13 34.5q-6 20 -9.5 36.5t-4.5 33.5q42 13 64.5 51.5t28.5 101.5h-81q-7 25 -7 58q0 34 7 59h83v66q0 140 64 207.5t188 67.5q63 0 110 -19t76 -45q-4 -16 -10.5 -31t-15.5 -32
q-17 -32 -39 -55q-25 21 -54 30.5t-58 9.5q-59 0 -80 -32.5t-21 -110.5v-56h180q5 -14 6.5 -27.5t1.5 -30.5t-1.5 -31t-6.5 -28h-184q-5 -43 -19.5 -82t-40.5 -71h338v0z" />
    <glyph glyph-name="currency" unicode="&#xa4;" 
d="M614 184q-9 -15 -20.5 -28t-26.5 -27q-29 -27 -58 -44l-85 81q-24 -11 -51.5 -17.5t-57.5 -6.5t-57.5 6.5t-51.5 17.5l-84 -81q-30 17 -57 44q-14 14 -25.5 26.5t-20.5 26.5l-2 2l86 83q-24 45 -24 103q0 57 24 102l-85 83q9 15 20 28.5t25 27.5q27 29 56 46l88 -84
q48 24 108 24t108 -24l88 84q29 -17 56 -46q15 -15 26 -28.5t20 -28.5l-86 -82q24 -45 24 -102q0 -58 -24 -103zM315 272q43 0 69 26.5t26 71.5t-26 71t-69 26t-69 -26t-26 -71t26 -71.5t69 -26.5z" />
    <glyph glyph-name="yen" unicode="&#xa5;" 
d="M391 279v-46h136q8 -20 8 -46q0 -27 -8 -46h-136v-137q-18 -5 -36 -6.5t-40 -1.5t-40 1.5t-36 6.5v137h-131q-8 20 -8 46q0 27 8 46h131v46h-131q-8 20 -8 46q0 27 8 46h92l-183 354q21 5 42 6.5t47 1.5q25 0 46 -1.5t42 -6.5l79 -192q3 -8 9.5 -25.5t14 -37t13 -35.5
t7.5 -20q1 4 7 20t12.5 35.5t13.5 37.5t10 26l80 191q20 5 40.5 6.5t45.5 1.5t45.5 -1.5t40.5 -6.5h1l-183 -354h97q8 -20 8 -46q0 -27 -8 -46h-136z" />
    <glyph glyph-name="Euro" unicode="&#x20ac;" 
d="M584 103q16 -34 22 -64q-36 -26 -86.5 -40.5t-103.5 -14.5q-121 0 -203.5 63.5t-109.5 193.5h-71q-8 20 -8 46q0 27 8 46h60q-1 8 -1 15.5v15.5v15h-59q-8 20 -8 46q0 27 8 46h68q23 131 104.5 202.5t215.5 71.5q52 0 99.5 -13.5t78.5 -31.5q-6 -30 -22 -64
q-8 -17 -16 -31t-18 -27q-51 26 -108 26q-68 0 -111.5 -32t-60.5 -101h229q8 -20 8 -46q0 -27 -8 -46h-241v-15v-15.5t1 -15.5h240q8 -20 8 -46q0 -27 -8 -46h-224q20 -60 61 -87t98 -27q42 0 71 10.5t53 23.5q10 -13 18 -27t16 -31z" />
    <glyph glyph-name="florin" unicode="&#x192;" horiz-adv-x="538" 
d="M398 811q38 0 73.5 -7t70.5 -19q-2 -16 -7 -31t-12 -32q-8 -18 -15 -32t-17 -28q-20 8 -41.5 13t-47.5 5q-35 0 -53 -16t-23 -51l-9 -58h141q0 -16 -0.5 -29t-2.5 -29q-2 -24 -5.5 -40t-10.5 -32h-142l-63 -412q-35 -230 -222 -257q-7 15 -12.5 31t-10.5 36t-7.5 37
t-4.5 35q92 21 102 87l67 443h-61v31t2 34q4 35 17 65h61l11 72q12 85 68.5 134.5t153.5 49.5z" />
    <glyph glyph-name="percent" unicode="%" horiz-adv-x="984" 
d="M680 733q17 0 32 -1.5t30 -6.5l-367 -721q-15 -5 -30 -6.5t-33 -1.5q-17 0 -32 1.5t-30 6.5l367 721q15 5 30 6.5t33 1.5zM417 510q0 -49 -12 -89t-36.5 -69t-61 -45t-85.5 -16q-48 0 -84.5 16t-61 45t-36.5 69t-12 89q0 48 12 88.5t36.5 69.5t61 45t84.5 16
q49 0 85.5 -16t61 -45t36.5 -69.5t12 -88.5zM222 398q15 0 27.5 4t22.5 16t15.5 34t5.5 58t-5.5 58t-15.5 34t-22.5 16t-27.5 4q-14 0 -26.5 -4t-22.5 -16t-15.5 -34t-5.5 -58t5.5 -58t15.5 -34t22.5 -16t26.5 -4zM764 425q49 0 85 -16t60 -45t35.5 -69.5t11.5 -88.5
q0 -49 -12 -89t-36.5 -69t-61 -45t-85.5 -16q-48 0 -84.5 16t-61 45t-36.5 69t-12 89q0 48 12.5 88.5t37 69.5t61.5 45t86 16zM761 94q14 0 27 3.5t22.5 15.5t15.5 34t6 59q0 36 -6 58t-15.5 34t-22.5 16t-27 4t-27 -4t-22.5 -16t-15 -34t-5.5 -58q0 -37 5.5 -59t15 -34
t22.5 -15.5t27 -3.5z" />
    <glyph glyph-name="perthousand" unicode="&#x2030;" horiz-adv-x="1423" 
d="M680 733q17 0 32 -1.5t30 -6.5l-367 -721q-15 -5 -30 -6.5t-33 -1.5q-17 0 -32 1.5t-30 6.5l367 721q15 5 30 6.5t33 1.5zM417 510q0 -49 -12 -89t-36.5 -69t-61 -45t-85.5 -16q-48 0 -84.5 16t-61 45t-36.5 69t-12 89q0 48 12 88.5t36.5 69.5t61 45t84.5 16
q49 0 85.5 -16t61 -45t36.5 -69.5t12 -88.5zM222 398q15 0 27.5 4t22.5 16t15.5 34t5.5 58t-5.5 58t-15.5 34t-22.5 16t-27.5 4q-14 0 -26.5 -4t-22.5 -16t-15.5 -34t-5.5 -58t5.5 -58t15.5 -34t22.5 -16t26.5 -4zM764 425q49 0 85 -16t60 -45t35.5 -69.5t11.5 -88.5
q0 -49 -12 -89t-36.5 -69t-61 -45t-85.5 -16q-48 0 -84.5 16t-61 45t-36.5 69t-12 89q0 48 12.5 88.5t37 69.5t61.5 45t86 16zM1203 425q49 0 85 -16t60 -45t35.5 -69.5t11.5 -88.5q0 -49 -12 -89t-36.5 -69t-61 -45t-85.5 -16q-48 0 -84.5 16t-61 45t-36.5 69t-12 89
q0 48 12.5 88.5t37 69.5t61.5 45t86 16zM761 94q14 0 27 3.5t22.5 15.5t15.5 34t6 59q0 36 -6 58t-15.5 34t-22.5 16t-27 4t-27 -4t-22.5 -16t-15 -34t-5.5 -58q0 -37 5.5 -59t15 -34t22.5 -15.5t27 -3.5zM1200 94q14 0 27 3.5t22.5 15.5t15.5 34t6 59q0 36 -6 58t-15.5 34
t-22.5 16t-27 4t-27 -4t-22.5 -16t-15 -34t-5.5 -58q0 -37 5.5 -59t15 -34t22.5 -15.5t27 -3.5z" />
    <glyph glyph-name="plus" unicode="+" 
d="M568 348q0 -18 -1.5 -33t-6.5 -30h-179v-182q-16 -5 -31 -6.5t-34 -1.5t-34.5 1.5t-31.5 6.5v182h-180q-5 15 -6.5 30t-1.5 33t1.5 33t6.5 30h180v183q16 5 31 6.5t34 1.5t34.5 -1.5t31.5 -6.5v-183h179q5 -15 6.5 -30t1.5 -33z" />
    <glyph glyph-name="minus" unicode="&#x2212;" 
d="M560 411q5 -15 6.5 -30t1.5 -33t-1.5 -33t-6.5 -30h-490q-5 15 -6.5 30t-1.5 33t1.5 33t6.5 30h490v0z" />
    <glyph glyph-name="plusminus" unicode="&#xb1;" 
d="M70 355q-5 15 -6.5 30t-1.5 33t1.5 33t6.5 30h180v183q16 5 31 6.5t34 1.5t34.5 -1.5t31.5 -6.5v-183h179q5 -15 6.5 -30t1.5 -33t-1.5 -33t-6.5 -30h-179v-182q-16 -5 -31 -6.5t-34 -1.5t-34.5 1.5t-31.5 6.5v182h-180zM560 126q5 -15 6.5 -30t1.5 -33t-1.5 -33
t-6.5 -30h-490q-5 15 -6.5 30t-1.5 33t1.5 33t6.5 30h490z" />
    <glyph glyph-name="divide" unicode="&#xf7;" 
d="M315 487q-22 0 -40 2t-36 7q-5 17 -6.5 34.5t-1.5 39.5q0 21 1.5 38.5t6.5 34.5q18 5 36 7t40 2t40 -2t36 -7q5 -17 6.5 -34.5t1.5 -38.5q0 -22 -1.5 -39.5t-6.5 -34.5q-18 -5 -36 -7t-40 -2zM560 411q5 -15 6.5 -30t1.5 -33t-1.5 -33t-6.5 -30h-490q-5 15 -6.5 30
t-1.5 33t1.5 33t6.5 30h490zM315 209q22 0 40 -2t36 -7q5 -17 6.5 -34.5t1.5 -38.5q0 -22 -1.5 -39.5t-6.5 -34.5q-18 -5 -36 -7t-40 -2t-40 2t-36 7q-5 17 -6.5 34.5t-1.5 39.5q0 21 1.5 38.5t6.5 34.5q18 5 36 7t40 2z" />
    <glyph glyph-name="multiply" unicode="&#xd7;" 
d="M557 201q-8 -15 -17.5 -26.5t-22.5 -25.5q-25 -25 -53 -41l-149 147l-147 -148q-15 8 -26.5 17.5t-25.5 22.5q-14 14 -23.5 26.5t-17.5 26.5l147 148l-149 148q8 14 17.5 26t22.5 26q14 13 26.5 23t26.5 18l149 -148l148 150q14 -8 26 -17.5t26 -22.5q13 -14 23 -26.5
t18 -26.5l-148 -149z" />
    <glyph glyph-name="equal" unicode="=" 
d="M70 398q-5 15 -6.5 30t-1.5 33t1.5 33t6.5 30h490q5 -15 6.5 -30t1.5 -33t-1.5 -33t-6.5 -30h-490zM560 296q5 -15 6.5 -30t1.5 -33t-1.5 -33t-6.5 -30h-490q-5 15 -6.5 30t-1.5 33t1.5 33t6.5 30h490z" />
    <glyph glyph-name="less" unicode="&#x3c;" 
d="M544 221q5 -17 6.5 -33t1.5 -36t-1.5 -35.5t-6.5 -32.5l-490 222q-5 14 -6.5 27.5t-1.5 30.5t1.5 30.5t6.5 27.5l490 222q5 -17 6.5 -33t1.5 -36t-1.5 -35.5t-6.5 -32.5l-329 -144z" />
    <glyph glyph-name="greater" unicode="&#x3e;" 
d="M576 422q5 -14 6.5 -27.5t1.5 -30.5t-1.5 -30.5t-6.5 -27.5l-490 -222q-5 17 -6.5 33t-1.5 36t1.5 35.5t6.5 32.5l329 144l-329 142q-5 17 -6.5 33t-1.5 36t1.5 35.5t6.5 32.5l490 -222v0z" />
    <glyph glyph-name="lessequal" unicode="&#x2264;" 
d="M558 246q0 -20 -1.5 -35.5t-6.5 -32.5l-490 222q-5 14 -6.5 27.5t-1.5 30.5t1.5 30.5t6.5 27.5l490 222q5 -17 6.5 -33t1.5 -36t-1.5 -35.5t-6.5 -32.5l-329 -144l329 -142q5 -17 6.5 -33t1.5 -36zM560 127q5 -15 6.5 -30t1.5 -33t-1.5 -33t-6.5 -30h-490q-5 15 -6.5 30
t-1.5 33t1.5 33t6.5 30h490z" />
    <glyph glyph-name="greaterequal" unicode="&#x2265;" 
d="M570 516q5 -14 6.5 -27.5t1.5 -30.5t-1.5 -30.5t-6.5 -27.5l-490 -222q-5 17 -6.5 32.5t-1.5 35.5t1.5 36t6.5 33l329 142l-329 144q-5 17 -6.5 32.5t-1.5 35.5t1.5 36t6.5 33zM560 127q5 -15 6.5 -30t1.5 -33t-1.5 -33t-6.5 -30h-490q-5 15 -6.5 30t-1.5 33t1.5 33
t6.5 30h490z" />
    <glyph glyph-name="approxequal" unicode="&#x2248;" 
d="M184 358q-14 -5 -27.5 -6.5t-30.5 -1.5t-31 1.5t-28 6.5q7 103 45.5 149t117.5 46q32 0 60 -14.5t51 -29.5q17 -11 31.5 -18.5t26.5 -7.5q21 0 33.5 16.5t17.5 52.5q14 5 27.5 6.5t30.5 1.5t31 -1.5t28 -6.5q-6 -105 -44.5 -152.5t-117.5 -47.5q-24 0 -45.5 8.5
t-40.5 19.5q-25 15 -46 28.5t-38 13.5q-20 0 -32.5 -15t-18.5 -49zM450 320q14 5 27.5 6.5t30.5 1.5t31 -1.5t28 -6.5q-6 -105 -44.5 -152t-117.5 -47q-26 0 -48.5 10t-42.5 22q-23 14 -42 26t-37 12q-20 0 -32.5 -15t-18.5 -50q-14 -5 -27.5 -6.5t-30.5 -1.5t-31 1.5
t-28 6.5q7 103 45.5 149.5t117.5 46.5q31 0 58.5 -14t50.5 -28q17 -11 32 -19.5t28 -8.5q21 0 33.5 16t17.5 52z" />
    <glyph glyph-name="notequal" unicode="&#x2260;" 
d="M560 296q5 -15 6.5 -30t1.5 -33t-1.5 -33t-6.5 -30h-238l-37 -130q-15 -5 -30 -6.5t-32 -1.5q-18 0 -33 1.5t-30 6.5l37 130h-127q-5 15 -6.5 30t-1.5 33t1.5 33t6.5 30h164l29 102h-193q-5 15 -6.5 30t-1.5 33t1.5 33t6.5 30h229l38 131q15 5 30 6.5t33 1.5
q17 0 32 -1.5t30 -6.5l-38 -131h136q5 -15 6.5 -30t1.5 -33t-1.5 -33t-6.5 -30h-172l-29 -102h201z" />
    <glyph glyph-name="logicalnot" unicode="&#xac;" 
d="M555 411v-308q-16 -5 -31.5 -6.5t-34.5 -1.5q-20 0 -35.5 1.5t-31.5 6.5v182h-358q-5 15 -6.5 30t-1.5 33t1.5 33t6.5 30h491z" />
    <glyph glyph-name="uni2113" unicode="&#x2113;" horiz-adv-x="511" 
d="M324 745q166 0 166 -179q0 -27 -3 -55q-27 -226 -279 -307l-3 -25q-1 -5 -1 -13q0 -26 14.5 -38.5t47.5 -12.5q22 0 49 6.5t56 20.5q14 -24 18 -58q1 -8 1.5 -14.5t0.5 -14.5q0 -18 -3 -34q-42 -19 -86.5 -28t-89.5 -9q-85 0 -124.5 34.5t-39.5 103.5q0 19 3 42l53 368
q30 213 220 213zM340 511q2 14 3.5 25t1.5 21q0 51 -35 51q-46 0 -56 -76l-26 -185q92 52 112 164z" />
    <glyph glyph-name="estimated" unicode="&#x212e;" 
d="M318 745q300 0 299 -417v-27h-448q25 -189 189 -189q93 0 167 80q14 -6 25.5 -14.5t24.5 -20.5t22.5 -24t17.5 -26q-99 -123 -279 -123q-74 0 -133 23.5t-101 71t-64.5 119t-22.5 166.5q0 381 303 381zM318 616q-138 0 -152 -191h297q-12 191 -145 191z" />
    <glyph glyph-name="partialdiff" unicode="&#x2202;" horiz-adv-x="623" 
d="M283 745q290 0 290 -408q0 -185 -66 -269t-202 -84q-125 0 -194.5 63.5t-69.5 190.5q0 253 244 253q63 0 121 -37q-15 163 -146 163q-78 0 -144 -33q-18 19 -30 50q-13 29 -16 57q112 54 213 54zM307 121q109 0 109 117t-109 117q-106 0 -106 -117t106 -117z" />
    <glyph glyph-name="product" unicode="&#x220f;" 
d="M614 729q5 -17 6.5 -33t1.5 -36t-1.5 -36t-6.5 -33h-70v-697q-18 -5 -36 -6.5t-40 -1.5t-40 1.5t-36 6.5v697h-155v-697q-18 -5 -36 -6.5t-40 -1.5t-40 1.5t-36 6.5v697h-69q-5 17 -6.5 33t-1.5 36t1.5 36t6.5 33h598v0z" />
    <glyph glyph-name="summation" unicode="&#x2211;" 
d="M583 33q5 -17 6.5 -33.5t1.5 -36.5t-1.5 -36t-6.5 -33h-532q-5 14 -6.5 28.5t-1.5 32.5q0 17 1.5 31.5t6.5 28.5l191 296l-186 298v-1q-5 14 -6.5 28.5t-1.5 32.5q0 17 1.5 31.5t6.5 28.5h508q5 -17 6.5 -33t1.5 -36t-1.5 -36t-6.5 -33h-320l156 -241q8 -16 8 -37t-8 -37
l-154 -243h337v0z" />
    <glyph glyph-name="radical" unicode="&#x221a;" 
d="M542 733q20 0 37 -1.5t34 -6.5l-257 -721q-20 -8 -46 -8t-46 8l-129 318h-96q-5 15 -6.5 30.5t-1.5 33.5t1.5 33.5t6.5 30.5h187l79 -231l166 506q17 5 34 6.5t37 1.5z" />
    <glyph glyph-name="infinity" unicode="&#x221e;" horiz-adv-x="932" 
d="M677 624q99 0 152.5 -68t53.5 -194t-53.5 -194t-152.5 -68q-57 0 -111 39t-99 111q-18 -30 -41.5 -57.5t-50.5 -48t-57.5 -32.5t-64.5 -12q-98 0 -151.5 68t-53.5 194t53.5 194t151.5 68q63 0 117.5 -38t93.5 -109q40 72 94.5 109.5t118.5 37.5zM273 246q35 0 69 29
t65 83q-35 58 -69.5 89t-64.5 31q-41 0 -63 -30t-22 -86t22 -86t63 -30zM657 246q42 0 64 30t22 86t-22 86t-64 30q-44 0 -77 -30t-60 -86q31 -56 66.5 -86t70.5 -30z" />
    <glyph glyph-name="integral" unicode="&#x222b;" 
d="M435 791q38 0 75 -7t73 -19q0 -16 -3 -31t-8 -32q-8 -34 -23 -60q-20 8 -42.5 13t-48.5 5q-35 0 -51 -16t-16 -51v-643q0 -85 -49.5 -134.5t-146.5 -49.5q-38 0 -75 7t-73 19q1 16 3.5 31t7.5 32q8 34 23 60q20 -8 42.5 -13t48.5 -5q35 0 51 16t16 51v643
q0 85 49.5 134.5t146.5 49.5z" />
    <glyph glyph-name="asciicircum" unicode="^" 
d="M603 336q-19 -5 -38 -6.5t-42 -1.5t-42 1.5t-38 6.5l-129 225l-129 -226q-19 -5 -38 -6.5t-42 -1.5t-41.5 1.5t-37.5 6.5l243 390q20 8 48 8t48 -8z" />
    <glyph glyph-name="asciitilde" unicode="~" 
d="M525 524q19 0 34.5 -1.5t31.5 -6.5q0 -71 -8.5 -120.5t-28 -80.5t-50.5 -44.5t-76 -13.5q-34 0 -59.5 10.5t-45.5 26.5q-16 12 -29 25.5t-25 25t-23.5 18.5t-23.5 7q-24 0 -34 -18.5t-10 -63.5v-25q-16 -5 -31.5 -6.5t-34.5 -1.5t-34.5 1.5t-31.5 6.5q0 71 8.5 120t28 80
t50.5 44.5t76 13.5q47 0 77 -17.5t53 -39.5q23 -20 40 -37.5t36 -17.5q24 0 34 18.5t10 63.5v25q16 5 31.5 6.5t34.5 1.5z" />
    <glyph glyph-name="degree" unicode="&#xb0;" horiz-adv-x="460" 
d="M231 346q-192 0 -192 192q0 191 192 191q190 0 190 -191q0 -192 -190 -192zM231 459q69 0 69 79q0 78 -69 78q-71 0 -71 -78q0 -79 71 -79z" />
    <glyph glyph-name="uni2206" unicode="&#x2206;" 
d="M613 0h-596l236 725q16 5 31.5 6.5t35.5 1.5t35.5 -1.5t31.5 -6.5zM214 138h198l-96 375z" />
    <glyph glyph-name="uni2126" unicode="&#x2126;" 
d="M592 128q8 -29 8 -64t-8 -64h-246q-8 29 -8 64t8 64q94 98 94 282q0 191 -125 191t-125 -191q0 -168 95 -282q8 -29 8 -64t-8 -64h-246q-8 29 -8 64t8 64h114q-121 130 -121 282q0 334 283 334t283 -334q0 -152 -121 -282h115v0z" />
    <glyph glyph-name="pi" unicode="&#x3c0;" horiz-adv-x="620" 
d="M579 555q5 -17 6.5 -33t1.5 -36t-1.5 -36t-6.5 -33h-62v-413q-18 -5 -36 -6.5t-40 -1.5t-40 1.5t-36 6.5v413h-111v-413q-18 -5 -36 -6.5t-40 -1.5t-40 1.5t-36 6.5v413h-61q-5 17 -6.5 33t-1.5 36t1.5 36t6.5 33h538v0z" />
    <glyph glyph-name="uni00B5" unicode="&#xb5;" 
d="M472 559q22 0 40 -1.5t36 -6.5v-547q-16 -5 -31.5 -6.5t-34.5 -1.5t-34.5 1.5t-31.5 6.5l-7 57q-23 -37 -52 -57t-63 -20t-61 12v-214h1q-18 -5 -36 -6.5t-40 -1.5t-40 1.5t-36 6.5v769q18 5 36 6.5t40 1.5t40 -1.5t36 -6.5v-325q0 -54 16.5 -77t51.5 -23q22 0 39.5 8.5
t29.5 28t18.5 51t6.5 78.5v259q18 5 36 6.5t40 1.5z" />
    <glyph glyph-name="lozenge" unicode="&#x25ca;" 
d="M607 365l-228 -325q-15 -5 -30 -6.5t-33 -1.5t-33 1.5t-30 6.5l-231 325l230 324q15 5 30 6.5t33 1.5t33 -1.5t30 -6.5zM436 361l-123 178l-118 -170l122 -172z" />
    <glyph glyph-name="gravecomb" unicode="&#x300;" horiz-adv-x="0" 
d="M69 619q-12 -5 -24.5 -6.5t-27.5 -1.5t-27.5 1.5t-24.5 6.5l-115 199q16 5 32 6.5t36 1.5t36 -1.5t32 -6.5z" />
    <glyph glyph-name="acutecomb" unicode="&#x301;" horiz-adv-x="0" 
d="M92 826q20 0 36 -1.5t32 -6.5l-116 -199q-12 -5 -24.5 -6.5t-27.5 -1.5t-27.5 1.5t-24.5 6.5l84 199q16 5 32 6.5t36 1.5z" />
    <glyph glyph-name="uni0302" unicode="&#x302;" horiz-adv-x="0" 
d="M160 618q-12 -5 -24 -6.5t-26 -1.5q-15 0 -27 1.5t-24 6.5l-60 114l-59 -114q-12 -5 -24 -6.5t-26 -1.5q-15 0 -27 1.5t-24 6.5l86 200q18 5 35.5 6.5t39.5 1.5t39.5 -1.5t35.5 -6.5z" />
    <glyph glyph-name="uni030C" unicode="&#x30c;" horiz-adv-x="0" 
d="M110 826q15 0 27 -1.5t24 -6.5l-86 -200q-18 -5 -35.5 -6.5t-39.5 -1.5t-39.5 1.5t-35.5 6.5l-85 200q12 5 24 6.5t26 1.5q15 0 27 -1.5t24 -6.5l60 -114l59 114q12 5 24 6.5t26 1.5z" />
    <glyph glyph-name="tildecomb" unicode="&#x303;" horiz-adv-x="0" 
d="M166 760q14 -4 24.5 -8t20.5 -9q-14 -66 -51 -97t-88 -31q-22 0 -39.5 5t-32.5 13q-18 8 -34 15.5t-32 7.5q-37 0 -50 -41q-24 1 -48 10q-14 4 -24.5 8t-20.5 9q15 66 51.5 97t85.5 31q28 0 49 -8.5t39 -16.5q14 -7 26 -11.5t24 -4.5q18 0 31.5 9t20.5 32q24 -1 48 -10z
" />
    <glyph glyph-name="uni0308" unicode="&#x308;" horiz-adv-x="0" 
d="M-108 616q-20 0 -37.5 1.5t-34.5 6.5q-7 28 -7 62t7 62q17 5 34.5 6.5t37.5 1.5t37.5 -1.5t34.5 -6.5q7 -28 7 -62t-7 -62q-17 -5 -34.5 -6.5t-37.5 -1.5zM108 616q-20 0 -37.5 1.5t-34.5 6.5q-7 28 -7 62t7 62q17 5 34.5 6.5t37.5 1.5t37.5 -1.5t34.5 -6.5q7 -28 7 -62
t-7 -62q-17 -5 -34.5 -6.5t-37.5 -1.5z" />
    <glyph glyph-name="uni030A" unicode="&#x30a;" horiz-adv-x="0" 
d="M0 615q-134 0 -134 120t134 120t134 -120t-134 -120zM0 693q44 0 44 42t-44 42q-45 0 -45 -42t45 -42z" />
    <glyph glyph-name="uni0304" unicode="&#x304;" horiz-adv-x="0" 
d="M165 734q5 -12 6.5 -24.5t1.5 -27.5t-1.5 -27.5t-6.5 -24.5h-330q-5 12 -6.5 24.5t-1.5 27.5t1.5 27.5t6.5 24.5h330v0z" />
    <glyph glyph-name="uni0306" unicode="&#x306;" horiz-adv-x="0" 
d="M120 825q29 0 49 -8q0 -50 -13 -86t-35.5 -58.5t-53.5 -33t-67 -10.5t-66.5 11t-53 34t-35 58.5t-12.5 84.5q12 5 23.5 6.5t25.5 1.5q29 0 49 -8q0 -38 14.5 -63t55.5 -25q38 0 54 25.5t16 62.5q12 5 23.5 6.5t25.5 1.5z" />
    <glyph glyph-name="uni0307" unicode="&#x307;" horiz-adv-x="0" 
d="M2 614q-22 0 -40 1.5t-36 6.5q-5 16 -6.5 31.5t-1.5 34.5t1.5 34.5t6.5 31.5q18 5 36 6.5t40 1.5t40 -1.5t36 -6.5q5 -16 6.5 -31.5t1.5 -34.5t-1.5 -34.5t-6.5 -31.5q-18 -5 -36 -6.5t-40 -1.5z" />
    <glyph glyph-name="uni030B" unicode="&#x30b;" horiz-adv-x="0" 
d="M-44 826q17 0 30.5 -1.5t27.5 -6.5l-104 -199q-20 -8 -48 -8q-27 0 -47 8l83 199q14 5 27.5 6.5t30.5 1.5zM126 826q17 0 30.5 -1.5t27.5 -6.5l-104 -199q-20 -8 -47 -8q-28 0 -48 8l83 199q14 5 27.5 6.5t30.5 1.5z" />
    <glyph glyph-name="uni0327" unicode="&#x327;" horiz-adv-x="0" 
d="M80 28q20 -29 31.5 -59.5t11.5 -57.5q0 -55 -31.5 -85t-89.5 -30q-35 0 -68 6.5t-59 19.5q0 13 2 24t7 25q8 25 23 44q33 -14 58 -14q24 0 37.5 13.5t13.5 39.5q0 25 -12 63l76 11v0z" />
    <glyph glyph-name="uni0328" unicode="&#x328;" horiz-adv-x="0" 
d="M2 -149q8 -24 9 -45q-22 -8 -49 -15t-61 -7q-45 0 -71 18.5t-26 59.5q0 24 10 44.5t25 38t31.5 31.5t30.5 24h93q-14 -10 -26 -22.5t-22 -25.5t-15.5 -24.5t-5.5 -18.5q0 -14 8.5 -18t18.5 -4q9 0 18.5 2t14.5 4q10 -19 17 -42z" />
    <glyph glyph-name="uni0326" unicode="&#x326;" horiz-adv-x="0" 
d="M64 -43q7 -27 7 -62q0 -18 -3.5 -33.5t-11.5 -33.5l-17 -39q-10 -4 -22 -5.5t-23 -1.5q-22 0 -40 7l14 56q-9 2 -17 3.5t-16 3.5q-5 13 -6 25.5t-1 27.5t1 27.5t6 24.5q15 5 30.5 6.5t33.5 1.5q19 0 34 -1.5t31 -6.5z" />
    <glyph glyph-name="uni0312" unicode="&#x312;" horiz-adv-x="0" 
d="M65 736q5 -13 6 -25.5t1 -27.5t-1 -27.5t-6 -24.5q-15 -5 -30.5 -6.5t-33.5 -1.5q-19 0 -34 1.5t-31 6.5q-7 27 -7 62q0 18 3.5 33.5t11.5 33.5l17 39q10 4 22 5.5t23 1.5q22 0 40 -7l-14 -56q9 -2 17 -3.5t16 -3.5z" />
    <glyph glyph-name="uni0338" unicode="&#x338;" horiz-adv-x="0" 
d="M261 786q19 -11 32.5 -21t25.5 -24l-528 -841q-31 11 -65 32q-32 20 -55 41l528 841q17 -5 31 -11.5t31 -16.5z" />
    <glyph glyph-name="uni0337" unicode="&#x337;" horiz-adv-x="0" 
d="M186 466q7 -15 12 -27.5t7 -26.5l-362 -155q-9 11 -14.5 22l-12.5 25q-13 27 -17 51l361 157q8 -11 14 -21.5t12 -24.5z" />
    <glyph glyph-name="uni0336" unicode="&#x336;" horiz-adv-x="0" 
d="M-176 384h351v-131h-351v131z" />
    <glyph glyph-name="uni0335" unicode="&#x335;" horiz-adv-x="0" 
d="M-176 384h351v-131h-351v131z" />
    </font>
</defs>
</svg>
