<?xml version="1.0" standalone="no"?>
<!DOCTYPE svg PUBLIC "-//W3C//DTD SVG 1.1//EN" "http://www.w3.org/Graphics/SVG/1.1/DTD/svg11.dtd" >
<svg>
<metadata>
Created by FontForge 20131121 at Fri Sep 04 15:21:14 2015

Copyright (c) 2015 by Newlyn Works Limited. All rights reserved.
</metadata>
<defs>
<font id="Telkom123-LightItalic" horiz-adv-x="630" >
  <font-face 
    font-family="Telkom 123 Light"
    font-weight="300"
    font-style="italic"
    font-stretch="normal"
    units-per-em="1000"
    panose-1="2 0 0 0 0 0 0 0 0 0"
    ascent="800"
    descent="-200"
    x-height="545"
    cap-height="731"
    bbox="-302 -221 3328 1024"
    underline-thickness="50"
    underline-position="-50"
    slope="-9"
    unicode-range="U+000D-FB02"
  />
<missing-glyph horiz-adv-x="648" 
d="M122 729h419v-729h-419v729zM480 61v607h-298v-607h298z" />
    <glyph glyph-name="fi" unicode="fi" horiz-adv-x="571" 
d="M508 484h-1l-76 -482q-6 -2 -14 -3t-20 -1t-20 1t-14 3l76 482h-227l-76 -482q-6 -2 -14 -3t-20 -1t-20 1t-14 3l77 482h-67q-1 5 -1 12.5t2 18.5t4 18t4 12h67l14 86q13 81 61 123t120 42q35 0 63 -8t49 -16q-1 -6 -3 -13t-7 -18t-8.5 -18t-7.5 -12q-17 6 -41.5 12.5
t-53.5 6.5q-42 0 -69 -24t-36 -79l-13 -82h295z" />
    <glyph glyph-name="fl" unicode="fl" horiz-adv-x="574" 
d="M524 786q12 0 19.5 -1t13.5 -3l-119 -750l-5 -32q-12 -4 -26 -4q-18 0 -28.5 9.5t-8.5 26.5l105 664q-28 16 -59.5 25t-62.5 9q-35 0 -57 -9.5t-34.5 -26.5t-19 -39.5t-10.5 -47.5l-10 -62h137q0 -5 0.5 -12.5t-1.5 -18.5t-4.5 -18t-4.5 -12h-137l-76 -480q-7 -2 -15 -3
t-20 -1t-20 1t-13 3l76 480h-66q-1 5 -1 12.5t2 18.5t4 18t4 12h67l14 87q12 78 57.5 121t127.5 43q30 0 65 -9.5t67 -27.5l4 23q6 2 14.5 3t20.5 1z" />
    <glyph glyph-name="Telkom" unicode="Telkom" horiz-adv-x="3387" 
d="M1233 782q6 2 14.5 3t20.5 1t19.5 -1t13.5 -3l-124 -782q-7 -2 -14 -3t-13 -1q-18 0 -28 9.5t-8 26.5zM1520 786q12 0 19.5 -1t13.5 -3l-124 -782q-6 -2 -14.5 -3t-20.5 -1t-19.5 1t-13.5 3l124 782q6 2 14.5 3t20.5 1zM387 665l-105 -665q-7 -2 -15 -3t-20 -1t-20 1
t-13 3l105 665h-232q0 2 -0.5 5t-0.5 6q0 4 0.5 9t1.5 12q2 11 4.5 18.5l4.5 13.5h532q0 -2 0.5 -5t0.5 -6q0 -4 -0.5 -9t-1.5 -12q-2 -11 -4.5 -18.5l-4.5 -13.5h-232zM838 559q91 0 136.5 -41t45.5 -110q0 -98 -101.5 -148.5t-294.5 -52.5q3 -83 40.5 -121t112.5 -38
q83 0 169 49q13 -10 19 -27q3 -9 4 -17t1 -13q-52 -29 -102 -41.5t-100 -12.5q-104 0 -158 58t-54 168q0 71 18 134t53 110.5t88 75t123 27.5zM2186 559q48 0 86.5 -15t66.5 -44t43 -71t15 -96q0 -76 -20 -139.5t-57 -109.5t-89.5 -72t-116.5 -26q-48 0 -86.5 15t-66.5 44
t-43 71t-15 96q0 76 20.5 139.5t57.5 109.5t89.5 72t115.5 26zM3172 559q75 0 115.5 -38t40.5 -106q0 -31 -15 -138t-43 -275q-10 -2 -18.5 -3t-15.5 -1t-15.5 1t-18.5 3q26 161 40.5 263.5t15.5 132.5q1 45 -24 70.5t-76 25.5q-69 0 -118.5 -53.5t-70.5 -152.5
q-7 -54 -18 -125.5t-26 -160.5q-10 -2 -18.5 -3t-15.5 -1t-15.5 1t-18.5 3q26 161 40.5 263.5t15.5 132.5q1 45 -24.5 70.5t-75.5 25.5q-75 0 -126 -61.5t-68 -174.5h-1l-41 -256q-5 -2 -13 -3t-21 -1q-12 0 -20 1t-14 3l86 541q5 2 12 3t16 1q10 0 15.5 -1t10.5 -3l-7 -94
q34 54 80.5 82t104.5 28q66 0 106 -31t48 -88q35 58 83 88.5t108 30.5zM1819 549q17 0 28 -1t18 -3l-284 -269l211 -276q-8 -2 -16.5 -3t-21.5 -1q-16 0 -26 1t-18 3l-214 281l278 264q8 2 18.5 3t26.5 1zM2121 46q46 0 84 20.5t65 58.5t41.5 90.5t14.5 117.5q0 78 -40 121
t-107 45q-47 0 -84.5 -20.5t-64.5 -58.5t-41.5 -91t-14.5 -117q0 -78 40.5 -122t106.5 -44zM626 268q157 1 241 35t84 103q0 38 -27.5 65t-92.5 27q-47 0 -83 -18t-61.5 -49t-40.5 -73t-20 -90z" />
    <glyph glyph-name=".notdef" horiz-adv-x="648" 
d="M122 729h419v-729h-419v729zM480 61v607h-298v-607h298z" />
    <glyph glyph-name="space" unicode=" " horiz-adv-x="281" 
 />
    <glyph glyph-name="NULL" horiz-adv-x="0" 
 />
    <glyph glyph-name="nonmarkingreturn" unicode="&#xd;" horiz-adv-x="239" 
 />
    <glyph glyph-name="uni00A0" unicode="&#xa0;" horiz-adv-x="282" 
 />
    <glyph glyph-name="A" unicode="A" horiz-adv-x="671" 
d="M605 2q-8 -2 -15.5 -3t-21.5 -1q-12 0 -20.5 1t-15.5 3l-43 205h-337l-108 -205h-1q-6 -2 -15 -3t-26 -1q-13 0 -22 1t-14 3l388 724q9 2 20 3t28 1t27.5 -1t18.5 -3zM476 270l-83 394l-208 -394h291z" />
    <glyph glyph-name="B" unicode="B" horiz-adv-x="666" 
d="M474 391q115 -33 115 -154q0 -58 -20.5 -102t-58 -74t-91.5 -45.5t-120 -15.5h-246l10 64l106 665h243q97 0 148.5 -36.5t51.5 -115.5q0 -72 -37 -118.5t-101 -67.5zM227 665l-40 -252h184q81 0 125 41.5t44 110.5q0 52 -34.5 76t-106.5 24h-172zM310 64q97 0 151 43
t54 125q0 62 -40.5 90.5t-122.5 28.5h-175l-46 -287h179z" />
    <glyph glyph-name="C" unicode="C" horiz-adv-x="622" 
d="M419 743q37 0 68 -6.5t56.5 -16t46 -22t37.5 -24.5q0 -6 -2.5 -14.5t-6.5 -16.5q-8 -16 -22 -28q-16 11 -34.5 22.5t-40 20.5t-48 14.5t-58.5 5.5q-70 0 -121.5 -33t-85 -88.5t-50 -127t-16.5 -147.5q0 -116 56.5 -173.5t150.5 -57.5q45 0 86 13.5t89 40.5q4 -4 8 -11
t7 -15t5 -16.5t3 -15.5q-47 -28 -100.5 -44.5t-105.5 -16.5q-62 0 -112.5 19t-86 56t-55 90t-19.5 122q0 94 22 179.5t66.5 150t110 102.5t152.5 38z" />
    <glyph glyph-name="D" unicode="D" horiz-adv-x="720" 
d="M169 729h229q138 0 204 -69t66 -204q0 -96 -24.5 -179.5t-73 -145t-120.5 -96.5t-168 -35h-229zM262 64q90 0 153.5 29t103 81t58 122.5t18.5 153.5q0 114 -51 164.5t-156 50.5h-161l-96 -601h131z" />
    <glyph glyph-name="E" unicode="E" horiz-adv-x="603" 
d="M596 729q2 -8 2 -15t-2 -18q-2 -9 -4.5 -16.5t-5.5 -14.5h-357l-41 -254h315q1 -6 1.5 -14t-1.5 -17q-3 -21 -10 -33h-315l-45 -283h375q3 -14 0 -32q-3 -16 -10 -32h-445l116 729h427v0z" />
    <glyph glyph-name="F" unicode="F" horiz-adv-x="570" 
d="M594 729q2 -8 2 -15t-2 -18q-2 -9 -4.5 -16.5t-5.5 -14.5h-358l-45 -285h315q1 -6 1.5 -14t-1.5 -17q-3 -21 -10 -33h-316l-49 -314q-7 -2 -15 -3t-20 -1t-20 1t-13 3l115 727h426v0z" />
    <glyph glyph-name="G" unicode="G" horiz-adv-x="695" 
d="M441 678q-79 0 -135.5 -33t-93 -87.5t-54 -125.5t-17.5 -146q0 -236 209 -236q52 0 91.5 10t76.5 26l34 218h-156q-2 19 1 36q3 16 10 29h225l-51 -323q-60 -33 -120.5 -46.5t-117.5 -13.5q-70 0 -121.5 21t-85.5 60t-51 93t-17 120q0 94 24.5 178.5t72 147.5t117 100
t159.5 37q33 0 64 -5t59 -12.5t51 -17.5t40 -20q-3 -12 -14 -29q-7 -11 -11.5 -17.5t-9.5 -11.5q-32 20 -80 34t-99 14z" />
    <glyph glyph-name="H" unicode="H" horiz-adv-x="745" 
d="M673 731q12 0 20 -1t13 -3l-114 -725q-7 -2 -15 -3t-20 -1t-20 1t-13 3l53 339h-402l-53 -339q-7 -2 -15 -3t-20 -1t-20 1t-13 3l114 725q7 2 15 3t20 1t20 -1t13 -3l-51 -322h402l51 322q7 2 15 3t20 1z" />
    <glyph glyph-name="I" unicode="I" horiz-adv-x="275" 
d="M203 731q12 0 20 -1t13 -3l-114 -725q-7 -2 -15 -3t-20 -1t-20 1t-13 3l114 725q7 2 15 3t20 1z" />
    <glyph glyph-name="J" unicode="J" horiz-adv-x="364" 
d="M296 731q12 0 20 -1t14 -3l-93 -587q-7 -44 -20 -73.5t-32 -47.5t-44.5 -25.5t-57.5 -7.5q-33 0 -60 7t-46 20q2 5 5 13t8 18t10 16t9 11q16 -10 34 -16.5t40 -6.5q38 0 57.5 21.5t27.5 75.5l94 582q6 2 14 3t20 1z" />
    <glyph glyph-name="K" unicode="K" horiz-adv-x="625" 
d="M203 731q12 0 20 -1t13 -3l-114 -725q-7 -2 -15 -3t-20 -1t-20 1t-13 3l114 725q7 2 15 3t20 1zM298 369l265 -367h-1q-8 -2 -18 -3t-26 -1q-14 0 -23 1t-15 3l-268 373l361 352q8 2 17.5 3t23.5 1q17 0 28 -1t18 -3z" />
    <glyph glyph-name="L" unicode="L" horiz-adv-x="550" 
d="M489 64q3 -14 0 -32q-3 -16 -10 -32h-426l115 727q7 2 15 3t20 1t20 -1t13 -3l-105 -663h358v0z" />
    <glyph glyph-name="M" unicode="M" horiz-adv-x="876" 
d="M767 731q20 0 32.5 -1t21.5 -3l-83 -725q-7 -2 -15 -3t-20 -1t-20 1t-13 3l63 517q5 45 11 86.5t10 73.5h-2q-14 -31 -32.5 -72t-39.5 -81l-249 -464q-6 -2 -14 -3t-20 -1t-19.5 1t-13.5 3l-97 467q-3 16 -7 35.5t-8 39.5t-7.5 39.5t-6.5 34.5h-2q-6 -34 -14 -77t-15 -77
l-100 -522h1q-7 -2 -15 -3t-20 -1t-20.5 1t-13.5 3l145 725q11 2 23.5 3t32.5 1t32.5 -1t21.5 -3l117 -578h1l301 578q10 2 22.5 3t31.5 1z" />
    <glyph glyph-name="N" unicode="N" horiz-adv-x="753" 
d="M682 731q11 0 19 -1t13 -3l-114 -725q-9 -2 -20 -3t-27 -1q-17 0 -27.5 1t-17.5 3l-233 540q-13 30 -27.5 63t-23.5 62q-5 -31 -10 -68.5t-10 -70.5l-83 -526q-7 -2 -15 -3t-20 -1q-11 0 -19 1t-13 3l114 725q10 2 22 3t30 1t29 -1t19 -3l228 -529q14 -32 27.5 -65
t21.5 -62l21 142l81 514q7 2 15 3t20 1z" />
    <glyph glyph-name="O" unicode="O" horiz-adv-x="736" 
d="M332 -14q-122 0 -193 72t-71 218q0 89 21.5 173t65 149.5t109.5 105t155 39.5q61 0 109.5 -18.5t83 -55t53 -92t18.5 -130.5q0 -86 -21.5 -169t-65.5 -148t-110 -104.5t-154 -39.5zM335 51q71 0 123 34.5t86 90t50.5 126.5t16.5 144q0 122 -51 177t-145 55
q-71 0 -123 -34.5t-85.5 -90.5t-50 -127t-16.5 -144q0 -122 50.5 -176.5t144.5 -54.5z" />
    <glyph glyph-name="P" unicode="P" horiz-adv-x="620" 
d="M380 729q111 0 167.5 -50.5t56.5 -141.5q0 -125 -72.5 -191t-212.5 -66h-154l-44 -278q-7 -2 -16 -3t-19 -1q-22 0 -33 4l115 727h212zM317 343q112 0 163.5 47t51.5 138q0 69 -39.5 103t-124.5 34h-142l-51 -322h142z" />
    <glyph glyph-name="Q" unicode="Q" horiz-adv-x="736" 
d="M683 447q0 -77 -17 -151.5t-52 -136t-87.5 -105.5t-122.5 -60l93 -160q-7 -2 -15 -3t-21 -1q-14 0 -23.5 1t-17.5 3l-82 152h-6q-122 0 -193 72t-71 218q0 89 21.5 173t65 149.5t109.5 105t155 39.5q61 0 109.5 -18.5t83 -55t53 -92t18.5 -130.5zM335 51q71 0 123 34.5
t86 90t50.5 126.5t16.5 144q0 122 -51 177t-145 55q-71 0 -123 -34.5t-85.5 -90.5t-50 -127t-16.5 -144q0 -122 50.5 -176.5t144.5 -54.5z" />
    <glyph glyph-name="R" unicode="R" horiz-adv-x="639" 
d="M612 541q0 -109 -66 -170.5t-184 -65.5l187 -303q-10 -2 -20.5 -3t-19.5 -1q-11 0 -21 1t-18 3l-183 303h-118l-48 -303q-8 -2 -17.5 -3t-17.5 -1q-9 0 -17.5 1t-15.5 3l115 727h236q97 0 152.5 -48.5t55.5 -139.5zM357 368q42 0 76 9.5t58 30t37 52.5t13 77q0 66 -36 97
t-101 31h-178l-47 -297h178z" />
    <glyph glyph-name="S" unicode="S" horiz-adv-x="613" 
d="M273 -14q-43 0 -81 8t-70 21.5t-57.5 30.5t-43.5 34q3 6 6.5 11.5t11.5 15.5q8 9 15 14.5t12 8.5q42 -35 94.5 -57t116.5 -22q52 0 88 12.5t58.5 34t32.5 50t10 60.5q0 38 -12.5 60.5t-35 36.5t-53 23t-66.5 20q-40 12 -75.5 24.5t-61.5 32t-41.5 49.5t-15.5 77
q0 44 15 83t46 67.5t79 45t113 16.5q39 0 74.5 -7t65.5 -18.5t53 -24.5t38 -25q-5 -12 -16 -27q-8 -11 -13.5 -17t-10.5 -11q-32 25 -83.5 45.5t-117.5 20.5q-47 0 -80 -11.5t-53.5 -31.5t-30 -46.5t-9.5 -56.5q0 -32 13 -52t35.5 -32.5t54 -21.5t68.5 -19q40 -11 75 -25.5
t61 -37t41 -55.5t15 -82q0 -48 -17 -88.5t-50.5 -70.5t-83 -46.5t-114.5 -16.5z" />
    <glyph glyph-name="T" unicode="T" horiz-adv-x="578" 
d="M620 729q0 -2 0.5 -5t0.5 -6q0 -4 -0.5 -9t-1.5 -12q-2 -11 -4.5 -18.5l-4.5 -13.5h-232l-105 -665q-7 -2 -15 -3t-20 -1t-20 1t-13 3l105 665h-232q0 2 -0.5 5t-0.5 6q0 4 0.5 9t1.5 12q2 11 4.5 18.5l4.5 13.5h532v0z" />
    <glyph glyph-name="U" unicode="U" horiz-adv-x="725" 
d="M661 731q12 0 20 -1t13 -3l-71 -447q-23 -140 -99.5 -217t-204.5 -77q-115 0 -174.5 56t-59.5 165q0 36 7.5 92.5t18.5 125.5t25 146.5t26 155.5q7 2 15 3t20 1t20 -1t13 -3q-12 -75 -25 -151t-24 -145t-18.5 -126t-7.5 -92q0 -84 41.5 -123t125.5 -39q97 0 156.5 60.5
t78.5 178.5l69 437q7 2 15 3t20 1z" />
    <glyph glyph-name="V" unicode="V" horiz-adv-x="665" 
d="M679 731q12 0 21 -1t14 -3l-385 -725q-9 -2 -20 -3t-28 -1q-16 0 -26.5 1t-18.5 3l-154 725q8 2 16 3t21 1q12 0 20 -1t14 -3l115 -561q5 -26 11 -57.5t10 -54.5q11 23 27 54.5t30 57.5l294 561q8 2 16.5 3t22.5 1z" />
    <glyph glyph-name="W" unicode="W" horiz-adv-x="955" 
d="M952 731q14 0 22.5 -1t14.5 -3l-291 -725q-9 -2 -19.5 -3t-27.5 -1t-27.5 1t-18.5 3q-9 84 -19 175t-19 178.5t-17.5 167t-14.5 141.5h-2q-26 -62 -60 -141.5t-72.5 -167t-78 -178.5t-75.5 -175q-9 -2 -19.5 -3t-26.5 -1q-17 0 -27.5 1t-18.5 3l-57 725q6 2 14 3t21 1
q11 0 18.5 -1t12.5 -3q7 -83 15 -173t15 -176.5t11.5 -166t4.5 -141.5h2q26 62 60 142t71 167t75 176.5t73 171.5q9 2 22 3t29 1q18 0 31 -1t21 -3q8 -81 17 -170.5t18 -177t17 -167.5t13 -142h2q22 62 53 143t66 169t70.5 177.5t66.5 167.5q8 2 14.5 3t20.5 1z" />
    <glyph glyph-name="X" unicode="X" horiz-adv-x="627" 
d="M364 369l191 -367q-8 -2 -16 -3t-22 -1q-11 0 -22 1t-17 3l-161 316l-259 -316q-8 -2 -20 -3t-28 -1q-14 0 -23 1t-15 3l311 373l-181 352q9 2 18.5 3t24.5 1q12 0 19.5 -1t12.5 -3l154 -300l244 300q8 2 19 3t27 1q13 0 21.5 -1t14.5 -3z" />
    <glyph glyph-name="Y" unicode="Y" horiz-adv-x="611" 
d="M337 305l-48 -305q-6 -2 -14 -3t-20 -1t-20 1t-14 3l49 307l-196 420q8 2 17 3t23 1t21.5 -1t14.5 -3l118 -257q13 -27 23 -51t21 -51q17 27 35 51t40 52l200 256q7 2 17.5 3t24.5 1t22.5 -1t15.5 -3z" />
    <glyph glyph-name="Z" unicode="Z" horiz-adv-x="605" 
d="M608 708q0 -31 -23 -59l-495 -585h427q1 -3 1 -13v-8.5t-2 -10.5q-2 -11 -4 -18.5t-5 -13.5h-510v11v10t2 13q2 12 4.5 20t4.5 14l502 596l-389 1q-2 15 1 32q3 20 9 32h475q1 -5 1.5 -9.5t0.5 -11.5z" />
    <glyph glyph-name="Agrave" unicode="&#xc0;" horiz-adv-x="671" 
d="M605 2q-8 -2 -15.5 -3t-21.5 -1q-12 0 -20.5 1t-15.5 3l-43 205h-337l-108 -205h-1q-6 -2 -15 -3t-26 -1q-13 0 -22 1t-14 3l388 724q9 2 20 3t28 1t27.5 -1t18.5 -3zM476 270l-83 394l-208 -394h291zM455 831q-5 -2 -11.5 -3t-16.5 -1q-11 0 -17.5 1t-11.5 3l-64 171
q7 2 14.5 3t21.5 1q13 0 21.5 -1t15.5 -3z" />
    <glyph glyph-name="Aacute" unicode="&#xc1;" horiz-adv-x="671" 
d="M605 2q-8 -2 -15.5 -3t-21.5 -1q-12 0 -20.5 1t-15.5 3l-43 205h-337l-108 -205h-1q-6 -2 -15 -3t-26 -1q-13 0 -22 1t-14 3l388 724q9 2 20 3t28 1t27.5 -1t18.5 -3zM476 270l-83 394l-208 -394h291zM529 1006q14 0 23.5 -1t16.5 -3l-121 -171q-6 -2 -13.5 -3t-18.5 -1
t-19 1t-14 3l106 171q7 2 16.5 3t23.5 1z" />
    <glyph glyph-name="Acircumflex" unicode="&#xc2;" horiz-adv-x="671" 
d="M605 2q-8 -2 -15.5 -3t-21.5 -1q-12 0 -20.5 1t-15.5 3l-43 205h-337l-108 -205h-1q-6 -2 -15 -3t-26 -1q-13 0 -22 1t-14 3l388 724q9 2 20 3t28 1t27.5 -1t18.5 -3zM476 270l-83 394l-208 -394h291zM542 831q-5 -2 -11.5 -3t-17.5 -1t-17 1t-11 3l-45 125l-80 -125
q-5 -2 -13 -3t-19 -1t-18.5 1t-12.5 3l108 172q8 2 16.5 3t25.5 1q16 0 24.5 -1t16.5 -3z" />
    <glyph glyph-name="Atilde" unicode="&#xc3;" horiz-adv-x="671" 
d="M605 2q-8 -2 -15.5 -3t-21.5 -1q-12 0 -20.5 1t-15.5 3l-43 205h-337l-108 -205h-1q-6 -2 -15 -3t-26 -1q-13 0 -22 1t-14 3l388 724q9 2 20 3t28 1t27.5 -1t18.5 -3zM476 270l-83 394l-208 -394h291zM577 922q16 -9 21 -18q-7 -16 -17.5 -31.5t-24.5 -27.5t-32 -19
t-40 -7q-29 0 -45.5 6.5t-28.5 15.5q-16 11 -29.5 20.5t-30.5 9.5q-23 0 -37.5 -11.5t-27.5 -37.5q-5 0 -13.5 1.5t-17.5 5.5q-8 4 -12.5 8.5t-6.5 9.5q7 16 18 31.5t25 27.5t32 19t40 7q38 0 58 -12t34 -23q11 -8 20.5 -13t21.5 -5q43 0 65 49q5 0 12.5 -0.5t15.5 -5.5z
" />
    <glyph glyph-name="Adieresis" unicode="&#xc4;" horiz-adv-x="671" 
d="M605 2q-8 -2 -15.5 -3t-21.5 -1q-12 0 -20.5 1t-15.5 3l-43 205h-337l-108 -205h-1q-6 -2 -15 -3t-26 -1q-13 0 -22 1t-14 3l388 724q9 2 20 3t28 1t27.5 -1t18.5 -3zM476 270l-83 394l-208 -394h291zM340 853q-12 0 -20 1t-13 3q-1 6 -1 14t2 20t4.5 20t4.5 14q7 2 15 3
t20 1t20 -1t13 -3q1 -6 1 -14t-2 -20t-4.5 -20t-4.5 -14q-7 -2 -15 -3t-20 -1zM509 853q-12 0 -20 1t-13 3q-1 6 -1 14t2 20t4.5 20t4.5 14q7 2 15 3t20 1t20 -1t13 -3q1 -6 1 -14t-2 -20t-4.5 -20t-4.5 -14q-7 -2 -15 -3t-20 -1z" />
    <glyph glyph-name="Aring" unicode="&#xc5;" horiz-adv-x="671" 
d="M605 2q-8 -2 -15.5 -3t-21.5 -1q-12 0 -20.5 1t-15.5 3l-43 205h-337l-108 -205h-1q-6 -2 -15 -3t-26 -1q-13 0 -22 1t-14 3l388 724q9 2 20 3t28 1t27.5 -1t18.5 -3zM476 270l-83 394l-208 -394h291zM421 817q-45 0 -71 22t-26 67q0 49 31.5 83.5t89.5 34.5
q45 0 70.5 -22.5t25.5 -67.5q0 -49 -31.5 -83t-88.5 -34zM426 867q28 0 45 16t17 44q0 47 -46 47q-29 0 -46 -17t-17 -45q0 -45 47 -45z" />
    <glyph glyph-name="AE" unicode="&#xc6;" horiz-adv-x="905" 
d="M899 729q1 -6 1 -13.5t-2 -18.5t-4.5 -18.5l-4.5 -13.5h-320l-40 -254h278q1 -6 1.5 -13.5t-1.5 -18.5q-3 -20 -11 -32h-278l-44 -283h338q3 -11 0 -31q-2 -12 -4.5 -19.5t-6.5 -13.5h-408l36 226h-265l-122 -224q-8 -2 -17.5 -3t-23.5 -1q-13 0 -21.5 1t-14.5 3l403 727
h531zM499 665h-97l-203 -374h240z" />
    <glyph glyph-name="Ccedilla" unicode="&#xc7;" horiz-adv-x="622" 
d="M419 743q37 0 68 -6.5t56.5 -16t46 -22t37.5 -24.5q0 -6 -2.5 -14.5t-6.5 -16.5q-8 -16 -22 -28q-16 11 -34.5 22.5t-40 20.5t-48 14.5t-58.5 5.5q-70 0 -121.5 -33t-85 -88.5t-50 -127t-16.5 -147.5q0 -116 56.5 -173.5t150.5 -57.5q45 0 86 13.5t89 40.5q4 -4 8 -11
t7 -15t5 -16.5t3 -15.5q-44 -26 -93 -42t-98 -19q9 -27 9 -55q0 -61 -36.5 -99t-99.5 -38q-49 0 -90 27q2 5 5 11.5t8 15.5l17 23q32 -19 64 -19q41 0 58.5 27.5t17.5 72.5q0 8 -0.5 17t-1.5 19q-55 5 -99 26t-75 57.5t-48 87t-17 114.5q0 94 22 179.5t66.5 150t110 102.5
t152.5 38z" />
    <glyph glyph-name="Egrave" unicode="&#xc8;" horiz-adv-x="603" 
d="M596 729q2 -8 2 -15t-2 -18q-2 -9 -4.5 -16.5t-5.5 -14.5h-357l-41 -254h315q1 -6 1.5 -14t-1.5 -17q-3 -21 -10 -33h-315l-45 -283h375q3 -14 0 -32q-3 -16 -10 -32h-445l116 729h427v0zM414 831q-5 -2 -11.5 -3t-16.5 -1q-11 0 -17.5 1t-11.5 3l-64 171q7 2 14.5 3
t21.5 1q13 0 21.5 -1t15.5 -3z" />
    <glyph glyph-name="Eacute" unicode="&#xc9;" horiz-adv-x="603" 
d="M596 729q2 -8 2 -15t-2 -18q-2 -9 -4.5 -16.5t-5.5 -14.5h-357l-41 -254h315q1 -6 1.5 -14t-1.5 -17q-3 -21 -10 -33h-315l-45 -283h375q3 -14 0 -32q-3 -16 -10 -32h-445l116 729h427v0zM488 1006q14 0 23.5 -1t16.5 -3l-121 -171q-6 -2 -13.5 -3t-18.5 -1t-19 1t-14 3
l106 171q7 2 16.5 3t23.5 1z" />
    <glyph glyph-name="Ecircumflex" unicode="&#xca;" horiz-adv-x="603" 
d="M596 729q2 -8 2 -15t-2 -18q-2 -9 -4.5 -16.5t-5.5 -14.5h-357l-41 -254h315q1 -6 1.5 -14t-1.5 -17q-3 -21 -10 -33h-315l-45 -283h375q3 -14 0 -32q-3 -16 -10 -32h-445l116 729h427v0zM501 830q-5 -2 -11.5 -3t-17.5 -1t-17 1t-11 3l-45 125l-80 -125q-5 -2 -13 -3
t-19 -1t-18.5 1t-12.5 3l108 172q8 2 16.5 3t25.5 1q16 0 24.5 -1t16.5 -3z" />
    <glyph glyph-name="Edieresis" unicode="&#xcb;" horiz-adv-x="603" 
d="M596 729q2 -8 2 -15t-2 -18q-2 -9 -4.5 -16.5t-5.5 -14.5h-357l-41 -254h315q1 -6 1.5 -14t-1.5 -17q-3 -21 -10 -33h-315l-45 -283h375q3 -14 0 -32q-3 -16 -10 -32h-445l116 729h427v0zM299 853q-12 0 -20 1t-13 3q-1 6 -1 14t2 20t4.5 20t4.5 14q7 2 15 3t20 1t20 -1
t13 -3q1 -6 1 -14t-2 -20t-4.5 -20t-4.5 -14q-7 -2 -15 -3t-20 -1zM468 853q-12 0 -20 1t-13 3q-1 6 -1 14t2 20t4.5 20t4.5 14q7 2 15 3t20 1t20 -1t13 -3q1 -6 1 -14t-2 -20t-4.5 -20t-4.5 -14q-7 -2 -15 -3t-20 -1z" />
    <glyph glyph-name="Igrave" unicode="&#xcc;" horiz-adv-x="275" 
d="M203 731q12 0 20 -1t13 -3l-114 -725q-7 -2 -15 -3t-20 -1t-20 1t-13 3l114 725q7 2 15 3t20 1zM257 831q-5 -2 -11.5 -3t-16.5 -1q-11 0 -17.5 1t-11.5 3l-64 171q7 2 14.5 3t21.5 1q13 0 21.5 -1t15.5 -3z" />
    <glyph glyph-name="Iacute" unicode="&#xcd;" horiz-adv-x="275" 
d="M203 731q12 0 20 -1t13 -3l-114 -725q-7 -2 -15 -3t-20 -1t-20 1t-13 3l114 725q7 2 15 3t20 1zM331 1006q14 0 23.5 -1t16.5 -3l-121 -171q-6 -2 -13.5 -3t-18.5 -1t-19 1t-14 3l106 171q7 2 16.5 3t23.5 1z" />
    <glyph glyph-name="Icircumflex" unicode="&#xce;" horiz-adv-x="275" 
d="M203 731q12 0 20 -1t13 -3l-114 -725q-7 -2 -15 -3t-20 -1t-20 1t-13 3l114 725q7 2 15 3t20 1zM344 830q-5 -2 -11.5 -3t-17.5 -1t-17 1t-11 3l-45 125l-80 -125q-5 -2 -13 -3t-19 -1t-18.5 1t-12.5 3l108 172q8 2 16.5 3t25.5 1q16 0 24.5 -1t16.5 -3z" />
    <glyph glyph-name="Idieresis" unicode="&#xcf;" horiz-adv-x="275" 
d="M203 731q12 0 20 -1t13 -3l-114 -725q-7 -2 -15 -3t-20 -1t-20 1t-13 3l114 725q7 2 15 3t20 1zM142 853q-12 0 -20 1t-13 3q-1 6 -1 14t2 20t4.5 20t4.5 14q7 2 15 3t20 1t20 -1t13 -3q1 -6 1 -14t-2 -20t-4.5 -20t-4.5 -14q-7 -2 -15 -3t-20 -1zM311 853q-12 0 -20 1
t-13 3q-1 6 -1 14t2 20t4.5 20t4.5 14q7 2 15 3t20 1t20 -1t13 -3q1 -6 1 -14t-2 -20t-4.5 -20t-4.5 -14q-7 -2 -15 -3t-20 -1z" />
    <glyph glyph-name="Eth" unicode="&#xd0;" horiz-adv-x="731" 
d="M409 729q138 0 204 -69t66 -204q0 -96 -24.5 -179.5t-73 -145t-120.5 -96.5t-168 -35h-229l53 334h-93q-2 11 1 30q2 11 4.5 18t4.5 12h93l53 335h229zM273 64q90 0 153.5 29t103 81t58 122.5t18.5 153.5q0 114 -51 164.5t-156 50.5h-161l-43 -271h112q1 -5 1 -12t-2 -18
t-4.5 -18t-4.5 -12h-112l-43 -270h131z" />
    <glyph glyph-name="Lslash" unicode="&#x141;" horiz-adv-x="566" 
d="M506 64q3 -14 0 -32q-3 -16 -10 -32h-426l48 303l-91 -46q-3 5 -6 11t-6 17q-4 11 -5.5 17.5t-3.5 12.5l124 62l55 350q7 2 15 3t20 1t20 -1t13 -3l-50 -313l134 67q3 -5 7 -10.5t8 -15.5q4 -11 5 -17.5t3 -13.5l-168 -84l-44 -276h358v0z" />
    <glyph glyph-name="Ntilde" unicode="&#xd1;" horiz-adv-x="753" 
d="M682 731q11 0 19 -1t13 -3l-114 -725q-9 -2 -20 -3t-27 -1q-17 0 -27.5 1t-17.5 3l-233 540q-13 30 -27.5 63t-23.5 62q-5 -31 -10 -68.5t-10 -70.5l-83 -526q-7 -2 -15 -3t-20 -1q-11 0 -19 1t-13 3l114 725q10 2 22 3t30 1t29 -1t19 -3l228 -529q14 -32 27.5 -65
t21.5 -62l21 142l81 514q7 2 15 3t20 1zM616 922q16 -9 21 -18q-7 -16 -17.5 -31.5t-24.5 -27.5t-32 -19t-40 -7q-29 0 -45.5 6.5t-28.5 15.5q-16 11 -29.5 20.5t-30.5 9.5q-23 0 -37.5 -11.5t-27.5 -37.5q-5 0 -13.5 1.5t-17.5 5.5q-8 4 -12.5 8.5t-6.5 9.5q7 16 18 31.5
t25 27.5t32 19t40 7q38 0 58 -12t34 -23q11 -8 20.5 -13t21.5 -5q43 0 65 49q5 0 12.5 -0.5t15.5 -5.5z" />
    <glyph glyph-name="Ograve" unicode="&#xd2;" horiz-adv-x="736" 
d="M332 -14q-122 0 -193 72t-71 218q0 89 21.5 173t65 149.5t109.5 105t155 39.5q61 0 109.5 -18.5t83 -55t53 -92t18.5 -130.5q0 -86 -21.5 -169t-65.5 -148t-110 -104.5t-154 -39.5zM335 51q71 0 123 34.5t86 90t50.5 126.5t16.5 144q0 122 -51 177t-145 55
q-71 0 -123 -34.5t-85.5 -90.5t-50 -127t-16.5 -144q0 -122 50.5 -176.5t144.5 -54.5zM486 831q-5 -2 -11.5 -3t-16.5 -1q-11 0 -17.5 1t-11.5 3l-64 171q7 2 14.5 3t21.5 1q13 0 21.5 -1t15.5 -3z" />
    <glyph glyph-name="Oacute" unicode="&#xd3;" horiz-adv-x="736" 
d="M332 -14q-122 0 -193 72t-71 218q0 89 21.5 173t65 149.5t109.5 105t155 39.5q61 0 109.5 -18.5t83 -55t53 -92t18.5 -130.5q0 -86 -21.5 -169t-65.5 -148t-110 -104.5t-154 -39.5zM335 51q71 0 123 34.5t86 90t50.5 126.5t16.5 144q0 122 -51 177t-145 55
q-71 0 -123 -34.5t-85.5 -90.5t-50 -127t-16.5 -144q0 -122 50.5 -176.5t144.5 -54.5zM560 1006q14 0 23.5 -1t16.5 -3l-121 -171q-6 -2 -13.5 -3t-18.5 -1t-19 1t-14 3l106 171q7 2 16.5 3t23.5 1z" />
    <glyph glyph-name="Ocircumflex" unicode="&#xd4;" horiz-adv-x="736" 
d="M332 -14q-122 0 -193 72t-71 218q0 89 21.5 173t65 149.5t109.5 105t155 39.5q61 0 109.5 -18.5t83 -55t53 -92t18.5 -130.5q0 -86 -21.5 -169t-65.5 -148t-110 -104.5t-154 -39.5zM335 51q71 0 123 34.5t86 90t50.5 126.5t16.5 144q0 122 -51 177t-145 55
q-71 0 -123 -34.5t-85.5 -90.5t-50 -127t-16.5 -144q0 -122 50.5 -176.5t144.5 -54.5zM573 830q-5 -2 -11.5 -3t-17.5 -1t-17 1t-11 3l-45 125l-80 -125q-5 -2 -13 -3t-19 -1t-18.5 1t-12.5 3l108 172q8 2 16.5 3t25.5 1q16 0 24.5 -1t16.5 -3z" />
    <glyph glyph-name="Otilde" unicode="&#xd5;" horiz-adv-x="736" 
d="M332 -14q-122 0 -193 72t-71 218q0 89 21.5 173t65 149.5t109.5 105t155 39.5q61 0 109.5 -18.5t83 -55t53 -92t18.5 -130.5q0 -86 -21.5 -169t-65.5 -148t-110 -104.5t-154 -39.5zM335 51q71 0 123 34.5t86 90t50.5 126.5t16.5 144q0 122 -51 177t-145 55
q-71 0 -123 -34.5t-85.5 -90.5t-50 -127t-16.5 -144q0 -122 50.5 -176.5t144.5 -54.5zM608 922q16 -9 21 -18q-7 -16 -17.5 -31.5t-24.5 -27.5t-32 -19t-40 -7q-29 0 -45.5 6.5t-28.5 15.5q-16 11 -29.5 20.5t-30.5 9.5q-23 0 -37.5 -11.5t-27.5 -37.5q-5 0 -13.5 1.5
t-17.5 5.5q-8 4 -12.5 8.5t-6.5 9.5q7 16 18 31.5t25 27.5t32 19t40 7q38 0 58 -12t34 -23q11 -8 20.5 -13t21.5 -5q43 0 65 49q5 0 12.5 -0.5t15.5 -5.5z" />
    <glyph glyph-name="Odieresis" unicode="&#xd6;" horiz-adv-x="736" 
d="M332 -14q-122 0 -193 72t-71 218q0 89 21.5 173t65 149.5t109.5 105t155 39.5q61 0 109.5 -18.5t83 -55t53 -92t18.5 -130.5q0 -86 -21.5 -169t-65.5 -148t-110 -104.5t-154 -39.5zM335 51q71 0 123 34.5t86 90t50.5 126.5t16.5 144q0 122 -51 177t-145 55
q-71 0 -123 -34.5t-85.5 -90.5t-50 -127t-16.5 -144q0 -122 50.5 -176.5t144.5 -54.5zM371 853q-12 0 -20 1t-13 3q-1 6 -1 14t2 20t4.5 20t4.5 14q7 2 15 3t20 1t20 -1t13 -3q1 -6 1 -14t-2 -20t-4.5 -20t-4.5 -14q-7 -2 -15 -3t-20 -1zM540 853q-12 0 -20 1t-13 3
q-1 6 -1 14t2 20t4.5 20t4.5 14q7 2 15 3t20 1t20 -1t13 -3q1 -6 1 -14t-2 -20t-4.5 -20t-4.5 -14q-7 -2 -15 -3t-20 -1z" />
    <glyph glyph-name="Oslash" unicode="&#xd8;" horiz-adv-x="736" 
d="M628 649q55 -73 55 -202q0 -86 -21.5 -169t-65.5 -148t-110 -104.5t-154 -39.5q-97 0 -161 45l-62 -84q-5 2 -11.5 5t-15.5 8q-9 6 -14 11l-9 9l68 92q-29 36 -44 87t-15 117q0 89 21.5 173t65 149.5t109.5 105t155 39.5q101 0 168 -50l56 75q5 -2 12 -4.5t15 -8.5
q9 -5 14 -10l9 -9zM415 678q-71 0 -123 -34.5t-85.5 -90.5t-50 -127t-16.5 -144q0 -96 33 -151l373 505q-24 22 -57 32t-74 10zM335 51q71 0 123 34.5t86 90t50.5 126.5t16.5 144q0 88 -29 143l-371 -502q48 -36 124 -36z" />
    <glyph glyph-name="OE" unicode="&#x152;" horiz-adv-x="1027" 
d="M1021 729q2 -8 2 -15t-2 -18q-2 -9 -4.5 -16.5t-5.5 -14.5h-322l-41 -254h280q1 -6 1.5 -14t-1.5 -17q-3 -21 -10 -33h-281l-44 -283h340q3 -14 0 -32q-3 -16 -10 -32h-405l14 91q-37 -49 -87.5 -77t-117.5 -28q-59 0 -107 18t-82 54t-52 90.5t-18 127.5q0 89 21.5 173
t64.5 149.5t108 105t152 39.5q66 0 119.5 -32t82.5 -95l18 113h387zM330 51q68 0 116.5 34.5t80 91.5t46 130.5t14.5 151.5q0 112 -47 165.5t-130 53.5q-69 0 -120 -34.5t-84 -90.5t-49.5 -127t-16.5 -144q0 -122 50.5 -176.5t139.5 -54.5z" />
    <glyph glyph-name="Thorn" unicode="&#xde;" horiz-adv-x="621" 
d="M357 595q107 0 165.5 -51.5t58.5 -145.5q0 -121 -74 -186.5t-211 -65.5h-151l-23 -144q-7 -2 -15 -3t-20 -1t-20 1t-13 3l114 725q7 2 15 3t20 1t20 -1t13 -3l-21 -132h142zM294 209q103 0 158.5 48t55.5 137q0 66 -42.5 101.5t-120.5 35.5h-140l-50 -322h139z" />
    <glyph glyph-name="Scaron" unicode="&#x160;" horiz-adv-x="613" 
d="M273 -14q-43 0 -81 8t-70 21.5t-57.5 30.5t-43.5 34q3 6 6.5 11.5t11.5 15.5q8 9 15 14.5t12 8.5q42 -35 94.5 -57t116.5 -22q52 0 88 12.5t58.5 34t32.5 50t10 60.5q0 38 -12.5 60.5t-35 36.5t-53 23t-66.5 20q-40 12 -75.5 24.5t-61.5 32t-41.5 49.5t-15.5 77
q0 44 15 83t46 67.5t79 45t113 16.5q39 0 74.5 -7t65.5 -18.5t53 -24.5t38 -25q-5 -12 -16 -27q-8 -11 -13.5 -17t-10.5 -11q-32 25 -83.5 45.5t-117.5 20.5q-47 0 -80 -11.5t-53.5 -31.5t-30 -46.5t-9.5 -56.5q0 -32 13 -52t35.5 -32.5t54 -21.5t68.5 -19q40 -11 75 -25.5
t61 -37t41 -55.5t15 -82q0 -48 -17 -88.5t-50.5 -70.5t-83 -46.5t-114.5 -16.5zM420 831h1q-8 -2 -16 -3t-22 -1t-21.5 1t-15.5 3l-61 172q5 2 13.5 3t19.5 1t17.5 -1t12.5 -3l41 -127l72 127q5 2 14.5 3t20.5 1t20 -1t14 -3z" />
    <glyph glyph-name="Ugrave" unicode="&#xd9;" horiz-adv-x="725" 
d="M661 731q12 0 20 -1t13 -3l-71 -447q-23 -140 -99.5 -217t-204.5 -77q-115 0 -174.5 56t-59.5 165q0 36 7.5 92.5t18.5 125.5t25 146.5t26 155.5q7 2 15 3t20 1t20 -1t13 -3q-12 -75 -25 -151t-24 -145t-18.5 -126t-7.5 -92q0 -84 41.5 -123t125.5 -39q97 0 156.5 60.5
t78.5 178.5l69 437q7 2 15 3t20 1zM480 831q-5 -2 -11.5 -3t-16.5 -1q-11 0 -17.5 1t-11.5 3l-64 171q7 2 14.5 3t21.5 1q13 0 21.5 -1t15.5 -3z" />
    <glyph glyph-name="Uacute" unicode="&#xda;" horiz-adv-x="725" 
d="M661 731q12 0 20 -1t13 -3l-71 -447q-23 -140 -99.5 -217t-204.5 -77q-115 0 -174.5 56t-59.5 165q0 36 7.5 92.5t18.5 125.5t25 146.5t26 155.5q7 2 15 3t20 1t20 -1t13 -3q-12 -75 -25 -151t-24 -145t-18.5 -126t-7.5 -92q0 -84 41.5 -123t125.5 -39q97 0 156.5 60.5
t78.5 178.5l69 437q7 2 15 3t20 1zM554 1006q14 0 23.5 -1t16.5 -3l-121 -171q-6 -2 -13.5 -3t-18.5 -1t-19 1t-14 3l106 171q7 2 16.5 3t23.5 1z" />
    <glyph glyph-name="Ucircumflex" unicode="&#xdb;" horiz-adv-x="725" 
d="M661 731q12 0 20 -1t13 -3l-71 -447q-23 -140 -99.5 -217t-204.5 -77q-115 0 -174.5 56t-59.5 165q0 36 7.5 92.5t18.5 125.5t25 146.5t26 155.5q7 2 15 3t20 1t20 -1t13 -3q-12 -75 -25 -151t-24 -145t-18.5 -126t-7.5 -92q0 -84 41.5 -123t125.5 -39q97 0 156.5 60.5
t78.5 178.5l69 437q7 2 15 3t20 1zM567 830q-5 -2 -11.5 -3t-17.5 -1t-17 1t-11 3l-45 125l-80 -125q-5 -2 -13 -3t-19 -1t-18.5 1t-12.5 3l108 172q8 2 16.5 3t25.5 1q16 0 24.5 -1t16.5 -3z" />
    <glyph glyph-name="Udieresis" unicode="&#xdc;" horiz-adv-x="725" 
d="M661 731q12 0 20 -1t13 -3l-71 -447q-23 -140 -99.5 -217t-204.5 -77q-115 0 -174.5 56t-59.5 165q0 36 7.5 92.5t18.5 125.5t25 146.5t26 155.5q7 2 15 3t20 1t20 -1t13 -3q-12 -75 -25 -151t-24 -145t-18.5 -126t-7.5 -92q0 -84 41.5 -123t125.5 -39q97 0 156.5 60.5
t78.5 178.5l69 437q7 2 15 3t20 1zM365 853q-12 0 -20 1t-13 3q-1 6 -1 14t2 20t4.5 20t4.5 14q7 2 15 3t20 1t20 -1t13 -3q1 -6 1 -14t-2 -20t-4.5 -20t-4.5 -14q-7 -2 -15 -3t-20 -1zM534 853q-12 0 -20 1t-13 3q-1 6 -1 14t2 20t4.5 20t4.5 14q7 2 15 3t20 1t20 -1t13 -3
q1 -6 1 -14t-2 -20t-4.5 -20t-4.5 -14q-7 -2 -15 -3t-20 -1z" />
    <glyph glyph-name="Yacute" unicode="&#xdd;" horiz-adv-x="611" 
d="M337 305l-48 -305q-6 -2 -14 -3t-20 -1t-20 1t-14 3l49 307l-196 420q8 2 17 3t23 1t21.5 -1t14.5 -3l118 -257q13 -27 23 -51t21 -51q17 27 35 51t40 52l200 256q7 2 17.5 3t24.5 1t22.5 -1t15.5 -3zM497 1006q14 0 23.5 -1t16.5 -3l-121 -171q-6 -2 -13.5 -3t-18.5 -1
t-19 1t-14 3l106 171q7 2 16.5 3t23.5 1z" />
    <glyph glyph-name="Ydieresis" unicode="&#x178;" horiz-adv-x="611" 
d="M337 305l-48 -305q-6 -2 -14 -3t-20 -1t-20 1t-14 3l49 307l-196 420q8 2 17 3t23 1t21.5 -1t14.5 -3l118 -257q13 -27 23 -51t21 -51q17 27 35 51t40 52l200 256q7 2 17.5 3t24.5 1t22.5 -1t15.5 -3zM308 853q-12 0 -20 1t-13 3q-1 6 -1 14t2 20t4.5 20t4.5 14q7 2 15 3
t20 1t20 -1t13 -3q1 -6 1 -14t-2 -20t-4.5 -20t-4.5 -14q-7 -2 -15 -3t-20 -1zM477 853q-12 0 -20 1t-13 3q-1 6 -1 14t2 20t4.5 20t4.5 14q7 2 15 3t20 1t20 -1t13 -3q1 -6 1 -14t-2 -20t-4.5 -20t-4.5 -14q-7 -2 -15 -3t-20 -1z" />
    <glyph glyph-name="Zcaron" unicode="&#x17d;" horiz-adv-x="605" 
d="M608 708q0 -31 -23 -59l-495 -585h427q1 -3 1 -13v-8.5t-2 -10.5q-2 -11 -4 -18.5t-5 -13.5h-510v11v10t2 13q2 12 4.5 20t4.5 14l502 596l-389 1q-2 15 1 32q3 20 9 32h475q1 -5 1.5 -9.5t0.5 -11.5zM425 830h1q-8 -2 -16 -3t-22 -1t-21.5 1t-15.5 3l-61 172q5 2 13.5 3
t19.5 1t17.5 -1t12.5 -3l41 -127l72 127q5 2 14.5 3t20.5 1t20 -1t14 -3z" />
    <glyph glyph-name="a" unicode="a" horiz-adv-x="623" 
d="M548 549q8 0 12.5 -1t8.5 -3l-86 -545q-10 -4 -23 -4q-8 0 -12.5 1t-8.5 3v91q-35 -50 -84.5 -77.5t-111.5 -27.5q-44 0 -79.5 15t-60.5 43.5t-39 68t-14 89.5q0 76 19 141t54 113t84.5 75t111.5 27t107 -30.5t66 -87.5l33 105q10 4 23 4zM260 46q47 0 85.5 20.5t65.5 58
t42 90t15 117.5q0 37 -10 67.5t-28.5 52t-44.5 33t-57 11.5q-47 0 -85 -22t-65 -60t-42 -89.5t-15 -110.5q0 -78 38 -123t101 -45z" />
    <glyph glyph-name="b" unicode="b" horiz-adv-x="622" 
d="M365 559q43 0 79 -15t61 -43.5t39 -68.5t14 -89q0 -76 -19 -141t-54 -113t-85 -75t-111 -27q-60 0 -104.5 29.5t-66.5 84.5l-24 -99q-5 -2 -11 -3t-16 -1q-9 0 -15 1t-11 3l124 780q6 2 14 3t20 1t20 -1t14 -3l-49 -308q35 41 80 63t101 22zM280 49q47 0 85 22t65 60
t42 89.5t15 110.5q0 78 -38 123t-101 45q-47 0 -85.5 -20.5t-65.5 -58t-42 -90.5t-15 -117q0 -37 10 -67.5t28.5 -52t44 -33t57.5 -11.5z" />
    <glyph glyph-name="c" unicode="c" horiz-adv-x="511" 
d="M329 559q45 0 84 -13t74 -36q-1 -5 -3.5 -11.5t-8.5 -17.5q-8 -14 -21 -25q-31 17 -62 29.5t-68 12.5q-45 0 -82.5 -20.5t-64.5 -58t-41.5 -90.5t-14.5 -117q0 -78 39.5 -121.5t104.5 -43.5q32 0 67 11.5t70 32.5q5 -3 10 -8.5t10 -16.5q5 -10 5.5 -17.5t1.5 -12.5
q-42 -28 -85.5 -39t-81.5 -11q-102 0 -157 61t-55 165q0 78 20.5 142t57 109.5t88 70.5t113.5 25z" />
    <glyph glyph-name="d" unicode="d" horiz-adv-x="623" 
d="M573 786q12 0 20 -1t14 -3l-124 -780q-5 -2 -11 -3t-15 -1q-10 0 -16 1t-11 3l7 86q-35 -48 -84 -75t-110 -27q-44 0 -79.5 15t-60.5 43.5t-39 68t-14 89.5q0 76 19 141t54 113t84.5 75t111.5 27q58 0 101.5 -27t66.5 -78l52 329q6 2 14 3t20 1zM260 46q47 0 85.5 20.5
t65.5 58t42 90t15 117.5q0 37 -10 67.5t-28.5 52t-44.5 33t-57 11.5q-47 0 -85 -22t-65 -60t-42 -89.5t-15 -110.5q0 -78 38 -123t101 -45z" />
    <glyph glyph-name="e" unicode="e" horiz-adv-x="563" 
d="M515 408q0 -98 -101.5 -148.5t-294.5 -52.5q3 -83 40.5 -121t112.5 -38q83 0 169 49q13 -10 19 -27q3 -9 4 -17t1 -13q-52 -29 -102 -41.5t-100 -12.5q-104 0 -158 58t-54 168q0 71 18 134t53 110.5t88 75t123 27.5q91 0 136.5 -41t45.5 -110zM121 268q157 1 241 35
t84 103q0 38 -27.5 65t-92.5 27q-47 0 -83 -18t-61.5 -49t-40.5 -73t-20 -90z" />
    <glyph glyph-name="f" unicode="f" horiz-adv-x="359" 
d="M351 796q35 0 63 -8t49 -16q-1 -6 -3 -13t-7 -18t-8.5 -18t-7.5 -12q-17 6 -41.5 12.5t-53.5 6.5q-42 0 -69 -24t-36 -79l-13 -82h143q1 -4 1 -15v-7t-1 -9q-2 -11 -4.5 -18t-4.5 -12h-144l-77 -484q-6 -2 -14 -3t-20 -1t-20 1t-14 3l77 484h-86q0 3 -0.5 6t-0.5 7
t0.5 8.5t1.5 9.5q2 11 4 18t4 12h87l14 86q13 81 61 123t120 42z" />
    <glyph glyph-name="g" unicode="g" horiz-adv-x="620" 
d="M539 547q10 0 16 -1t10 -3l-83 -525q-19 -118 -88.5 -178.5t-184.5 -60.5q-51 0 -99.5 11t-96.5 33q0 6 1.5 14.5t6.5 19.5q6 13 11.5 19t10.5 11q96 -43 165 -43q88 0 140.5 45.5t66.5 133.5l11 70q-34 -40 -79.5 -61.5t-100.5 -21.5q-44 0 -80 14.5t-61.5 41t-39.5 64
t-14 84.5q0 73 19 136t53.5 109.5t84 72.5t110.5 26q60 0 105 -28t68 -79l21 92q5 2 11.5 3t15.5 1zM263 70q46 0 84 19.5t65 55.5t42 86.5t15 112.5q0 69 -39 110.5t-103 41.5q-47 0 -84.5 -21t-64.5 -57.5t-41.5 -85.5t-14.5 -106q0 -72 38.5 -114t102.5 -42z" />
    <glyph glyph-name="h" unicode="h" horiz-adv-x="601" 
d="M363 559q77 0 119 -38t42 -106q0 -31 -15 -138t-43 -275q-10 -2 -18.5 -3t-15.5 -1t-15.5 1t-18.5 3q26 161 40.5 263.5t15.5 132.5q1 45 -25.5 70.5t-79.5 25.5q-76 0 -128 -60t-70 -171l-42 -261q-6 -2 -14 -3t-20 -1t-20 1t-14 3l124 780q6 2 14 3t20 1t20 -1t14 -3
l-51 -321q69 98 181 98z" />
    <glyph glyph-name="i" unicode="i" horiz-adv-x="248" 
d="M228 743q1 -13 -2 -35q-5 -26 -10 -40q-18 -5 -39 -5q-20 0 -37 5q-2 17 1 37q2 9 4 19t7 19q18 5 39 5q13 0 21 -1.5t16 -3.5zM126 543q6 2 14.5 3t20.5 1t19.5 -1t13.5 -3l-86 -541q-6 -2 -14 -3t-20 -1t-20 1t-14 3z" />
    <glyph glyph-name="j" unicode="j" horiz-adv-x="249" 
d="M226 743q1 -13 -2 -35q-5 -26 -10 -40q-18 -5 -39 -5q-20 0 -37 5q-2 17 1 37q2 9 4 19t7 19q18 5 39 5q13 0 21 -1.5t16 -3.5zM127 545q6 2 14 3t20 1t20 -1t14 -3l-88 -556q-14 -85 -53.5 -137.5t-117.5 -72.5q-11 9 -15 27q-5 22 -2 33q53 17 81 50t37 90z" />
    <glyph glyph-name="k" unicode="k" horiz-adv-x="532" 
d="M199 786q12 0 19.5 -1t13.5 -3l-124 -782q-6 -2 -14.5 -3t-20.5 -1t-19.5 1t-13.5 3l124 782q6 2 14.5 3t20.5 1zM260 276l211 -276q-8 -2 -16.5 -3t-21.5 -1q-16 0 -26 1t-18 3l-214 281l278 264q8 2 18.5 3t26.5 1q17 0 28 -1t18 -3z" />
    <glyph glyph-name="l" unicode="l" horiz-adv-x="249" 
d="M81 -4q-18 0 -28 9.5t-8 26.5l119 750q6 2 14.5 3t20.5 1t19.5 -1t13.5 -3l-124 -782q-7 -2 -14 -3t-13 -1z" />
    <glyph glyph-name="m" unicode="m" horiz-adv-x="936" 
d="M703 559q75 0 115.5 -38t40.5 -106q0 -31 -15 -138t-43 -275q-10 -2 -18.5 -3t-15.5 -1t-15.5 1t-18.5 3q26 161 40.5 263.5t15.5 132.5q1 45 -24 70.5t-76 25.5q-69 0 -118.5 -53.5t-70.5 -152.5q-7 -54 -18 -125.5t-26 -160.5q-10 -2 -18.5 -3t-15.5 -1t-15.5 1
t-18.5 3q26 161 40.5 263.5t15.5 132.5q1 45 -24.5 70.5t-75.5 25.5q-75 0 -126 -61.5t-68 -174.5h-1l-41 -256q-5 -2 -13 -3t-21 -1q-12 0 -20 1t-14 3l86 541q5 2 12 3t16 1q10 0 15.5 -1t10.5 -3l-7 -94q34 54 80.5 82t104.5 28q66 0 106 -31t48 -88q35 58 83 88.5
t108 30.5z" />
    <glyph glyph-name="n" unicode="n" horiz-adv-x="600" 
d="M362 559q77 0 119 -38t42 -106q0 -31 -15 -138t-43 -275q-10 -2 -18.5 -3t-15.5 -1t-15.5 1t-18.5 3q26 161 40.5 263.5t15.5 132.5q1 45 -25.5 70.5t-79.5 25.5q-77 0 -129 -61.5t-70 -174.5l-41 -256q-10 -2 -18.5 -3t-15.5 -1t-15.5 1t-18.5 3l86 541q8 2 15 3t13 1
q14 0 26 -4l-7 -95q35 54 82 82.5t107 28.5z" />
    <glyph glyph-name="o" unicode="o" horiz-adv-x="608" 
d="M261 -14q-48 0 -86.5 15t-66.5 44t-43 71t-15 96q0 76 20.5 139.5t57.5 109.5t89.5 72t115.5 26q48 0 86.5 -15t66.5 -44t43 -71t15 -96q0 -76 -20 -139.5t-57 -109.5t-89.5 -72t-116.5 -26zM268 46q46 0 84 20.5t65 58.5t41.5 90.5t14.5 117.5q0 78 -40 121t-107 45
q-47 0 -84.5 -20.5t-64.5 -58.5t-41.5 -91t-14.5 -117q0 -78 40.5 -122t106.5 -44z" />
    <glyph glyph-name="p" unicode="p" horiz-adv-x="624" 
d="M367 559q43 0 79 -15t61 -43.5t39 -68.5t14 -89q0 -76 -19 -141t-54 -113t-85 -75t-111 -27q-58 0 -101.5 27t-66.5 78l-47 -299q-8 -2 -17.5 -3t-17.5 -1q-9 0 -17.5 1t-15.5 3l118 750h1q7 2 14 3t13 1q8 0 14.5 -1t11.5 -3l-7 -85q35 48 84 74.5t110 26.5zM282 49
q47 0 85 22t65 60t42 89.5t15 110.5q0 78 -38 123t-101 45q-47 0 -85.5 -20.5t-65.5 -58t-42 -90.5t-15 -117q0 -37 10 -67.5t28.5 -52t44 -33t57.5 -11.5z" />
    <glyph glyph-name="q" unicode="q" horiz-adv-x="624" 
d="M543 547q10 0 16 -1t10 -3l-118 -750q-7 -2 -15 -3t-20 -1t-20 1t-13 3l45 283q-35 -43 -81.5 -66.5t-103.5 -23.5q-44 0 -79.5 15t-60.5 43.5t-39 68t-14 89.5q0 76 19 141t54 113t84.5 75t111.5 27q61 0 106 -30t66 -87l24 102q5 2 11.5 3t16.5 1zM260 46
q47 0 85.5 20.5t65.5 58t42 90t15 117.5q0 37 -10 67.5t-28.5 52t-44.5 33t-57 11.5q-47 0 -85 -22t-65 -60t-42 -89.5t-15 -110.5q0 -78 38 -123t101 -45z" />
    <glyph glyph-name="r" unicode="r" horiz-adv-x="372" 
d="M349 559q19 0 39 -5q0 -9 -1.5 -16t-3.5 -15t-5 -15t-8 -16l-29 2q-68 0 -117 -49t-71 -165l-45 -278q-6 -2 -14 -3t-20 -1t-20 1t-14 3l86 541h1q5 2 11.5 3t15.5 1t14.5 -1t10.5 -3h1l-7 -90q37 58 83.5 82t92.5 24z" />
    <glyph glyph-name="s" unicode="s" horiz-adv-x="507" 
d="M280 560q48 0 96 -11t86 -29q0 -5 -2 -14t-6 -17t-8.5 -15.5t-9.5 -11.5q-29 14 -73.5 25t-86.5 11q-57 0 -94.5 -22t-37.5 -76q0 -20 8 -32.5t23 -22t37 -17t51 -16.5q36 -11 66.5 -21.5t52 -27t33.5 -42t12 -65.5q0 -43 -16 -75t-44.5 -53t-67.5 -31.5t-84 -10.5
q-61 0 -113 14t-86 33q1 5 3 13.5t8 19.5t10.5 16t9.5 9q38 -18 78 -30.5t94 -12.5q71 0 104 28.5t33 76.5q0 22 -8 37t-23.5 25.5t-39.5 19t-55 17.5q-33 10 -61.5 21t-49.5 27.5t-32.5 39t-11.5 55.5q0 43 15.5 74t42.5 51.5t64.5 30t82.5 9.5z" />
    <glyph glyph-name="t" unicode="t" horiz-adv-x="372" 
d="M355 545q1 -3 1 -12v-8.5t-2 -10.5q-2 -11 -4 -18t-4 -12h-134q-29 -176 -44 -269.5t-15 -116.5q0 -27 19 -35.5t45 -8.5q23 0 41 5t36 13q3 -5 6.5 -12t5.5 -16q4 -17 3 -30q-18 -11 -47 -19t-69 -8q-15 0 -33.5 4t-35 14.5t-28 28t-11.5 44.5q0 13 3 40t10 74.5
t18.5 118.5t27.5 173h-86q0 3 -0.5 6t-0.5 7t0.5 8.5t1.5 9.5q2 11 4 18t4 12h87l45 134q5 2 10 3t13 1q13 0 21 -4q-6 -36 -11 -69t-10 -65h133v0z" />
    <glyph glyph-name="u" unicode="u" horiz-adv-x="590" 
d="M502 547q7 0 15.5 -1t18.5 -3l-86 -541q-8 -2 -15 -3t-13 -1q-14 0 -26 4l7 91q-69 -107 -184 -107q-75 0 -115.5 38t-40.5 106q0 31 15 138t43 275q10 2 18.5 3t15.5 1t15.5 -1t18.5 -3q-26 -161 -41 -263.5t-15 -132.5q0 -45 24.5 -70.5t75.5 -25.5q72 0 121 55t69 158
l45 279q10 2 18.5 3t15.5 1z" />
    <glyph glyph-name="v" unicode="v" horiz-adv-x="528" 
d="M500 547q13 0 22 -1t16 -3l-280 -541q-8 -2 -18.5 -3t-25.5 -1q-16 0 -26.5 1t-18.5 3l-107 541q6 2 14 3t20 1q11 0 19 -1t14 -3l72 -383q3 -14 5.5 -29.5t5.5 -30t5 -27t3 -19.5q3 7 9 19.5t13 27.5t14.5 30.5t14.5 28.5l193 383q5 2 15 3t21 1z" />
    <glyph glyph-name="w" unicode="w" horiz-adv-x="797" 
d="M765 547q11 0 20 -1t16 -3l-240 -541q-8 -2 -18.5 -3t-26.5 -1t-26 1t-18 3l-43 372q-2 12 -3 28t-2 31t-1.5 28t-0.5 19q-2 -6 -6.5 -18t-10 -27t-12 -31t-12.5 -30l-158 -372q-8 -2 -18 -3t-26 -1t-26 1t-18 3l-67 541q6 2 14 3t20 1q11 0 19 -1t14 -3l44 -390
q3 -24 5.5 -53.5t2.5 -44.5q5 16 15.5 45t20.5 53l162 390q9 2 21 3t29 1q13 0 21.5 -1t15.5 -3l45 -390q1 -11 2.5 -25t2.5 -27.5t1.5 -25.5t0.5 -19q2 7 6.5 18.5t9.5 25t11 27.5t11 26l166 390q7 2 15 3t22 1z" />
    <glyph glyph-name="x" unicode="x" horiz-adv-x="521" 
d="M295 272l145 -270q-7 -2 -16.5 -3t-23.5 -1q-13 0 -21.5 1t-15.5 3l-118 220l-179 -220q-8 -2 -18.5 -3t-24.5 -1q-15 0 -24.5 1t-17.5 3l234 277l-142 264h1q7 2 16 3t23 1t22 -1t15 -3l114 -212l172 212q8 2 18.5 3t24.5 1q15 0 24.5 -1t17.5 -3z" />
    <glyph glyph-name="y" unicode="y" horiz-adv-x="590" 
d="M502 547q12 0 20 -1t13 -3l-82 -525q-18 -118 -88 -178.5t-185 -60.5q-43 0 -89 10t-88 28q0 18 8 34q8 18 22 30q41 -18 78.5 -27.5t66.5 -9.5q88 0 141 45.5t67 133.5l13 82q-69 -95 -180 -95q-75 0 -114.5 35t-39.5 97q0 31 14 134t42 267q10 2 18.5 3t15.5 1t15.5 -1
t18.5 -3q-26 -157 -40 -255.5t-14 -128.5q0 -39 23.5 -61.5t74.5 -22.5q73 0 124 57.5t70 153.5l40 257q7 2 15 3t20 1z" />
    <glyph glyph-name="z" unicode="z" horiz-adv-x="514" 
d="M489 545q1 -5 1.5 -9t0.5 -8v-10.5t-2 -11.5q-5 -17 -17 -31l-372 -414h321v-12v-8.5t-1 -10.5q-2 -11 -4.5 -18t-4.5 -12h-407q0 3 -0.5 6t-0.5 7t0.5 8.5t1.5 9.5q3 19 9 30l378 423h-306v13v8.5t1 9.5q2 11 4.5 18t4.5 12h393v0z" />
    <glyph glyph-name="agrave" unicode="&#xe0;" horiz-adv-x="623" 
d="M548 549q8 0 12.5 -1t8.5 -3l-86 -545q-10 -4 -23 -4q-8 0 -12.5 1t-8.5 3v91q-35 -50 -84.5 -77.5t-111.5 -27.5q-44 0 -79.5 15t-60.5 43.5t-39 68t-14 89.5q0 76 19 141t54 113t84.5 75t111.5 27t107 -30.5t66 -87.5l33 105q10 4 23 4zM260 46q47 0 85.5 20.5t65.5 58
t42 90t15 117.5q0 37 -10 67.5t-28.5 52t-44.5 33t-57 11.5q-47 0 -85 -22t-65 -60t-42 -89.5t-15 -110.5q0 -78 38 -123t101 -45zM388 647q-5 -2 -11.5 -3t-16.5 -1q-11 0 -17.5 1t-11.5 3l-64 171q7 2 14.5 3t21.5 1q13 0 21.5 -1t15.5 -3z" />
    <glyph glyph-name="aacute" unicode="&#xe1;" horiz-adv-x="623" 
d="M548 549q8 0 12.5 -1t8.5 -3l-86 -545q-10 -4 -23 -4q-8 0 -12.5 1t-8.5 3v91q-35 -50 -84.5 -77.5t-111.5 -27.5q-44 0 -79.5 15t-60.5 43.5t-39 68t-14 89.5q0 76 19 141t54 113t84.5 75t111.5 27t107 -30.5t66 -87.5l33 105q10 4 23 4zM260 46q47 0 85.5 20.5t65.5 58
t42 90t15 117.5q0 37 -10 67.5t-28.5 52t-44.5 33t-57 11.5q-47 0 -85 -22t-65 -60t-42 -89.5t-15 -110.5q0 -78 38 -123t101 -45zM462 822q14 0 23.5 -1t16.5 -3l-121 -171q-6 -2 -13.5 -3t-18.5 -1t-19 1t-14 3l106 171q7 2 16.5 3t23.5 1z" />
    <glyph glyph-name="acircumflex" unicode="&#xe2;" horiz-adv-x="623" 
d="M548 549q8 0 12.5 -1t8.5 -3l-86 -545q-10 -4 -23 -4q-8 0 -12.5 1t-8.5 3v91q-35 -50 -84.5 -77.5t-111.5 -27.5q-44 0 -79.5 15t-60.5 43.5t-39 68t-14 89.5q0 76 19 141t54 113t84.5 75t111.5 27t107 -30.5t66 -87.5l33 105q10 4 23 4zM260 46q47 0 85.5 20.5t65.5 58
t42 90t15 117.5q0 37 -10 67.5t-28.5 52t-44.5 33t-57 11.5q-47 0 -85 -22t-65 -60t-42 -89.5t-15 -110.5q0 -78 38 -123t101 -45zM475 646q-5 -2 -11.5 -3t-17.5 -1t-17 1t-11 3l-45 125l-80 -125q-5 -2 -13 -3t-19 -1t-18.5 1t-12.5 3l108 172q8 2 16.5 3t25.5 1
q16 0 24.5 -1t16.5 -3z" />
    <glyph glyph-name="atilde" unicode="&#xe3;" horiz-adv-x="623" 
d="M548 549q8 0 12.5 -1t8.5 -3l-86 -545q-10 -4 -23 -4q-8 0 -12.5 1t-8.5 3v91q-35 -50 -84.5 -77.5t-111.5 -27.5q-44 0 -79.5 15t-60.5 43.5t-39 68t-14 89.5q0 76 19 141t54 113t84.5 75t111.5 27t107 -30.5t66 -87.5l33 105q10 4 23 4zM260 46q47 0 85.5 20.5t65.5 58
t42 90t15 117.5q0 37 -10 67.5t-28.5 52t-44.5 33t-57 11.5q-47 0 -85 -22t-65 -60t-42 -89.5t-15 -110.5q0 -78 38 -123t101 -45zM510 738q16 -9 21 -18q-7 -16 -17.5 -31.5t-24.5 -27.5t-32 -19t-40 -7q-29 0 -45.5 6.5t-28.5 15.5q-16 11 -29.5 20.5t-30.5 9.5
q-23 0 -37.5 -11.5t-27.5 -37.5q-5 0 -13.5 1.5t-17.5 5.5q-8 4 -12.5 8.5t-6.5 9.5q7 16 18 31.5t25 27.5t32 19t40 7q38 0 58 -12t34 -23q11 -8 20.5 -13t21.5 -5q43 0 65 49q5 0 12.5 -0.5t15.5 -5.5z" />
    <glyph glyph-name="adieresis" unicode="&#xe4;" horiz-adv-x="623" 
d="M548 549q8 0 12.5 -1t8.5 -3l-86 -545q-10 -4 -23 -4q-8 0 -12.5 1t-8.5 3v91q-35 -50 -84.5 -77.5t-111.5 -27.5q-44 0 -79.5 15t-60.5 43.5t-39 68t-14 89.5q0 76 19 141t54 113t84.5 75t111.5 27t107 -30.5t66 -87.5l33 105q10 4 23 4zM260 46q47 0 85.5 20.5t65.5 58
t42 90t15 117.5q0 37 -10 67.5t-28.5 52t-44.5 33t-57 11.5q-47 0 -85 -22t-65 -60t-42 -89.5t-15 -110.5q0 -78 38 -123t101 -45zM273 669q-12 0 -20 1t-13 3q-1 6 -1 14t2 20t4.5 20t4.5 14q7 2 15 3t20 1t20 -1t13 -3q1 -6 1 -14t-2 -20t-4.5 -20t-4.5 -14q-7 -2 -15 -3
t-20 -1zM442 669q-12 0 -20 1t-13 3q-1 6 -1 14t2 20t4.5 20t4.5 14q7 2 15 3t20 1t20 -1t13 -3q1 -6 1 -14t-2 -20t-4.5 -20t-4.5 -14q-7 -2 -15 -3t-20 -1z" />
    <glyph glyph-name="aring" unicode="&#xe5;" horiz-adv-x="623" 
d="M548 549q8 0 12.5 -1t8.5 -3l-86 -545q-10 -4 -23 -4q-8 0 -12.5 1t-8.5 3v91q-35 -50 -84.5 -77.5t-111.5 -27.5q-44 0 -79.5 15t-60.5 43.5t-39 68t-14 89.5q0 76 19 141t54 113t84.5 75t111.5 27t107 -30.5t66 -87.5l33 105q10 4 23 4zM260 46q47 0 85.5 20.5t65.5 58
t42 90t15 117.5q0 37 -10 67.5t-28.5 52t-44.5 33t-57 11.5q-47 0 -85 -22t-65 -60t-42 -89.5t-15 -110.5q0 -78 38 -123t101 -45zM354 633q-45 0 -71 22t-26 67q0 49 31.5 83.5t89.5 34.5q45 0 70.5 -22.5t25.5 -67.5q0 -49 -31.5 -83t-88.5 -34zM359 683q28 0 45 16t17 44
q0 47 -46 47q-29 0 -46 -17t-17 -45q0 -45 47 -45z" />
    <glyph glyph-name="ae" unicode="&#xe6;" horiz-adv-x="966" 
d="M920 408q0 -98 -101.5 -148.5t-294.5 -52.5q3 -83 40.5 -121t112.5 -38q83 0 169 49q13 -10 19 -27q3 -9 4 -17t1 -13q-52 -29 -102 -41.5t-100 -12.5q-124 0 -173 91l-12 -77q-10 -4 -23 -4q-8 0 -12.5 1t-8.5 3v91q-35 -50 -84.5 -77.5t-111.5 -27.5q-44 0 -79.5 15
t-60.5 43.5t-39 68t-14 89.5q0 76 19 141t54 113t84.5 75t111.5 27t107 -30.5t66 -87.5l33 105q10 4 23 4q8 0 12.5 -1t8.5 -3l-9 -58q33 34 77 53t101 19q91 0 136.5 -41t45.5 -110zM526 268q157 1 241 35t84 103q0 38 -27.5 65t-92.5 27q-47 0 -83 -18t-61.5 -49
t-40.5 -73t-20 -90zM260 46q47 0 85.5 20.5t65.5 58t42 90t15 117.5q0 37 -10 67.5t-28.5 52t-44.5 33t-57 11.5q-47 0 -85 -22t-65 -60t-42 -89.5t-15 -110.5q0 -78 38 -123t101 -45z" />
    <glyph glyph-name="ccedilla" unicode="&#xe7;" horiz-adv-x="511" 
d="M329 559q45 0 84 -13t74 -36q-1 -5 -3.5 -11.5t-8.5 -17.5q-8 -14 -21 -25q-31 17 -62 29.5t-68 12.5q-45 0 -82.5 -20.5t-64.5 -58t-41.5 -90.5t-14.5 -117q0 -78 39.5 -121.5t104.5 -43.5q32 0 67 11.5t70 32.5q5 -3 10 -8.5t10 -16.5q5 -10 5.5 -17.5t1.5 -12.5
q-39 -26 -80 -37t-77 -13q9 -27 9 -55q0 -61 -36.5 -99t-99.5 -38q-49 0 -90 27q2 5 5 11.5t8 15.5l17 23q32 -19 64 -19q41 0 58.5 27.5t17.5 72.5q0 8 -0.5 17.5t-1.5 19.5q-84 11 -128.5 70t-44.5 153q0 78 20.5 142t57 109.5t88 70.5t113.5 25z" />
    <glyph glyph-name="egrave" unicode="&#xe8;" horiz-adv-x="563" 
d="M515 408q0 -98 -101.5 -148.5t-294.5 -52.5q3 -83 40.5 -121t112.5 -38q83 0 169 49q13 -10 19 -27q3 -9 4 -17t1 -13q-52 -29 -102 -41.5t-100 -12.5q-104 0 -158 58t-54 168q0 71 18 134t53 110.5t88 75t123 27.5q91 0 136.5 -41t45.5 -110zM121 268q157 1 241 35
t84 103q0 38 -27.5 65t-92.5 27q-47 0 -83 -18t-61.5 -49t-40.5 -73t-20 -90zM372 647q-5 -2 -11.5 -3t-16.5 -1q-11 0 -17.5 1t-11.5 3l-64 171q7 2 14.5 3t21.5 1q13 0 21.5 -1t15.5 -3z" />
    <glyph glyph-name="eacute" unicode="&#xe9;" horiz-adv-x="563" 
d="M515 408q0 -98 -101.5 -148.5t-294.5 -52.5q3 -83 40.5 -121t112.5 -38q83 0 169 49q13 -10 19 -27q3 -9 4 -17t1 -13q-52 -29 -102 -41.5t-100 -12.5q-104 0 -158 58t-54 168q0 71 18 134t53 110.5t88 75t123 27.5q91 0 136.5 -41t45.5 -110zM121 268q157 1 241 35
t84 103q0 38 -27.5 65t-92.5 27q-47 0 -83 -18t-61.5 -49t-40.5 -73t-20 -90zM446 822q14 0 23.5 -1t16.5 -3l-121 -171q-6 -2 -13.5 -3t-18.5 -1t-19 1t-14 3l106 171q7 2 16.5 3t23.5 1z" />
    <glyph glyph-name="ecircumflex" unicode="&#xea;" horiz-adv-x="563" 
d="M515 408q0 -98 -101.5 -148.5t-294.5 -52.5q3 -83 40.5 -121t112.5 -38q83 0 169 49q13 -10 19 -27q3 -9 4 -17t1 -13q-52 -29 -102 -41.5t-100 -12.5q-104 0 -158 58t-54 168q0 71 18 134t53 110.5t88 75t123 27.5q91 0 136.5 -41t45.5 -110zM121 268q157 1 241 35
t84 103q0 38 -27.5 65t-92.5 27q-47 0 -83 -18t-61.5 -49t-40.5 -73t-20 -90zM459 646q-5 -2 -11.5 -3t-17.5 -1t-17 1t-11 3l-45 125l-80 -125q-5 -2 -13 -3t-19 -1t-18.5 1t-12.5 3l108 172q8 2 16.5 3t25.5 1q16 0 24.5 -1t16.5 -3z" />
    <glyph glyph-name="edieresis" unicode="&#xeb;" horiz-adv-x="563" 
d="M515 408q0 -98 -101.5 -148.5t-294.5 -52.5q3 -83 40.5 -121t112.5 -38q83 0 169 49q13 -10 19 -27q3 -9 4 -17t1 -13q-52 -29 -102 -41.5t-100 -12.5q-104 0 -158 58t-54 168q0 71 18 134t53 110.5t88 75t123 27.5q91 0 136.5 -41t45.5 -110zM121 268q157 1 241 35
t84 103q0 38 -27.5 65t-92.5 27q-47 0 -83 -18t-61.5 -49t-40.5 -73t-20 -90zM257 669q-12 0 -20 1t-13 3q-1 6 -1 14t2 20t4.5 20t4.5 14q7 2 15 3t20 1t20 -1t13 -3q1 -6 1 -14t-2 -20t-4.5 -20t-4.5 -14q-7 -2 -15 -3t-20 -1zM426 669q-12 0 -20 1t-13 3q-1 6 -1 14t2 20
t4.5 20t4.5 14q7 2 15 3t20 1t20 -1t13 -3q1 -6 1 -14t-2 -20t-4.5 -20t-4.5 -14q-7 -2 -15 -3t-20 -1z" />
    <glyph glyph-name="dotlessi" unicode="&#x131;" horiz-adv-x="248" 
d="M161 547q12 0 19.5 -1t13.5 -3l-86 -541q-6 -2 -14 -3t-20 -1t-20 1t-14 3l86 541q6 2 14.5 3t20.5 1z" />
    <glyph glyph-name="igrave" unicode="&#xec;" horiz-adv-x="248" 
d="M161 547q12 0 19.5 -1t13.5 -3l-86 -541q-6 -2 -14 -3t-20 -1t-20 1t-14 3l86 541q6 2 14.5 3t20.5 1zM212 647q-5 -2 -11.5 -3t-16.5 -1q-11 0 -17.5 1t-11.5 3l-64 171q7 2 14.5 3t21.5 1q13 0 21.5 -1t15.5 -3z" />
    <glyph glyph-name="iacute" unicode="&#xed;" horiz-adv-x="248" 
d="M161 547q12 0 19.5 -1t13.5 -3l-86 -541q-6 -2 -14 -3t-20 -1t-20 1t-14 3l86 541q6 2 14.5 3t20.5 1zM286 822q14 0 23.5 -1t16.5 -3l-121 -171q-6 -2 -13.5 -3t-18.5 -1t-19 1t-14 3l106 171q7 2 16.5 3t23.5 1z" />
    <glyph glyph-name="icircumflex" unicode="&#xee;" horiz-adv-x="248" 
d="M161 547q12 0 19.5 -1t13.5 -3l-86 -541q-6 -2 -14 -3t-20 -1t-20 1t-14 3l86 541q6 2 14.5 3t20.5 1zM299 646q-5 -2 -11.5 -3t-17.5 -1t-17 1t-11 3l-45 125l-80 -125q-5 -2 -13 -3t-19 -1t-18.5 1t-12.5 3l108 172q8 2 16.5 3t25.5 1q16 0 24.5 -1t16.5 -3z" />
    <glyph glyph-name="idieresis" unicode="&#xef;" horiz-adv-x="248" 
d="M161 547q12 0 19.5 -1t13.5 -3l-86 -541q-6 -2 -14 -3t-20 -1t-20 1t-14 3l86 541q6 2 14.5 3t20.5 1zM97 669q-12 0 -20 1t-13 3q-1 6 -1 14t2 20t4.5 20t4.5 14q7 2 15 3t20 1t20 -1t13 -3q1 -6 1 -14t-2 -20t-4.5 -20t-4.5 -14q-7 -2 -15 -3t-20 -1zM266 669
q-12 0 -20 1t-13 3q-1 6 -1 14t2 20t4.5 20t4.5 14q7 2 15 3t20 1t20 -1t13 -3q1 -6 1 -14t-2 -20t-4.5 -20t-4.5 -14q-7 -2 -15 -3t-20 -1z" />
    <glyph glyph-name="eth" unicode="&#xf0;" horiz-adv-x="609" 
d="M451 694q45 -80 68 -159.5t23 -172.5q0 -80 -15.5 -148.5t-49 -119t-86.5 -79.5t-128 -29q-48 0 -87 12.5t-67 40.5t-43 71.5t-15 105.5q0 64 16 123t49 104.5t83.5 72.5t119.5 27q46 0 80.5 -11t51.5 -26q-11 43 -24 80t-35 79l-139 -70q-2 4 -5 9t-6 13q-5 18 -5 25
l131 66q-22 39 -52 85l12.5 5t18.5 5t18.5 2h12.5q27 -36 47 -68l144 72q3 -4 6.5 -8.5t6.5 -13.5q3 -8 3.5 -14t0.5 -11zM271 48q54 0 91.5 22.5t61.5 60t35 86t11 101.5q0 90 -34 126.5t-102 36.5q-59 0 -99.5 -22.5t-65.5 -59.5t-36.5 -83.5t-11.5 -94.5
q0 -88 38.5 -130.5t111.5 -42.5z" />
    <glyph glyph-name="lslash" unicode="&#x142;" horiz-adv-x="388" 
d="M224 376l-60 -376q-7 -2 -14 -3t-13 -1q-18 0 -28 9.5t-8 26.5l49 307l-112 -56q-3 5 -6 11t-6 17q-4 11 -5.5 17.5t-3.5 12.5l145 72l58 369q6 2 14.5 3t20.5 1t19.5 -1t13.5 -3l-53 -331l113 56q3 -5 7 -10.5t8 -15.5q4 -11 5 -17.5t3 -13.5z" />
    <glyph glyph-name="ntilde" unicode="&#xf1;" horiz-adv-x="600" 
d="M362 559q77 0 119 -38t42 -106q0 -31 -15 -138t-43 -275q-10 -2 -18.5 -3t-15.5 -1t-15.5 1t-18.5 3q26 161 40.5 263.5t15.5 132.5q1 45 -25.5 70.5t-79.5 25.5q-77 0 -129 -61.5t-70 -174.5l-41 -256q-10 -2 -18.5 -3t-15.5 -1t-15.5 1t-18.5 3l86 541q8 2 15 3t13 1
q14 0 26 -4l-7 -95q35 54 82 82.5t107 28.5zM513 738q16 -9 21 -18q-7 -16 -17.5 -31.5t-24.5 -27.5t-32 -19t-40 -7q-29 0 -45.5 6.5t-28.5 15.5q-16 11 -29.5 20.5t-30.5 9.5q-23 0 -37.5 -11.5t-27.5 -37.5q-5 0 -13.5 1.5t-17.5 5.5q-8 4 -12.5 8.5t-6.5 9.5
q7 16 18 31.5t25 27.5t32 19t40 7q38 0 58 -12t34 -23q11 -8 20.5 -13t21.5 -5q43 0 65 49q5 0 12.5 -0.5t15.5 -5.5z" />
    <glyph glyph-name="ograve" unicode="&#xf2;" horiz-adv-x="608" 
d="M390 647q-5 -2 -11.5 -3t-16.5 -1q-11 0 -17.5 1t-11.5 3l-64 171q7 2 14.5 3t21.5 1q13 0 21.5 -1t15.5 -3zM261 -14q-48 0 -86.5 15t-66.5 44t-43 71t-15 96q0 76 20.5 139.5t57.5 109.5t89.5 72t115.5 26q48 0 86.5 -15t66.5 -44t43 -71t15 -96q0 -76 -20 -139.5
t-57 -109.5t-89.5 -72t-116.5 -26zM268 46q46 0 84 20.5t65 58.5t41.5 90.5t14.5 117.5q0 78 -40 121t-107 45q-47 0 -84.5 -20.5t-64.5 -58.5t-41.5 -91t-14.5 -117q0 -78 40.5 -122t106.5 -44z" />
    <glyph glyph-name="oacute" unicode="&#xf3;" horiz-adv-x="608" 
d="M261 -14q-48 0 -86.5 15t-66.5 44t-43 71t-15 96q0 76 20.5 139.5t57.5 109.5t89.5 72t115.5 26q48 0 86.5 -15t66.5 -44t43 -71t15 -96q0 -76 -20 -139.5t-57 -109.5t-89.5 -72t-116.5 -26zM268 46q46 0 84 20.5t65 58.5t41.5 90.5t14.5 117.5q0 78 -40 121t-107 45
q-47 0 -84.5 -20.5t-64.5 -58.5t-41.5 -91t-14.5 -117q0 -78 40.5 -122t106.5 -44zM464 822q14 0 23.5 -1t16.5 -3l-121 -171q-6 -2 -13.5 -3t-18.5 -1t-19 1t-14 3l106 171q7 2 16.5 3t23.5 1z" />
    <glyph glyph-name="ocircumflex" unicode="&#xf4;" horiz-adv-x="608" 
d="M261 -14q-48 0 -86.5 15t-66.5 44t-43 71t-15 96q0 76 20.5 139.5t57.5 109.5t89.5 72t115.5 26q48 0 86.5 -15t66.5 -44t43 -71t15 -96q0 -76 -20 -139.5t-57 -109.5t-89.5 -72t-116.5 -26zM268 46q46 0 84 20.5t65 58.5t41.5 90.5t14.5 117.5q0 78 -40 121t-107 45
q-47 0 -84.5 -20.5t-64.5 -58.5t-41.5 -91t-14.5 -117q0 -78 40.5 -122t106.5 -44zM477 646q-5 -2 -11.5 -3t-17.5 -1t-17 1t-11 3l-45 125l-80 -125q-5 -2 -13 -3t-19 -1t-18.5 1t-12.5 3l108 172q8 2 16.5 3t25.5 1q16 0 24.5 -1t16.5 -3z" />
    <glyph glyph-name="otilde" unicode="&#xf5;" horiz-adv-x="608" 
d="M261 -14q-48 0 -86.5 15t-66.5 44t-43 71t-15 96q0 76 20.5 139.5t57.5 109.5t89.5 72t115.5 26q48 0 86.5 -15t66.5 -44t43 -71t15 -96q0 -76 -20 -139.5t-57 -109.5t-89.5 -72t-116.5 -26zM268 46q46 0 84 20.5t65 58.5t41.5 90.5t14.5 117.5q0 78 -40 121t-107 45
q-47 0 -84.5 -20.5t-64.5 -58.5t-41.5 -91t-14.5 -117q0 -78 40.5 -122t106.5 -44zM512 738q16 -9 21 -18q-7 -16 -17.5 -31.5t-24.5 -27.5t-32 -19t-40 -7q-29 0 -45.5 6.5t-28.5 15.5q-16 11 -29.5 20.5t-30.5 9.5q-23 0 -37.5 -11.5t-27.5 -37.5q-5 0 -13.5 1.5
t-17.5 5.5q-8 4 -12.5 8.5t-6.5 9.5q7 16 18 31.5t25 27.5t32 19t40 7q38 0 58 -12t34 -23q11 -8 20.5 -13t21.5 -5q43 0 65 49q5 0 12.5 -0.5t15.5 -5.5z" />
    <glyph glyph-name="odieresis" unicode="&#xf6;" horiz-adv-x="608" 
d="M261 -14q-48 0 -86.5 15t-66.5 44t-43 71t-15 96q0 76 20.5 139.5t57.5 109.5t89.5 72t115.5 26q48 0 86.5 -15t66.5 -44t43 -71t15 -96q0 -76 -20 -139.5t-57 -109.5t-89.5 -72t-116.5 -26zM268 46q46 0 84 20.5t65 58.5t41.5 90.5t14.5 117.5q0 78 -40 121t-107 45
q-47 0 -84.5 -20.5t-64.5 -58.5t-41.5 -91t-14.5 -117q0 -78 40.5 -122t106.5 -44zM275 669q-12 0 -20 1t-13 3q-1 6 -1 14t2 20t4.5 20t4.5 14q7 2 15 3t20 1t20 -1t13 -3q1 -6 1 -14t-2 -20t-4.5 -20t-4.5 -14q-7 -2 -15 -3t-20 -1zM444 669q-12 0 -20 1t-13 3q-1 6 -1 14
t2 20t4.5 20t4.5 14q7 2 15 3t20 1t20 -1t13 -3q1 -6 1 -14t-2 -20t-4.5 -20t-4.5 -14q-7 -2 -15 -3t-20 -1z" />
    <glyph glyph-name="oslash" unicode="&#xf8;" horiz-adv-x="608" 
d="M490 496q54 -60 54 -163q0 -76 -20 -139.5t-57 -109.5t-89.5 -72t-116.5 -26q-65 0 -113 27l-47 -66q-5 3 -11.5 6.5t-16.5 10.5q-10 5 -15 10t-10 8l51 73q-23 29 -36 68t-13 89q0 76 20.5 139.5t57.5 109.5t89.5 72t115.5 26q62 0 107 -24l48 66q5 -2 12 -5t15 -9
q11 -5 16 -11t10 -10zM326 499q-47 0 -84.5 -20.5t-64.5 -58.5t-41.5 -91t-14.5 -117q0 -59 24 -98l258 364q-33 19 -77 21zM268 46q46 0 84 20.5t65 58.5t41.5 90.5t14.5 117.5q0 63 -28 105l-260 -368q34 -24 83 -24z" />
    <glyph glyph-name="oe" unicode="&#x153;" horiz-adv-x="981" 
d="M933 408q0 -98 -101.5 -148.5t-294.5 -52.5q3 -83 40.5 -121t112.5 -38q83 0 169 49q13 -10 19 -27q3 -9 4 -17t1 -13q-52 -29 -102 -41.5t-100 -12.5q-78 0 -126.5 36.5t-66.5 106.5q-35 -67 -92.5 -105t-134.5 -38q-48 0 -86.5 15t-66.5 44t-43 71t-15 96
q0 76 20.5 139.5t57.5 109.5t89.5 72t115.5 26q72 0 121.5 -36.5t68.5 -105.5q33 65 90 103.5t138 38.5q91 0 136.5 -41t45.5 -110zM268 46q46 0 84 20.5t65 58.5t41.5 90.5t14.5 117.5q0 78 -40 121t-107 45q-47 0 -84.5 -20.5t-64.5 -58.5t-41.5 -91t-14.5 -117
q0 -78 40.5 -122t106.5 -44zM539 268q157 1 241 35t84 103q0 38 -27.5 65t-92.5 27q-47 0 -83 -18t-61.5 -49t-40.5 -73t-20 -90z" />
    <glyph glyph-name="thorn" unicode="&#xfe;" horiz-adv-x="624" 
d="M367 559q43 0 79 -15t61 -43.5t39 -68.5t14 -89q0 -76 -19 -141t-54 -113t-85 -75t-111 -27q-58 0 -101.5 27t-66.5 78l-47 -299q-7 -2 -15 -3t-20 -1t-20 1t-13 3l156 989q7 2 15 3t20 1t20 -1t13 -3l-49 -312q35 42 81 65.5t103 23.5zM282 49q47 0 85 22t65 60t42 89.5
t15 110.5q0 78 -38 123t-101 45q-47 0 -85.5 -20.5t-65.5 -58t-42 -90.5t-15 -117q0 -37 10 -67.5t28.5 -52t44 -33t57.5 -11.5z" />
    <glyph glyph-name="scaron" unicode="&#x161;" horiz-adv-x="507" 
d="M280 560q48 0 96 -11t86 -29q0 -5 -2 -14t-6 -17t-8.5 -15.5t-9.5 -11.5q-29 14 -73.5 25t-86.5 11q-57 0 -94.5 -22t-37.5 -76q0 -20 8 -32.5t23 -22t37 -17t51 -16.5q36 -11 66.5 -21.5t52 -27t33.5 -42t12 -65.5q0 -43 -16 -75t-44.5 -53t-67.5 -31.5t-84 -10.5
q-61 0 -113 14t-86 33q1 5 3 13.5t8 19.5t10.5 16t9.5 9q38 -18 78 -30.5t94 -12.5q71 0 104 28.5t33 76.5q0 22 -8 37t-23.5 25.5t-39.5 19t-55 17.5q-33 10 -61.5 21t-49.5 27.5t-32.5 39t-11.5 55.5q0 43 15.5 74t42.5 51.5t64.5 30t82.5 9.5zM339 647h1q-8 -2 -16 -3
t-22 -1t-21.5 1t-15.5 3l-61 172q5 2 13.5 3t19.5 1t17.5 -1t12.5 -3l41 -127l72 127q5 2 14.5 3t20.5 1t20 -1t14 -3z" />
    <glyph glyph-name="germandbls" unicode="&#xdf;" horiz-adv-x="600" 
d="M435 308q18 -13 35.5 -27t31.5 -31.5t23 -39.5t9 -52q0 -37 -15.5 -68.5t-42 -54.5t-62.5 -36t-78 -13q-28 0 -53.5 4t-45.5 9.5t-35 10.5t-22 8q1 6 2.5 13t5.5 18q5 11 8.5 17t7.5 11q10 -4 26 -9t35 -9t39 -7t39 -3q25 0 46.5 8.5t37.5 23t25.5 33.5t9.5 41
q0 20 -6.5 35t-18 27.5t-26 23t-29.5 20.5q-17 11 -32.5 23.5t-28.5 27.5t-20.5 34t-7.5 45t8 46.5t20.5 37.5t28.5 31t33 28q16 12 31 24.5t26.5 27t18.5 30.5t7 36q0 22 -9 38t-25 25.5t-38 14t-47 4.5q-22 0 -44.5 -5t-42 -20t-35 -43.5t-22.5 -75.5l-94 -588
q-6 -2 -14.5 -3t-20.5 -1t-19.5 1t-13.5 3l95 600q10 62 33.5 100t54.5 59t65 28t65 7q33 0 65.5 -7t58.5 -23t42.5 -42.5t16.5 -66.5q0 -31 -9 -55t-23.5 -43.5t-32 -35t-35.5 -29.5q-29 -23 -50.5 -44t-21.5 -50q0 -31 21 -51.5t49 -40.5z" />
    <glyph glyph-name="ugrave" unicode="&#xf9;" horiz-adv-x="590" 
d="M502 547q7 0 15.5 -1t18.5 -3l-86 -541q-8 -2 -15 -3t-13 -1q-14 0 -26 4l7 91q-69 -107 -184 -107q-75 0 -115.5 38t-40.5 106q0 31 15 138t43 275q10 2 18.5 3t15.5 1t15.5 -1t18.5 -3q-26 -161 -41 -263.5t-15 -132.5q0 -45 24.5 -70.5t75.5 -25.5q72 0 121 55t69 158
l45 279q10 2 18.5 3t15.5 1zM376 647q-5 -2 -11.5 -3t-16.5 -1q-11 0 -17.5 1t-11.5 3l-64 171q7 2 14.5 3t21.5 1q13 0 21.5 -1t15.5 -3z" />
    <glyph glyph-name="uacute" unicode="&#xfa;" horiz-adv-x="590" 
d="M502 547q7 0 15.5 -1t18.5 -3l-86 -541q-8 -2 -15 -3t-13 -1q-14 0 -26 4l7 91q-69 -107 -184 -107q-75 0 -115.5 38t-40.5 106q0 31 15 138t43 275q10 2 18.5 3t15.5 1t15.5 -1t18.5 -3q-26 -161 -41 -263.5t-15 -132.5q0 -45 24.5 -70.5t75.5 -25.5q72 0 121 55t69 158
l45 279q10 2 18.5 3t15.5 1zM450 822q14 0 23.5 -1t16.5 -3l-121 -171q-6 -2 -13.5 -3t-18.5 -1t-19 1t-14 3l106 171q7 2 16.5 3t23.5 1z" />
    <glyph glyph-name="ucircumflex" unicode="&#xfb;" horiz-adv-x="590" 
d="M502 547q7 0 15.5 -1t18.5 -3l-86 -541q-8 -2 -15 -3t-13 -1q-14 0 -26 4l7 91q-69 -107 -184 -107q-75 0 -115.5 38t-40.5 106q0 31 15 138t43 275q10 2 18.5 3t15.5 1t15.5 -1t18.5 -3q-26 -161 -41 -263.5t-15 -132.5q0 -45 24.5 -70.5t75.5 -25.5q72 0 121 55t69 158
l45 279q10 2 18.5 3t15.5 1zM463 646q-5 -2 -11.5 -3t-17.5 -1t-17 1t-11 3l-45 125l-80 -125q-5 -2 -13 -3t-19 -1t-18.5 1t-12.5 3l108 172q8 2 16.5 3t25.5 1q16 0 24.5 -1t16.5 -3z" />
    <glyph glyph-name="udieresis" unicode="&#xfc;" horiz-adv-x="590" 
d="M502 547q7 0 15.5 -1t18.5 -3l-86 -541q-8 -2 -15 -3t-13 -1q-14 0 -26 4l7 91q-69 -107 -184 -107q-75 0 -115.5 38t-40.5 106q0 31 15 138t43 275q10 2 18.5 3t15.5 1t15.5 -1t18.5 -3q-26 -161 -41 -263.5t-15 -132.5q0 -45 24.5 -70.5t75.5 -25.5q72 0 121 55t69 158
l45 279q10 2 18.5 3t15.5 1zM261 669q-12 0 -20 1t-13 3q-1 6 -1 14t2 20t4.5 20t4.5 14q7 2 15 3t20 1t20 -1t13 -3q1 -6 1 -14t-2 -20t-4.5 -20t-4.5 -14q-7 -2 -15 -3t-20 -1zM430 669q-12 0 -20 1t-13 3q-1 6 -1 14t2 20t4.5 20t4.5 14q7 2 15 3t20 1t20 -1t13 -3
q1 -6 1 -14t-2 -20t-4.5 -20t-4.5 -14q-7 -2 -15 -3t-20 -1z" />
    <glyph glyph-name="yacute" unicode="&#xfd;" horiz-adv-x="590" 
d="M502 547q12 0 20 -1t13 -3l-82 -525q-18 -118 -88 -178.5t-185 -60.5q-43 0 -89 10t-88 28q0 18 8 34q8 18 22 30q41 -18 78.5 -27.5t66.5 -9.5q88 0 141 45.5t67 133.5l13 82q-69 -95 -180 -95q-75 0 -114.5 35t-39.5 97q0 31 14 134t42 267q10 2 18.5 3t15.5 1t15.5 -1
t18.5 -3q-26 -157 -40 -255.5t-14 -128.5q0 -39 23.5 -61.5t74.5 -22.5q73 0 124 57.5t70 153.5l40 257q7 2 15 3t20 1zM456 822q14 0 23.5 -1t16.5 -3l-121 -171q-6 -2 -13.5 -3t-18.5 -1t-19 1t-14 3l106 171q7 2 16.5 3t23.5 1z" />
    <glyph glyph-name="ydieresis" unicode="&#xff;" horiz-adv-x="590" 
d="M502 547q12 0 20 -1t13 -3l-82 -525q-18 -118 -88 -178.5t-185 -60.5q-43 0 -89 10t-88 28q0 18 8 34q8 18 22 30q41 -18 78.5 -27.5t66.5 -9.5q88 0 141 45.5t67 133.5l13 82q-69 -95 -180 -95q-75 0 -114.5 35t-39.5 97q0 31 14 134t42 267q10 2 18.5 3t15.5 1t15.5 -1
t18.5 -3q-26 -157 -40 -255.5t-14 -128.5q0 -39 23.5 -61.5t74.5 -22.5q73 0 124 57.5t70 153.5l40 257q7 2 15 3t20 1zM267 669q-12 0 -20 1t-13 3q-1 6 -1 14t2 20t4.5 20t4.5 14q7 2 15 3t20 1t20 -1t13 -3q1 -6 1 -14t-2 -20t-4.5 -20t-4.5 -14q-7 -2 -15 -3t-20 -1z
M436 669q-12 0 -20 1t-13 3q-1 6 -1 14t2 20t4.5 20t4.5 14q7 2 15 3t20 1t20 -1t13 -3q1 -6 1 -14t-2 -20t-4.5 -20t-4.5 -14q-7 -2 -15 -3t-20 -1z" />
    <glyph glyph-name="zcaron" unicode="&#x17e;" horiz-adv-x="514" 
d="M489 545q1 -5 1.5 -9t0.5 -8v-10.5t-2 -11.5q-5 -17 -17 -31l-372 -414h321v-12v-8.5t-1 -10.5q-2 -11 -4.5 -18t-4.5 -12h-407q0 3 -0.5 6t-0.5 7t0.5 8.5t1.5 9.5q3 19 9 30l378 423h-306v13v8.5t1 9.5q2 11 4.5 18t4.5 12h393v0zM340 647h1q-8 -2 -16 -3t-22 -1
t-21.5 1t-15.5 3l-61 172q5 2 13.5 3t19.5 1t17.5 -1t12.5 -3l41 -127l72 127q5 2 14.5 3t20.5 1t20 -1t14 -3z" />
    <glyph glyph-name="ordfeminine" unicode="&#xaa;" horiz-adv-x="575" 
d="M518 734q8 0 12.5 -1t8.5 -2l-72 -459q-8 -3 -23 -3q-13 0 -20 3v77q-29 -42 -71 -65.5t-94 -23.5q-74 0 -118.5 49t-44.5 133q0 64 16 119t45.5 95t71.5 63t94 23t90 -26t55 -74l28 89q4 1 9.5 2t12.5 1zM273 317q38 0 69.5 16.5t53.5 47.5t34 74t12 96q0 60 -30.5 96.5
t-81.5 36.5q-38 0 -69 -18t-53 -49.5t-34 -73.5t-12 -91q0 -63 30 -99t81 -36z" />
    <glyph glyph-name="ordmasculine" unicode="&#xba;" horiz-adv-x="545" 
d="M276 259q-85 0 -132 48.5t-47 147.5q0 59 14.5 111.5t44 91.5t73.5 62t103 23q82 0 128 -45t46 -144q0 -59 -14 -112.5t-42.5 -94t-72 -64.5t-101.5 -24zM278 319q43 0 73.5 20t50 52.5t29 74t9.5 85.5q0 72 -28.5 102t-82.5 30q-44 0 -75 -18.5t-51.5 -49.5t-30 -71.5
t-9.5 -84.5q0 -72 29 -106t86 -34z" />
    <glyph glyph-name="ampersand" unicode="&#x26;" horiz-adv-x="710" 
d="M645 362q-20 -81 -45.5 -140.5t-57.5 -102.5q24 -27 50 -56t53 -61q-9 -3 -21.5 -5.5t-27.5 -2.5q-16 0 -26 2.5t-17 5.5l-55 67q-50 -46 -106.5 -64t-118.5 -18q-53 0 -95 10t-71 31.5t-44 55t-15 80.5q0 44 15 76.5t40.5 56.5t59 42t70.5 32q-42 53 -65.5 97.5
t-23.5 86.5q0 41 15 75.5t44 59.5t70.5 39t94.5 14q43 0 79.5 -10.5t63 -31.5t41.5 -52t15 -72q0 -52 -20 -88.5t-52.5 -62.5t-74 -44t-84.5 -34q33 -38 74 -83t90 -99q26 36 45.5 84.5t32.5 111.5q5 2 13 4t20 2t20 -2t14 -4zM213 561q0 -36 21 -75.5t62 -90.5
q39 14 75.5 28.5t64.5 34t45 45.5t17 62q0 57 -34.5 86t-95.5 29q-81 0 -118 -33t-37 -86zM280 50q50 0 94.5 15.5t82.5 50.5q-53 61 -99.5 112t-84.5 96q-32 -12 -60.5 -26.5t-50 -32.5t-34 -42t-12.5 -55q0 -27 7.5 -49t26 -37.5t50 -23.5t80.5 -8z" />
    <glyph glyph-name="period" unicode="." horiz-adv-x="241" 
d="M72 -2q-14 0 -23.5 1t-16.5 3q-1 8 -0.5 19t2.5 22q2 14 5 23.5t5 17.5q8 2 18 3t24 1t23.5 -1t16.5 -3q1 -8 0.5 -19t-2.5 -22q-2 -14 -5 -23.5t-5 -17.5q-8 -2 -18 -3t-24 -1z" />
    <glyph glyph-name="comma" unicode="," horiz-adv-x="246" 
d="M128 84q1 -3 1 -9v-11q0 -19 -5.5 -37.5t-15.5 -37.5l-59 -121q-5 -2 -11 -3t-15 -1q-8 0 -13 1t-10 3l57 131l-24 3q0 24 4 44.5t9 37.5q8 2 18 3t24 1t23 -1t17 -3z" />
    <glyph glyph-name="colon" unicode=":" horiz-adv-x="260" 
d="M148 441q-14 0 -23.5 1t-16.5 3q-1 8 -0.5 19t2.5 22q2 14 5 23.5t5 17.5q8 2 18 3t24 1t23.5 -1t16.5 -3q1 -8 0.5 -19t-2.5 -22q-2 -14 -5 -23.5t-5 -17.5q-8 -2 -18 -3t-24 -1zM82 -2q-14 0 -23.5 1t-16.5 3q-1 8 -0.5 19t2.5 22q2 14 5 23.5t5 17.5q8 2 18 3t24 1
t23.5 -1t16.5 -3q1 -8 0.5 -19t-2.5 -22q-2 -14 -5 -23.5t-5 -17.5q-8 -2 -18 -3t-24 -1z" />
    <glyph glyph-name="semicolon" unicode=";" horiz-adv-x="271" 
d="M203 527q1 -8 0.5 -19t-2.5 -22q-2 -14 -5 -23.5t-5 -17.5q-8 -2 -18 -3t-24 -1t-23.5 1t-16.5 3q-1 8 -0.5 19t2.5 22q2 14 5 23.5t5 17.5q8 2 18 3t24 1t23.5 -1t16.5 -3zM105 88q14 0 23 -1t17 -3q1 -3 1 -9v-11q0 -19 -5.5 -37.5t-15.5 -37.5l-59 -121q-5 -2 -11 -3
t-15 -1q-8 0 -13 1t-10 3l57 131l-24 3q0 24 4 44.5t9 37.5q8 2 18 3t24 1z" />
    <glyph glyph-name="ellipsis" unicode="&#x2026;" horiz-adv-x="689" 
d="M72 -2q-14 0 -23.5 1t-16.5 3q-1 8 -0.5 19t2.5 22q2 14 5 23.5t5 17.5q8 2 18 3t24 1t23.5 -1t16.5 -3q1 -8 0.5 -19t-2.5 -22q-2 -14 -5 -23.5t-5 -17.5q-8 -2 -18 -3t-24 -1zM296 -2q-14 0 -23.5 1t-16.5 3q-1 8 -0.5 19t2.5 22q2 14 5 23.5t5 17.5q8 2 18 3t24 1
t23.5 -1t16.5 -3q1 -8 0.5 -19t-2.5 -22q-2 -14 -5 -23.5t-5 -17.5q-8 -2 -18 -3t-24 -1zM520 -2q-14 0 -23.5 1t-16.5 3q-1 8 -0.5 19t2.5 22q2 14 5 23.5t5 17.5q8 2 18 3t24 1t23.5 -1t16.5 -3q1 -8 0.5 -19t-2.5 -22q-2 -14 -5 -23.5t-5 -17.5q-8 -2 -18 -3t-24 -1z" />
    <glyph glyph-name="exclam" unicode="!" horiz-adv-x="269" 
d="M138 173q-5 -2 -11.5 -3.5t-16.5 -1.5q-9 0 -15 1.5t-10 3.5l81 556q6 2 14 3t20 1t20 -1t14 -3zM98 89q14 0 23.5 -1.5t16.5 -3.5q1 -5 1 -16.5t-2 -24.5q-2 -14 -5 -24t-6 -17q-8 -2 -18 -3.5t-24 -1.5t-23.5 1.5t-16.5 3.5q-1 5 -1 19.5t2 21.5q2 14 5 23.5t6 17.5
q8 2 18 3.5t24 1.5z" />
    <glyph glyph-name="exclamdown" unicode="&#xa1;" horiz-adv-x="257" 
d="M205 543q1 -5 1 -19.5t-2 -21.5q-2 -14 -5 -23.5t-6 -17.5q-8 -2 -18 -3.5t-24 -1.5t-23.5 1.5t-16.5 3.5q-1 5 -1 16.5t2 24.5q2 14 5 24t6 17q8 2 18 3.5t24 1.5t23.5 -1.5t16.5 -3.5zM111 372q5 2 11.5 3.5t16.5 1.5q9 0 15 -1.5t10 -3.5l-81 -556q-6 -2 -14 -3
t-20 -1t-20 1t-14 3z" />
    <glyph glyph-name="question" unicode="?" horiz-adv-x="498" 
d="M287 742q99 0 152 -45.5t53 -119.5q0 -49 -20 -84t-49.5 -64t-64.5 -54.5t-64.5 -54t-49.5 -64t-20 -83.5q-6 -2 -14.5 -3.5t-19.5 -1.5t-18 1.5t-13 3.5q0 57 19 98.5t48 72.5t62.5 56t62.5 50t48 52.5t19 64.5q0 50 -35.5 80.5t-102.5 30.5q-42 0 -86.5 -13t-82.5 -36
q-7 7 -16 26q-4 9 -5 16.5t-2 12.5q42 28 92.5 43t106.5 15zM149 84q8 2 18 3.5t24 1.5t23 -1.5t17 -3.5q0 -14 -0.5 -25t-1.5 -16q-2 -14 -5 -23.5t-6 -17.5q-8 -2 -18 -3.5t-24 -1.5t-23.5 1.5t-16.5 3.5q-1 7 -1 17t2 24t5.5 23.5t6.5 17.5z" />
    <glyph glyph-name="questiondown" unicode="&#xbf;" horiz-adv-x="492" 
d="M332 461q-8 -2 -18 -3.5t-24 -1.5t-23 1.5t-17 3.5q0 14 0.5 25t1.5 16q2 14 5 23.5t6 17.5q8 2 18 3.5t24 1.5t23.5 -1.5t16.5 -3.5q1 -7 1 -17t-2 -24t-5.5 -23.5t-6.5 -17.5zM386 -110q4 -9 5 -16.5t2 -12.5q-42 -28 -92.5 -43t-106.5 -15q-99 0 -152 45.5t-53 119.5
q0 48 20 83.5t49.5 64.5t64.5 54.5t64.5 54t49.5 64t20 83.5q6 2 14.5 3.5t19.5 1.5t18 -1.5t13 -3.5q0 -57 -19 -98.5t-48 -72.5t-62.5 -56t-62.5 -50t-48 -52.5t-19 -64.5q0 -50 35.5 -80.5t102.5 -30.5q42 0 86.5 13t82.5 36q7 -7 16 -26z" />
    <glyph glyph-name="quotesingle" unicode="'" horiz-adv-x="225" 
d="M176 731q14 0 22 -1t14 -3l-51 -257q-5 -2 -11 -3t-15 -1t-15 1t-10 3l29 257q8 2 16 3t21 1z" />
    <glyph glyph-name="quotedbl" unicode="&#x22;" horiz-adv-x="384" 
d="M139 727q8 2 16 3t21 1q14 0 22 -1t14 -3l-51 -257q-5 -2 -11 -3t-15 -1t-15 1t-10 3zM335 731q14 0 22 -1t14 -3l-51 -257q-5 -2 -11 -3t-15 -1t-15 1t-10 3l29 257q8 2 16 3t21 1z" />
    <glyph glyph-name="quoteleft" unicode="&#x2018;" horiz-adv-x="238" 
d="M175 596l24 -3q0 -24 -4 -44.5t-9 -37.5q-8 -2 -18 -3t-24 -1t-23 1t-17 3q-1 3 -1 9v11q0 19 5.5 37.5t15.5 37.5l59 121q5 2 11 3t15 1q8 0 13 -1t10 -3z" />
    <glyph glyph-name="quoteright" unicode="&#x2019;" horiz-adv-x="235" 
d="M231 727q1 -3 1 -9v-11q0 -19 -5.5 -37.5t-15.5 -37.5l-59 -121q-5 -2 -11 -3t-15 -1q-8 0 -13 1t-10 3l57 131l-24 3q0 24 4 44.5t9 37.5q8 2 18 3t24 1t23 -1t17 -3z" />
    <glyph glyph-name="quotedblleft" unicode="&#x201c;" horiz-adv-x="387" 
d="M209 731q8 0 13 -1t10 -3l-57 -131l24 -3q0 -24 -4 -44.5t-9 -37.5q-8 -2 -18 -3t-24 -1t-23 1t-17 3q-1 3 -1 9v11q0 19 5.5 37.5t15.5 37.5l59 121q5 2 11 3t15 1zM324 596l24 -3q0 -24 -4 -44.5t-9 -37.5q-8 -2 -18 -3t-24 -1t-23 1t-17 3q-1 3 -1 9v11q0 19 5.5 37.5
t15.5 37.5l59 121q5 2 11 3t15 1q8 0 13 -1t10 -3z" />
    <glyph glyph-name="quotedblright" unicode="&#x201d;" horiz-adv-x="385" 
d="M192 732q14 0 23 -1t17 -3q1 -3 1 -9v-11q0 -19 -5.5 -37.5t-15.5 -37.5l-59 -121q-5 -2 -11 -3t-15 -1q-8 0 -13 1t-10 3l57 131l-24 3q0 24 4 44.5t9 37.5q8 2 18 3t24 1zM382 728q1 -3 1 -9v-11q0 -19 -5.5 -37.5t-15.5 -37.5l-59 -121q-5 -2 -11 -3t-15 -1
q-8 0 -13 1t-10 3l57 131l-24 3q0 24 4 44.5t9 37.5q8 2 18 3t24 1t23 -1t17 -3z" />
    <glyph glyph-name="quotesinglbase" unicode="&#x201a;" horiz-adv-x="246" 
d="M128 84q1 -3 1 -9v-11q0 -19 -5.5 -37.5t-15.5 -37.5l-59 -121q-5 -2 -11 -3t-15 -1q-8 0 -13 1t-10 3l57 131l-24 3q0 24 4 44.5t9 37.5q8 2 18 3t24 1t23 -1t17 -3z" />
    <glyph glyph-name="quotedblbase" unicode="&#x201e;" horiz-adv-x="392" 
d="M88 88q14 0 23 -1t17 -3q1 -3 1 -9v-11q0 -19 -5.5 -37.5t-15.5 -37.5l-59 -121q-5 -2 -11 -3t-15 -1q-8 0 -13 1t-10 3l57 131l-24 3q0 24 4 44.5t9 37.5q8 2 18 3t24 1zM274 84q1 -3 1 -9v-11q0 -19 -5.5 -37.5t-15.5 -37.5l-59 -121q-5 -2 -11 -3t-15 -1q-8 0 -13 1
t-10 3l57 131l-24 3q0 24 4 44.5t9 37.5q8 2 18 3t24 1t23 -1t17 -3z" />
    <glyph glyph-name="guilsinglleft" unicode="&#x2039;" horiz-adv-x="378" 
d="M336 543q1 -14 -3 -42q-2 -16 -5 -26.5t-6 -18.5l-196 -128l155 -131q2 -8 1.5 -17t-2.5 -21q-4 -27 -12 -41l-214 182q-2 13 1 30q2 11 4.5 18t4.5 12l272 183v0z" />
    <glyph glyph-name="guilsinglright" unicode="&#x203a;" horiz-adv-x="378" 
d="M329 361q2 -13 -1 -30q-2 -11 -4.5 -18t-4.5 -12l-272 -183q-1 14 3 42q2 16 5 26.5t6 18.5l196 128l-155 131q-2 8 -1.5 17t2.5 21q4 27 12 41l214 -182v0z" />
    <glyph glyph-name="guillemotleft" unicode="&#xab;" horiz-adv-x="628" 
d="M281 197q2 -8 1.5 -17t-2.5 -21q-4 -27 -12 -41l-214 182q-2 13 1 30q2 11 4.5 18t4.5 12l272 183q1 -14 -3 -42q-2 -16 -5 -26.5t-6 -18.5l-196 -128zM586 543q1 -14 -3 -42q-2 -16 -5 -26.5t-6 -18.5l-196 -128l155 -131q2 -8 1.5 -17t-2.5 -21q-4 -27 -12 -41
l-214 182q-2 13 1 30q2 11 4.5 18t4.5 12z" />
    <glyph glyph-name="guillemotright" unicode="&#xbb;" horiz-adv-x="628" 
d="M328 331q-2 -11 -4.5 -18t-4.5 -12l-272 -183q-1 14 3 42q2 16 5 26.5t6 18.5l196 128l-155 131q-2 8 -1.5 17t2.5 21q4 27 12 41l214 -182q2 -13 -1 -30zM579 361q2 -13 -1 -30q-2 -11 -4.5 -18t-4.5 -12l-272 -183q-1 14 3 42q2 16 5 26.5t6 18.5l196 128l-155 131
q-2 8 -1.5 17t2.5 21q4 27 12 41z" />
    <glyph glyph-name="hyphen" unicode="-" horiz-adv-x="476" 
d="M394 351q1 -6 1 -13.5t-2 -19.5t-4.5 -19.5l-4.5 -13.5h-302q-1 6 -1 13.5t2 19.5t4.5 19.5l4.5 13.5h302v0z" />
    <glyph glyph-name="uni00AD" unicode="&#xad;" horiz-adv-x="476" 
d="M394 351q1 -6 1 -13.5t-2 -19.5t-4.5 -19.5l-4.5 -13.5h-302q-1 6 -1 13.5t2 19.5t4.5 19.5l4.5 13.5h302v0z" />
    <glyph glyph-name="endash" unicode="&#x2013;" horiz-adv-x="640" 
d="M558 351q1 -6 1 -13.5t-2 -19.5t-4.5 -19.5l-4.5 -13.5h-466q-1 6 -1 13.5t2 19.5t4.5 19.5l4.5 13.5h466v0z" />
    <glyph glyph-name="emdash" unicode="&#x2014;" horiz-adv-x="942" 
d="M860 351q1 -6 1 -13.5t-2 -19.5t-4.5 -19.5l-4.5 -13.5h-768q-1 6 -1 13.5t2 19.5t4.5 19.5l4.5 13.5h768v0z" />
    <glyph glyph-name="periodcentered" unicode="&#xb7;" horiz-adv-x="258" 
d="M130 325q-14 0 -23.5 1t-16.5 3q-1 8 -0.5 17.5t2.5 23.5t5 23.5t5 17.5q8 2 18 3t24 1t23.5 -1t16.5 -3q1 -8 0.5 -17.5t-2.5 -23.5t-5 -23.5t-5 -17.5q-8 -2 -18 -3t-24 -1z" />
    <glyph glyph-name="bullet" unicode="&#x2022;" horiz-adv-x="371" 
d="M180 288q-26 0 -42.5 2.5t-30.5 4.5q0 14 0.5 31t4.5 43t9 43t10 31l31.5 4.5t43.5 2.5t42.5 -2.5t30.5 -4.5q0 -14 -0.5 -31t-4.5 -43t-9 -43t-10 -31l-31.5 -4.5t-43.5 -2.5z" />
    <glyph glyph-name="uni2219" unicode="&#x2219;" horiz-adv-x="260" 
d="M131 325q-14 0 -23.5 1t-16.5 3q-1 8 -0.5 17.5t2.5 23.5t5 23.5t5 17.5q8 2 18 3t24 1t23.5 -1t16.5 -3q1 -8 0.5 -17.5t-2.5 -23.5t-5 -23.5t-5 -17.5q-8 -2 -18 -3t-24 -1z" />
    <glyph glyph-name="underscore" unicode="_" horiz-adv-x="550" 
d="M481 -94q1 -6 1 -13.5t-2 -19.5t-4.5 -19.5l-4.5 -13.5h-542q-1 6 -1 13.5t2 19.5t4.5 19.5l4.5 13.5h542v0z" />
    <glyph glyph-name="slash" unicode="/" horiz-adv-x="395" 
d="M389 766q11 0 19 -1t14 -3l-378 -865q-5 -2 -13.5 -3t-20.5 -1q-11 0 -19 1t-14 3l378 865q6 2 14 3t20 1z" />
    <glyph glyph-name="backslash" unicode="\" horiz-adv-x="380" 
d="M276 -103q-6 -2 -13.5 -3t-19.5 -1q-11 0 -18.5 1t-13.5 3l-103 865q6 2 13.5 3t19.5 1q11 0 18.5 -1t13.5 -3z" />
    <glyph glyph-name="uni2215" unicode="&#x2215;" horiz-adv-x="415" 
d="M430 766q11 0 19.5 -1t14.5 -3l-428 -796q-6 -2 -15.5 -3t-20.5 -1t-19.5 1t-14.5 3l428 796q6 2 15.5 3t20.5 1z" />
    <glyph glyph-name="fraction" unicode="&#x2044;" horiz-adv-x="411" 
d="M32 -34h2q-6 -2 -15.5 -3t-20.5 -1t-18.5 1t-13.5 3l428 796q6 2 14.5 3t19.5 1t18.5 -1t13.5 -3z" />
    <glyph glyph-name="bar" unicode="|" horiz-adv-x="318" 
d="M166 830q12 0 20 -1t14 -3v-928q-6 -2 -14 -3t-20 -1t-20 1t-14 3v928q6 2 14 3t20 1z" />
    <glyph glyph-name="brokenbar" unicode="&#xa6;" horiz-adv-x="323" 
d="M169 830q12 0 20 -1t14 -3v-353q-6 -2 -14 -3t-20 -1t-20 1t-14 3v353q6 2 14 3t20 1zM135 251q6 2 14 3t20 1t20 -1t14 -3v-353q-6 -2 -14 -3t-20 -1t-20 1t-14 3v353z" />
    <glyph glyph-name="parenleft" unicode="(" horiz-adv-x="321" 
d="M359 786q-116 -113 -172 -249.5t-56 -279.5q0 -94 23.5 -169.5t71.5 -147.5q-5 -5 -10.5 -11t-15.5 -14q-9 -6 -15.5 -9.5t-12.5 -5.5q-57 79 -83 163.5t-26 187.5q0 167 62.5 312.5t187.5 266.5q11 -5 26 -17q15 -15 20 -27z" />
    <glyph glyph-name="parenright" unicode=")" horiz-adv-x="321" 
d="M163 824q57 -79 83 -163.5t26 -187.5q0 -167 -62.5 -312.5t-187.5 -266.5q-11 5 -26 17q-15 15 -20 27q116 113 172 249.5t56 279.5q0 94 -23.5 169.5t-71.5 147.5q5 5 10.5 11t15.5 14q9 6 15.5 9.5t12.5 5.5z" />
    <glyph glyph-name="bracketleft" unicode="[" horiz-adv-x="327" 
d="M361 826q1 -5 1.5 -12.5t-1.5 -18.5t-4.5 -18.5t-4.5 -12.5h-111l-128 -804h111q1 -5 1 -12.5t-2 -18.5t-4 -18.5t-4 -12.5h-178l146 928h178v0z" />
    <glyph glyph-name="bracketright" unicode="]" horiz-adv-x="328" 
d="M305 826l-146 -928h-178q-1 5 -1.5 12.5t1.5 18.5t4.5 18.5t4.5 12.5h111l128 804h-111q-1 5 -1 12.5t2 18.5t4 18.5t4 12.5h178z" />
    <glyph glyph-name="braceleft" unicode="{" horiz-adv-x="362" 
d="M398 832q3 -10 0 -31q-2 -11 -4.5 -19t-4.5 -13q-57 -7 -85.5 -36.5t-38.5 -86.5l-16 -103q-7 -41 -17 -71t-27 -51t-41.5 -35t-60.5 -23q51 -15 71 -41t20 -76q0 -21 -4 -49t-8.5 -56.5t-8.5 -55t-4 -44.5q0 -76 89 -88q2 -5 2 -13t-1 -16q-1 -9 -4 -17t-5 -13
q-69 4 -109 39t-40 101q0 17 4 44t8.5 55.5t8.5 56t4 46.5q0 47 -21 71t-76 30q-2 5 -1 14.5t1 11.5q3 21 8 31q37 4 62.5 15.5t42 31.5t26.5 49.5t16 69.5l15 94q14 87 66 130t133 48z" />
    <glyph glyph-name="braceright" unicode="}" horiz-adv-x="363" 
d="M348 389q2 -5 1 -14.5t-1 -11.5q-3 -21 -8 -31q-37 -4 -62.5 -15.5t-42 -31.5t-26.5 -49.5t-16 -69.5l-15 -94q-14 -87 -66 -130t-133 -48q-3 10 0 31q2 11 4.5 19t4.5 13q57 7 85.5 36.5t38.5 86.5l16 103q7 41 17 71t27 51t41.5 35t60.5 23q-51 15 -71 41t-20 76
q0 21 4 49t8.5 56.5t8.5 55t4 44.5q0 76 -89 88q-2 5 -2 13t1 16q1 9 4 17t5 13q69 -4 109 -39t40 -101q0 -17 -4 -44t-8.5 -55.5t-8.5 -56t-4 -46.5q0 -47 21 -71t76 -30z" />
    <glyph glyph-name="asterisk" unicode="*" horiz-adv-x="500" 
d="M169 346q-6 2 -13.5 5.5t-17.5 10.5q-9 7 -14 12t-8 10l129 133l-155 40q2 6 4 14t8 20t10.5 19t8.5 12l145 -60l14 167q7 2 15.5 3t22.5 1q12 0 19.5 -1t13.5 -3l-38 -169l160 62q2 -5 4.5 -12.5t4.5 -18.5q2 -12 2 -20v-14l-165 -40l84 -132q-9 -9 -29 -22
q-10 -7 -16.5 -10.5t-11.5 -5.5l-64 141l-113 -142v0z" />
    <glyph glyph-name="dagger" unicode="&#x2020;" 
d="M563 545q1 -6 0.5 -14t-2.5 -20t-4.5 -20t-4.5 -14h-178l-98 -617q-6 -2 -14 -3t-20 -1t-20 1t-14 3l98 617h-177q-1 6 -1 14t2 20t5 20t5 14h177l29 182q6 2 14 3t20 1t20 -1t14 -3l-29 -182h178v0z" />
    <glyph glyph-name="daggerdbl" unicode="&#x2021;" 
d="M562 545q1 -6 0.5 -14t-2.5 -20t-4.5 -20t-4.5 -14h-178l-29 -184h178l-11 -68h-178l-58 -365q-6 -2 -14 -3t-20 -1t-20 1t-14 3l58 365h-177l-1 -8q-1 6 -1 14t2 20q4 22 10 33l1 9h177l29 184h-177q-1 6 -1 14t2 20t5 20t5 14h177l29 182q6 2 14 3t20 1t20 -1t14 -3
l-29 -182h178zM521 285v-14t-2 -20t-4.5 -20t-4.5 -14z" />
    <glyph glyph-name="section" unicode="&#xa7;" horiz-adv-x="535" 
d="M343 743q48 0 89 -10t73 -26q0 -5 -2 -14t-6 -17t-8.5 -15.5t-9.5 -11.5q-23 11 -60.5 21.5t-79.5 10.5q-32 0 -60 -4.5t-48 -14.5t-31.5 -25.5t-11.5 -37.5q0 -18 9 -30.5t24.5 -21.5t36 -16.5t42.5 -14.5q29 -9 59 -20.5t54 -30t39.5 -46t15.5 -68.5q0 -84 -56 -129
q12 -14 19 -32t7 -41q0 -41 -16.5 -71.5t-45.5 -50.5t-70 -30.5t-90 -10.5q-34 0 -64.5 4.5t-55 10.5t-42.5 13t-27 13l2.5 12.5t6.5 18.5t9 16.5t8 10.5q23 -11 68 -24t99 -13q71 0 110 25.5t39 67.5q0 20 -10 34t-26.5 24t-37.5 17t-44 14q-29 9 -58 21t-52 30t-38 42.5
t-15 59.5q0 41 19 73t52 55q-18 16 -29 36t-11 46q0 37 17 65.5t47 47t71 28t89 9.5zM402 340q0 29 -11.5 48.5t-30 32.5t-42 21.5t-48.5 15.5q-15 5 -30.5 10t-29.5 12q-24 -13 -40 -33.5t-16 -52.5q0 -25 10 -42t26.5 -28.5t38.5 -19t46 -14.5q22 -6 44 -13t42 -17
q19 14 30 33t11 47z" />
    <glyph glyph-name="paragraph" unicode="&#xb6;" horiz-adv-x="607" 
d="M537 731q11 0 18.5 -1t12.5 -3l-116 -725q-5 -2 -13 -3t-19 -1t-18 1t-12 3l115 725q5 2 13 3t19 1zM92 517q17 103 78.5 157.5t161.5 54.5h52l-124 -785q-13 -81 -59.5 -123t-117.5 -42q-35 0 -63 8t-49 16q1 6 3 13t7 18t8.5 18t7.5 12q17 -6 41.5 -12.5t53.5 -6.5
q42 0 69 24t36 79l58 358q-86 2 -126.5 44.5t-40.5 115.5q0 12 1 24.5t3 26.5z" />
    <glyph glyph-name="copyright" unicode="&#xa9;" horiz-adv-x="976" 
d="M489 -102q-88 0 -165 33t-134.5 90.5t-90.5 134.5t-33 165t33 165t90.5 134t134.5 90t165 33t165 -33t134 -90t90 -134t33 -165t-33 -165t-90 -134.5t-134 -90.5t-165 -33zM489 -51q77 0 145 29.5t118.5 80t79.5 118t29 144.5t-29 144.5t-79.5 118t-118.5 80t-145 29.5
q-78 0 -145.5 -29.5t-118 -80t-79.5 -118t-29 -144.5t29 -144.5t79.5 -118t118 -80t145.5 -29.5zM631 529q0 -10 -4 -25q-2 -9 -5 -14.5t-5 -9.5q-27 7 -57 12t-59 5q-30 0 -56 -8.5t-46 -28.5t-31.5 -52.5t-11.5 -80.5q0 -90 37 -130t99 -40q35 0 67.5 6t66.5 17
q2 -4 5 -9.5t5 -13.5q4 -15 4 -25q-24 -9 -64 -19.5t-85 -10.5q-101 0 -150 60.5t-49 164.5q0 107 56 166t153 59q19 0 38 -2.5t36.5 -6t32 -7.5t23.5 -7z" />
    <glyph glyph-name="registered" unicode="&#xae;" horiz-adv-x="976" 
d="M489 743q88 0 165 -33t134 -90t90 -134t33 -165t-33 -165t-90 -134.5t-134 -90.5t-165 -33t-165 33t-134.5 90.5t-90.5 134.5t-33 165t33 165t90.5 134t134.5 90t165 33zM489 -51q77 0 145 29.5t118.5 80t79.5 118t29 144.5t-29 144.5t-79.5 118t-118.5 80t-145 29.5
q-78 0 -145.5 -29.5t-118 -80t-79.5 -118t-29 -144.5t29 -144.5t79.5 -118t118 -80t145.5 -29.5zM568 290q7 -9 18.5 -24t20.5 -29l88 -129q-7 -2 -16 -3t-23 -1t-22.5 1t-15.5 3l-111 170h-110v-170q-6 -2 -13.5 -3t-18.5 -1t-18.5 1t-13.5 3v439h168q75 0 115 -37t40 -97
q0 -48 -25 -78.5t-63 -44.5zM502 334q35 0 61.5 18t26.5 61q0 40 -24.5 59.5t-65.5 19.5h-103v-158h105z" />
    <glyph glyph-name="trademark" unicode="&#x2122;" horiz-adv-x="799" 
d="M732 733q11 0 19 -1t14 -3l-40 -348q-5 -2 -10.5 -3t-14.5 -1t-15 1t-11 3l38 285l-147 -285q-4 -2 -9 -3t-13 -1t-13.5 1t-9.5 3l-55 286l-54 -286q-5 -2 -10.5 -3t-14.5 -1t-15 1t-11 3l72 348q6 2 14 3t21 1q12 0 20 -1t14 -3l53 -290l144 290q6 2 14 3t20 1zM379 706
q-2 -8 -4 -13.5t-4 -10.5h-109l-48 -301q-5 -2 -11 -3t-16 -1t-16 1t-11 3l48 301h-108q-1 3 -1 12q0 7 1 12q2 8 4 13l4 10h271q1 -3 1 -11q0 -7 -1 -12z" />
    <glyph glyph-name="at" unicode="@" horiz-adv-x="960" 
d="M545 743q95 0 163 -22t111 -63t63 -99.5t20 -131.5q0 -61 -11.5 -123.5t-37.5 -112.5t-68.5 -82t-105.5 -32q-23 0 -46.5 5t-42.5 15l1 78q-29 -44 -71.5 -70t-97.5 -26q-39 0 -67.5 14t-47 39t-27.5 59.5t-9 76.5q0 57 15 109.5t44 93t71.5 64.5t97.5 24q53 0 88 -27.5
t50 -78.5l24 92h-1q5 2 10 3t13 1q13 0 21 -4h-1l-64 -409q12 -3 22 -4.5t23 -1.5q44 0 73 29t46 73t24 96t7 98q0 64 -16.5 112t-51.5 79.5t-90.5 47.5t-134.5 16q-103 0 -180.5 -33.5t-129.5 -93.5t-78.5 -142.5t-26.5 -180.5q0 -145 77.5 -214t221.5 -69q65 0 119 9
t94 23q2 -5 4.5 -11t4.5 -17t1 -19t-2 -11q-17 -6 -41.5 -12.5t-55 -11.5t-65 -8t-69.5 -3q-91 0 -158 23.5t-111.5 67.5t-66 107.5t-21.5 143.5q0 114 32.5 208.5t94.5 162.5t153 105.5t207 37.5zM445 139q40 0 70.5 20t51 52t30.5 70.5t10 76.5q0 41 -9.5 68t-25 42.5
t-34.5 22t-38 6.5q-42 0 -72.5 -19.5t-50 -51.5t-28.5 -72.5t-9 -82.5q0 -64 23 -98t82 -34z" />
    <glyph glyph-name="numbersign" unicode="#" 
d="M618 520q0 -2 0.5 -4.5t0.5 -5.5q0 -4 -0.5 -8.5t-1.5 -10.5q-2 -10 -4 -16.5t-4 -11.5h-127l-55 -194h120q0 -2 0.5 -4.5t0.5 -5.5q0 -4 -0.5 -8.5t-1.5 -10.5q-2 -10 -4 -16.5t-4 -11.5h-127l-59 -210q-6 -2 -13 -3t-18 -1q-10 0 -16 1t-11 3l59 210h-146l-59 -210
q-6 -2 -12.5 -3t-17.5 -1q-10 0 -16 1t-11 3l59 210h-123q-1 4 -1 14v6.5t1 8.5q2 10 4.5 16.5t4.5 11.5h130l55 194h-123q-1 4 -1 14v6.5t1 8.5q2 10 4.5 16.5t4.5 11.5h130l59 207q6 2 12.5 3t17.5 1q10 0 16 -1t11 -3l-59 -207h146l59 207q6 2 12.5 3t17.5 1q10 0 16 -1
t11 -3l-58 -207h120zM424 463h-146l-55 -194h146z" />
    <glyph glyph-name="zero" unicode="0" 
d="M269 -14q-58 0 -99.5 21.5t-68.5 58.5t-39.5 87t-12.5 108q0 90 21.5 177t63.5 154.5t103 109t140 41.5q57 0 98.5 -21t68 -58t39 -87.5t12.5 -109.5q0 -91 -21.5 -177.5t-63.5 -154t-102.5 -108.5t-138.5 -41zM274 51q60 0 106 34.5t78 92t48.5 131.5t16.5 153
q0 51 -8 91t-26 67.5t-47 42.5t-71 15q-60 0 -106.5 -35.5t-78.5 -93.5t-48.5 -132.5t-16.5 -153.5q0 -48 8 -87.5t26.5 -67t47.5 -42.5t71 -15z" />
    <glyph glyph-name="one" unicode="1" 
d="M517 63q1 -8 1 -16t-2 -16t-3.5 -15t-5.5 -16h-446q-2 16 1 32l3.5 17.5t5.5 13.5h190l95 590l-188 -48q-4 7 -6 17.5t-3 18.5q-1 18 1 29l194 53q17 5 27 6.5t22 1.5q11 0 19 -1t14 -3l-105 -664h186v0z" />
    <glyph glyph-name="two" unicode="2" 
d="M502 65q1 -4 1 -12q0 -5 -0.5 -10t-1.5 -10q-1 -8 -3 -16.5t-6 -16.5h-446q0 74 33.5 128t83.5 96.5t108.5 78t108.5 71.5t83.5 78t33.5 97q0 66 -37.5 97.5t-108.5 31.5q-52 0 -100 -16.5t-92 -43.5q-5 3 -9 10.5t-8 17.5q-4 6 -5.5 14t-3.5 17q49 32 106.5 49t117.5 17
q103 0 159 -50t56 -140q0 -60 -30.5 -107t-77 -86.5t-102 -74.5t-105.5 -69t-87 -70.5t-47 -80.5h379z" />
    <glyph glyph-name="three" unicode="3" 
d="M398 390q25 -5 48 -17t40.5 -32t27.5 -48t10 -64q0 -56 -19.5 -100.5t-55 -76t-85.5 -48.5t-111 -17q-34 0 -67 6t-62.5 15.5t-53 21.5t-38.5 25q2 5 6 12.5t11 16.5q15 20 24 26q33 -25 77.5 -41t95.5 -16q96 0 150.5 45t54.5 126q0 68 -42.5 100t-130.5 34h-38
q-2 10 -1.5 17.5t1.5 12.5q2 11 4.5 18t4.5 12h38q96 2 149.5 35t53.5 109q0 54 -39 85t-107 31q-49 0 -95.5 -15t-87.5 -40q-9 9 -17 28t-8 31q38 24 92.5 42.5t115.5 18.5q104 0 161.5 -46.5t57.5 -125.5q0 -33 -9.5 -62t-29.5 -53t-51.5 -41t-74.5 -25z" />
    <glyph glyph-name="four" unicode="4" 
d="M570 236q1 -8 0.5 -16t-1.5 -16q-3 -20 -9 -31h-114l-27 -171q-7 -2 -15.5 -3t-20.5 -1t-20.5 1t-13.5 3l27 171h-350q-4 16 1 43q2 15 5 25t7 18l411 468q8 2 18 3.5t25 1.5q14 0 23.5 -1.5t16.5 -3.5l-77 -491h114zM386 236l62 395l-348 -395h286z" />
    <glyph glyph-name="five" unicode="5" 
d="M577 729q1 -8 0.5 -16.5t-1.5 -15.5q-2 -12 -4.5 -19.5t-5.5 -13.5h-334l-39 -250q27 11 58 18.5t70 7.5q46 0 86.5 -12t70.5 -36.5t47.5 -62.5t17.5 -90q0 -60 -22 -107t-60 -79t-90.5 -49t-113.5 -17q-33 0 -66 4.5t-62.5 12.5t-54 20t-40.5 26q9 17 17 29q7 8 13 15.5
t11 10.5q32 -23 79.5 -37.5t101.5 -14.5q45 0 83.5 11.5t67 34t45 56.5t16.5 79q0 69 -40 106t-118 37q-36 0 -73 -8.5t-68 -23.5q-6 2 -12.5 4.5t-16.5 7.5q-9 6 -14 10.5t-9 9.5l56 352h404v0z" />
    <glyph glyph-name="six" unicode="6" 
d="M403 678q-50 0 -90.5 -20.5t-71 -57t-52 -86t-32.5 -107.5q37 20 81.5 32t97.5 12q109 0 166 -54t57 -156q0 -56 -17 -102.5t-49.5 -80.5t-79.5 -52.5t-106 -18.5q-62 0 -106.5 22t-73 59.5t-41.5 88t-13 108.5q0 93 21 179.5t64 153t106.5 106t149.5 39.5
q54 0 93.5 -12.5t66.5 -26.5q-1 -5 -2.5 -12t-6.5 -18t-9 -17.5t-8 -11.5q-27 13 -61.5 23t-83.5 10zM322 387q-45 0 -91 -11.5t-84 -32.5q-3 -36 -3 -73q0 -50 8.5 -90t28 -68.5t51 -44t78.5 -15.5q43 0 76.5 14t55.5 38.5t33.5 58.5t11.5 74q0 150 -165 150z" />
    <glyph glyph-name="seven" unicode="7" 
d="M619 729q2 -10 2 -17q0 -5 -0.5 -10t-1.5 -10q-5 -29 -19 -43q-182 -188 -278.5 -348t-118.5 -301q-9 -2 -19.5 -3t-18.5 -1t-17.5 1t-17.5 3q25 162 126.5 325.5t273.5 339.5h-402q-2 7 -1 17t2 15q2 8 3.5 16t5.5 16h481v0z" />
    <glyph glyph-name="eight" unicode="8" 
d="M404 384q30 -12 57 -28t48 -37.5t33 -50t12 -66.5q0 -49 -19.5 -89t-56.5 -68t-89 -43t-118 -15q-53 0 -96.5 13.5t-74.5 37.5t-48.5 57t-17.5 72q0 45 16.5 78.5t43.5 59t63 44.5t75 34q-25 12 -47 27.5t-38.5 35.5t-26 44.5t-9.5 54.5q0 46 18.5 82.5t52.5 62
t82.5 39.5t109.5 14q49 0 89.5 -11t69.5 -31.5t45.5 -50.5t16.5 -67q0 -42 -15.5 -73t-42 -54.5t-61 -40.5t-72.5 -31zM183 559q0 -32 11 -54.5t30 -39t44.5 -29t53.5 -22.5q40 13 76.5 27t64 31.5t44 40t16.5 54.5q0 59 -43 86t-116 27q-82 0 -131.5 -32t-49.5 -89zM281 51
q94 0 147.5 38.5t53.5 101.5q0 38 -14.5 63.5t-38 43.5t-54 30.5t-62.5 23.5q-41 -14 -78.5 -29.5t-66 -36t-45.5 -46.5t-17 -62q0 -65 47.5 -96t127.5 -31z" />
    <glyph glyph-name="nine" unicode="9" 
d="M338 743q62 0 106.5 -22t73 -59.5t41.5 -88t13 -108.5q0 -93 -20 -179.5t-61.5 -153t-105.5 -106t-153 -39.5q-55 0 -94.5 13t-66.5 26q1 5 2.5 12t6.5 18t9 17.5t8 11.5q26 -11 57.5 -22t81.5 -11q55 0 97.5 20.5t73.5 57t51 86t30 107.5q-37 -20 -81 -32t-98 -12
q-48 0 -89.5 14t-71.5 40t-47 64.5t-17 87.5q0 55 17.5 102t50.5 81.5t80 54.5t106 20zM323 343q45 0 90.5 11t83.5 33q3 36 3 73q0 49 -8 89.5t-27.5 69t-51 44t-78.5 15.5q-44 0 -77 -14t-56 -39t-34.5 -59.5t-11.5 -75.5q0 -147 167 -147z" />
    <glyph glyph-name="uni00B9" unicode="&#xb9;" horiz-adv-x="378" 
d="M327 330q2 -13 -1 -26q-2 -9 -3.5 -15t-3.5 -11h-251q-1 5 -1 11t2 15q3 18 7 26h98l55 344l-93 -21q-2 5 -3 10.5t-2 13.5q-1 15 0 26l121 30q8 2 22 2q8 0 13 -0.5t9 -1.5l-64 -403h95v0z" />
    <glyph glyph-name="uni00B2" unicode="&#xb2;" horiz-adv-x="443" 
d="M191 378q-15 -11 -27.5 -21.5t-19.5 -22.5h225v-17t-1 -10q-2 -10 -4 -16.5t-4 -11.5h-292v11.5t2 17.5t3.5 17.5t3.5 11.5q17 26 36.5 43.5t40.5 34.5q31 23 65.5 44t63.5 44t48 48.5t19 57.5q0 43 -23 62.5t-64 19.5q-30 0 -60.5 -10.5t-56.5 -24.5q-7 5 -13 21
q-4 9 -4.5 14.5t-1.5 10.5q30 19 66.5 30t78.5 11q24 0 48 -6.5t43.5 -21.5t32 -38.5t12.5 -56.5q0 -46 -21 -80t-53 -62t-70.5 -51.5t-72.5 -48.5z" />
    <glyph glyph-name="uni00B3" unicode="&#xb3;" horiz-adv-x="442" 
d="M305 527q14 -3 28.5 -9t26 -17.5t18.5 -29.5t7 -45q0 -35 -13.5 -63.5t-37.5 -49t-57.5 -32t-73.5 -11.5q-18 0 -38 3t-39.5 8t-36.5 13t-29 17q2 5 4 10.5t7 13.5t9 12.5t7 8.5q22 -14 53 -22t60 -8q59 0 92 27t33 72q0 41 -27 57t-74 16h-32q-1 3 -1.5 9t0.5 14
q2 11 4 16.5t4 9.5h32q49 0 82.5 21.5t33.5 58.5t-23 49t-57 12q-31 0 -61.5 -9t-56.5 -23q-3 4 -6.5 8.5t-5.5 12.5q-3 11 -4 17t-1 11q30 17 68 27.5t76 10.5q27 0 51 -6.5t42 -19.5t28.5 -32.5t10.5 -44.5q0 -50 -27.5 -75t-75.5 -38z" />
    <glyph glyph-name="onequarter" unicode="&#xbc;" horiz-adv-x="923" 
d="M306 -34h2q-6 -2 -15.5 -3t-20.5 -1t-18.5 1t-13.5 3l428 796q6 2 14.5 3t19.5 1t18.5 -1t13.5 -3zM309 304q-2 -9 -3.5 -15t-3.5 -11h-251q-1 5 -1 11t2 15q3 18 7 26h98l55 344l-93 -21q-2 5 -3 10.5t-2 13.5q-1 15 0 26l121 30q8 2 22 2q8 0 13 -0.5t9 -1.5l-64 -403
h95q2 -13 -1 -26zM860 151q1 -7 0.5 -12.5t-1.5 -11.5q-2 -9 -3 -14.5t-3 -10.5h-72l-16 -102q-5 -1 -11.5 -2t-17.5 -1t-17.5 1t-11.5 2l16 102h-205q-2 5 -1.5 13.5t1.5 11.5q3 16 7 25l260 304q9 3 26 3t26 -3h1l-49 -305h71zM731 151l33 210l-178 -210h145z" />
    <glyph glyph-name="onehalf" unicode="&#xbd;" horiz-adv-x="947" 
d="M295 -34h2q-6 -2 -15.5 -3t-20.5 -1t-18.5 1t-13.5 3l428 796q6 2 14.5 3t19.5 1t18.5 -1t13.5 -3zM308 304q-2 -9 -3.5 -15t-3.5 -11h-251q-1 5 -1 11t2 15q3 18 7 26h98l55 344l-93 -21q-2 5 -3 10.5t-2 13.5q-1 15 0 26l121 30q8 2 22 2q8 0 13 -0.5t9 -1.5l-64 -403
h95q2 -13 -1 -26zM679 99q-15 -11 -27.5 -21.5t-19.5 -22.5h225v-17t-1 -10q-2 -10 -4 -16.5t-4 -11.5h-292v11.5t2 17.5t3.5 17.5t3.5 11.5q17 26 36.5 43.5t40.5 34.5q31 23 65.5 44t63.5 44t48 48.5t19 57.5q0 43 -23 62.5t-64 19.5q-30 0 -60.5 -10.5t-56.5 -24.5
q-7 5 -13 21q-4 9 -4.5 14.5t-1.5 10.5q30 19 66.5 30t78.5 11q24 0 48 -6.5t43.5 -21.5t32 -38.5t12.5 -56.5q0 -46 -21 -80t-53 -62t-70.5 -51.5t-72.5 -48.5z" />
    <glyph glyph-name="threequarters" unicode="&#xbe;" horiz-adv-x="909" 
d="M292 -34h2q-6 -2 -15.5 -3t-20.5 -1t-18.5 1t-13.5 3l428 796q6 2 14.5 3t19.5 1t18.5 -1t13.5 -3zM369 426q0 -35 -13.5 -63.5t-37.5 -49t-57.5 -32t-73.5 -11.5q-18 0 -38 3t-39.5 8t-36.5 13t-29 17q2 5 4 10.5t7 13.5t9 12.5t7 8.5q22 -14 53 -22t60 -8q59 0 92 27
t33 72q0 41 -27 57t-74 16h-32q-1 3 -1.5 9t0.5 14q2 11 4 16.5t4 9.5h32q49 0 82.5 21.5t33.5 58.5t-23 49t-57 12q-31 0 -61.5 -9t-56.5 -23q-3 4 -6.5 8.5t-5.5 12.5q-3 11 -4 17t-1 11q30 17 68 27.5t76 10.5q27 0 51 -6.5t42 -19.5t28.5 -32.5t10.5 -44.5
q0 -50 -27.5 -75t-75.5 -38q14 -3 28.5 -9t26 -17.5t18.5 -29.5t7 -45zM846 151q1 -5 0.5 -10.5t-1.5 -13.5q-1 -9 -2.5 -14.5t-3.5 -10.5h-72l-16 -102q-5 -1 -11.5 -2t-17.5 -1t-17.5 1t-11.5 2l16 102h-205q-2 5 -1.5 13.5t1.5 11.5q3 16 7 25l260 304q9 3 26 3t26 -3h1
l-49 -305h71zM717 151l33 210l-178 -210h145z" />
    <glyph glyph-name="dollar" unicode="$" 
d="M412 740q63 -8 111.5 -30t73.5 -42q-5 -12 -16 -27q-8 -11 -13.5 -17t-10.5 -11q-26 20 -65 38t-90 25l-42 -270q39 -11 73 -25t59 -36.5t39.5 -55.5t14.5 -81q0 -47 -16 -87t-48 -69t-79 -46.5t-109 -19.5l-15 -94q-6 -2 -13 -2.5t-19 -0.5q-11 0 -17 0.5t-12 2.5l15 97
q-69 8 -121 35t-83 56q3 6 6.5 11.5t11.5 15.5q8 9 15 14.5t12 8.5q35 -29 77 -49.5t92 -26.5l47 299q-37 11 -69.5 23.5t-56.5 32t-37.5 49t-13.5 73.5q0 43 14.5 81t43.5 66.5t74 45.5t107 19l13 84h-1q6 2 13 2.5t19 0.5q11 0 17 -0.5t12 -2.5h1zM183 533q0 -26 8.5 -44
t24 -30t37.5 -20.5t48 -15.5l41 256q-43 -2 -73.5 -14t-49.5 -32t-27.5 -45.5t-8.5 -54.5zM474 208q0 32 -9 53t-25.5 35t-39.5 23t-51 17l-45 -285q46 3 78.5 16.5t53 34.5t29.5 48.5t9 57.5z" />
    <glyph glyph-name="cent" unicode="&#xa2;" 
d="M424 648q38 -4 71 -16t62 -32q-1 -5 -3.5 -11.5t-8.5 -17.5q-8 -14 -21 -25q-26 15 -53 26t-57 15l-71 -450q31 2 63.5 13t65.5 31q5 -3 10 -8.5t10 -16.5q5 -10 5.5 -17.5t1.5 -12.5q-42 -28 -85 -39t-80 -11l-20 -124h-1q-6 -1 -14 -2t-20 -1q-11 0 -19 1t-14 2h1
l21 132q-72 18 -110 75t-38 143q0 71 17 130.5t48 104.5t75 73t97 36l19 121h-1q6 1 14 2t20 1q11 0 19 -1t14 -2h1zM191 302q0 -59 23 -98.5t64 -55.5l69 434q-72 -20 -114 -94t-42 -186z" />
    <glyph glyph-name="sterling" unicode="&#xa3;" 
d="M450 743q60 0 99.5 -19t62.5 -41l-5 -12.5t-11 -16.5q-8 -8 -13.5 -12.5t-11.5 -8.5q-22 21 -51.5 33.5t-72.5 12.5q-42 0 -72 -12t-51 -38t-34.5 -66.5t-22.5 -96.5l-12 -75h208q2 -9 1.5 -17.5t-1.5 -13.5q-3 -20 -10 -33h-208q-5 -36 -12 -71t-19.5 -68t-33.5 -64.5
t-55 -59.5h387q2 -13 -1 -32q-2 -11 -4.5 -18.5l-4.5 -13.5h-461q-6 10 -10 31q-3 15 -1 33q42 19 67 47t40 62.5t23 73.5t14 80h-88q-1 9 -0.5 17t1.5 15q2 11 4 18t5 14h88l13 82q21 134 81.5 202t171.5 68z" />
    <glyph glyph-name="currency" unicode="&#xa4;" 
d="M533 368q0 -73 -34 -124l110 -110q-6 -11 -21 -27q-8 -8 -15 -13t-12 -8l-110 109q-52 -37 -128 -37t-128 37l-109 -109q-11 6 -27 21q-8 8 -13 15t-8 12l109 109q-34 53 -34 125t34 125l-110 110q6 11 21 27q8 8 15 13t12 8l110 -110q52 37 128 37t128 -37l111 110
q11 -6 27 -21q8 -8 13 -15t8 -12l-111 -111q34 -51 34 -124zM323 220q66 0 105 40.5t39 107.5t-39 107.5t-105 40.5t-105 -40.5t-39 -107.5t39 -107.5t105 -40.5z" />
    <glyph glyph-name="yen" unicode="&#xa5;" 
d="M513 354q2 -5 1.5 -16.5t-1.5 -13.5q-2 -11 -4.5 -18t-4.5 -12h-144l-24 -38l-8 -48h162q2 -5 1 -16.5t-2 -13.5q-2 -11 -4 -18t-4 -12h-162l-23 -146q-7 -2 -15 -3t-20 -1t-20 1t-13 3l23 146h-155q-2 5 -1.5 16.5t1.5 13.5q2 11 4.5 18t4.5 12h156l7 47l-12 39h-137
q0 6 -0.5 8t-0.5 3.5v5t2 13.5q2 11 4 18t4 12h108l-119 373q8 2 17.5 3t23.5 1t20.5 -1t12.5 -3l87 -276q4 -12 9 -29t10 -33.5t9.5 -30.5t6.5 -21q7 14 27 46t41 67l171 277q8 2 20 3t26 1t22.5 -1t14.5 -3l-237 -373h115z" />
    <glyph glyph-name="Euro" unicode="&#x20ac;" 
d="M447 743q36 0 65.5 -5.5t53 -15.5t43 -22.5t36.5 -25.5q0 -6 -2.5 -14.5t-6.5 -16.5q-8 -16 -22 -28q-16 13 -33 24.5t-37.5 20t-45 13.5t-55.5 5q-47 0 -84.5 -16.5t-66.5 -45.5t-49.5 -68.5t-33.5 -86.5h279q2 -12 0 -30q-2 -11 -4.5 -18t-4.5 -12h-283
q-3 -21 -5 -42.5t-3 -43.5h277q2 -5 1 -16.5t-2 -13.5q-2 -11 -4 -18t-4 -12h-268q6 -103 54.5 -153.5t126.5 -50.5q48 0 86.5 13.5t86.5 40.5q4 -4 8 -11t7 -15t5 -16.5t3 -15.5q-47 -28 -97.5 -44.5t-106.5 -16.5q-54 0 -99 18t-77 52t-50.5 84t-21.5 115h-92q-3 10 0 30
q2 11 4.5 18t4.5 12h84q1 22 3.5 43.5t5.5 42.5h-79q-1 9 -1 14.5t2 15.5q2 11 4 18t4 12h83q16 61 43 113t66 89.5t89.5 58.5t112.5 21z" />
    <glyph glyph-name="florin" unicode="&#x192;" horiz-adv-x="408" 
d="M353 796q35 0 63 -8t50 -16q-2 -6 -3 -13t-6 -18t-9 -18t-8 -12q-17 6 -41.5 12.5t-53.5 6.5q-42 0 -68.5 -24t-34.5 -79l-12 -82h164v-13t-2 -18q-3 -21 -7 -30h-164l-83 -561q-8 -56 -44.5 -93.5t-95.5 -50.5q-3 5 -6 11t-7 17q-3 10 -4 17.5t-2 12.5q11 4 25 9.5
t27 15t23.5 24t13.5 37.5l85 561h-66v13.5t2 17.5q3 20 7 30h66l13 86q11 81 58.5 123t119.5 42z" />
    <glyph glyph-name="percent" unicode="%" horiz-adv-x="922" 
d="M731 731q13 0 21.5 -1t13.5 -3l-526 -725q-7 -2 -15 -3t-21 -1t-21 1t-15 3l526 725q8 2 16 3t21 1zM425 565q0 -47 -12.5 -93t-38 -82t-64.5 -58t-91 -22q-68 0 -107 40t-39 123q0 47 12.5 93t37.5 82t63.5 58.5t90.5 22.5q68 0 108 -40t40 -124zM135 470
q0 -33 8.5 -53.5t21.5 -32t29.5 -16t33.5 -4.5q40 0 66 20.5t41 51.5t21 67t6 68t-8 52t-20.5 31.5t-28.5 16t-32 4.5q-39 0 -65.5 -20t-42.5 -51t-23 -67t-7 -67zM714 407q68 0 108 -40t40 -124q0 -47 -12.5 -93t-38 -82t-64.5 -58t-91 -22q-68 0 -107 40t-39 123
q0 47 12.5 93t37.5 82t63.5 58.5t90.5 22.5zM665 42q40 0 66 20.5t41 51.5t21 67t6 68t-8 52t-20.5 31.5t-28.5 16t-32 4.5q-39 0 -65.5 -20t-42.5 -51t-23 -67t-7 -67q0 -33 8.5 -53.5t21.5 -32t29.5 -16t33.5 -4.5z" />
    <glyph glyph-name="perthousand" unicode="&#x2030;" horiz-adv-x="1335" 
d="M731 731q13 0 21.5 -1t13.5 -3l-526 -725q-7 -2 -15 -3t-21 -1t-21 1t-15 3l526 725q8 2 16 3t21 1zM425 565q0 -47 -12.5 -93t-38 -82t-64.5 -58t-91 -22q-68 0 -107 40t-39 123q0 47 12.5 93t37.5 82t63.5 58.5t90.5 22.5q68 0 108 -40t40 -124zM135 470
q0 -33 8.5 -53.5t21.5 -32t29.5 -16t33.5 -4.5q40 0 66 20.5t41 51.5t21 67t6 68t-8 52t-20.5 31.5t-28.5 16t-32 4.5q-39 0 -65.5 -20t-42.5 -51t-23 -67t-7 -67zM714 407q68 0 108 -40t40 -124q0 -47 -12.5 -93t-38 -82t-64.5 -58t-91 -22q-68 0 -107 40t-39 123
q0 47 12.5 93t37.5 82t63.5 58.5t90.5 22.5zM1128 407q68 0 108 -40t40 -124q0 -47 -12.5 -93t-38 -82t-64.5 -58t-91 -22q-68 0 -107 40t-39 123q0 47 12.5 93t37.5 82t63.5 58.5t90.5 22.5zM665 42q40 0 66 20.5t41 51.5t21 67t6 68t-8 52t-20.5 31.5t-28.5 16t-32 4.5
q-39 0 -65.5 -20t-42.5 -51t-23 -67t-7 -67q0 -33 8.5 -53.5t21.5 -32t29.5 -16t33.5 -4.5zM1079 42q40 0 66 20.5t41 51.5t21 67t6 68t-8 52t-20.5 31.5t-28.5 16t-32 4.5q-39 0 -65.5 -20t-42.5 -51t-23 -67t-7 -67q0 -33 8.5 -53.5t21.5 -32t29.5 -16t33.5 -4.5z" />
    <glyph glyph-name="plus" unicode="+" 
d="M558 359q0 -12 -1 -19.5t-3 -12.5h-200v-208q-6 -2 -13.5 -3t-18.5 -1t-18.5 1t-13.5 3v208h-200q-2 5 -3 12.5t-1 19.5q0 11 1 18.5t3 12.5h200v207q6 2 13.5 3t18.5 1t18.5 -1t13.5 -3v-207h200q2 -5 3 -12.5t1 -18.5z" />
    <glyph glyph-name="minus" unicode="&#x2212;" 
d="M551 390q2 -5 3 -12.5t1 -18.5q0 -12 -1 -19.5t-3 -12.5h-460q-2 5 -3 12.5t-1 19.5q0 11 1 18.5t3 12.5h460v0z" />
    <glyph glyph-name="plusminus" unicode="&#xb1;" 
d="M540 410q2 -5 3 -12.5t1 -18.5q0 -12 -1 -19.5t-3 -12.5h-200v-208q-6 -2 -13.5 -3t-18.5 -1t-18.5 1t-13.5 3v208h-200q-2 5 -3 12.5t-1 19.5q0 11 1 18.5t3 12.5h200v207q6 2 13.5 3t18.5 1t18.5 -1t13.5 -3v-207h200zM526 62q2 -5 3 -12.5t1 -18.5q0 -12 -1 -19.5
t-3 -12.5h-460q-2 5 -3 12.5t-1 19.5q0 11 1 18.5t3 12.5h460z" />
    <glyph glyph-name="divide" unicode="&#xf7;" 
d="M315 519q-14 0 -23.5 1t-17.5 3q-2 8 -3 17.5t-1 23.5t1 23.5t3 17.5q8 2 17.5 3t23.5 1t23.5 -1t17.5 -3q2 -8 3 -17.5t1 -23.5t-1 -23.5t-3 -17.5q-8 -2 -17.5 -3t-23.5 -1zM551 390q2 -5 3 -12.5t1 -18.5q0 -12 -1 -19.5t-3 -12.5h-460q-2 5 -3 12.5t-1 19.5
q0 11 1 18.5t3 12.5h460zM315 198q14 0 23.5 -1t17.5 -3q2 -8 3 -17.5t1 -23.5t-1 -23.5t-3 -17.5q-8 -2 -17.5 -3t-23.5 -1t-23.5 1t-17.5 3q-2 8 -3 17.5t-1 23.5t1 23.5t3 17.5q8 2 17.5 3t23.5 1z" />
    <glyph glyph-name="multiply" unicode="&#xd7;" 
d="M535 177q-3 -6 -7.5 -12t-12.5 -14t-14 -12t-11 -8l-174 174l-171 -174q-6 3 -12 7.5t-14 12.5q-7 8 -10.5 13t-7.5 10l172 174l-174 174q3 5 7.5 11.5t12.5 14.5t14 12t11 7l174 -174l172 174q5 -3 11.5 -7.5t14.5 -12.5q7 -7 10.5 -12.5t6.5 -10.5l-172 -174z" />
    <glyph glyph-name="equal" unicode="=" 
d="M89 420q-2 5 -3 12.5t-1 19.5q0 11 1 18.5t3 12.5h460q2 -5 3 -12.5t1 -18.5q0 -12 -1 -19.5t-3 -12.5h-460zM549 295q2 -5 3 -12.5t1 -18.5q0 -12 -1 -19.5t-3 -12.5h-460q-2 5 -3 12.5t-1 19.5q0 11 1 18.5t3 12.5h460z" />
    <glyph glyph-name="less" unicode="&#x3c;" 
d="M526 168q2 -6 3 -14t1 -20q0 -13 -1 -21t-3 -16l-458 228q-2 7 -3 13.5t-1 17.5q0 10 1 16.5t3 11.5l458 228q2 -6 3 -14t1 -20q0 -13 -1 -21t-3 -14l-378 -188z" />
    <glyph glyph-name="greater" unicode="&#x3e;" 
d="M575 387q2 -7 3 -13.5t1 -17.5q0 -10 -1 -16.5t-3 -11.5l-458 -228q-2 6 -3 14t-1 20q0 13 1 21t3 14l378 188l-378 187q-2 6 -3 14t-1 20q0 13 1 21t3 16l458 -228v0z" />
    <glyph glyph-name="lessequal" unicode="&#x2264;" 
d="M532 218q2 -6 3 -14t1 -20q0 -13 -1 -21t-3 -16l-458 228q-2 7 -3 13.5t-1 17.5q0 10 1 16.5t3 11.5l458 228q2 -6 3 -14t1 -20q0 -13 -1 -21t-3 -14l-378 -188zM532 62q2 -5 3 -12.5t1 -18.5q0 -12 -1 -19.5t-3 -12.5h-460q-2 5 -3 12.5t-1 19.5q0 11 1 18.5t3 12.5h460
z" />
    <glyph glyph-name="greaterequal" unicode="&#x2265;" 
d="M88 184q0 12 1 20t3 14l378 187l-378 188q-2 6 -3 14t-1 21q0 12 1 20t3 14l458 -228q2 -5 3 -11.5t1 -16.5q0 -11 -1 -17.5t-3 -13.5l-458 -228q-2 8 -3 16t-1 21zM552 62q2 -5 3 -12.5t1 -18.5q0 -12 -1 -19.5t-3 -12.5h-460q-2 5 -3 12.5t-1 19.5q0 11 1 18.5t3 12.5
h460z" />
    <glyph glyph-name="approxequal" unicode="&#x2248;" 
d="M144 378q-5 -2 -11.5 -3t-17.5 -1q-10 0 -16.5 1t-11.5 3q11 81 43.5 117.5t95.5 36.5q36 0 65.5 -19t55.5 -39q20 -14 37.5 -25t35.5 -11q30 0 48 22t29 71q5 2 11.5 3t17.5 1q10 0 16.5 -1t11.5 -3q-12 -83 -44.5 -120t-93.5 -37q-31 0 -56.5 16t-48.5 34
q-23 17 -44.5 31t-45.5 14q-29 0 -47 -21.5t-30 -69.5zM497 317q5 2 11.5 3t17.5 1q10 0 16.5 -1t11.5 -3q-12 -83 -44.5 -120t-93.5 -37q-32 0 -57.5 16.5t-50.5 35.5q-21 17 -42.5 30t-44.5 13q-29 0 -47 -21.5t-30 -69.5q-5 -2 -11.5 -3t-17.5 -1q-10 0 -16.5 1t-11.5 3
q11 81 43.5 117.5t95.5 36.5q33 0 60.5 -16.5t51.5 -35.5q22 -16 42 -29t40 -13q30 0 48 22t29 71z" />
    <glyph glyph-name="notequal" unicode="&#x2260;" 
d="M549 294q2 -5 3 -12t1 -18t-1 -18.5t-3 -12.5h-238l-51 -180q-5 -2 -13 -3t-19 -1t-18.5 1t-12.5 3l51 180h-159q-2 5 -3 12.5t-1 18.5t1 18t3 12h176l36 127h-212q-2 5 -3 12.5t-1 18.5t1 18t3 12h229l50 179q5 2 13 3t19 1t18.5 -1t12.5 -3l-50 -179h168q2 -5 3 -12
t1 -18t-1 -18.5t-3 -12.5h-185l-36 -127h221z" />
    <glyph glyph-name="logicalnot" unicode="&#xac;" 
d="M534 393v-283q-6 -2 -14 -3t-20 -1t-20 1t-14 3v216h-390q-2 5 -3 12.5t-1 21.5q0 13 1 20.5t3 12.5h458z" />
    <glyph glyph-name="uni2113" unicode="&#x2113;" horiz-adv-x="400" 
d="M273 743q60 0 90.5 -39.5t28.5 -113.5q0 -60 -17 -114t-49.5 -99t-78.5 -77.5t-103 -48.5l-16 -105q-2 -15 -3.5 -26t-1.5 -19q0 -26 16 -37.5t42 -11.5q18 0 38.5 6t43.5 15q5 -6 8.5 -12.5t5.5 -16.5q5 -17 1 -36q-23 -8 -51 -14.5t-57 -6.5q-24 0 -45.5 7t-37 21
t-24.5 34.5t-9 46.5q0 7 2 21t5 34l73 464q9 59 44.5 93.5t94.5 34.5zM326 592q1 45 -13.5 68.5t-43.5 23.5q-26 0 -44 -16.5t-24 -54.5l-46 -295q40 15 72 43t54 65t33.5 79.5t11.5 86.5z" />
    <glyph glyph-name="estimated" unicode="&#x212e;" 
d="M381 743q107 0 168 -70t61 -201q0 -27 -2.5 -56.5t-7.5 -61.5l-4 -26h-479q-1 -14 -1.5 -28.5t-0.5 -28.5q0 -108 47.5 -165.5t139.5 -57.5q52 0 108 20.5t108 62.5q5 -3 10 -8t11 -13q9 -15 11 -26q-64 -51 -126 -74.5t-122 -23.5q-122 0 -190.5 77t-68.5 214
q0 90 21 174.5t63 149t105.5 103.5t148.5 39zM381 679q-53 0 -95.5 -23.5t-74.5 -63.5t-53.5 -92t-31.5 -110h410q2 20 3 37.5t1 34.5q0 106 -40.5 161.5t-118.5 55.5z" />
    <glyph glyph-name="partialdiff" unicode="&#x2202;" horiz-adv-x="627" 
d="M352 743q97 0 154.5 -67t57.5 -191q0 -98 -15 -188t-50 -159t-93.5 -110.5t-146.5 -41.5q-42 0 -80.5 12.5t-67.5 38t-46.5 64t-18.5 90.5q-1 59 17 111.5t52 91.5t82.5 62t108.5 23q68 0 118.5 -27t69.5 -78q7 61 5 116.5t-18.5 98t-49 67.5t-86.5 25q-44 0 -83 -12.5
t-81 -31.5q-5 4 -8.5 11t-7.5 16q-8 21 -8 31q49 24 95.5 36t99.5 12zM260 47q52 0 90 19t63 50.5t37 72t12 84.5q0 69 -37.5 106.5t-109.5 37.5q-48 0 -84.5 -16.5t-62 -45.5t-38.5 -69.5t-13 -89.5q0 -37 11 -65t30 -46.5t45.5 -28t56.5 -9.5z" />
    <glyph glyph-name="product" unicode="&#x220f;" 
d="M658 729q1 -5 1 -13t-2 -19t-4 -18.5t-5 -13.5h-96l-122 -771q-6 -2 -14 -3t-20 -1t-20 1t-14 3l122 771h-228l-122 -771q-6 -2 -14 -3t-20 -1t-20 1t-14 3l122 771h-95q-2 12 1 32q2 11 4.5 18.5l4.5 13.5h555v0z" />
    <glyph glyph-name="summation" unicode="&#x2211;" 
d="M131 656q0 3 -0.5 6t-0.5 7q0 5 0.5 10.5t1.5 13.5q2 13 5 21t5 15h469q0 -2 0.5 -5t0.5 -6q0 -4 -0.5 -9t-1.5 -12q-2 -11 -5 -19l-4 -13h-400l167 -337q1 -4 1 -13q0 -11 -2.5 -17t-4.5 -11l-265 -329h412q0 -2 0.5 -5t0.5 -6q0 -4 -0.5 -9t-1.5 -12q-2 -11 -5 -18
l-4 -14h-494q0 3 -0.5 5.5t-0.5 5.5q0 9 3 26q2 13 4.5 21t4.5 15l280 347z" />
    <glyph glyph-name="radical" unicode="&#x221a;" 
d="M623 731q12 0 22 -1t15 -3l-360 -725q-4 -2 -8.5 -3t-10.5 -1q-11 0 -17 4l-55 403h-144v13v8.5t1 9.5q2 11 4.5 18.5t4.5 12.5h192l40 -321l280 581q7 2 15.5 3t20.5 1z" />
    <glyph glyph-name="infinity" unicode="&#x221e;" horiz-adv-x="966" 
d="M710 603q42 0 78 -17t61.5 -47.5t40 -74t14.5 -96.5q0 -57 -14.5 -103.5t-40 -79.5t-61.5 -51t-78 -18q-71 0 -128.5 44.5t-92.5 119.5q-38 -75 -96 -118.5t-126 -43.5q-41 0 -76 18t-60 50.5t-39 78.5t-14 103q0 53 14 96.5t39 74.5t60 47.5t76 16.5q69 0 127.5 -43.5
t94.5 -118.5q35 75 93 118.5t128 43.5zM273 183q51 0 100 48t85 131q-34 81 -83 129t-102 48q-27 0 -50 -12t-39.5 -34.5t-25.5 -54t-9 -70.5q0 -42 9 -76t25.5 -58.5t39.5 -37.5t50 -13zM704 182q28 0 52 13.5t40.5 37.5t26 58.5t9.5 76.5q0 38 -9.5 69.5t-26 54
t-40.5 34.5t-52 12q-53 0 -102 -48.5t-81 -130.5q32 -81 80.5 -129t102.5 -48z" />
    <glyph glyph-name="integral" unicode="&#x222b;" 
d="M432 796q35 0 64 -8t52 -16q0 -6 -1 -13t-4 -18t-6 -18t-6 -12q-18 6 -43.5 12.5t-54.5 6.5q-42 0 -65 -24t-23 -79v-684q0 -80 -41.5 -122t-113.5 -42q-35 0 -64 8t-52 16q0 6 1 13t4 18t6 18t6 12q18 -6 43.5 -12.5t54.5 -6.5q42 0 65 24t23 78v684q0 81 41.5 123
t113.5 42z" />
    <glyph glyph-name="asciicircum" unicode="^" 
d="M581 334q-8 -2 -17.5 -3t-24.5 -1q-14 0 -23.5 1t-17.5 3l-175 312l-174 -313q-8 -2 -17.5 -3t-23.5 -1q-15 0 -24.5 1t-17.5 3l228 394q5 2 12 3t17 1q11 0 18 -1t12 -3z" />
    <glyph glyph-name="asciitilde" unicode="~" 
d="M556 508q12 0 20.5 -1t14.5 -3q0 -129 -35.5 -187t-114.5 -58q-24 0 -43 7.5t-34.5 20t-28.5 28t-24 32.5q-12 17 -22.5 33.5t-22 29t-24 20.5t-27.5 8q-42 0 -61 -35.5t-19 -114.5v-25q-6 -2 -14.5 -3t-21.5 -1q-12 0 -20.5 1t-14.5 3q0 129 35.5 187t114.5 58
q28 0 49.5 -9t38.5 -23.5t30 -32.5t25 -36q19 -30 38 -53.5t45 -23.5q42 0 61 37t19 121v16q6 2 14.5 3t21.5 1z" />
    <glyph glyph-name="degree" unicode="&#xb0;" horiz-adv-x="474" 
d="M272 362q-42 0 -74.5 14.5t-55 39t-34 58t-11.5 72.5q0 84 45 133.5t130 49.5q84 0 129 -49.5t45 -133.5q0 -39 -11.5 -72.5t-34 -58t-54.5 -39t-74 -14.5zM272 423q109 0 109 123q0 122 -109 122q-110 0 -110 -122q0 -123 110 -123z" />
    <glyph glyph-name="uni2206" unicode="&#x2206;" 
d="M543 0h-557l360 727q7 2 15.5 3t21.5 1t21.5 -1t13.5 -3zM92 63h364l-89 573z" />
    <glyph glyph-name="uni2126" unicode="&#x2126;" 
d="M547 64q1 -4 1 -13v-8.5t-2 -10.5q-2 -11 -4.5 -18.5l-4.5 -13.5h-226q0 2 -0.5 4.5t-0.5 5.5q0 9 3 24q2 12 4.5 20t4.5 14q52 28 92.5 71.5t68 96t42 110t14.5 114.5q0 103 -43 159.5t-128 56.5q-61 0 -107.5 -28t-78 -74.5t-47.5 -106.5t-16 -124q0 -87 28.5 -158.5
t83.5 -116.5q0 -2 0.5 -5t0.5 -6q0 -5 -0.5 -10.5t-1.5 -12.5q-2 -12 -5 -20t-5 -14h-226q0 2 -0.5 5t-0.5 6q0 4 0.5 9t1.5 12q2 11 4.5 18.5l4.5 13.5h134q-45 44 -68.5 112.5t-23.5 156.5q0 82 20.5 156t61 130.5t100.5 90t140 33.5q116 0 180 -71t64 -202
q0 -57 -13 -114.5t-38 -110.5t-61.5 -100t-84.5 -81h132z" />
    <glyph glyph-name="pi" unicode="&#x3c0;" horiz-adv-x="576" 
d="M563 545q1 -5 1 -14t-2 -18q-2 -11 -4.5 -18.5l-4.5 -13.5h-66l-78 -479q-6 -2 -14 -3t-20 -1t-20 1t-14 3l78 479h-208l-78 -479q-6 -2 -14 -3t-20 -1t-20 1t-14 3l78 479h-65q-1 8 -1 14.5t2 17.5t4.5 18.5l4.5 13.5h475v0z" />
    <glyph glyph-name="uni00B5" unicode="&#xb5;" 
d="M525 547q12 0 20 -1t14 -3l-86 -541q-10 -4 -23 -4q-8 0 -12.5 1t-8.5 3l-4 85q-36 -55 -82.5 -78t-97.5 -23q-44 0 -71.5 13t-42.5 37l-37 -233q-6 -2 -14 -3t-20 -1t-20 1t-14 3l118 740q6 2 14 3t20 1t20 -1t14 -3l-41 -258l-10 -64q-3 -17 -4 -32t-1 -29
q0 -55 23 -82t74 -27q33 0 63.5 11.5t55.5 36.5t44 65.5t30 97.5l45 281q6 2 14 3t20 1z" />
    <glyph glyph-name="lozenge" unicode="&#x25ca;" 
d="M586 365l-279 -305q-7 -2 -14.5 -3t-19.5 -1t-19.5 1t-12.5 3l-182 305l278 304q7 2 14.5 3t19.5 1t19.5 -1t12.5 -3zM505 370l-142 233l-226 -244l142 -232z" />
    <glyph glyph-name="gravecomb" unicode="&#x300;" horiz-adv-x="0" 
d="M95 647q-5 -2 -11.5 -3t-16.5 -1q-11 0 -17.5 1t-11.5 3l-64 171q7 2 14.5 3t21.5 1q13 0 21.5 -1t15.5 -3z" />
    <glyph glyph-name="acutecomb" unicode="&#x301;" horiz-adv-x="0" 
d="M169 822q14 0 23.5 -1t16.5 -3l-121 -171q-6 -2 -13.5 -3t-18.5 -1t-19 1t-14 3l106 171q7 2 16.5 3t23.5 1z" />
    <glyph glyph-name="uni0302" unicode="&#x302;" horiz-adv-x="0" 
d="M182 646q-5 -2 -11.5 -3t-17.5 -1t-17 1t-11 3l-45 125l-80 -125q-5 -2 -13 -3t-19 -1t-18.5 1t-12.5 3l108 172q8 2 16.5 3t25.5 1q16 0 24.5 -1t16.5 -3z" />
    <glyph glyph-name="uni030C" unicode="&#x30c;" horiz-adv-x="0" 
d="M99 647h1q-8 -2 -16 -3t-22 -1t-21.5 1t-15.5 3l-61 172q5 2 13.5 3t19.5 1t17.5 -1t12.5 -3l41 -127l72 127q5 2 14.5 3t20.5 1t20 -1t14 -3z" />
    <glyph glyph-name="tildecomb" unicode="&#x303;" horiz-adv-x="0" 
d="M217 738q16 -9 21 -18q-7 -16 -17.5 -31.5t-24.5 -27.5t-32 -19t-40 -7q-29 0 -45.5 6.5t-28.5 15.5q-16 11 -29.5 20.5t-30.5 9.5q-23 0 -37.5 -11.5t-27.5 -37.5q-5 0 -13.5 1.5t-17.5 5.5q-8 4 -12.5 8.5t-6.5 9.5q7 16 18 31.5t25 27.5t32 19t40 7q38 0 58 -12
t34 -23q11 -8 20.5 -13t21.5 -5q43 0 65 49q5 0 12.5 -0.5t15.5 -5.5z" />
    <glyph glyph-name="uni0308" unicode="&#x308;" horiz-adv-x="0" 
d="M-20 669q-12 0 -20 1t-13 3q-1 6 -1 14t2 20t4.5 20t4.5 14q7 2 15 3t20 1t20 -1t13 -3q1 -6 1 -14t-2 -20t-4.5 -20t-4.5 -14q-7 -2 -15 -3t-20 -1zM149 669q-12 0 -20 1t-13 3q-1 6 -1 14t2 20t4.5 20t4.5 14q7 2 15 3t20 1t20 -1t13 -3q1 -6 1 -14t-2 -20t-4.5 -20
t-4.5 -14q-7 -2 -15 -3t-20 -1z" />
    <glyph glyph-name="uni030A" unicode="&#x30a;" horiz-adv-x="0" 
d="M61 633q-45 0 -71 22t-26 67q0 49 31.5 83.5t89.5 34.5q45 0 70.5 -22.5t25.5 -67.5q0 -49 -31.5 -83t-88.5 -34zM66 683q28 0 45 16t17 44q0 47 -46 47q-29 0 -46 -17t-17 -45q0 -45 47 -45z" />
    <glyph glyph-name="uni0304" unicode="&#x304;" horiz-adv-x="0" 
d="M208 717q1 -5 1 -12t-2 -18t-4.5 -18t-4.5 -12h-273q-2 11 1 30q2 11 4.5 18t4.5 12h273v0z" />
    <glyph glyph-name="uni0306" unicode="&#x306;" horiz-adv-x="0" 
d="M198 811q11 0 18.5 -1t12.5 -3q-30 -160 -170 -160q-147 0 -128 160q7 2 15 3t19 1t18.5 -1t12.5 -3q-12 -98 69 -98q78 0 99 98q7 2 15 3t19 1z" />
    <glyph glyph-name="uni0307" unicode="&#x307;" horiz-adv-x="0" 
d="M60 651q-12 0 -20 1t-13 3q-1 6 -1 14t2 20t4.5 20t4.5 14q7 2 15 3t20 1t20 -1t13 -3q1 -6 1 -14t-2 -20t-4.5 -20t-4.5 -14q-7 -2 -15 -3t-20 -1z" />
    <glyph glyph-name="uni030B" unicode="&#x30b;" horiz-adv-x="0" 
d="M96 822q12 0 20.5 -1t14.5 -3l-117 -171q-5 -2 -11.5 -3t-17.5 -1q-10 0 -16.5 1t-11.5 3l104 171q6 2 14.5 3t20.5 1zM240 822q12 0 20.5 -1t14.5 -3l-117 -171q-5 -2 -11.5 -3t-17.5 -1q-10 0 -16.5 1t-11.5 3l104 171q6 2 14.5 3t20.5 1z" />
    <glyph glyph-name="uni0327" unicode="&#x327;" horiz-adv-x="0" 
d="M-25 18q22 -42 22 -87q0 -61 -36.5 -99t-99.5 -38q-49 0 -90 27q2 5 5 11.5t8 15.5l17 23q32 -19 64 -19q41 0 58.5 27.5t17.5 72.5q0 11 -1 23.5t-3 25.5l38 17v0z" />
    <glyph glyph-name="uni0328" unicode="&#x328;" horiz-adv-x="0" 
d="M-122 -155q11 0 22.5 2.5t20.5 4.5q5 -9 6 -26v-9q0 -6 -0.5 -10.5t-1.5 -8.5q-14 -5 -34.5 -8.5t-43.5 -3.5q-27 0 -43 13t-16 39q0 22 10.5 42.5t27.5 40t38 39.5t43 40h45q-17 -20 -34 -38.5t-30.5 -35.5t-22.5 -32.5t-9 -28.5q0 -20 22 -20z" />
    <glyph glyph-name="uni0326" unicode="&#x326;" horiz-adv-x="0" 
d="M-50 -41q14 0 23.5 -1t17.5 -3q0 -23 -3.5 -42.5t-10.5 -38.5t-17.5 -38.5t-25.5 -42.5q-5 -2 -10.5 -3t-14.5 -1q-8 0 -13.5 1t-10.5 3l35 78h-13.5t-10.5 2q-1 8 -0.5 17.5t2.5 23.5t5 23.5t6 17.5q8 2 17.5 3t23.5 1z" />
    <glyph glyph-name="uni0312" unicode="&#x312;" horiz-adv-x="0" 
d="M87 717h13.5t10.5 -2q1 -8 0.5 -17.5t-2.5 -23.5t-5 -23.5t-6 -17.5q-8 -2 -17.5 -3t-23.5 -1t-23.5 1t-17.5 3q0 23 3.5 42.5t10.5 38.5t17.5 38.5t25.5 42.5q5 2 10.5 3t14.5 1q8 0 13.5 -1t10.5 -3l-35 -78v0z" />
    <glyph glyph-name="uni0338" unicode="&#x338;" horiz-adv-x="0" 
d="M309 755q9 -5 14 -10l9 -9l-584 -789q-5 2 -11.5 5t-15.5 8q-9 6 -14 11l-9 9l584 788q5 -2 12 -4.5t15 -8.5z" />
    <glyph glyph-name="uni0337" unicode="&#x337;" horiz-adv-x="0" 
d="M-124 269q-3 5 -6 11t-6 17q-4 11 -5.5 17.5t-3.5 12.5l331 166q3 -5 7 -10.5t8 -15.5q4 -11 5 -17.5t3 -13.5l-333 -167v0z" />
    <glyph glyph-name="uni0336" unicode="&#x336;" horiz-adv-x="0" 
d="M144 347q1 -5 1 -12t-2 -18t-4.5 -18t-4.5 -12h-273q-2 11 1 30q2 11 4.5 18t4.5 12h273v0z" />
    <glyph glyph-name="uni0335" unicode="&#x335;" horiz-adv-x="0" 
d="M144 347q1 -5 1 -12t-2 -18t-4.5 -18t-4.5 -12h-273q-2 11 1 30q2 11 4.5 18t4.5 12h273v0z" />
    </font>
</defs>
</svg>
