<?xml version="1.0" standalone="no"?>
<!DOCTYPE svg PUBLIC "-//W3C//DTD SVG 1.1//EN" "http://www.w3.org/Graphics/SVG/1.1/DTD/svg11.dtd" >
<svg>
<metadata>
Created by FontForge 20131121 at Fri Sep 04 15:21:37 2015

Copyright (c) 2015 by Newlyn Works Limited. All rights reserved.
</metadata>
<defs>
<font id="Telkom123-BoldItalic" horiz-adv-x="630" >
  <font-face 
    font-family="Telkom 123 Bold"
    font-weight="700"
    font-style="italic"
    font-stretch="normal"
    units-per-em="1000"
    panose-1="2 0 0 0 0 0 0 0 0 0"
    ascent="800"
    descent="-200"
    x-height="555"
    cap-height="733"
    bbox="-354 -244 3464.09 1029"
    underline-thickness="50"
    underline-position="-50"
    slope="-9"
    unicode-range="U+000D-FB02"
  />
<missing-glyph horiz-adv-x="652" 
d="M98 729h472v-729h-472v729zM452 118v493h-236v-493h236z" />
    <glyph glyph-name="fi" unicode="fi" horiz-adv-x="639" 
d="M526 4q-19 -5 -37.5 -6.5t-40.5 -1.5t-39.5 1.5t-34.5 6.5l66 421h-171l-67 -421q-19 -5 -37.5 -6.5t-40.5 -1.5t-39.5 1.5t-34.5 6.5l67 421h-60q-3 29 3 65q3 19 7 34t11 31h60l11 72q14 85 71.5 134.5t154.5 49.5q38 0 73.5 -7t69.5 -19q-2 -16 -7.5 -31t-13.5 -32
q-7 -18 -14.5 -32t-17.5 -28q-19 8 -40.5 13t-47.5 5q-68 0 -78 -67l-9 -58h323z" />
    <glyph glyph-name="fl" unicode="fl" horiz-adv-x="639" 
d="M576 803q22 0 40 -1.5t35 -6.5l-114 -723l-11 -70q-13 -3 -30 -5.5t-37 -2.5q-36 0 -58.5 19t-15.5 59l101 638l-21 -48q-19 8 -40.5 13t-47.5 5q-68 0 -78 -67l-9 -58h91q2 -16 1.5 -31t-3.5 -34t-7 -34t-11 -31h-92l-67 -421q-19 -5 -37 -6.5t-40 -1.5t-40 1.5t-35 6.5
l67 421h-60q-3 29 3 65q3 19 7 34t11 31h60l11 72q14 85 71.5 134.5t154.5 49.5q33 0 63.5 -5t59.5 -14l1 3q19 5 37 6.5t40 1.5z" />
    <glyph glyph-name="Telkom" unicode="Telkom" horiz-adv-x="3503" 
d="M1272 795q19 5 37 6.5t40 1.5t40 -1.5t35 -6.5l-126 -793q-12 -3 -29 -5.5t-37 -2.5q-42 0 -61 22.5t-14 55.5zM1629 803q22 0 40 -1.5t35 -6.5l-126 -791q-19 -5 -37 -6.5t-40 -1.5t-40 1.5t-35 6.5l126 791q19 5 37 6.5t40 1.5zM436 590l-95 -590q-19 -5 -37 -6.5
t-40 -1.5t-40 1.5t-35 6.5l95 590h-208q-1 5 -1 11v11q0 11 1 22.5t3 25.5q4 20 8 36t11 33h565q1 -6 1.5 -12t0.5 -13q0 -11 -1.5 -21.5t-3.5 -23.5q-3 -20 -7 -36t-12 -33h-205zM1097 399q0 -53 -25.5 -90t-72 -61t-112.5 -35.5t-147 -14.5q11 -49 44.5 -67.5t86.5 -18.5
q42 0 78 9t71 24q8 -10 15 -23.5t12 -30.5q8 -31 5 -63q-54 -23 -106 -33.5t-118 -10.5q-121 0 -182 62.5t-61 178.5q0 68 19 130.5t57.5 110.5t97 76.5t137.5 28.5q47 0 84 -12.5t63 -35t40 -54.5t14 -70zM2322 571q52 0 96.5 -16.5t76 -47t49.5 -73.5t18 -95
q0 -80 -19.5 -145.5t-58.5 -112t-96.5 -72t-133.5 -25.5q-53 0 -97 16.5t-76 47t-50 74t-18 96.5q0 80 20 145t59 111.5t96.5 71.5t133.5 25zM3319 571q33 0 60 -11t46 -30.5t29.5 -48t9.5 -62.5q0 -17 -4.5 -53.5t-12.5 -89.5t-19 -122t-25 -150q-19 -5 -37.5 -6.5
t-40.5 -1.5t-39.5 1.5t-34.5 6.5q25 152 39.5 249t15.5 119q1 28 -13 42.5t-38 14.5q-45 0 -77.5 -42t-45.5 -111q-8 -54 -19 -122.5t-25 -149.5q-19 -5 -37.5 -6.5t-40.5 -1.5t-39.5 1.5t-34.5 6.5q25 152 39.5 249t15.5 119q1 28 -13 42.5t-38 14.5q-45 0 -78 -42.5
t-45 -113.5l-43 -269q-19 -5 -37.5 -6.5t-40.5 -1.5t-39.5 1.5t-34.5 6.5l86 547q17 5 33 6.5t35 1.5t34 -1.5t30 -6.5l-2 -67q34 42 76 64.5t90 22.5q52 0 88.5 -26.5t50.5 -73.5q35 48 80 74t96 26zM1802 281l140 -277q-20 -5 -39.5 -6.5t-42.5 -1.5q-25 0 -44.5 1.5
t-39.5 6.5l-137 282l204 265q20 5 40 6.5t45 1.5q26 0 47.5 -1.5t42.5 -6.5zM739 303q48 -1 87 5t66.5 17t42.5 28t15 39q0 26 -19.5 41t-52.5 15t-57.5 -11.5t-41 -31.5t-26.5 -46t-14 -56zM2270 120q63 0 96.5 56.5t33.5 149.5q0 50 -25.5 79t-68.5 29q-63 0 -97 -56.5
t-34 -149.5q0 -50 25.5 -79t69.5 -29z" />
    <glyph glyph-name=".notdef" horiz-adv-x="652" 
d="M98 729h472v-729h-472v729zM452 118v493h-236v-493h236z" />
    <glyph glyph-name="space" unicode=" " horiz-adv-x="228" 
 />
    <glyph glyph-name="NULL" horiz-adv-x="0" 
 />
    <glyph glyph-name="nonmarkingreturn" unicode="&#xd;" horiz-adv-x="190" 
 />
    <glyph glyph-name="uni00A0" unicode="&#xa0;" horiz-adv-x="228" 
 />
    <glyph glyph-name="A" unicode="A" horiz-adv-x="701" 
d="M653 3q-20 -4 -38.5 -5.5t-41.5 -1.5q-44 0 -79 7h-1l-28 158h-268l-76 -157h-2q-20 -5 -40 -6.5t-46 -1.5q-25 0 -44 1.5t-38 6.5l373 721q22 5 44.5 6.5t47.5 1.5q26 0 47.5 -1.5t41.5 -6.5zM441 296l-49 270l-130 -270h179z" />
    <glyph glyph-name="B" unicode="B" horiz-adv-x="671" 
d="M523 389q48 -17 71.5 -52t23.5 -92q0 -60 -21.5 -105.5t-60 -76.5t-91.5 -47t-115 -16h-306l94 591l22 138h272q118 0 173.5 -45t55.5 -129q0 -59 -30.5 -101t-87.5 -65zM273 591l-25 -158h119q107 0 107 91q0 37 -20 52t-65 15h-116zM323 137q66 0 100.5 27t34.5 81
q0 40 -26 57t-83 17h-119l-29 -182h122z" />
    <glyph glyph-name="C" unicode="C" horiz-adv-x="620" 
d="M428 604q-58 0 -100 -25.5t-69.5 -66.5t-40.5 -93.5t-13 -107.5q0 -50 11.5 -85t32.5 -57t50 -32t65 -10q43 0 85 16t79 39q12 -17 19 -30.5t12 -28.5q7 -17 10.5 -35t4.5 -31q-26 -19 -56 -33t-60.5 -23t-59 -13t-51.5 -4q-142 0 -222.5 78t-80.5 234q0 90 26 171.5
t74 143t117 98t155 36.5q78 0 131.5 -21t87.5 -49q-4 -14 -11 -31t-15 -32q-8 -13 -19.5 -28t-24.5 -28q-64 48 -137 48z" />
    <glyph glyph-name="D" unicode="D" horiz-adv-x="712" 
d="M140 729h221q166 0 243.5 -74t77.5 -223q0 -93 -26.5 -172.5t-79 -137t-130.5 -90t-181 -32.5h-241zM270 138q125 0 188 73.5t63 210.5q0 50 -10 83t-32.5 52t-58 26.5t-85.5 7.5h-65l-72 -453h72z" />
    <glyph glyph-name="E" unicode="E" horiz-adv-x="600" 
d="M612 729q1 -6 1 -16t-0.5 -20t-1.5 -19t-2 -15q-3 -20 -7.5 -36t-11.5 -33h-317l-24 -149h279q2 -13 0.5 -33.5t-3.5 -34.5q-3 -19 -7.5 -35t-10.5 -32h-279l-27 -167h326q2 -14 1 -33.5t-4 -36.5q-3 -19 -8 -37.5t-11 -31.5h-481l116 729h472v0z" />
    <glyph glyph-name="F" unicode="F" horiz-adv-x="590" 
d="M611 729q1 -6 1 -16t-0.5 -20t-1.5 -19t-2 -15q-3 -20 -7.5 -36t-11.5 -33h-319l-30 -187h281q2 -13 0.5 -33.5t-3.5 -34.5q-6 -36 -18 -68h-281l-42 -263q-19 -5 -37 -6.5t-40 -1.5t-40 1.5t-35 6.5l115 725h471v0z" />
    <glyph glyph-name="G" unicode="G" horiz-adv-x="680" 
d="M361 342q2 17 6.5 32t11.5 30h266l-55 -350q-24 -15 -54 -28t-62.5 -22.5t-66 -14.5t-65.5 -5q-69 0 -124.5 17t-94 53.5t-59 93.5t-20.5 136q0 97 25.5 181.5t75 146.5t123.5 97.5t171 35.5q75 0 135 -19.5t92 -45.5q-5 -16 -13 -31.5t-19 -32.5t-21.5 -31t-21.5 -27
q-32 22 -73.5 34t-94.5 12q-57 0 -98.5 -27t-68 -71t-39 -99t-12.5 -112q0 -48 9 -80.5t28 -52.5t49.5 -28.5t72.5 -8.5q26 0 52 5.5t46 13.5l21 135h-124q-2 11 -1 29t3 34z" />
    <glyph glyph-name="H" unicode="H" horiz-adv-x="747" 
d="M663 733q22 0 40 -1.5t35 -6.5l-114 -721q-19 -5 -37 -6.5t-40 -1.5t-40 1.5t-35 6.5l47 296h-295l-47 -296q-19 -5 -37 -6.5t-40 -1.5t-40 1.5t-35 6.5l114 721q19 5 37 6.5t40 1.5t40 -1.5t35 -6.5l-45 -286h295l45 286q19 5 37 6.5t40 1.5z" />
    <glyph glyph-name="I" unicode="I" horiz-adv-x="300" 
d="M216 733q22 0 40 -1.5t35 -6.5l-114 -721q-19 -5 -37 -6.5t-40 -1.5t-40 1.5t-35 6.5l114 721q19 5 37 6.5t40 1.5z" />
    <glyph glyph-name="J" unicode="J" horiz-adv-x="434" 
d="M353 733q22 0 40 -1.5t35 -6.5l-84 -534q-10 -60 -33 -100t-54 -64t-67.5 -33.5t-72.5 -9.5q-44 0 -79.5 9.5t-70.5 28.5q9 33 26 67q19 37 40 62q15 -10 36.5 -18.5t45.5 -8.5t47.5 16t28.5 51l85 534q19 5 37 6.5t40 1.5z" />
    <glyph glyph-name="K" unicode="K" horiz-adv-x="671" 
d="M216 733q22 0 40 -1.5t35 -6.5l-114 -721q-19 -5 -37 -6.5t-40 -1.5t-40 1.5t-35 6.5l114 721q19 5 37 6.5t40 1.5zM421 356l200 -352q-21 -5 -42 -6.5t-46 -1.5q-24 0 -44 1.5t-40 6.5h-2l-197 359l298 362q20 5 43.5 6.5t47.5 1.5q27 0 48.5 -1.5t42.5 -6.5z" />
    <glyph glyph-name="L" unicode="L" horiz-adv-x="558" 
d="M510 139q1 -6 1 -16t-0.5 -20t-1.5 -19t-2 -15q-3 -20 -7.5 -36t-11.5 -33h-464l115 725q19 5 37 6.5t40 1.5t40 -1.5t35 -6.5l-93 -586h312v0z" />
    <glyph glyph-name="M" unicode="M" horiz-adv-x="888" 
d="M759 733q32 0 57.5 -1.5t51.5 -6.5l-93 -721q-20 -5 -38.5 -6.5t-41.5 -1.5q-21 0 -41 1.5t-37 6.5h-1l66 399q3 18 7 40.5t8 44.5t7.5 42.5t5.5 34.5h-2q-3 -11 -11 -28.5t-17.5 -37.5t-20 -40.5t-18.5 -37.5l-177 -357q-15 -5 -29.5 -6.5t-31.5 -1.5t-31 1.5t-28 6.5
l-59 357q-3 15 -6.5 35t-7 40.5t-6.5 38.5t-3 30h-2q-2 -14 -5 -34.5t-6.5 -42.5t-7 -44.5t-6.5 -40.5l-69 -399q-18 -5 -38.5 -6.5t-40.5 -1.5q-23 0 -41.5 1.5t-36.5 6.5l145 721q27 5 53 6.5t57 1.5q32 0 58 -1.5t52 -6.5l71 -409h4l200 409q26 5 52 6.5t58 1.5z" />
    <glyph glyph-name="N" unicode="N" horiz-adv-x="752" 
d="M671 733q21 0 38 -1.5t34 -6.5l-114 -721q-25 -5 -47 -6.5t-51 -1.5t-50.5 1.5t-44.5 6.5l-146 413q-5 15 -11 34.5t-11 39t-9.5 37t-7.5 28.5q0 -10 -1.5 -26t-3 -34t-4 -36.5t-4.5 -33.5l-67 -422q-18 -5 -35.5 -6.5t-38.5 -1.5t-38 1.5t-34 6.5l114 721q26 5 49.5 6.5
t53.5 1.5t52.5 -1.5t46.5 -6.5l134 -392q5 -15 11.5 -36t12.5 -43t11 -42l8 -32q1 11 2.5 29t3.5 37.5t4.5 39.5l4.5 36l64 403q18 5 35.5 6.5t38.5 1.5z" />
    <glyph glyph-name="O" unicode="O" horiz-adv-x="740" 
d="M334 -16q-137 0 -213.5 73.5t-76.5 218.5q0 92 22.5 177t69.5 150t119.5 103.5t172.5 38.5q66 0 118 -18.5t89 -55.5t56.5 -92t19.5 -128q0 -92 -22 -176.5t-68.5 -149t-117.5 -103t-169 -38.5zM336 125q58 0 98.5 26.5t66 71t37 101.5t11.5 119q0 81 -34 121t-99 40
q-57 0 -97 -27t-65.5 -72t-37 -102.5t-11.5 -118.5q0 -82 34 -120.5t97 -38.5z" />
    <glyph glyph-name="P" unicode="P" horiz-adv-x="625" 
d="M387 729q115 0 175.5 -54.5t60.5 -158.5q0 -67 -20.5 -121.5t-60 -93.5t-96.5 -60t-130 -21h-105l-34 -216q-15 -4 -36 -6t-41 -2t-40.5 2t-34.5 6l115 725h247zM321 358q71 0 106 39t35 98q0 47 -24.5 71.5t-79.5 24.5h-88l-37 -233h88z" />
    <glyph glyph-name="Q" unicode="Q" horiz-adv-x="740" 
d="M711 451q0 -78 -16 -151t-48.5 -133t-83 -104t-119.5 -64l104 -175q-20 -5 -41 -6.5t-45 -1.5q-25 0 -44.5 1.5t-38.5 6.5l-79 161q-121 9 -188.5 81.5t-67.5 209.5q0 92 22.5 177t69.5 150t119.5 103.5t172.5 38.5q66 0 118 -18.5t89 -55.5t56.5 -92t19.5 -128zM336 125
q58 0 98.5 26.5t66 71t37 101.5t11.5 119q0 81 -34 121t-99 40q-57 0 -97 -27t-65.5 -72t-37 -102.5t-11.5 -118.5q0 -82 34 -120.5t97 -38.5z" />
    <glyph glyph-name="R" unicode="R" horiz-adv-x="668" 
d="M646 525q0 -101 -49 -166t-142 -89l142 -266q-21 -5 -42 -7t-46 -2t-45.5 2t-40.5 7l-126 253h-80l-40 -253q-19 -5 -37 -6.5t-40 -1.5t-40 1.5t-35 6.5l93 587l22 138h267q115 0 177 -53t62 -151zM238 387h125q59 0 90.5 30.5t31.5 87.5q0 42 -23.5 64t-66.5 22h-125z
" />
    <glyph glyph-name="S" unicode="S" horiz-adv-x="625" 
d="M269 -15q-45 0 -86 7.5t-76 20.5t-62.5 29t-46.5 34q14 29 39 63q12 17 23 30t24 25q36 -26 85.5 -46.5t112.5 -20.5q133 0 133 89q0 21 -7.5 35t-23 24t-40 17t-57.5 14q-40 8 -78 22.5t-67.5 38.5t-47.5 59t-18 85q0 52 19 95.5t55.5 74.5t90 48.5t122.5 17.5
q42 0 81 -6.5t73 -17.5t61 -25t45 -29q-6 -16 -14.5 -31t-19.5 -32q-12 -17 -23 -30t-24 -25q-36 26 -81 40t-98 14q-57 0 -90.5 -18.5t-33.5 -58.5q0 -34 28.5 -50.5t94.5 -29.5q40 -8 79 -20.5t69.5 -35.5t49 -59t18.5 -91q0 -58 -20 -105.5t-59.5 -81t-97 -52
t-132.5 -18.5z" />
    <glyph glyph-name="T" unicode="T" horiz-adv-x="609" 
d="M652 729q1 -6 1.5 -12t0.5 -13q0 -11 -1.5 -21.5t-3.5 -23.5q-3 -20 -7 -36t-12 -33h-205l-95 -590q-19 -5 -37 -6.5t-40 -1.5t-40 1.5t-35 6.5l95 590h-208q-1 5 -1 11v11q0 11 1 22.5t3 25.5q4 20 8 36t11 33h565v0z" />
    <glyph glyph-name="U" unicode="U" horiz-adv-x="733" 
d="M655 733q22 0 40 -1.5t35 -6.5h-1l-75 -473q-10 -62 -35 -111.5t-65.5 -84t-98 -53.5t-131.5 -19q-133 0 -199 61t-66 170q0 12 0.5 25.5t3 35t7 54.5t12.5 85.5t19.5 128t27.5 181.5q19 5 37 6.5t40 1.5t40 -1.5t35 -6.5q-15 -103 -26 -176.5t-18.5 -124.5t-12 -82.5
t-7 -51.5t-3 -31t-0.5 -21q-1 -63 31 -87.5t93 -24.5q66 0 111 35t58 116l71 448q19 5 37 6.5t40 1.5z" />
    <glyph glyph-name="V" unicode="V" horiz-adv-x="676" 
d="M659 733q24 0 43.5 -1.5t38.5 -6.5l-370 -721h-2q-20 -5 -39.5 -6.5t-43.5 -1.5q-23 0 -42 1.5t-38 6.5l-143 721q20 5 39 6.5t42 1.5t42.5 -1.5t37.5 -6.5l77 -421q5 -25 9 -51.5t8 -51.5q11 25 22 52t23 51l212 421q20 5 40.5 6.5t43.5 1.5z" />
    <glyph glyph-name="W" unicode="W" horiz-adv-x="973" 
d="M945 733q24 0 43 -1.5t38 -6.5l-288 -721q-21 -5 -42 -7t-46 -2t-44.5 2t-39.5 7q-8 73 -14.5 153t-11 157.5t-6.5 148t-2 124.5h-4q-17 -54 -42.5 -124.5t-55.5 -148t-62 -157.5t-62 -153q-21 -5 -42 -7t-46 -2q-24 0 -43.5 2t-39.5 7l-57 721q20 5 37.5 6.5t40.5 1.5
q21 0 40.5 -1.5t36.5 -6.5q2 -51 4 -120.5t3.5 -146t2 -154t0.5 -145.5h4q17 52 41.5 120.5t52 144t56.5 153t55 148.5q44 10 97 10q24 0 50 -2.5t46 -7.5q5 -71 9 -148.5t7 -153t5.5 -144t4.5 -120.5h4q13 52 34 120.5t46 144t53 153t55 148.5q20 5 39.5 6.5t42.5 1.5z" />
    <glyph glyph-name="X" unicode="X" horiz-adv-x="649" 
d="M425 360l172 -356q-21 -5 -41 -6.5t-44 -1.5q-25 0 -44 1.5t-39 6.5l-111 240l-186 -240q-21 -5 -44 -6.5t-47 -1.5t-46.5 1.5t-42.5 6.5l295 371l-171 350q20 5 40 6.5t44 1.5t42 -1.5t38 -6.5l114 -235l171 235q21 5 42 6.5t46 1.5q24 0 47 -1.5t43 -6.5z" />
    <glyph glyph-name="Y" unicode="Y" horiz-adv-x="659" 
d="M404 299l-47 -299q-19 -5 -37.5 -6.5t-40.5 -1.5q-23 0 -41.5 1.5t-35.5 6.5l48 301l-190 424q22 5 40 6.5t42 1.5q26 0 46 -1.5t40 -6.5l79 -184q11 -25 20.5 -56t17.5 -61q16 32 33 62t37 56l140 183q20 5 41.5 6.5t45.5 1.5q25 0 47.5 -1.5t42.5 -6.5z" />
    <glyph glyph-name="Z" unicode="Z" horiz-adv-x="627" 
d="M634 673q0 -39 -13.5 -69t-36.5 -55l-379 -410h354q1 -5 1 -11v-11q0 -11 -1 -22.5t-3 -25.5q-3 -20 -7 -36t-12 -33h-545q-1 5 -1 10.5v11.5q0 12 1.5 24.5t3.5 26.5q3 21 7.5 38.5t11.5 34.5l411 444h-326q-3 27 3 70q3 20 7 36t12 33h507q1 -8 3 -18.5t2 -37.5z" />
    <glyph glyph-name="Agrave" unicode="&#xc0;" horiz-adv-x="701" 
d="M653 3q-20 -4 -38.5 -5.5t-41.5 -1.5q-44 0 -79 7h-1l-28 158h-268l-76 -157h-2q-20 -5 -40 -6.5t-46 -1.5q-25 0 -44 1.5t-38 6.5l373 721q22 5 44.5 6.5t47.5 1.5q26 0 47.5 -1.5t41.5 -6.5zM441 296l-49 270l-130 -270h179zM476 793q-23 -8 -52 -8q-30 0 -50 8
l-82 199q16 5 32 6.5t35 1.5t35 -1.5t30 -6.5z" />
    <glyph glyph-name="Aacute" unicode="&#xc1;" horiz-adv-x="701" 
d="M653 3q-20 -4 -38.5 -5.5t-41.5 -1.5q-44 0 -79 7h-1l-28 158h-268l-76 -157h-2q-20 -5 -40 -6.5t-46 -1.5q-25 0 -44 1.5t-38 6.5l373 721q22 5 44.5 6.5t47.5 1.5q26 0 47.5 -1.5t41.5 -6.5zM441 296l-49 270l-130 -270h179zM553 1000q21 0 38 -1.5t33 -6.5l-148 -199
q-14 -5 -27 -6.5t-30 -1.5t-30 1.5t-25 6.5l116 199q17 5 34.5 6.5t38.5 1.5z" />
    <glyph glyph-name="Acircumflex" unicode="&#xc2;" horiz-adv-x="701" 
d="M653 3q-20 -4 -38.5 -5.5t-41.5 -1.5q-44 0 -79 7h-1l-28 158h-268l-76 -157h-2q-20 -5 -40 -6.5t-46 -1.5q-25 0 -44 1.5t-38 6.5l373 721q22 5 44.5 6.5t47.5 1.5q26 0 47.5 -1.5t41.5 -6.5zM441 296l-49 270l-130 -270h179zM589 792q-23 -8 -51 -8q-30 0 -50 8
l-42 114l-77 -114q-23 -8 -51 -8q-30 0 -50 8l118 200q19 5 36.5 6.5t39.5 1.5t39.5 -1.5t34.5 -6.5z" />
    <glyph glyph-name="Atilde" unicode="&#xc3;" horiz-adv-x="701" 
d="M653 3q-20 -4 -38.5 -5.5t-41.5 -1.5q-44 0 -79 7h-1l-28 158h-268l-76 -157h-2q-20 -5 -40 -6.5t-46 -1.5q-25 0 -44 1.5t-38 6.5l373 721q22 5 44.5 6.5t47.5 1.5q26 0 47.5 -1.5t41.5 -6.5zM441 296l-49 270l-130 -270h179zM609 934q26 -8 42 -17q-24 -66 -66 -97
t-93 -31q-22 0 -38.5 5t-30.5 13q-17 8 -32 15.5t-31 7.5q-18 0 -32 -9.5t-24 -31.5q-24 2 -47 10q-26 8 -42 17q26 66 67 97t90 31q28 0 47.5 -8.5t36.5 -16.5q13 -7 24.5 -11.5t23.5 -4.5q18 0 32.5 9t25.5 32q24 -2 47 -10z" />
    <glyph glyph-name="Adieresis" unicode="&#xc4;" horiz-adv-x="701" 
d="M653 3q-20 -4 -38.5 -5.5t-41.5 -1.5q-44 0 -79 7h-1l-28 158h-268l-76 -157h-2q-20 -5 -40 -6.5t-46 -1.5q-25 0 -44 1.5t-38 6.5l373 721q22 5 44.5 6.5t47.5 1.5q26 0 47.5 -1.5t41.5 -6.5zM441 296l-49 270l-130 -270h179zM321 790q-20 0 -37 1.5t-34 6.5
q-2 15 -1 29.5t4 32.5t7 32.5t10 29.5q18 5 35.5 6.5t37.5 1.5t37 -1.5t34 -6.5q3 -28 -3 -62q-3 -18 -7 -32.5t-10 -29.5q-18 -5 -35.5 -6.5t-37.5 -1.5zM537 790q-20 0 -37 1.5t-34 6.5q-2 15 -1 29.5t4 32.5t7 32.5t10 29.5q18 5 35.5 6.5t37.5 1.5t37 -1.5t34 -6.5
q3 -28 -3 -62q-3 -18 -7 -32.5t-10 -29.5q-18 -5 -35.5 -6.5t-37.5 -1.5z" />
    <glyph glyph-name="Aring" unicode="&#xc5;" horiz-adv-x="701" 
d="M653 3q-20 -4 -38.5 -5.5t-41.5 -1.5q-44 0 -79 7h-1l-28 158h-268l-76 -157h-2q-20 -5 -40 -6.5t-46 -1.5q-25 0 -44 1.5t-38 6.5l373 721q22 5 44.5 6.5t47.5 1.5q26 0 47.5 -1.5t41.5 -6.5zM441 296l-49 270l-130 -270h179zM436 789q-62 0 -93.5 31.5t-31.5 83.5
q0 30 11 53t31 39t46.5 24.5t58.5 8.5q63 0 94 -31t31 -81q0 -62 -41.5 -95t-105.5 -33zM445 867q24 0 35.5 15t11.5 32q0 19 -12 28t-29 9q-25 0 -37.5 -14.5t-12.5 -31.5q0 -19 13 -28.5t31 -9.5z" />
    <glyph glyph-name="AE" unicode="&#xc6;" horiz-adv-x="924" 
d="M935 729q2 -17 1 -33t-4 -36t-7 -36t-12 -32v-2h-290l-24 -149h252q2 -17 1.5 -32.5t-3.5 -35.5q-6 -36 -19 -67h-252l-26 -167h299q2 -17 1 -33.5t-4 -36.5q-4 -20 -8 -36t-11 -33h-454l28 178h-189l-86 -174q-20 -5 -43 -6.5t-47 -1.5t-46.5 1.5t-41.5 6.5l388 725h597
zM468 591h-50l-137 -277h143z" />
    <glyph glyph-name="Ccedilla" unicode="&#xc7;" horiz-adv-x="620" 
d="M428 604q-58 0 -100 -25.5t-69.5 -66.5t-40.5 -93.5t-13 -107.5q0 -50 11.5 -85t32.5 -57t50 -32t65 -10q43 0 85 16t79 39q12 -17 19 -30.5t12 -28.5q7 -17 10.5 -35t4.5 -31q-39 -29 -86.5 -45.5t-90.5 -23.5q10 -27 10 -56q0 -60 -38.5 -98t-102.5 -38
q-35 0 -67.5 6.5t-55.5 19.5q2 13 6 24t11 25q6 14 13 24t16 20q31 -14 56 -14q29 0 45 19.5t16 55.5v10q-124 11 -193 88t-69 222q0 90 26 171.5t74 143t117 98t155 36.5q78 0 131.5 -21t87.5 -49q-4 -14 -11 -31t-15 -32q-8 -13 -19.5 -28t-24.5 -28q-64 48 -137 48z" />
    <glyph glyph-name="Egrave" unicode="&#xc8;" horiz-adv-x="600" 
d="M612 729q1 -6 1 -16t-0.5 -20t-1.5 -19t-2 -15q-3 -20 -7.5 -36t-11.5 -33h-317l-24 -149h279q2 -13 0.5 -33.5t-3.5 -34.5q-3 -19 -7.5 -35t-10.5 -32h-279l-27 -167h326q2 -14 1 -33.5t-4 -36.5q-3 -19 -8 -37.5t-11 -31.5h-481l116 729h472v0zM424 793q-23 -8 -52 -8
q-30 0 -50 8l-82 199q16 5 32 6.5t35 1.5t35 -1.5t30 -6.5z" />
    <glyph glyph-name="Eacute" unicode="&#xc9;" horiz-adv-x="600" 
d="M612 729q1 -6 1 -16t-0.5 -20t-1.5 -19t-2 -15q-3 -20 -7.5 -36t-11.5 -33h-317l-24 -149h279q2 -13 0.5 -33.5t-3.5 -34.5q-3 -19 -7.5 -35t-10.5 -32h-279l-27 -167h326q2 -14 1 -33.5t-4 -36.5q-3 -19 -8 -37.5t-11 -31.5h-481l116 729h472v0zM501 1000q21 0 38 -1.5
t33 -6.5l-148 -199q-14 -5 -27 -6.5t-30 -1.5t-30 1.5t-25 6.5l116 199q17 5 34.5 6.5t38.5 1.5z" />
    <glyph glyph-name="Ecircumflex" unicode="&#xca;" horiz-adv-x="600" 
d="M612 729q1 -6 1 -16t-0.5 -20t-1.5 -19t-2 -15q-3 -20 -7.5 -36t-11.5 -33h-317l-24 -149h279q2 -13 0.5 -33.5t-3.5 -34.5q-3 -19 -7.5 -35t-10.5 -32h-279l-27 -167h326q2 -14 1 -33.5t-4 -36.5q-3 -19 -8 -37.5t-11 -31.5h-481l116 729h472v0zM537 792q-23 -8 -51 -8
q-30 0 -50 8l-42 114l-77 -114q-23 -8 -51 -8q-30 0 -50 8l118 200q19 5 36.5 6.5t39.5 1.5t39.5 -1.5t34.5 -6.5z" />
    <glyph glyph-name="Edieresis" unicode="&#xcb;" horiz-adv-x="600" 
d="M612 729q1 -6 1 -16t-0.5 -20t-1.5 -19t-2 -15q-3 -20 -7.5 -36t-11.5 -33h-317l-24 -149h279q2 -13 0.5 -33.5t-3.5 -34.5q-3 -19 -7.5 -35t-10.5 -32h-279l-27 -167h326q2 -14 1 -33.5t-4 -36.5q-3 -19 -8 -37.5t-11 -31.5h-481l116 729h472v0zM269 790q-20 0 -37 1.5
t-34 6.5q-2 15 -1 29.5t4 32.5t7 32.5t10 29.5q18 5 35.5 6.5t37.5 1.5t37 -1.5t34 -6.5q3 -28 -3 -62q-3 -18 -7 -32.5t-10 -29.5q-18 -5 -35.5 -6.5t-37.5 -1.5zM485 790q-20 0 -37 1.5t-34 6.5q-2 15 -1 29.5t4 32.5t7 32.5t10 29.5q18 5 35.5 6.5t37.5 1.5t37 -1.5
t34 -6.5q3 -28 -3 -62q-3 -18 -7 -32.5t-10 -29.5q-18 -5 -35.5 -6.5t-37.5 -1.5z" />
    <glyph glyph-name="Igrave" unicode="&#xcc;" horiz-adv-x="300" 
d="M216 733q22 0 40 -1.5t35 -6.5l-114 -721q-19 -5 -37 -6.5t-40 -1.5t-40 1.5t-35 6.5l114 721q19 5 37 6.5t40 1.5zM276 793q-23 -8 -52 -8q-30 0 -50 8l-82 199q16 5 32 6.5t35 1.5t35 -1.5t30 -6.5z" />
    <glyph glyph-name="Iacute" unicode="&#xcd;" horiz-adv-x="300" 
d="M216 733q22 0 40 -1.5t35 -6.5l-114 -721q-19 -5 -37 -6.5t-40 -1.5t-40 1.5t-35 6.5l114 721q19 5 37 6.5t40 1.5zM353 1000q21 0 38 -1.5t33 -6.5l-148 -199q-14 -5 -27 -6.5t-30 -1.5t-30 1.5t-25 6.5l116 199q17 5 34.5 6.5t38.5 1.5z" />
    <glyph glyph-name="Icircumflex" unicode="&#xce;" horiz-adv-x="300" 
d="M216 733q22 0 40 -1.5t35 -6.5l-114 -721q-19 -5 -37 -6.5t-40 -1.5t-40 1.5t-35 6.5l114 721q19 5 37 6.5t40 1.5zM389 792q-23 -8 -51 -8q-30 0 -50 8l-42 114l-77 -114q-23 -8 -51 -8q-30 0 -50 8l118 200q19 5 36.5 6.5t39.5 1.5t39.5 -1.5t34.5 -6.5z" />
    <glyph glyph-name="Idieresis" unicode="&#xcf;" horiz-adv-x="300" 
d="M216 733q22 0 40 -1.5t35 -6.5l-114 -721q-19 -5 -37 -6.5t-40 -1.5t-40 1.5t-35 6.5l114 721q19 5 37 6.5t40 1.5zM121 790q-20 0 -37 1.5t-34 6.5q-2 15 -1 29.5t4 32.5t7 32.5t10 29.5q18 5 35.5 6.5t37.5 1.5t37 -1.5t34 -6.5q3 -28 -3 -62q-3 -18 -7 -32.5
t-10 -29.5q-18 -5 -35.5 -6.5t-37.5 -1.5zM337 790q-20 0 -37 1.5t-34 6.5q-2 15 -1 29.5t4 32.5t7 32.5t10 29.5q18 5 35.5 6.5t37.5 1.5t37 -1.5t34 -6.5q3 -28 -3 -62q-3 -18 -7 -32.5t-10 -29.5q-18 -5 -35.5 -6.5t-37.5 -1.5z" />
    <glyph glyph-name="Eth" unicode="&#xd0;" horiz-adv-x="737" 
d="M386 729q166 0 243.5 -74t77.5 -223q0 -93 -26.5 -172.5t-79 -137t-130.5 -90t-181 -32.5h-241l50 314h-83q-3 12 -2.5 24.5t2.5 27.5q4 29 16 52h84l49 311h221zM295 138q125 0 188 73.5t63 210.5q0 50 -10 83t-32.5 52t-58 26.5t-85.5 7.5h-65l-27 -173h94
q3 -12 2.5 -24.5t-2.5 -27.5q-4 -29 -16 -52h-95l-28 -176h72z" />
    <glyph glyph-name="Lslash" unicode="&#x141;" horiz-adv-x="588" 
d="M541 139q1 -6 1 -16t-0.5 -20t-1.5 -19t-2 -15q-3 -20 -7.5 -36t-11.5 -33h-464l43 273l-76 -31q-8 11 -11.5 22t-8.5 25t-6.5 26t-2.5 25l124 50l53 335q19 5 37 6.5t40 1.5t40 -1.5t35 -6.5l-43 -269l100 41q7 -11 11 -21.5t8 -24.5q5 -15 7.5 -27.5t2.5 -26.5
l-147 -59l-32 -199h312v0z" />
    <glyph glyph-name="Ntilde" unicode="&#xd1;" horiz-adv-x="752" 
d="M671 733q21 0 38 -1.5t34 -6.5l-114 -721q-25 -5 -47 -6.5t-51 -1.5t-50.5 1.5t-44.5 6.5l-146 413q-5 15 -11 34.5t-11 39t-9.5 37t-7.5 28.5q0 -10 -1.5 -26t-3 -34t-4 -36.5t-4.5 -33.5l-67 -422q-18 -5 -35.5 -6.5t-38.5 -1.5t-38 1.5t-34 6.5l114 721q26 5 49.5 6.5
t53.5 1.5t52.5 -1.5t46.5 -6.5l134 -392q5 -15 11.5 -36t12.5 -43t11 -42l8 -32q1 11 2.5 29t3.5 37.5t4.5 39.5l4.5 36l64 403q18 5 35.5 6.5t38.5 1.5zM634 934q26 -8 42 -17q-24 -66 -66 -97t-93 -31q-22 0 -38.5 5t-30.5 13q-17 8 -32 15.5t-31 7.5q-18 0 -32 -9.5
t-24 -31.5q-24 2 -47 10q-26 8 -42 17q26 66 67 97t90 31q28 0 47.5 -8.5t36.5 -16.5q13 -7 24.5 -11.5t23.5 -4.5q18 0 32.5 9t25.5 32q24 -2 47 -10z" />
    <glyph glyph-name="Ograve" unicode="&#xd2;" horiz-adv-x="740" 
d="M334 -16q-137 0 -213.5 73.5t-76.5 218.5q0 92 22.5 177t69.5 150t119.5 103.5t172.5 38.5q66 0 118 -18.5t89 -55.5t56.5 -92t19.5 -128q0 -92 -22 -176.5t-68.5 -149t-117.5 -103t-169 -38.5zM336 125q58 0 98.5 26.5t66 71t37 101.5t11.5 119q0 81 -34 121t-99 40
q-57 0 -97 -27t-65.5 -72t-37 -102.5t-11.5 -118.5q0 -82 34 -120.5t97 -38.5zM492 793q-23 -8 -52 -8q-30 0 -50 8l-82 199q16 5 32 6.5t35 1.5t35 -1.5t30 -6.5z" />
    <glyph glyph-name="Oacute" unicode="&#xd3;" horiz-adv-x="740" 
d="M334 -16q-137 0 -213.5 73.5t-76.5 218.5q0 92 22.5 177t69.5 150t119.5 103.5t172.5 38.5q66 0 118 -18.5t89 -55.5t56.5 -92t19.5 -128q0 -92 -22 -176.5t-68.5 -149t-117.5 -103t-169 -38.5zM336 125q58 0 98.5 26.5t66 71t37 101.5t11.5 119q0 81 -34 121t-99 40
q-57 0 -97 -27t-65.5 -72t-37 -102.5t-11.5 -118.5q0 -82 34 -120.5t97 -38.5zM569 1000q21 0 38 -1.5t33 -6.5l-148 -199q-14 -5 -27 -6.5t-30 -1.5t-30 1.5t-25 6.5l116 199q17 5 34.5 6.5t38.5 1.5z" />
    <glyph glyph-name="Ocircumflex" unicode="&#xd4;" horiz-adv-x="740" 
d="M334 -16q-137 0 -213.5 73.5t-76.5 218.5q0 92 22.5 177t69.5 150t119.5 103.5t172.5 38.5q66 0 118 -18.5t89 -55.5t56.5 -92t19.5 -128q0 -92 -22 -176.5t-68.5 -149t-117.5 -103t-169 -38.5zM336 125q58 0 98.5 26.5t66 71t37 101.5t11.5 119q0 81 -34 121t-99 40
q-57 0 -97 -27t-65.5 -72t-37 -102.5t-11.5 -118.5q0 -82 34 -120.5t97 -38.5zM605 792q-23 -8 -51 -8q-30 0 -50 8l-42 114l-77 -114q-23 -8 -51 -8q-30 0 -50 8l118 200q19 5 36.5 6.5t39.5 1.5t39.5 -1.5t34.5 -6.5z" />
    <glyph glyph-name="Otilde" unicode="&#xd5;" horiz-adv-x="740" 
d="M334 -16q-137 0 -213.5 73.5t-76.5 218.5q0 92 22.5 177t69.5 150t119.5 103.5t172.5 38.5q66 0 118 -18.5t89 -55.5t56.5 -92t19.5 -128q0 -92 -22 -176.5t-68.5 -149t-117.5 -103t-169 -38.5zM336 125q58 0 98.5 26.5t66 71t37 101.5t11.5 119q0 81 -34 121t-99 40
q-57 0 -97 -27t-65.5 -72t-37 -102.5t-11.5 -118.5q0 -82 34 -120.5t97 -38.5zM625 934q26 -8 42 -17q-24 -66 -66 -97t-93 -31q-22 0 -38.5 5t-30.5 13q-17 8 -32 15.5t-31 7.5q-18 0 -32 -9.5t-24 -31.5q-24 2 -47 10q-26 8 -42 17q26 66 67 97t90 31q28 0 47.5 -8.5
t36.5 -16.5q13 -7 24.5 -11.5t23.5 -4.5q18 0 32.5 9t25.5 32q24 -2 47 -10z" />
    <glyph glyph-name="Odieresis" unicode="&#xd6;" horiz-adv-x="740" 
d="M334 -16q-137 0 -213.5 73.5t-76.5 218.5q0 92 22.5 177t69.5 150t119.5 103.5t172.5 38.5q66 0 118 -18.5t89 -55.5t56.5 -92t19.5 -128q0 -92 -22 -176.5t-68.5 -149t-117.5 -103t-169 -38.5zM336 125q58 0 98.5 26.5t66 71t37 101.5t11.5 119q0 81 -34 121t-99 40
q-57 0 -97 -27t-65.5 -72t-37 -102.5t-11.5 -118.5q0 -82 34 -120.5t97 -38.5zM337 790q-20 0 -37 1.5t-34 6.5q-2 15 -1 29.5t4 32.5t7 32.5t10 29.5q18 5 35.5 6.5t37.5 1.5t37 -1.5t34 -6.5q3 -28 -3 -62q-3 -18 -7 -32.5t-10 -29.5q-18 -5 -35.5 -6.5t-37.5 -1.5z
M553 790q-20 0 -37 1.5t-34 6.5q-2 15 -1 29.5t4 32.5t7 32.5t10 29.5q18 5 35.5 6.5t37.5 1.5t37 -1.5t34 -6.5q3 -28 -3 -62q-3 -18 -7 -32.5t-10 -29.5q-18 -5 -35.5 -6.5t-37.5 -1.5z" />
    <glyph glyph-name="Oslash" unicode="&#xd8;" horiz-adv-x="740" 
d="M662 637q49 -72 49 -186q0 -92 -22 -176.5t-68.5 -149t-117.5 -103t-169 -38.5q-94 0 -159 34l-69 -89q-31 12 -60 32q-16 11 -27 20.5t-22 20.5l84 107q-37 69 -37 167q0 92 22.5 177t69.5 150t119.5 103.5t172.5 38.5q77 0 133 -25l74 94q16 -5 29.5 -11.5t28.5 -16.5
q17 -11 29 -21t22 -24zM416 604q-57 0 -97 -27t-65.5 -72t-37 -102.5t-11.5 -118.5q0 -10 0.5 -18.5t1.5 -17.5l262 347q-23 9 -53 9zM336 125q58 0 98.5 26.5t66 71t37 101.5t11.5 119q0 37 -7 64l-276 -366q28 -16 70 -16z" />
    <glyph glyph-name="OE" unicode="&#x152;" horiz-adv-x="1025" 
d="M1037 729q1 -6 1 -16t-0.5 -20t-1.5 -19t-2 -15q-3 -20 -7.5 -36t-11.5 -33h-297l-24 -149h259q2 -13 0.5 -33.5t-3.5 -34.5q-3 -19 -7.5 -35t-10.5 -32h-259l-27 -167h306q2 -14 1 -33.5t-4 -36.5q-3 -19 -8 -37.5t-11 -31.5h-461l8 51q-37 -32 -82 -49.5t-99 -17.5
t-100 18.5t-80 55t-53 91.5t-19 127q0 92 22 177t66 150t110.5 103.5t155.5 38.5q57 0 102 -19t75 -59l10 62h452zM333 125q54 0 92.5 26.5t63 71t36 101.5t11.5 119q0 81 -33 121t-90 40q-56 0 -95.5 -27t-64.5 -72t-36.5 -102.5t-11.5 -118.5q0 -82 33.5 -120.5
t94.5 -38.5z" />
    <glyph glyph-name="Thorn" unicode="&#xde;" horiz-adv-x="623" 
d="M370 624q53 0 96.5 -14t74.5 -41t48 -66.5t17 -91.5q0 -67 -22 -121.5t-62 -93.5t-97 -60t-126 -21h-104l-18 -111q-19 -5 -37 -6.5t-40 -1.5t-40 1.5t-35 6.5l114 721q19 5 37 6.5t40 1.5t40 -1.5t35 -6.5l-16 -101h95zM304 253q32 0 58 10.5t44.5 28.5t28.5 43t10 55
q0 47 -28 71.5t-76 24.5h-88l-37 -233h88z" />
    <glyph glyph-name="Scaron" unicode="&#x160;" horiz-adv-x="625" 
d="M269 -15q-45 0 -86 7.5t-76 20.5t-62.5 29t-46.5 34q14 29 39 63q12 17 23 30t24 25q36 -26 85.5 -46.5t112.5 -20.5q133 0 133 89q0 21 -7.5 35t-23 24t-40 17t-57.5 14q-40 8 -78 22.5t-67.5 38.5t-47.5 59t-18 85q0 52 19 95.5t55.5 74.5t90 48.5t122.5 17.5
q42 0 81 -6.5t73 -17.5t61 -25t45 -29q-6 -16 -14.5 -31t-19.5 -32q-12 -17 -23 -30t-24 -25q-36 26 -81 40t-98 14q-57 0 -90.5 -18.5t-33.5 -58.5q0 -34 28.5 -50.5t94.5 -29.5q40 -8 79 -20.5t69.5 -35.5t49 -59t18.5 -91q0 -58 -20 -105.5t-59.5 -81t-97 -52
t-132.5 -18.5zM529 1000q30 0 50 -8l-118 -200q-19 -5 -36.5 -6.5t-39.5 -1.5t-39.5 1.5t-34.5 6.5l-53 200q23 8 51 8q30 0 50 -8l42 -114l77 114q23 8 51 8z" />
    <glyph glyph-name="Ugrave" unicode="&#xd9;" horiz-adv-x="733" 
d="M655 733q22 0 40 -1.5t35 -6.5h-1l-75 -473q-10 -62 -35 -111.5t-65.5 -84t-98 -53.5t-131.5 -19q-133 0 -199 61t-66 170q0 12 0.5 25.5t3 35t7 54.5t12.5 85.5t19.5 128t27.5 181.5q19 5 37 6.5t40 1.5t40 -1.5t35 -6.5q-15 -103 -26 -176.5t-18.5 -124.5t-12 -82.5
t-7 -51.5t-3 -31t-0.5 -21q-1 -63 31 -87.5t93 -24.5q66 0 111 35t58 116l71 448q19 5 37 6.5t40 1.5zM490 793q-23 -8 -52 -8q-30 0 -50 8l-82 199q16 5 32 6.5t35 1.5t35 -1.5t30 -6.5z" />
    <glyph glyph-name="Uacute" unicode="&#xda;" horiz-adv-x="733" 
d="M655 733q22 0 40 -1.5t35 -6.5h-1l-75 -473q-10 -62 -35 -111.5t-65.5 -84t-98 -53.5t-131.5 -19q-133 0 -199 61t-66 170q0 12 0.5 25.5t3 35t7 54.5t12.5 85.5t19.5 128t27.5 181.5q19 5 37 6.5t40 1.5t40 -1.5t35 -6.5q-15 -103 -26 -176.5t-18.5 -124.5t-12 -82.5
t-7 -51.5t-3 -31t-0.5 -21q-1 -63 31 -87.5t93 -24.5q66 0 111 35t58 116l71 448q19 5 37 6.5t40 1.5zM567 1000q21 0 38 -1.5t33 -6.5l-148 -199q-14 -5 -27 -6.5t-30 -1.5t-30 1.5t-25 6.5l116 199q17 5 34.5 6.5t38.5 1.5z" />
    <glyph glyph-name="Ucircumflex" unicode="&#xdb;" horiz-adv-x="733" 
d="M655 733q22 0 40 -1.5t35 -6.5h-1l-75 -473q-10 -62 -35 -111.5t-65.5 -84t-98 -53.5t-131.5 -19q-133 0 -199 61t-66 170q0 12 0.5 25.5t3 35t7 54.5t12.5 85.5t19.5 128t27.5 181.5q19 5 37 6.5t40 1.5t40 -1.5t35 -6.5q-15 -103 -26 -176.5t-18.5 -124.5t-12 -82.5
t-7 -51.5t-3 -31t-0.5 -21q-1 -63 31 -87.5t93 -24.5q66 0 111 35t58 116l71 448q19 5 37 6.5t40 1.5zM603 792q-23 -8 -51 -8q-30 0 -50 8l-42 114l-77 -114q-23 -8 -51 -8q-30 0 -50 8l118 200q19 5 36.5 6.5t39.5 1.5t39.5 -1.5t34.5 -6.5z" />
    <glyph glyph-name="Udieresis" unicode="&#xdc;" horiz-adv-x="733" 
d="M655 733q22 0 40 -1.5t35 -6.5h-1l-75 -473q-10 -62 -35 -111.5t-65.5 -84t-98 -53.5t-131.5 -19q-133 0 -199 61t-66 170q0 12 0.5 25.5t3 35t7 54.5t12.5 85.5t19.5 128t27.5 181.5q19 5 37 6.5t40 1.5t40 -1.5t35 -6.5q-15 -103 -26 -176.5t-18.5 -124.5t-12 -82.5
t-7 -51.5t-3 -31t-0.5 -21q-1 -63 31 -87.5t93 -24.5q66 0 111 35t58 116l71 448q19 5 37 6.5t40 1.5zM335 790q-20 0 -37 1.5t-34 6.5q-2 15 -1 29.5t4 32.5t7 32.5t10 29.5q18 5 35.5 6.5t37.5 1.5t37 -1.5t34 -6.5q3 -28 -3 -62q-3 -18 -7 -32.5t-10 -29.5
q-18 -5 -35.5 -6.5t-37.5 -1.5zM551 790q-20 0 -37 1.5t-34 6.5q-2 15 -1 29.5t4 32.5t7 32.5t10 29.5q18 5 35.5 6.5t37.5 1.5t37 -1.5t34 -6.5q3 -28 -3 -62q-3 -18 -7 -32.5t-10 -29.5q-18 -5 -35.5 -6.5t-37.5 -1.5z" />
    <glyph glyph-name="Yacute" unicode="&#xdd;" horiz-adv-x="659" 
d="M404 299l-47 -299q-19 -5 -37.5 -6.5t-40.5 -1.5q-23 0 -41.5 1.5t-35.5 6.5l48 301l-190 424q22 5 40 6.5t42 1.5q26 0 46 -1.5t40 -6.5l79 -184q11 -25 20.5 -56t17.5 -61q16 32 33 62t37 56l140 183q20 5 41.5 6.5t45.5 1.5q25 0 47.5 -1.5t42.5 -6.5zM531 1000
q21 0 38 -1.5t33 -6.5l-148 -199q-14 -5 -27 -6.5t-30 -1.5t-30 1.5t-25 6.5l116 199q17 5 34.5 6.5t38.5 1.5z" />
    <glyph glyph-name="Ydieresis" unicode="&#x178;" horiz-adv-x="659" 
d="M404 299l-47 -299q-19 -5 -37.5 -6.5t-40.5 -1.5q-23 0 -41.5 1.5t-35.5 6.5l48 301l-190 424q22 5 40 6.5t42 1.5q26 0 46 -1.5t40 -6.5l79 -184q11 -25 20.5 -56t17.5 -61q16 32 33 62t37 56l140 183q20 5 41.5 6.5t45.5 1.5q25 0 47.5 -1.5t42.5 -6.5zM299 790
q-20 0 -37 1.5t-34 6.5q-2 15 -1 29.5t4 32.5t7 32.5t10 29.5q18 5 35.5 6.5t37.5 1.5t37 -1.5t34 -6.5q3 -28 -3 -62q-3 -18 -7 -32.5t-10 -29.5q-18 -5 -35.5 -6.5t-37.5 -1.5zM515 790q-20 0 -37 1.5t-34 6.5q-2 15 -1 29.5t4 32.5t7 32.5t10 29.5q18 5 35.5 6.5
t37.5 1.5t37 -1.5t34 -6.5q3 -28 -3 -62q-3 -18 -7 -32.5t-10 -29.5q-18 -5 -35.5 -6.5t-37.5 -1.5z" />
    <glyph glyph-name="Zcaron" unicode="&#x17d;" horiz-adv-x="627" 
d="M634 673q0 -39 -13.5 -69t-36.5 -55l-379 -410h354q1 -5 1 -11v-11q0 -11 -1 -22.5t-3 -25.5q-3 -20 -7 -36t-12 -33h-545q-1 5 -1 10.5v11.5q0 12 1.5 24.5t3.5 26.5q3 21 7.5 38.5t11.5 34.5l411 444h-326q-3 27 3 70q3 20 7 36t12 33h507q1 -8 3 -18.5t2 -37.5z
M533 1000q30 0 50 -8l-118 -200q-19 -5 -36.5 -6.5t-39.5 -1.5t-39.5 1.5t-34.5 6.5l-53 200q23 8 51 8q30 0 50 -8l42 -114l77 114q23 8 51 8z" />
    <glyph glyph-name="a" unicode="a" horiz-adv-x="626" 
d="M535 563q19 0 34.5 -1.5t30.5 -6.5l-88 -555q-17 -5 -32.5 -6.5t-34.5 -1.5t-34.5 1.5t-30.5 6.5l2 54q-32 -34 -72.5 -52t-87.5 -18q-40 0 -75 15t-61.5 43t-42 69t-15.5 94q0 80 19.5 147.5t54.5 116t85 75.5t111 27q50 0 88.5 -21.5t62.5 -61.5l19 67q17 5 32.5 6.5
t34.5 1.5zM277 121q31 0 56.5 14.5t43.5 40.5t28 62t10 79q0 57 -24 87.5t-64 30.5q-31 0 -56.5 -15.5t-43.5 -43t-27.5 -65.5t-9.5 -83q0 -51 24 -79t63 -28z" />
    <glyph glyph-name="b" unicode="b" horiz-adv-x="626" 
d="M391 571q40 0 75 -15t61.5 -43t42 -69.5t15.5 -93.5q0 -80 -19.5 -147.5t-54.5 -116t-85 -75.5t-111 -27q-50 0 -88.5 21.5t-62.5 61.5l-18 -65q-17 -5 -32.5 -6.5t-34.5 -1.5t-34.5 1.5t-30.5 6.5l126 793q19 5 37 6.5t40 1.5t40 -1.5t35 -6.5l-45 -278q63 54 144 54z
M286 120q31 0 56.5 15.5t43.5 43t27.5 65.5t9.5 83q0 51 -24 79t-63 28q-31 0 -56.5 -14.5t-43.5 -40.5t-28 -62t-10 -79q0 -57 24 -87.5t64 -30.5z" />
    <glyph glyph-name="c" unicode="c" horiz-adv-x="525" 
d="M340 435q-38 0 -66 -17t-46.5 -45.5t-27.5 -65.5t-9 -77q0 -22 6.5 -42t19 -35t31.5 -23.5t44 -8.5q33 0 67 11.5t63 29.5q20 -22 32 -53q13 -33 12 -62q-44 -31 -99 -46t-108 -15q-112 0 -171.5 62t-59.5 171q0 73 21 137t61 111.5t98 75t133 27.5q57 0 101 -17.5
t77 -43.5q-8 -29 -26 -60q-18 -32 -39 -50q-23 17 -52.5 26.5t-61.5 9.5z" />
    <glyph glyph-name="d" unicode="d" horiz-adv-x="624" 
d="M561 803q22 0 40 -1.5t35 -6.5l-126 -793q-17 -5 -32.5 -6.5t-34.5 -1.5t-34.5 1.5t-30.5 6.5l1 49q-32 -32 -72 -49.5t-85 -17.5q-40 0 -75 15t-61.5 43t-42 69t-15.5 94q0 80 19.5 147.5t54.5 116t85 75.5t111 27q45 0 80 -17.5t60 -49.5l46 291q19 5 37 6.5t40 1.5z
M277 121q31 0 56.5 14.5t43.5 40.5t28 62t10 79q0 57 -24 87.5t-64 30.5q-31 0 -56.5 -15.5t-43.5 -43t-27.5 -65.5t-9.5 -83q0 -51 24 -79t63 -28z" />
    <glyph glyph-name="e" unicode="e" horiz-adv-x="570" 
d="M463 145q8 -10 15 -23.5t12 -30.5q8 -31 5 -63q-54 -23 -106 -33.5t-118 -10.5q-121 0 -182 62.5t-61 178.5q0 68 19 130.5t57.5 110.5t97 76.5t137.5 28.5q47 0 84 -12.5t63 -35t40 -54.5t14 -70q0 -53 -25.5 -90t-72 -61t-112.5 -35.5t-147 -14.5q11 -49 44.5 -67.5
t86.5 -18.5q42 0 78 9t71 24zM321 448q-33 0 -57.5 -11.5t-41 -31.5t-26.5 -46t-14 -56q48 -1 87 5t66.5 17t42.5 28t15 39q0 26 -19.5 41t-52.5 15z" />
    <glyph glyph-name="f" unicode="f" horiz-adv-x="400" 
d="M386 811q38 0 71.5 -7t67.5 -19q-1 -15 -3.5 -29t-7.5 -29q-7 -20 -15 -35.5t-19 -29.5q-19 8 -42.5 13t-49.5 5q-68 0 -78 -67l-9 -58h116q1 -6 1.5 -12t0.5 -12q0 -10 -1 -20t-3 -21q-3 -19 -7 -34t-12 -31h-116l-67 -422q-19 -5 -37.5 -6.5t-40.5 -1.5t-39.5 1.5
t-34.5 6.5l67 422h-86q-1 5 -1 10.5v10.5q0 21 4 44q3 19 7 34t11 31h86l11 72q14 85 71.5 134.5t154.5 49.5z" />
    <glyph glyph-name="g" unicode="g" horiz-adv-x="619" 
d="M528 559q19 0 34 -1.5t30 -6.5l-87 -554q-11 -71 -43.5 -117.5t-75.5 -74t-90.5 -38.5t-89.5 -11q-63 0 -116.5 14t-91.5 35q2 15 5.5 31t11.5 33t16.5 29t21.5 25q32 -14 72.5 -25t82.5 -11q24 0 47 3.5t43 15t34.5 33.5t20.5 59l10 61q-33 -26 -72.5 -40.5t-85.5 -14.5
q-80 0 -127.5 57t-47.5 158q0 78 19 142.5t54 111t84.5 72.5t110.5 26q48 0 86 -18t62 -52l14 50q17 5 33 6.5t35 1.5zM277 141q31 0 57 14.5t44.5 40.5t28.5 62t10 79q0 47 -24.5 72.5t-65.5 25.5q-31 0 -56 -14t-42.5 -38.5t-27 -59t-9.5 -75.5q0 -51 23.5 -79t61.5 -28z
" />
    <glyph glyph-name="h" unicode="h" horiz-adv-x="599" 
d="M401 571q34 0 62 -11t47.5 -30.5t30.5 -48t10 -62.5q0 -17 -4.5 -53.5t-12.5 -89.5t-19 -122t-25 -150q-19 -5 -37.5 -6.5t-40.5 -1.5t-39.5 1.5t-34.5 6.5q25 152 39.5 249t15.5 119q1 28 -14.5 42.5t-41.5 14.5q-47 0 -81 -43.5t-48 -115.5l-42 -266q-19 -5 -37 -6.5
t-40 -1.5t-40 1.5t-35 6.5l126 791q19 5 37 6.5t40 1.5t40 -1.5t35 -6.5l-47 -297q32 35 71.5 54t84.5 19z" />
    <glyph glyph-name="i" unicode="i" horiz-adv-x="279" 
d="M285 754q2 -14 1.5 -31t-2.5 -34q-4 -25 -8.5 -40t-11.5 -27q-13 -4 -33.5 -6t-40.5 -2q-23 0 -43.5 1.5t-34.5 6.5q-1 13 0 31.5t4 39.5q6 37 17 61q19 5 37.5 6.5t40.5 1.5t39.5 -1.5t34.5 -6.5zM100 551q19 5 37.5 6.5t40.5 1.5t39.5 -1.5t34.5 -6.5l-86 -547
q-19 -5 -37.5 -6.5t-40.5 -1.5t-39.5 1.5t-34.5 6.5z" />
    <glyph glyph-name="j" unicode="j" horiz-adv-x="280" 
d="M285 754q2 -14 1.5 -31t-2.5 -34q-4 -25 -8.5 -40t-11.5 -27q-13 -4 -33.5 -6t-40.5 -2q-23 0 -43.5 1.5t-34.5 6.5q-1 13 0 31.5t4 39.5q6 37 17 61q19 5 37.5 6.5t40.5 1.5t39.5 -1.5t34.5 -6.5zM101 551q19 5 37.5 6.5t40.5 1.5t39.5 -1.5t34.5 -6.5l-87 -548
q-15 -99 -72 -164t-151 -83q-11 14 -18.5 30t-13.5 34t-9 33.5t-2 32.5q48 17 77.5 42.5t35.5 65.5z" />
    <glyph glyph-name="k" unicode="k" horiz-adv-x="581" 
d="M217 803q22 0 40 -1.5t35 -6.5l-126 -791q-19 -5 -37 -6.5t-40 -1.5t-40 1.5t-35 6.5l126 791q19 5 37 6.5t40 1.5zM390 281l140 -277q-20 -5 -39.5 -6.5t-42.5 -1.5q-25 0 -44.5 1.5t-39.5 6.5l-137 282l204 265q20 5 40 6.5t45 1.5q26 0 47.5 -1.5t42.5 -6.5z" />
    <glyph glyph-name="l" unicode="l" horiz-adv-x="278" 
d="M98 -6q-42 0 -61 22.5t-14 55.5l115 723q19 5 37 6.5t40 1.5t40 -1.5t35 -6.5l-126 -793q-12 -3 -29 -5.5t-37 -2.5z" />
    <glyph glyph-name="m" unicode="m" horiz-adv-x="904" 
d="M711 571q33 0 60 -11t46 -30.5t29.5 -48t9.5 -62.5q0 -17 -4.5 -53.5t-12.5 -89.5t-19 -122t-25 -150q-19 -5 -37.5 -6.5t-40.5 -1.5t-39.5 1.5t-34.5 6.5q25 152 39.5 249t15.5 119q1 28 -13 42.5t-38 14.5q-45 0 -77.5 -42t-45.5 -111q-8 -54 -19 -122.5t-25 -149.5
q-19 -5 -37.5 -6.5t-40.5 -1.5t-39.5 1.5t-34.5 6.5q25 152 39.5 249t15.5 119q1 28 -13 42.5t-38 14.5q-45 0 -78 -42.5t-45 -113.5l-43 -269q-19 -5 -37.5 -6.5t-40.5 -1.5t-39.5 1.5t-34.5 6.5l86 547q17 5 33 6.5t35 1.5t34 -1.5t30 -6.5l-2 -67q34 42 76 64.5t90 22.5
q52 0 88.5 -26.5t50.5 -73.5q35 48 80 74t96 26z" />
    <glyph glyph-name="n" unicode="n" horiz-adv-x="599" 
d="M401 571q34 0 62 -11t47.5 -30.5t30.5 -48t10 -62.5q0 -17 -4.5 -53.5t-12.5 -89.5t-19 -122t-25 -150q-19 -5 -37.5 -6.5t-40.5 -1.5t-39.5 1.5t-34.5 6.5q25 152 39.5 249t15.5 119q1 28 -14.5 42.5t-41.5 14.5q-48 0 -82 -44t-47 -116l-42 -265q-19 -5 -37.5 -6.5
t-40.5 -1.5t-39.5 1.5t-34.5 6.5l86 547q17 5 33 6.5t35 1.5t34 -1.5t30 -6.5l-2 -69q35 43 78.5 66t92.5 23z" />
    <glyph glyph-name="o" unicode="o" horiz-adv-x="619" 
d="M270 -16q-53 0 -97 16.5t-76 47t-50 74t-18 96.5q0 80 20 145t59 111.5t96.5 71.5t133.5 25q52 0 96.5 -16.5t76 -47t49.5 -73.5t18 -95q0 -80 -19.5 -145.5t-58.5 -112t-96.5 -72t-133.5 -25.5zM286 120q63 0 96.5 56.5t33.5 149.5q0 50 -25.5 79t-68.5 29
q-63 0 -97 -56.5t-34 -149.5q0 -50 25.5 -79t69.5 -29z" />
    <glyph glyph-name="p" unicode="p" horiz-adv-x="626" 
d="M392 571q40 0 75 -15t61.5 -43t42 -69.5t15.5 -93.5q0 -80 -19.5 -147.5t-54.5 -116t-85 -75.5t-111 -27q-92 0 -141 68l-44 -276q-19 -5 -37.5 -6.5t-40.5 -1.5t-39.5 1.5t-34.5 6.5l122 775q17 5 33 6.5t35 1.5t34 -1.5t30 -6.5l-1 -50q32 34 72.5 52t87.5 18zM287 120
q31 0 56.5 15.5t43.5 43t27.5 65.5t9.5 83q0 51 -24 79t-63 28q-31 0 -56.5 -14.5t-43.5 -40.5t-28 -62t-10 -79q0 -57 24 -87.5t64 -30.5z" />
    <glyph glyph-name="q" unicode="q" horiz-adv-x="627" 
d="M600 551l-122 -775h-1q-19 -5 -37.5 -6.5t-40.5 -1.5t-39.5 1.5t-34.5 6.5h1l42 265q-63 -57 -146 -57q-40 0 -75 15t-61.5 43t-42 69t-15.5 94q0 80 19.5 147.5t54.5 116t85 75.5t111 27q51 0 89.5 -22t62.5 -63l18 65h-1q17 5 33 6.5t35 1.5t34 -1.5t30 -6.5h1z
M277 121q31 0 56.5 14.5t43.5 40.5t28 62t10 79q0 57 -24 87.5t-64 30.5q-31 0 -56.5 -15.5t-43.5 -43t-27.5 -65.5t-9.5 -83q0 -51 24 -79t63 -28z" />
    <glyph glyph-name="r" unicode="r" horiz-adv-x="402" 
d="M381 571q14 0 24.5 -2t22.5 -5q0 -14 -4.5 -37t-9.5 -39q-5 -20 -11.5 -39t-14.5 -36q-28 7 -60 7q-24 0 -43.5 -7t-34 -24.5t-25.5 -48t-18 -77.5l-41 -259q-19 -5 -37.5 -6.5t-40.5 -1.5t-39.5 1.5t-34.5 6.5l86 547q17 5 33 6.5t35 1.5t34 -1.5t30 -6.5l-2 -62
q32 39 70 60.5t81 21.5z" />
    <glyph glyph-name="s" unicode="s" horiz-adv-x="512" 
d="M284 445q-37 0 -61 -11t-24 -43q0 -19 19 -30.5t73 -23.5q40 -9 71 -20t52.5 -28t32.5 -43t11 -65q0 -53 -19 -90t-51.5 -61t-76.5 -35t-94 -11q-69 0 -122.5 14.5t-94.5 36.5q4 29 20 63q8 18 16 31.5t21 27.5q13 -9 31.5 -17.5t40 -15t44.5 -10.5t45 -4q88 0 88 54
q0 10 -3.5 17t-13.5 13t-28.5 11.5t-48.5 12.5q-37 8 -67 19t-51.5 28.5t-33.5 44t-12 65.5q0 47 17.5 83.5t48 61.5t72.5 38t91 13q72 0 122 -15t85 -33q-3 -29 -18 -62q-8 -18 -16.5 -32t-20.5 -26q-12 8 -30 15.5t-38 13.5t-40.5 9.5t-36.5 3.5z" />
    <glyph glyph-name="t" unicode="t" horiz-adv-x="430" 
d="M428 555q1 -5 1 -10.5v-10.5q0 -21 -4 -44q-2 -19 -6.5 -34t-11.5 -31h-135q-11 -69 -19 -116.5t-12.5 -79t-6.5 -49t-2 -24.5q0 -41 53 -41q16 0 33 4.5t31 11.5q9 -14 15 -28.5t10 -29.5q7 -28 4 -62q-25 -11 -64.5 -19t-90.5 -8q-29 0 -56 8t-47.5 24t-33 40t-12.5 56
q0 12 2 33t7.5 57t14 90t21.5 133h-79q-1 5 -1 10.5v11.5q0 19 3 43q3 19 7 34t12 31h84l66 163q24 7 55 7q29 0 53 -7q-8 -45 -14 -85.5t-12 -77.5h135v0z" />
    <glyph glyph-name="u" unicode="u" horiz-adv-x="590" 
d="M489 559q22 0 39.5 -1.5t34.5 -6.5l-86 -547q-17 -5 -33 -6.5t-35 -1.5t-34 1.5t-30 6.5l2 67q-34 -42 -76 -64.5t-90 -22.5q-33 0 -60 11t-46 30.5t-29.5 47.5t-9.5 63q0 16 4.5 53t12.5 90t19 122t25 150q19 5 37.5 6.5t40.5 1.5t39.5 -1.5t34.5 -6.5
q-25 -152 -39.5 -249t-15.5 -119q-1 -28 13.5 -42.5t37.5 -14.5q45 0 78 42.5t45 113.5l43 269q19 5 37.5 6.5t40.5 1.5z" />
    <glyph glyph-name="v" unicode="v" horiz-adv-x="553" 
d="M504 559q23 0 41 -1.5t36 -6.5l-270 -547q-20 -5 -40.5 -6.5t-44.5 -1.5t-43 1.5t-38 6.5h-1l-98 547q20 5 40 6.5t43 1.5q21 0 39 -1.5t35 -6.5l35 -275q5 -41 7 -78t1 -58q8 21 21 58t31 78l121 275q20 5 41 6.5t44 1.5z" />
    <glyph glyph-name="w" unicode="w" horiz-adv-x="805" 
d="M758 559q21 0 38 -1.5t34 -6.5l-245 -547q-18 -5 -36.5 -6.5t-39.5 -1.5t-38 1.5t-34 6.5l-23 223q-3 32 -4.5 67.5t-1.5 84.5q-14 -51 -26.5 -86t-24.5 -66l-92 -223q-18 -5 -36.5 -6.5t-39.5 -1.5t-38 1.5t-34 6.5l-67 547q17 5 35.5 6.5t39.5 1.5q19 0 35 -1.5
t31 -6.5l13 -224q3 -50 3 -93v-93q8 28 22 73.5t40 112.5l85 224q20 5 40.5 6.5t45.5 1.5q23 0 40.5 -1.5t34.5 -6.5l15 -224q1 -22 2 -42.5t1 -42.5v-46.5v-53.5q13 52 63 186l83 223q19 5 38 6.5t41 1.5z" />
    <glyph glyph-name="x" unicode="x" horiz-adv-x="546" 
d="M353 268l135 -264q-20 -5 -39 -6.5t-42 -1.5t-41 1.5t-37 6.5l-83 162l-111 -162q-21 -5 -43 -6.5t-47 -1.5t-45.5 1.5t-40.5 6.5l224 287l-133 260q20 5 39.5 6.5t42.5 1.5t41 -1.5t36 -6.5l79 -154l105 154q22 5 43.5 6.5t46.5 1.5t45.5 -1.5t40.5 -6.5z" />
    <glyph glyph-name="y" unicode="y" horiz-adv-x="591" 
d="M490 559q22 0 39.5 -1.5t34.5 -6.5l-87 -554q-12 -74 -43 -120.5t-72 -73.5t-85.5 -37t-83.5 -10q-66 0 -122.5 14t-95.5 38q0 15 4.5 31t12.5 33t17.5 31.5t20.5 22.5q34 -19 76 -31.5t87 -12.5q21 0 42.5 4t39.5 16t31 35t19 61l14 88q-33 -35 -72.5 -53.5t-84.5 -18.5
q-33 0 -59.5 10t-45.5 28.5t-29.5 43.5t-9.5 55q1 32 16.5 137t43.5 263q19 5 37.5 6.5t40.5 1.5t39.5 -1.5t34.5 -6.5q-25 -149 -39 -240.5t-15 -112.5q-1 -18 13 -30t37 -12q46 0 80 40t46 103l40 252q19 5 37.5 6.5t40.5 1.5z" />
    <glyph glyph-name="z" unicode="z" horiz-adv-x="535" 
d="M524 555q1 -6 1 -11.5v-10.5q0 -13 -1 -23.5t-3 -21.5q-2 -13 -9 -29.5t-18 -29.5l-279 -299h247q1 -5 1 -10.5v-10.5q0 -21 -4 -44q-3 -19 -7 -34t-11 -31h-447q-1 6 -1.5 11.5t-0.5 11.5q0 14 3 34q3 17 6.5 30t10.5 27l292 311h-238q-1 5 -1 10.5v10.5q0 21 4 44
q3 19 7 34t11 31h437v0z" />
    <glyph glyph-name="agrave" unicode="&#xe0;" horiz-adv-x="626" 
d="M535 563q19 0 34.5 -1.5t30.5 -6.5l-88 -555q-17 -5 -32.5 -6.5t-34.5 -1.5t-34.5 1.5t-30.5 6.5l2 54q-32 -34 -72.5 -52t-87.5 -18q-40 0 -75 15t-61.5 43t-42 69t-15.5 94q0 80 19.5 147.5t54.5 116t85 75.5t111 27q50 0 88.5 -21.5t62.5 -61.5l19 67q17 5 32.5 6.5
t34.5 1.5zM277 121q31 0 56.5 14.5t43.5 40.5t28 62t10 79q0 57 -24 87.5t-64 30.5q-31 0 -56.5 -15.5t-43.5 -43t-27.5 -65.5t-9.5 -83q0 -51 24 -79t63 -28zM397 619q-23 -8 -52 -8q-30 0 -50 8l-82 199q16 5 32 6.5t35 1.5t35 -1.5t30 -6.5z" />
    <glyph glyph-name="aacute" unicode="&#xe1;" horiz-adv-x="626" 
d="M535 563q19 0 34.5 -1.5t30.5 -6.5l-88 -555q-17 -5 -32.5 -6.5t-34.5 -1.5t-34.5 1.5t-30.5 6.5l2 54q-32 -34 -72.5 -52t-87.5 -18q-40 0 -75 15t-61.5 43t-42 69t-15.5 94q0 80 19.5 147.5t54.5 116t85 75.5t111 27q50 0 88.5 -21.5t62.5 -61.5l19 67q17 5 32.5 6.5
t34.5 1.5zM277 121q31 0 56.5 14.5t43.5 40.5t28 62t10 79q0 57 -24 87.5t-64 30.5q-31 0 -56.5 -15.5t-43.5 -43t-27.5 -65.5t-9.5 -83q0 -51 24 -79t63 -28zM474 826q21 0 38 -1.5t33 -6.5l-148 -199q-14 -5 -27 -6.5t-30 -1.5t-30 1.5t-25 6.5l116 199q17 5 34.5 6.5
t38.5 1.5z" />
    <glyph glyph-name="acircumflex" unicode="&#xe2;" horiz-adv-x="626" 
d="M535 563q19 0 34.5 -1.5t30.5 -6.5l-88 -555q-17 -5 -32.5 -6.5t-34.5 -1.5t-34.5 1.5t-30.5 6.5l2 54q-32 -34 -72.5 -52t-87.5 -18q-40 0 -75 15t-61.5 43t-42 69t-15.5 94q0 80 19.5 147.5t54.5 116t85 75.5t111 27q50 0 88.5 -21.5t62.5 -61.5l19 67q17 5 32.5 6.5
t34.5 1.5zM277 121q31 0 56.5 14.5t43.5 40.5t28 62t10 79q0 57 -24 87.5t-64 30.5q-31 0 -56.5 -15.5t-43.5 -43t-27.5 -65.5t-9.5 -83q0 -51 24 -79t63 -28zM510 618q-23 -8 -51 -8q-30 0 -50 8l-42 114l-77 -114q-23 -8 -51 -8q-30 0 -50 8l118 200q19 5 36.5 6.5
t39.5 1.5t39.5 -1.5t34.5 -6.5z" />
    <glyph glyph-name="atilde" unicode="&#xe3;" horiz-adv-x="626" 
d="M535 563q19 0 34.5 -1.5t30.5 -6.5l-88 -555q-17 -5 -32.5 -6.5t-34.5 -1.5t-34.5 1.5t-30.5 6.5l2 54q-32 -34 -72.5 -52t-87.5 -18q-40 0 -75 15t-61.5 43t-42 69t-15.5 94q0 80 19.5 147.5t54.5 116t85 75.5t111 27q50 0 88.5 -21.5t62.5 -61.5l19 67q17 5 32.5 6.5
t34.5 1.5zM277 121q31 0 56.5 14.5t43.5 40.5t28 62t10 79q0 57 -24 87.5t-64 30.5q-31 0 -56.5 -15.5t-43.5 -43t-27.5 -65.5t-9.5 -83q0 -51 24 -79t63 -28zM530 760q26 -8 42 -17q-24 -66 -66 -97t-93 -31q-22 0 -38.5 5t-30.5 13q-17 8 -32 15.5t-31 7.5q-18 0 -32 -9.5
t-24 -31.5q-24 2 -47 10q-26 8 -42 17q26 66 67 97t90 31q28 0 47.5 -8.5t36.5 -16.5q13 -7 24.5 -11.5t23.5 -4.5q18 0 32.5 9t25.5 32q24 -2 47 -10z" />
    <glyph glyph-name="adieresis" unicode="&#xe4;" horiz-adv-x="626" 
d="M535 563q19 0 34.5 -1.5t30.5 -6.5l-88 -555q-17 -5 -32.5 -6.5t-34.5 -1.5t-34.5 1.5t-30.5 6.5l2 54q-32 -34 -72.5 -52t-87.5 -18q-40 0 -75 15t-61.5 43t-42 69t-15.5 94q0 80 19.5 147.5t54.5 116t85 75.5t111 27q50 0 88.5 -21.5t62.5 -61.5l19 67q17 5 32.5 6.5
t34.5 1.5zM277 121q31 0 56.5 14.5t43.5 40.5t28 62t10 79q0 57 -24 87.5t-64 30.5q-31 0 -56.5 -15.5t-43.5 -43t-27.5 -65.5t-9.5 -83q0 -51 24 -79t63 -28zM242 616q-20 0 -37 1.5t-34 6.5q-2 15 -1 29.5t4 32.5t7 32.5t10 29.5q18 5 35.5 6.5t37.5 1.5t37 -1.5t34 -6.5
q3 -28 -3 -62q-3 -18 -7 -32.5t-10 -29.5q-18 -5 -35.5 -6.5t-37.5 -1.5zM458 616q-20 0 -37 1.5t-34 6.5q-2 15 -1 29.5t4 32.5t7 32.5t10 29.5q18 5 35.5 6.5t37.5 1.5t37 -1.5t34 -6.5q3 -28 -3 -62q-3 -18 -7 -32.5t-10 -29.5q-18 -5 -35.5 -6.5t-37.5 -1.5z" />
    <glyph glyph-name="aring" unicode="&#xe5;" horiz-adv-x="626" 
d="M535 563q19 0 34.5 -1.5t30.5 -6.5l-88 -555q-17 -5 -32.5 -6.5t-34.5 -1.5t-34.5 1.5t-30.5 6.5l2 54q-32 -34 -72.5 -52t-87.5 -18q-40 0 -75 15t-61.5 43t-42 69t-15.5 94q0 80 19.5 147.5t54.5 116t85 75.5t111 27q50 0 88.5 -21.5t62.5 -61.5l19 67q17 5 32.5 6.5
t34.5 1.5zM277 121q31 0 56.5 14.5t43.5 40.5t28 62t10 79q0 57 -24 87.5t-64 30.5q-31 0 -56.5 -15.5t-43.5 -43t-27.5 -65.5t-9.5 -83q0 -51 24 -79t63 -28zM357 615q-62 0 -93.5 31.5t-31.5 83.5q0 30 11 53t31 39t46.5 24.5t58.5 8.5q63 0 94 -31t31 -81
q0 -62 -41.5 -95t-105.5 -33zM366 693q24 0 35.5 15t11.5 32q0 19 -12 28t-29 9q-25 0 -37.5 -14.5t-12.5 -31.5q0 -19 13 -28.5t31 -9.5z" />
    <glyph glyph-name="ae" unicode="&#xe6;" horiz-adv-x="986" 
d="M879 145q8 -10 15 -23.5t12 -30.5q8 -31 5 -63q-54 -23 -106 -33.5t-118 -10.5q-109 0 -169 57l-6 -41q-17 -5 -32.5 -6.5t-34.5 -1.5t-34.5 1.5t-30.5 6.5l2 54q-32 -34 -72.5 -52t-87.5 -18q-40 0 -75 15t-61.5 43t-42 69t-15.5 94q0 80 19.5 147.5t54.5 116t85 75.5
t111 27q50 0 88.5 -21.5t62.5 -61.5l19 67q17 5 32.5 6.5t34.5 1.5t34.5 -1.5t30.5 -6.5l-4 -27q32 20 71.5 31.5t87.5 11.5q47 0 84 -12.5t63 -35t40 -54.5t14 -70q0 -53 -26.5 -90.5t-75.5 -61t-119 -35.5t-156 -14q12 -49 48 -67.5t93 -18.5q45 0 83.5 9t75.5 24z
M727 448q-36 0 -62 -11.5t-44 -31.5t-28.5 -46t-14.5 -56q52 -1 95 4.5t73 17t46.5 28.5t16.5 39q0 26 -22 41t-60 15zM277 121q31 0 56.5 14.5t43.5 40.5t28 62t10 79q0 57 -24 87.5t-64 30.5q-31 0 -56.5 -15.5t-43.5 -43t-27.5 -65.5t-9.5 -83q0 -51 24 -79t63 -28z" />
    <glyph glyph-name="ccedilla" unicode="&#xe7;" horiz-adv-x="524" 
d="M339 435q-38 0 -66 -17t-46.5 -45.5t-27.5 -65.5t-9 -77q0 -22 6.5 -42t19 -35t31.5 -23.5t44 -8.5q33 0 67 11.5t63 29.5q20 -22 32 -53q13 -33 12 -62q-32 -23 -72 -37.5t-81 -19.5q5 -15 7.5 -29.5t2.5 -28.5q0 -60 -38.5 -98t-102.5 -38q-35 0 -67.5 6.5t-55.5 19.5
q2 13 6 24t11 25q6 14 13 24t16 20q31 -14 56 -14q29 0 45 19.5t16 55.5v12q-95 11 -144.5 71.5t-49.5 159.5q0 73 21 137t61 111.5t98 75t133 27.5q57 0 101 -17.5t77 -43.5q-8 -29 -26 -60q-18 -32 -39 -50q-23 17 -52.5 26.5t-61.5 9.5z" />
    <glyph glyph-name="egrave" unicode="&#xe8;" horiz-adv-x="570" 
d="M463 145q8 -10 15 -23.5t12 -30.5q8 -31 5 -63q-54 -23 -106 -33.5t-118 -10.5q-121 0 -182 62.5t-61 178.5q0 68 19 130.5t57.5 110.5t97 76.5t137.5 28.5q47 0 84 -12.5t63 -35t40 -54.5t14 -70q0 -53 -25.5 -90t-72 -61t-112.5 -35.5t-147 -14.5q11 -49 44.5 -67.5
t86.5 -18.5q42 0 78 9t71 24zM321 448q-33 0 -57.5 -11.5t-41 -31.5t-26.5 -46t-14 -56q48 -1 87 5t66.5 17t42.5 28t15 39q0 26 -19.5 41t-52.5 15zM385 619q-23 -8 -52 -8q-30 0 -50 8l-82 199q16 5 32 6.5t35 1.5t35 -1.5t30 -6.5z" />
    <glyph glyph-name="eacute" unicode="&#xe9;" horiz-adv-x="570" 
d="M463 145q8 -10 15 -23.5t12 -30.5q8 -31 5 -63q-54 -23 -106 -33.5t-118 -10.5q-121 0 -182 62.5t-61 178.5q0 68 19 130.5t57.5 110.5t97 76.5t137.5 28.5q47 0 84 -12.5t63 -35t40 -54.5t14 -70q0 -53 -25.5 -90t-72 -61t-112.5 -35.5t-147 -14.5q11 -49 44.5 -67.5
t86.5 -18.5q42 0 78 9t71 24zM321 448q-33 0 -57.5 -11.5t-41 -31.5t-26.5 -46t-14 -56q48 -1 87 5t66.5 17t42.5 28t15 39q0 26 -19.5 41t-52.5 15zM462 826q21 0 38 -1.5t33 -6.5l-148 -199q-14 -5 -27 -6.5t-30 -1.5t-30 1.5t-25 6.5l116 199q17 5 34.5 6.5t38.5 1.5z
" />
    <glyph glyph-name="ecircumflex" unicode="&#xea;" horiz-adv-x="570" 
d="M463 145q8 -10 15 -23.5t12 -30.5q8 -31 5 -63q-54 -23 -106 -33.5t-118 -10.5q-121 0 -182 62.5t-61 178.5q0 68 19 130.5t57.5 110.5t97 76.5t137.5 28.5q47 0 84 -12.5t63 -35t40 -54.5t14 -70q0 -53 -25.5 -90t-72 -61t-112.5 -35.5t-147 -14.5q11 -49 44.5 -67.5
t86.5 -18.5q42 0 78 9t71 24zM321 448q-33 0 -57.5 -11.5t-41 -31.5t-26.5 -46t-14 -56q48 -1 87 5t66.5 17t42.5 28t15 39q0 26 -19.5 41t-52.5 15zM498 618q-23 -8 -51 -8q-30 0 -50 8l-42 114l-77 -114q-23 -8 -51 -8q-30 0 -50 8l118 200q19 5 36.5 6.5t39.5 1.5
t39.5 -1.5t34.5 -6.5z" />
    <glyph glyph-name="edieresis" unicode="&#xeb;" horiz-adv-x="570" 
d="M463 145q8 -10 15 -23.5t12 -30.5q8 -31 5 -63q-54 -23 -106 -33.5t-118 -10.5q-121 0 -182 62.5t-61 178.5q0 68 19 130.5t57.5 110.5t97 76.5t137.5 28.5q47 0 84 -12.5t63 -35t40 -54.5t14 -70q0 -53 -25.5 -90t-72 -61t-112.5 -35.5t-147 -14.5q11 -49 44.5 -67.5
t86.5 -18.5q42 0 78 9t71 24zM321 448q-33 0 -57.5 -11.5t-41 -31.5t-26.5 -46t-14 -56q48 -1 87 5t66.5 17t42.5 28t15 39q0 26 -19.5 41t-52.5 15zM230 616q-20 0 -37 1.5t-34 6.5q-2 15 -1 29.5t4 32.5t7 32.5t10 29.5q18 5 35.5 6.5t37.5 1.5t37 -1.5t34 -6.5
q3 -28 -3 -62q-3 -18 -7 -32.5t-10 -29.5q-18 -5 -35.5 -6.5t-37.5 -1.5zM446 616q-20 0 -37 1.5t-34 6.5q-2 15 -1 29.5t4 32.5t7 32.5t10 29.5q18 5 35.5 6.5t37.5 1.5t37 -1.5t34 -6.5q3 -28 -3 -62q-3 -18 -7 -32.5t-10 -29.5q-18 -5 -35.5 -6.5t-37.5 -1.5z" />
    <glyph glyph-name="dotlessi" unicode="&#x131;" horiz-adv-x="279" 
d="M178 559q22 0 39.5 -1.5t34.5 -6.5l-86 -547q-19 -5 -37.5 -6.5t-40.5 -1.5t-39.5 1.5t-34.5 6.5l86 547q19 5 37.5 6.5t40.5 1.5z" />
    <glyph glyph-name="igrave" unicode="&#xec;" horiz-adv-x="279" 
d="M178 559q22 0 39.5 -1.5t34.5 -6.5l-86 -547q-19 -5 -37.5 -6.5t-40.5 -1.5t-39.5 1.5t-34.5 6.5l86 547q19 5 37.5 6.5t40.5 1.5zM235 619q-23 -8 -52 -8q-30 0 -50 8l-82 199q16 5 32 6.5t35 1.5t35 -1.5t30 -6.5z" />
    <glyph glyph-name="iacute" unicode="&#xed;" horiz-adv-x="279" 
d="M178 559q22 0 39.5 -1.5t34.5 -6.5l-86 -547q-19 -5 -37.5 -6.5t-40.5 -1.5t-39.5 1.5t-34.5 6.5l86 547q19 5 37.5 6.5t40.5 1.5zM312 826q21 0 38 -1.5t33 -6.5l-148 -199q-14 -5 -27 -6.5t-30 -1.5t-30 1.5t-25 6.5l116 199q17 5 34.5 6.5t38.5 1.5z" />
    <glyph glyph-name="icircumflex" unicode="&#xee;" horiz-adv-x="278" 
d="M178 559q22 0 39.5 -1.5t34.5 -6.5l-86 -547q-19 -5 -37.5 -6.5t-40.5 -1.5t-39.5 1.5t-34.5 6.5l86 547q19 5 37.5 6.5t40.5 1.5zM348 618q-23 -8 -51 -8q-30 0 -50 8l-42 114l-77 -114q-23 -8 -51 -8q-30 0 -50 8l118 200q19 5 36.5 6.5t39.5 1.5t39.5 -1.5t34.5 -6.5z
" />
    <glyph glyph-name="idieresis" unicode="&#xef;" horiz-adv-x="278" 
d="M178 559q22 0 39.5 -1.5t34.5 -6.5l-86 -547q-19 -5 -37.5 -6.5t-40.5 -1.5t-39.5 1.5t-34.5 6.5l86 547q19 5 37.5 6.5t40.5 1.5zM80 616q-20 0 -37 1.5t-34 6.5q-2 15 -1 29.5t4 32.5t7 32.5t10 29.5q18 5 35.5 6.5t37.5 1.5t37 -1.5t34 -6.5q3 -28 -3 -62
q-3 -18 -7 -32.5t-10 -29.5q-18 -5 -35.5 -6.5t-37.5 -1.5zM296 616q-20 0 -37 1.5t-34 6.5q-2 15 -1 29.5t4 32.5t7 32.5t10 29.5q18 5 35.5 6.5t37.5 1.5t37 -1.5t34 -6.5q3 -28 -3 -62q-3 -18 -7 -32.5t-10 -29.5q-18 -5 -35.5 -6.5t-37.5 -1.5z" />
    <glyph glyph-name="eth" unicode="&#xf0;" horiz-adv-x="607" 
d="M490 686q35 -70 56.5 -151.5t21.5 -166.5q0 -78 -18.5 -148t-57.5 -122.5t-99.5 -83t-145.5 -30.5q-102 0 -160.5 54t-58.5 176q0 68 18 129.5t54.5 108t91 74t126.5 27.5q24 0 41 -2.5t29 -7.5q-7 26 -14.5 47.5t-16.5 41.5l-136 -55q-5 8 -8.5 17.5t-6.5 21.5
q-6 22 -6 42l119 48q-11 18 -22.5 37t-25.5 41q17 6 34 10.5t37 7.5q6 1 15.5 2t20 1h19.5t14 -1l18 -22t18 -24l135 55q5 -8 8.5 -17.5t6.5 -21.5q6 -23 6 -42zM282 121q34 0 57.5 16.5t38 42t21 57.5t6.5 64q0 62 -22 89.5t-66 27.5q-36 0 -61.5 -17t-41.5 -43t-23 -57.5
t-7 -60.5q0 -61 26.5 -90t71.5 -29z" />
    <glyph glyph-name="lslash" unicode="&#x142;" horiz-adv-x="416" 
d="M292 377l-60 -375q-12 -3 -29 -5.5t-37 -2.5q-42 0 -61 22.5t-14 55.5l38 240l-86 -35q-8 11 -11.5 22t-8.5 25t-6.5 26t-2.5 25l134 54l58 366q19 5 37 6.5t40 1.5t40 -1.5t35 -6.5l-48 -299l90 36q7 -11 11 -21.5t8 -24.5q5 -15 7.5 -27.5t2.5 -26.5z" />
    <glyph glyph-name="ntilde" unicode="&#xf1;" horiz-adv-x="599" 
d="M401 571q34 0 62 -11t47.5 -30.5t30.5 -48t10 -62.5q0 -17 -4.5 -53.5t-12.5 -89.5t-19 -122t-25 -150q-19 -5 -37.5 -6.5t-40.5 -1.5t-39.5 1.5t-34.5 6.5q25 152 39.5 249t15.5 119q1 28 -14.5 42.5t-41.5 14.5q-48 0 -82 -44t-47 -116l-42 -265q-19 -5 -37.5 -6.5
t-40.5 -1.5t-39.5 1.5t-34.5 6.5l86 547q17 5 33 6.5t35 1.5t34 -1.5t30 -6.5l-2 -69q35 43 78.5 66t92.5 23zM531 760q26 -8 42 -17q-24 -66 -66 -97t-93 -31q-22 0 -38.5 5t-30.5 13q-17 8 -32 15.5t-31 7.5q-18 0 -32 -9.5t-24 -31.5q-24 2 -47 10q-26 8 -42 17
q26 66 67 97t90 31q28 0 47.5 -8.5t36.5 -16.5q13 -7 24.5 -11.5t23.5 -4.5q18 0 32.5 9t25.5 32q24 -2 47 -10z" />
    <glyph glyph-name="ograve" unicode="&#xf2;" horiz-adv-x="619" 
d="M270 -16q-53 0 -97 16.5t-76 47t-50 74t-18 96.5q0 80 20 145t59 111.5t96.5 71.5t133.5 25q52 0 96.5 -16.5t76 -47t49.5 -73.5t18 -95q0 -80 -19.5 -145.5t-58.5 -112t-96.5 -72t-133.5 -25.5zM286 120q63 0 96.5 56.5t33.5 149.5q0 50 -25.5 79t-68.5 29
q-63 0 -97 -56.5t-34 -149.5q0 -50 25.5 -79t69.5 -29zM403 619q-23 -8 -52 -8q-30 0 -50 8l-82 199q16 5 32 6.5t35 1.5t35 -1.5t30 -6.5z" />
    <glyph glyph-name="oacute" unicode="&#xf3;" horiz-adv-x="619" 
d="M270 -16q-53 0 -97 16.5t-76 47t-50 74t-18 96.5q0 80 20 145t59 111.5t96.5 71.5t133.5 25q52 0 96.5 -16.5t76 -47t49.5 -73.5t18 -95q0 -80 -19.5 -145.5t-58.5 -112t-96.5 -72t-133.5 -25.5zM286 120q63 0 96.5 56.5t33.5 149.5q0 50 -25.5 79t-68.5 29
q-63 0 -97 -56.5t-34 -149.5q0 -50 25.5 -79t69.5 -29zM480 826q21 0 38 -1.5t33 -6.5l-148 -199q-14 -5 -27 -6.5t-30 -1.5t-30 1.5t-25 6.5l116 199q17 5 34.5 6.5t38.5 1.5z" />
    <glyph glyph-name="ocircumflex" unicode="&#xf4;" horiz-adv-x="619" 
d="M270 -16q-53 0 -97 16.5t-76 47t-50 74t-18 96.5q0 80 20 145t59 111.5t96.5 71.5t133.5 25q52 0 96.5 -16.5t76 -47t49.5 -73.5t18 -95q0 -80 -19.5 -145.5t-58.5 -112t-96.5 -72t-133.5 -25.5zM286 120q63 0 96.5 56.5t33.5 149.5q0 50 -25.5 79t-68.5 29
q-63 0 -97 -56.5t-34 -149.5q0 -50 25.5 -79t69.5 -29zM516 618q-23 -8 -51 -8q-30 0 -50 8l-42 114l-77 -114q-23 -8 -51 -8q-30 0 -50 8l118 200q19 5 36.5 6.5t39.5 1.5t39.5 -1.5t34.5 -6.5z" />
    <glyph glyph-name="otilde" unicode="&#xf5;" horiz-adv-x="619" 
d="M270 -16q-53 0 -97 16.5t-76 47t-50 74t-18 96.5q0 80 20 145t59 111.5t96.5 71.5t133.5 25q52 0 96.5 -16.5t76 -47t49.5 -73.5t18 -95q0 -80 -19.5 -145.5t-58.5 -112t-96.5 -72t-133.5 -25.5zM286 120q63 0 96.5 56.5t33.5 149.5q0 50 -25.5 79t-68.5 29
q-63 0 -97 -56.5t-34 -149.5q0 -50 25.5 -79t69.5 -29zM536 760q26 -8 42 -17q-24 -66 -66 -97t-93 -31q-22 0 -38.5 5t-30.5 13q-17 8 -32 15.5t-31 7.5q-18 0 -32 -9.5t-24 -31.5q-24 2 -47 10q-26 8 -42 17q26 66 67 97t90 31q28 0 47.5 -8.5t36.5 -16.5
q13 -7 24.5 -11.5t23.5 -4.5q18 0 32.5 9t25.5 32q24 -2 47 -10z" />
    <glyph glyph-name="odieresis" unicode="&#xf6;" horiz-adv-x="619" 
d="M270 -16q-53 0 -97 16.5t-76 47t-50 74t-18 96.5q0 80 20 145t59 111.5t96.5 71.5t133.5 25q52 0 96.5 -16.5t76 -47t49.5 -73.5t18 -95q0 -80 -19.5 -145.5t-58.5 -112t-96.5 -72t-133.5 -25.5zM286 120q63 0 96.5 56.5t33.5 149.5q0 50 -25.5 79t-68.5 29
q-63 0 -97 -56.5t-34 -149.5q0 -50 25.5 -79t69.5 -29zM248 616q-20 0 -37 1.5t-34 6.5q-2 15 -1 29.5t4 32.5t7 32.5t10 29.5q18 5 35.5 6.5t37.5 1.5t37 -1.5t34 -6.5q3 -28 -3 -62q-3 -18 -7 -32.5t-10 -29.5q-18 -5 -35.5 -6.5t-37.5 -1.5zM464 616q-20 0 -37 1.5
t-34 6.5q-2 15 -1 29.5t4 32.5t7 32.5t10 29.5q18 5 35.5 6.5t37.5 1.5t37 -1.5t34 -6.5q3 -28 -3 -62q-3 -18 -7 -32.5t-10 -29.5q-18 -5 -35.5 -6.5t-37.5 -1.5z" />
    <glyph glyph-name="oslash" unicode="&#xf8;" horiz-adv-x="619" 
d="M515 503q30 -30 46.5 -71.5t16.5 -92.5q0 -80 -19.5 -145.5t-58.5 -112t-96.5 -72t-133.5 -25.5q-47 0 -85 13l-47 -72q-14 5 -26 11t-26 14t-24 15.5t-20 15.5l48 74q-29 30 -45 71t-16 92q0 80 20 145t59 111.5t96.5 71.5t133.5 25q44 0 82 -12l41 64q14 -4 25 -8.5
t25 -12.5q15 -9 25.5 -16.5t20.5 -18.5zM322 434q-63 0 -97 -56.5t-34 -149.5q0 -19 5 -39l153 242q-14 3 -27 3zM286 120q63 0 96.5 56.5t33.5 149.5q0 24 -6 42l-154 -244q12 -4 30 -4z" />
    <glyph glyph-name="oe" unicode="&#x153;" horiz-adv-x="953" 
d="M846 145q8 -10 15 -23.5t12 -30.5q8 -31 5 -63q-54 -23 -106 -33.5t-118 -10.5q-67 0 -114 23t-74 68q-41 -44 -96 -67.5t-123 -23.5q-50 0 -90 16.5t-69 46.5t-44.5 72.5t-15.5 94.5q0 81 22 146.5t63 112.5t98 72.5t128 25.5q59 0 104.5 -22.5t74.5 -64.5q36 41 87 64
t117 23q47 0 84 -12.5t63 -35t40 -54.5t14 -70q0 -52 -25 -88.5t-71.5 -60.5t-112.5 -36.5t-148 -15.5q11 -49 44.5 -67.5t86.5 -18.5q42 0 78 9t71 24zM704 448q-33 0 -57.5 -11.5t-41 -31.5t-26.5 -46t-14 -56q96 1 153.5 24t57.5 65q0 26 -19.5 41t-52.5 15zM284 120
q30 0 54.5 15t41.5 42.5t26.5 66t9.5 85.5q0 48 -25.5 76.5t-67.5 28.5q-30 0 -54.5 -15t-42 -42.5t-27 -66t-9.5 -85.5q0 -48 25.5 -76.5t68.5 -28.5z" />
    <glyph glyph-name="thorn" unicode="&#xfe;" horiz-adv-x="628" 
d="M410 571q81 0 129 -57t48 -158q0 -83 -19.5 -151t-54.5 -117.5t-85 -76.5t-111 -27q-46 0 -82 18t-60 52l-44 -278q-19 -5 -37.5 -6.5t-40.5 -1.5t-39.5 1.5t-34.5 6.5l160 1015q19 5 37.5 6.5t40.5 1.5t39.5 -1.5t34.5 -6.5l-44 -281q33 29 74 45t89 16zM288 120
q31 0 56.5 15.5t43.5 43t27.5 65.5t9.5 83q0 51 -24 79t-63 28q-31 0 -56.5 -14.5t-43.5 -40.5t-28 -62t-10 -79q0 -57 24 -87.5t64 -30.5z" />
    <glyph glyph-name="scaron" unicode="&#x161;" horiz-adv-x="512" 
d="M284 445q-37 0 -61 -11t-24 -43q0 -19 19 -30.5t73 -23.5q40 -9 71 -20t52.5 -28t32.5 -43t11 -65q0 -53 -19 -90t-51.5 -61t-76.5 -35t-94 -11q-69 0 -122.5 14.5t-94.5 36.5q4 29 20 63q8 18 16 31.5t21 27.5q13 -9 31.5 -17.5t40 -15t44.5 -10.5t45 -4q88 0 88 54
q0 10 -3.5 17t-13.5 13t-28.5 11.5t-48.5 12.5q-37 8 -67 19t-51.5 28.5t-33.5 44t-12 65.5q0 47 17.5 83.5t48 61.5t72.5 38t91 13q72 0 122 -15t85 -33q-3 -29 -18 -62q-8 -18 -16.5 -32t-20.5 -26q-12 8 -30 15.5t-38 13.5t-40.5 9.5t-36.5 3.5zM452 826q30 0 50 -8
l-118 -200q-19 -5 -36.5 -6.5t-39.5 -1.5t-39.5 1.5t-34.5 6.5l-53 200q23 8 51 8q30 0 50 -8l42 -114l77 114q23 8 51 8z" />
    <glyph glyph-name="germandbls" unicode="&#xdf;" horiz-adv-x="636" 
d="M497 335q15 -13 32 -28.5t30.5 -35t22.5 -43.5t9 -54q0 -37 -13 -71t-39.5 -60.5t-65.5 -42t-90 -15.5q-26 0 -52 4.5t-49.5 10.5t-42.5 13.5t-30 13.5q1 17 1.5 29.5t5.5 27.5q5 17 12 29t18 23q10 -3 24.5 -7t30.5 -7t32 -5.5t28 -2.5q15 0 29.5 3t25.5 10t18 18.5
t7 28.5q0 16 -5.5 27.5t-14.5 21.5t-20.5 18t-23.5 16q-14 9 -27 18.5t-23.5 22t-17 29.5t-6.5 40t6 41t15 33t21 28l24 26q22 23 39 49t17 64q0 35 -22 50.5t-51 15.5q-9 0 -23 -2t-28 -11t-25.5 -26t-16.5 -47l-93 -584q-19 -5 -37.5 -6.5t-40.5 -1.5t-39.5 1.5t-34.5 6.5
l94 589q11 69 38.5 111.5t63.5 66t76.5 32t77.5 8.5q58 0 100 -13.5t69 -37t40 -53.5t13 -63q0 -38 -9 -67.5t-23 -52.5t-30 -41t-31 -32q-17 -17 -28.5 -30.5t-11.5 -27.5q0 -15 13 -28.5t31 -29.5z" />
    <glyph glyph-name="ugrave" unicode="&#xf9;" horiz-adv-x="590" 
d="M489 559q22 0 39.5 -1.5t34.5 -6.5l-86 -547q-17 -5 -33 -6.5t-35 -1.5t-34 1.5t-30 6.5l2 67q-34 -42 -76 -64.5t-90 -22.5q-33 0 -60 11t-46 30.5t-29.5 47.5t-9.5 63q0 16 4.5 53t12.5 90t19 122t25 150q19 5 37.5 6.5t40.5 1.5t39.5 -1.5t34.5 -6.5
q-25 -152 -39.5 -249t-15.5 -119q-1 -28 13.5 -42.5t37.5 -14.5q45 0 78 42.5t45 113.5l43 269q19 5 37.5 6.5t40.5 1.5zM384 619q-23 -8 -52 -8q-30 0 -50 8l-82 199q16 5 32 6.5t35 1.5t35 -1.5t30 -6.5z" />
    <glyph glyph-name="uacute" unicode="&#xfa;" horiz-adv-x="590" 
d="M489 559q22 0 39.5 -1.5t34.5 -6.5l-86 -547q-17 -5 -33 -6.5t-35 -1.5t-34 1.5t-30 6.5l2 67q-34 -42 -76 -64.5t-90 -22.5q-33 0 -60 11t-46 30.5t-29.5 47.5t-9.5 63q0 16 4.5 53t12.5 90t19 122t25 150q19 5 37.5 6.5t40.5 1.5t39.5 -1.5t34.5 -6.5
q-25 -152 -39.5 -249t-15.5 -119q-1 -28 13.5 -42.5t37.5 -14.5q45 0 78 42.5t45 113.5l43 269q19 5 37.5 6.5t40.5 1.5zM461 826q21 0 38 -1.5t33 -6.5l-148 -199q-14 -5 -27 -6.5t-30 -1.5t-30 1.5t-25 6.5l116 199q17 5 34.5 6.5t38.5 1.5z" />
    <glyph glyph-name="ucircumflex" unicode="&#xfb;" horiz-adv-x="590" 
d="M489 559q22 0 39.5 -1.5t34.5 -6.5l-86 -547q-17 -5 -33 -6.5t-35 -1.5t-34 1.5t-30 6.5l2 67q-34 -42 -76 -64.5t-90 -22.5q-33 0 -60 11t-46 30.5t-29.5 47.5t-9.5 63q0 16 4.5 53t12.5 90t19 122t25 150q19 5 37.5 6.5t40.5 1.5t39.5 -1.5t34.5 -6.5
q-25 -152 -39.5 -249t-15.5 -119q-1 -28 13.5 -42.5t37.5 -14.5q45 0 78 42.5t45 113.5l43 269q19 5 37.5 6.5t40.5 1.5zM497 618q-23 -8 -51 -8q-30 0 -50 8l-42 114l-77 -114q-23 -8 -51 -8q-30 0 -50 8l118 200q19 5 36.5 6.5t39.5 1.5t39.5 -1.5t34.5 -6.5z" />
    <glyph glyph-name="udieresis" unicode="&#xfc;" horiz-adv-x="590" 
d="M489 559q22 0 39.5 -1.5t34.5 -6.5l-86 -547q-17 -5 -33 -6.5t-35 -1.5t-34 1.5t-30 6.5l2 67q-34 -42 -76 -64.5t-90 -22.5q-33 0 -60 11t-46 30.5t-29.5 47.5t-9.5 63q0 16 4.5 53t12.5 90t19 122t25 150q19 5 37.5 6.5t40.5 1.5t39.5 -1.5t34.5 -6.5
q-25 -152 -39.5 -249t-15.5 -119q-1 -28 13.5 -42.5t37.5 -14.5q45 0 78 42.5t45 113.5l43 269q19 5 37.5 6.5t40.5 1.5zM229 616q-20 0 -37 1.5t-34 6.5q-2 15 -1 29.5t4 32.5t7 32.5t10 29.5q18 5 35.5 6.5t37.5 1.5t37 -1.5t34 -6.5q3 -28 -3 -62q-3 -18 -7 -32.5
t-10 -29.5q-18 -5 -35.5 -6.5t-37.5 -1.5zM445 616q-20 0 -37 1.5t-34 6.5q-2 15 -1 29.5t4 32.5t7 32.5t10 29.5q18 5 35.5 6.5t37.5 1.5t37 -1.5t34 -6.5q3 -28 -3 -62q-3 -18 -7 -32.5t-10 -29.5q-18 -5 -35.5 -6.5t-37.5 -1.5z" />
    <glyph glyph-name="yacute" unicode="&#xfd;" horiz-adv-x="591" 
d="M490 559q22 0 39.5 -1.5t34.5 -6.5l-87 -554q-12 -74 -43 -120.5t-72 -73.5t-85.5 -37t-83.5 -10q-66 0 -122.5 14t-95.5 38q0 15 4.5 31t12.5 33t17.5 31.5t20.5 22.5q34 -19 76 -31.5t87 -12.5q21 0 42.5 4t39.5 16t31 35t19 61l14 88q-33 -35 -72.5 -53.5t-84.5 -18.5
q-33 0 -59.5 10t-45.5 28.5t-29.5 43.5t-9.5 55q1 32 16.5 137t43.5 263q19 5 37.5 6.5t40.5 1.5t39.5 -1.5t34.5 -6.5q-25 -149 -39 -240.5t-15 -112.5q-1 -18 13 -30t37 -12q46 0 80 40t46 103l40 252q19 5 37.5 6.5t40.5 1.5zM467 826q21 0 38 -1.5t33 -6.5l-148 -199
q-14 -5 -27 -6.5t-30 -1.5t-30 1.5t-25 6.5l116 199q17 5 34.5 6.5t38.5 1.5z" />
    <glyph glyph-name="ydieresis" unicode="&#xff;" horiz-adv-x="591" 
d="M490 559q22 0 39.5 -1.5t34.5 -6.5l-87 -554q-12 -74 -43 -120.5t-72 -73.5t-85.5 -37t-83.5 -10q-66 0 -122.5 14t-95.5 38q0 15 4.5 31t12.5 33t17.5 31.5t20.5 22.5q34 -19 76 -31.5t87 -12.5q21 0 42.5 4t39.5 16t31 35t19 61l14 88q-33 -35 -72.5 -53.5t-84.5 -18.5
q-33 0 -59.5 10t-45.5 28.5t-29.5 43.5t-9.5 55q1 32 16.5 137t43.5 263q19 5 37.5 6.5t40.5 1.5t39.5 -1.5t34.5 -6.5q-25 -149 -39 -240.5t-15 -112.5q-1 -18 13 -30t37 -12q46 0 80 40t46 103l40 252q19 5 37.5 6.5t40.5 1.5zM235 616q-20 0 -37 1.5t-34 6.5
q-2 15 -1 29.5t4 32.5t7 32.5t10 29.5q18 5 35.5 6.5t37.5 1.5t37 -1.5t34 -6.5q3 -28 -3 -62q-3 -18 -7 -32.5t-10 -29.5q-18 -5 -35.5 -6.5t-37.5 -1.5zM451 616q-20 0 -37 1.5t-34 6.5q-2 15 -1 29.5t4 32.5t7 32.5t10 29.5q18 5 35.5 6.5t37.5 1.5t37 -1.5t34 -6.5
q3 -28 -3 -62q-3 -18 -7 -32.5t-10 -29.5q-18 -5 -35.5 -6.5t-37.5 -1.5z" />
    <glyph glyph-name="zcaron" unicode="&#x17e;" horiz-adv-x="535" 
d="M524 555q1 -6 1 -11.5v-10.5q0 -13 -1 -23.5t-3 -21.5q-2 -13 -9 -29.5t-18 -29.5l-279 -299h247q1 -5 1 -10.5v-10.5q0 -21 -4 -44q-3 -19 -7 -34t-11 -31h-447q-1 6 -1.5 11.5t-0.5 11.5q0 14 3 34q3 17 6.5 30t10.5 27l292 311h-238q-1 5 -1 10.5v10.5q0 21 4 44
q3 19 7 34t11 31h437v0zM458 826q30 0 50 -8l-118 -200q-19 -5 -36.5 -6.5t-39.5 -1.5t-39.5 1.5t-34.5 6.5l-53 200q23 8 51 8q30 0 50 -8l42 -114l77 114q23 8 51 8z" />
    <glyph glyph-name="ordfeminine" unicode="&#xaa;" horiz-adv-x="562" 
d="M496 736q31 0 56 -7l-74 -462q-25 -7 -57 -7t-56 7l2 48q-29 -29 -66 -45t-82 -16q-67 0 -107 47t-40 132q0 69 16 126t45.5 98t70.5 63.5t92 22.5q42 0 74 -18t52 -51l16 55q27 7 58 7zM279 376q24 0 43.5 11.5t34 32t22 49t7.5 62.5q0 43 -18 66.5t-47 23.5
q-24 0 -44 -12t-34.5 -34t-22 -52t-7.5 -66q0 -39 18.5 -60t47.5 -21z" />
    <glyph glyph-name="ordmasculine" unicode="&#xba;" horiz-adv-x="544" 
d="M273 252q-45 0 -81.5 12.5t-63 38t-41 65t-14.5 93.5q0 59 15.5 110.5t47.5 89.5t80 60t114 22q45 0 81.5 -12t62.5 -37.5t40.5 -64.5t14.5 -92q0 -60 -15.5 -112t-47 -90.5t-80 -60.5t-113.5 -22zM285 374q28 0 48 13t32 34t17.5 48t5.5 54q0 49 -16.5 74t-54.5 25
q-29 0 -48.5 -13t-31.5 -34.5t-17.5 -48.5t-5.5 -55q0 -48 16.5 -72.5t54.5 -24.5z" />
    <glyph glyph-name="ampersand" unicode="&#x26;" horiz-adv-x="741" 
d="M706 380q-51 -160 -119 -251q26 -28 54.5 -59t59.5 -65q-23 -8 -44.5 -10.5t-47.5 -2.5t-46.5 2.5t-40.5 10.5h1q-8 9 -15.5 17.5t-15.5 16.5q-84 -53 -207 -53q-60 0 -107.5 13t-81 38t-51.5 61.5t-18 84.5q0 42 13.5 73t36 54.5t52.5 40.5t63 31q-31 45 -48 87t-17 81
q0 41 17 76.5t49.5 62t78.5 41.5t104 15q47 0 86.5 -10t68.5 -31.5t45 -54.5t16 -79q0 -49 -17.5 -84.5t-46 -61t-65.5 -43.5t-75 -32q23 -27 52 -59t64 -70q17 29 33 68.5t33 91.5q17 6 33.5 8t36.5 2t36 -2t30 -8zM282 536q0 -44 42 -105q25 10 47 21t38.5 25.5t25.5 32
t9 40.5q0 35 -23.5 51.5t-55.5 16.5q-44 0 -63.5 -25.5t-19.5 -56.5zM308 119q58 0 96 14q-41 44 -79 85t-70 80q-34 -17 -55 -38.5t-21 -54.5q0 -41 29 -63.5t100 -22.5z" />
    <glyph glyph-name="period" unicode="." horiz-adv-x="269" 
d="M85 -5q-22 0 -40 2t-35 7q-2 14 0 36t4 38q4 21 8 38.5t12 34.5q19 5 37 7t40 2t40 -2t35 -7q2 -14 0 -36t-4 -37q-4 -22 -8 -39.5t-12 -34.5q-19 -5 -37 -7t-40 -2z" />
    <glyph glyph-name="comma" unicode="," horiz-adv-x="268" 
d="M185 151q1 -6 1 -12.5v-19.5q0 -27 -7.5 -62t-24.5 -63l-69 -126q-12 -5 -23.5 -6.5t-25.5 -1.5q-26 0 -45 8l52 129q-10 2 -18.5 3.5t-16.5 3.5q0 18 2 38.5t5.5 40.5t8 38t9.5 30q19 5 37.5 7t40.5 2t39.5 -2t34.5 -7z" />
    <glyph glyph-name="colon" unicode=":" horiz-adv-x="293" 
d="M154 379q-22 0 -40 2t-35 7q-2 14 0 36t4 38q4 21 8 38.5t12 34.5q19 5 37 7t40 2t40 -2t35 -7q2 -14 0 -36t-4 -37q-4 -22 -8 -39.5t-12 -34.5q-19 -5 -37 -7t-40 -2zM99 -5q-22 0 -40 2t-35 7q-2 14 0 36t4 38q4 21 8 38.5t12 34.5q19 5 37 7t40 2t40 -2t35 -7
q2 -14 0 -36t-4 -37q-4 -22 -8 -39.5t-12 -34.5q-19 -5 -37 -7t-40 -2z" />
    <glyph glyph-name="semicolon" unicode=";" horiz-adv-x="298" 
d="M253 535q2 -14 0 -36t-4 -37q-4 -22 -8 -39.5t-12 -34.5q-19 -5 -37 -7t-40 -2t-40 2t-35 7q-2 14 0 36t4 38q4 21 8 38.5t12 34.5q19 5 37 7t40 2t40 -2t35 -7zM130 160q22 0 39.5 -2t34.5 -7q1 -6 1 -12.5v-19.5q0 -27 -7.5 -62t-24.5 -63l-69 -126q-12 -5 -23.5 -6.5
t-25.5 -1.5q-26 0 -45 8l52 129q-10 2 -18.5 3.5t-16.5 3.5q0 18 2 38.5t5.5 40.5t8 38t9.5 30q19 5 37.5 7t40.5 2z" />
    <glyph glyph-name="ellipsis" unicode="&#x2026;" horiz-adv-x="783" 
d="M85 -5q-22 0 -40 2t-35 7q-2 14 0 36t4 38q4 21 8 38.5t12 34.5q19 5 37 7t40 2t40 -2t35 -7q2 -14 0 -36t-4 -37q-4 -22 -8 -39.5t-12 -34.5q-19 -5 -37 -7t-40 -2zM342 -5q-22 0 -40 2t-35 7q-2 14 0 36t4 38q4 21 8 38.5t12 34.5q19 5 37 7t40 2t40 -2t35 -7
q2 -14 0 -36t-4 -37q-4 -22 -8 -39.5t-12 -34.5q-19 -5 -37 -7t-40 -2zM599 -5q-22 0 -40 2t-35 7q-2 14 0 36t4 38q4 21 8 38.5t12 34.5q19 5 37 7t40 2t40 -2t35 -7q2 -14 0 -36t-4 -37q-4 -22 -8 -39.5t-12 -34.5q-19 -5 -37 -7t-40 -2z" />
    <glyph glyph-name="exclam" unicode="!" horiz-adv-x="294" 
d="M215 737q22 0 39.5 -1.5t34.5 -6.5l-92 -514q-16 -5 -31.5 -7t-34.5 -2t-34 2t-30 7l70 514q19 5 37.5 6.5t40.5 1.5zM117 140q19 0 34.5 -2t30.5 -7q2 -20 1 -33t-3 -30q-3 -19 -7 -34t-11 -30q-17 -5 -33 -7t-35 -2t-34 2t-30 7q-2 20 -1 33.5t3 30.5q3 18 7 33t11 30
q17 5 32.5 7t34.5 2z" />
    <glyph glyph-name="exclamdown" unicode="&#xa1;" horiz-adv-x="283" 
d="M247 551q2 -20 1 -33.5t-3 -30.5q-3 -18 -7 -33t-11 -30q-17 -5 -32.5 -7t-34.5 -2t-34.5 2t-30.5 7q-2 20 -1 33t3 30q3 19 7 34t11 30q17 5 33 7t35 2t34 -2t30 -7zM80 340q16 5 31.5 7t34.5 2t34 -2t30 -7l-70 -514q-19 -5 -37.5 -6.5t-40.5 -1.5t-39.5 1.5t-34.5 6.5
z" />
    <glyph glyph-name="question" unicode="?" horiz-adv-x="542" 
d="M300 745q117 0 180 -50t63 -139q0 -51 -18.5 -86t-46.5 -61.5t-60.5 -47t-60.5 -42.5t-46.5 -48.5t-18.5 -63.5q-18 -5 -35 -6.5t-37 -1.5q-21 0 -37.5 1.5t-33.5 6.5q0 55 17 92t42 62t54.5 43t54.5 35t42 37.5t17 52.5q0 74 -104 74q-37 0 -75.5 -9t-68.5 -26
q-17 22 -30 55q-6 17 -10 32t-6 31q42 29 99 44t119 15zM216 140q19 0 34 -2t30 -7q2 -20 1 -33t-3 -30q-3 -19 -7 -34t-11 -30q-17 -5 -32.5 -7t-34.5 -2t-34.5 2t-30.5 7q-2 20 -1 33.5t3 30.5q3 18 7 33t11 30q17 5 33 7t35 2z" />
    <glyph glyph-name="questiondown" unicode="&#xbf;" horiz-adv-x="536" 
d="M311 415q-19 0 -34 2t-30 7q-2 20 -1 33t3 30q3 19 7 34t11 30q17 5 32.5 7t34.5 2t34.5 -2t30.5 -7q2 -20 1 -33.5t-3 -30.5q-3 -18 -7 -33t-11 -30q-17 -5 -33 -7t-35 -2zM429 -68q6 -17 10 -32t6 -31q-42 -29 -99 -44t-119 -15q-117 0 -180 50t-63 139q0 51 18.5 86
t46.5 61.5t60.5 47t60.5 42.5t46.5 48t18.5 64q18 5 35 6.5t37 1.5q21 0 37.5 -1.5t33.5 -6.5q0 -55 -17 -92t-42 -62t-54.5 -43t-54.5 -35t-42 -38t-17 -52q0 -74 104 -74q37 0 75.5 9t68.5 26q9 -12 16 -25t14 -30z" />
    <glyph glyph-name="quotesingle" unicode="'" horiz-adv-x="226" 
d="M178 733q18 0 33 -1.5t29 -6.5l-58 -280q-23 -8 -51 -8t-48 8l30 280q16 5 31 6.5t34 1.5z" />
    <glyph glyph-name="quotedbl" unicode="&#x22;" horiz-adv-x="412" 
d="M113 725q16 5 31 6.5t34 1.5q18 0 33 -1.5t29 -6.5l-58 -280q-23 -8 -51 -8t-48 8zM364 733q18 0 33 -1.5t29 -6.5l-58 -280q-23 -8 -51 -8t-48 8l30 280q16 5 31 6.5t34 1.5z" />
    <glyph glyph-name="quoteleft" unicode="&#x2018;" horiz-adv-x="259" 
d="M215 605q10 -2 18.5 -3.5t16.5 -3.5q0 -18 -2 -38.5t-5.5 -40.5t-8 -38t-9.5 -30q-19 -5 -37.5 -7t-40.5 -2t-39.5 2t-34.5 7q-1 6 -1 12.5v19.5q0 27 7.5 62t24.5 63l69 126q12 5 23.5 6.5t25.5 1.5q26 0 45 -8z" />
    <glyph glyph-name="quoteright" unicode="&#x2019;" horiz-adv-x="255" 
d="M273 731q1 -6 1 -12.5v-19.5q0 -27 -7.5 -62t-24.5 -63l-69 -126q-12 -5 -23.5 -6.5t-25.5 -1.5q-26 0 -45 8l52 129q-10 2 -18.5 3.5t-16.5 3.5q0 18 2 38.5t5.5 40.5t8 38t9.5 30q19 5 37.5 7t40.5 2t39.5 -2t34.5 -7z" />
    <glyph glyph-name="quotedblleft" unicode="&#x201c;" horiz-adv-x="474" 
d="M222 740q26 0 45 -8l-52 -129q10 -2 18.5 -3.5t16.5 -3.5q0 -18 -2 -38.5t-5.5 -40.5t-8 -38t-9.5 -30q-19 -5 -37.5 -7t-40.5 -2t-39.5 2t-34.5 7q-1 6 -1 12.5v19.5q0 27 7.5 62t24.5 63l69 126q12 5 23.5 6.5t25.5 1.5zM429 603q10 -2 18.5 -3.5t16.5 -3.5
q0 -18 -2 -38.5t-5.5 -40.5t-8 -38t-9.5 -30q-19 -5 -37.5 -7t-40.5 -2t-39.5 2t-34.5 7q-1 6 -1 12.5v19.5q0 27 7.5 62t24.5 63l69 126q12 5 23.5 6.5t25.5 1.5q26 0 45 -8z" />
    <glyph glyph-name="quotedblright" unicode="&#x201d;" horiz-adv-x="470" 
d="M199 740q22 0 39.5 -2t34.5 -7q1 -6 1 -12.5v-19.5q0 -27 -7.5 -62t-24.5 -63l-69 -126q-12 -5 -23.5 -6.5t-25.5 -1.5q-26 0 -45 8l52 129q-10 2 -18.5 3.5t-16.5 3.5q0 18 2 38.5t5.5 40.5t8 38t9.5 30q19 5 37.5 7t40.5 2zM488 731q1 -6 1 -12.5v-19.5q0 -27 -7.5 -62
t-24.5 -63l-69 -126q-12 -5 -23.5 -6.5t-25.5 -1.5q-26 0 -45 8l52 129q-10 2 -18.5 3.5t-16.5 3.5q0 18 2 38.5t5.5 40.5t8 38t9.5 30q19 5 37.5 7t40.5 2t39.5 -2t34.5 -7z" />
    <glyph glyph-name="quotesinglbase" unicode="&#x201a;" horiz-adv-x="268" 
d="M185 151q1 -6 1 -12.5v-19.5q0 -27 -7.5 -62t-24.5 -63l-69 -126q-12 -5 -23.5 -6.5t-25.5 -1.5q-26 0 -45 8l52 129q-10 2 -18.5 3.5t-16.5 3.5q0 18 2 38.5t5.5 40.5t8 38t9.5 30q19 5 37.5 7t40.5 2t39.5 -2t34.5 -7z" />
    <glyph glyph-name="quotedblbase" unicode="&#x201e;" horiz-adv-x="483" 
d="M111 160q22 0 39.5 -2t34.5 -7q1 -6 1 -12.5v-19.5q0 -27 -7.5 -62t-24.5 -63l-69 -126q-12 -5 -23.5 -6.5t-25.5 -1.5q-26 0 -45 8l52 129q-10 2 -18.5 3.5t-16.5 3.5q0 18 2 38.5t5.5 40.5t8 38t9.5 30q19 5 37.5 7t40.5 2zM400 151q1 -6 1 -12.5v-19.5q0 -27 -7.5 -62
t-24.5 -63l-69 -126q-12 -5 -23.5 -6.5t-25.5 -1.5q-26 0 -45 8l52 129q-10 2 -18.5 3.5t-16.5 3.5q0 18 2 38.5t5.5 40.5t8 38t9.5 30q19 5 37.5 7t40.5 2t39.5 -2t34.5 -7z" />
    <glyph glyph-name="guilsinglleft" unicode="&#x2039;" horiz-adv-x="388" 
d="M371 580q2 -15 0 -37.5t-4 -38.5q-4 -22 -8 -40t-12 -36l-180 -101l148 -102q2 -13 0 -37t-4 -39q-4 -21 -8 -39t-12 -36l-264 182q-1 6 -1 16t0.5 20.5t1.5 19.5t2 15q6 38 19 71l322 182v0z" />
    <glyph glyph-name="guilsinglright" unicode="&#x203a;" horiz-adv-x="388" 
d="M365 398q1 -6 1 -16t-0.5 -20.5t-1.5 -19.5t-2 -15q-6 -38 -19 -71l-322 -182q-2 15 0 37.5t4 38.5q4 22 8 40t12 36l180 101l-148 102q-2 13 0 37t4 39q4 21 8 39t12 36l264 -182v0z" />
    <glyph glyph-name="guillemotleft" unicode="&#xab;" horiz-adv-x="730" 
d="M371 580q2 -15 0 -37.5t-4 -38.5q-4 -22 -8 -40t-12 -36l-180 -101l148 -102q2 -13 0 -37t-4 -39q-4 -21 -8 -39t-12 -36l-264 182q-1 6 -1 16t0.5 20.5t1.5 19.5t2 15q6 38 19 71zM713 580q2 -15 0 -37.5t-4 -38.5q-4 -22 -8 -40t-12 -36l-180 -101l148 -102
q2 -13 0 -37t-4 -39q-4 -21 -8 -39t-12 -36l-264 182q-1 6 -1 16t0.5 20.5t1.5 19.5t2 15q6 38 19 71z" />
    <glyph glyph-name="guillemotright" unicode="&#xbb;" horiz-adv-x="731" 
d="M365 398q1 -6 1 -16t-0.5 -20.5t-1.5 -19.5t-2 -15q-6 -38 -19 -71l-322 -182q-2 15 0 37.5t4 38.5q4 22 8 40t12 36l180 101l-148 102q-2 13 0 37t4 39q4 21 8 39t12 36zM708 398q1 -6 1 -16t-0.5 -20.5t-1.5 -19.5t-2 -15q-6 -38 -19 -71l-322 -182q-2 15 0 37.5
t4 38.5q4 22 8 40t12 36l180 101l-148 102q-2 13 0 37t4 39q4 21 8 39t12 36z" />
    <glyph glyph-name="hyphen" unicode="-" horiz-adv-x="464" 
d="M408 384q2 -16 1.5 -31t-3.5 -34t-7 -34.5t-11 -31.5h-331q-2 16 -1.5 31t3.5 34t7 34.5t11 31.5h331v0z" />
    <glyph glyph-name="uni00AD" unicode="&#xad;" horiz-adv-x="464" 
d="M408 384q2 -16 1.5 -31t-3.5 -34t-7 -34.5t-11 -31.5h-331q-2 16 -1.5 31t3.5 34t7 34.5t11 31.5h331v0z" />
    <glyph glyph-name="endash" unicode="&#x2013;" horiz-adv-x="638" 
d="M582 384q2 -16 1.5 -31t-3.5 -34t-7 -34.5t-11 -31.5h-505q-2 16 -1.5 31t3.5 34t7 34.5t11 31.5h505v0z" />
    <glyph glyph-name="emdash" unicode="&#x2014;" horiz-adv-x="958" 
d="M901 384q2 -16 1.5 -31t-3.5 -34t-7 -34.5t-11 -31.5h-824q-2 16 -1.5 31t3.5 34t7 34.5t11 31.5h824v0z" />
    <glyph glyph-name="periodcentered" unicode="&#xb7;" horiz-adv-x="281" 
d="M135 286q-22 0 -40 2t-35 7q-2 17 -1 34.5t5 39.5q4 21 8 38.5t12 34.5q19 5 37 7t40 2t40 -2t35 -7q2 -17 1 -34.5t-5 -38.5q-4 -22 -8 -39.5t-12 -34.5q-19 -5 -37 -7t-40 -2z" />
    <glyph glyph-name="bullet" unicode="&#x2022;" horiz-adv-x="453" 
d="M210 218q-39 0 -71 3t-63 13q-4 32 -1.5 63.5t8.5 71.5q6 39 14 71.5t21 63.5q34 10 67.5 13t72.5 3t71 -3t63 -13q4 -31 1.5 -63.5t-8.5 -71.5q-6 -40 -14 -71.5t-21 -63.5q-34 -10 -67.5 -13t-72.5 -3z" />
    <glyph glyph-name="uni2219" unicode="&#x2219;" horiz-adv-x="291" 
d="M140 286q-22 0 -40 2t-35 7q-2 17 -1 34.5t5 39.5q4 21 8 38.5t12 34.5q19 5 37 7t40 2t40 -2t35 -7q2 -17 1 -34.5t-5 -38.5q-4 -22 -8 -39.5t-12 -34.5q-19 -5 -37 -7t-40 -2z" />
    <glyph glyph-name="underscore" unicode="_" horiz-adv-x="559" 
d="M489 -72q2 -16 1.5 -31t-3.5 -34t-7 -34.5t-11 -30.5v-2h-543q-2 16 -1.5 31t3.5 34t7 34.5t11 30.5v2h543v0z" />
    <glyph glyph-name="slash" unicode="/" horiz-adv-x="439" 
d="M411 770q20 0 37 -1.5t34 -6.5l-377 -865q-18 -5 -35.5 -6.5t-37.5 -1.5q-21 0 -38 1.5t-34 6.5l377 865q18 5 35.5 6.5t38.5 1.5z" />
    <glyph glyph-name="backslash" unicode="\" horiz-adv-x="412" 
d="M325 -103q-16 -5 -32 -6.5t-35 -1.5t-34 1.5t-31 6.5h1l-102 865q16 5 32 6.5t36 1.5q19 0 34 -1.5t31 -6.5z" />
    <glyph glyph-name="uni2215" unicode="&#x2215;" horiz-adv-x="443" 
d="M445 770q20 0 37 -1.5t34 -6.5l-428 -796q-18 -5 -36 -6.5t-38 -1.5t-37 1.5t-34 6.5l428 796q18 5 36 6.5t38 1.5z" />
    <glyph glyph-name="fraction" unicode="&#x2044;" horiz-adv-x="443" 
d="M445 770q20 0 37 -1.5t34 -6.5l-428 -796q-18 -5 -36 -6.5t-38 -1.5t-37 1.5t-34 6.5l428 796q18 5 36 6.5t38 1.5z" />
    <glyph glyph-name="bar" unicode="|" horiz-adv-x="343" 
d="M179 835q20 0 36.5 -1.5t33.5 -6.5v-930q-17 -5 -33.5 -6.5t-36.5 -1.5t-36.5 1.5t-33.5 6.5v930q17 5 33.5 6.5t36.5 1.5z" />
    <glyph glyph-name="brokenbar" unicode="&#xa6;" horiz-adv-x="340" 
d="M177 835q20 0 36.5 -1.5t33.5 -6.5v-402q-17 -5 -33.5 -6.5t-36.5 -1.5t-36.5 1.5t-33.5 6.5v402q17 5 33.5 6.5t36.5 1.5zM107 296q17 5 33.5 6.5t36.5 1.5t36.5 -1.5t33.5 -6.5v-402q-17 -5 -33.5 -6.5t-36.5 -1.5t-36.5 1.5t-33.5 6.5v402z" />
    <glyph glyph-name="parenleft" unicode="(" horiz-adv-x="333" 
d="M392 786q-107 -121 -165 -248t-58 -270q0 -93 23.5 -172t70.5 -154q-22 -22 -53 -41q-16 -10 -30 -17t-28 -12q-29 45 -50 89.5t-35 91.5t-20.5 97t-6.5 107q0 171 65.5 319.5t185.5 283.5q16 -5 29.5 -12t27.5 -17q14 -11 24.5 -21.5t19.5 -23.5z" />
    <glyph glyph-name="parenright" unicode=")" horiz-adv-x="333" 
d="M196 852q29 -45 50 -89.5t35 -91.5t20.5 -97t6.5 -107q0 -171 -65.5 -319.5t-185.5 -283.5q-16 5 -29.5 12t-27.5 17q-14 11 -24.5 21.5t-19.5 23.5q107 121 165 248t58 270q0 93 -23.5 172t-70.5 154q12 12 24.5 21.5t28.5 19.5t30 17t28 12z" />
    <glyph glyph-name="bracketleft" unicode="[" horiz-adv-x="351" 
d="M396 826q2 -15 2 -30t-3 -33q-3 -17 -7 -32t-11 -30h-108l-108 -678h108q2 -15 1 -30t-3 -33q-4 -34 -17 -62h-238l146 928h238v0z" />
    <glyph glyph-name="bracketright" unicode="]" horiz-adv-x="352" 
d="M355 826l-146 -928h-238q-2 15 -2 30t3 33q3 17 7 32t11 30h108l108 678h-108q-2 15 -1 30t3 33q4 34 17 62h238z" />
    <glyph glyph-name="braceleft" unicode="{" horiz-adv-x="387" 
d="M434 834q2 -15 1.5 -28.5t-2.5 -28.5q-6 -37 -17 -66q-50 -3 -76 -24t-34 -66l-14 -88q-5 -31 -14.5 -59t-26.5 -50.5t-44 -38.5t-67 -23q59 -13 80.5 -44t21.5 -76q0 -16 -3.5 -41t-7 -50.5t-7 -46.5t-3.5 -29q0 -33 19.5 -48.5t61.5 -17.5q4 -17 2.5 -31.5t-3.5 -29.5
q-4 -32 -17 -57q-99 1 -150.5 44t-51.5 121q0 15 3 36.5t7 44t7 44t3 37.5q0 44 -20 64t-69 24q-4 26 -1 57q2 16 6 29t11 27q31 2 53 10t37 23.5t24 39.5t15 59l12 95q15 87 77.5 137.5t186.5 50.5z" />
    <glyph glyph-name="braceright" unicode="}" horiz-adv-x="388" 
d="M389 419q4 -26 1 -57q-2 -16 -6 -29t-11 -27q-32 -2 -53.5 -10t-36.5 -23.5t-24 -40t-15 -58.5l-12 -95q-15 -87 -77.5 -137.5t-186.5 -50.5q-2 15 -1.5 28.5t2.5 28.5q6 37 17 66q50 3 76 24t34 66l14 88q5 31 14 59t26.5 50.5t44.5 38t67 23.5q-59 13 -80.5 44
t-21.5 76q0 16 3.5 41t7 50.5t7 46.5t3.5 29q0 33 -19.5 48.5t-61.5 17.5q-4 17 -2.5 31.5t3.5 29.5q4 32 17 57q99 -1 150.5 -44t51.5 -121q0 -15 -3 -36.5t-7 -44t-7 -44t-3 -37.5q0 -44 20 -64t69 -24z" />
    <glyph glyph-name="asterisk" unicode="*" horiz-adv-x="504" 
d="M180 310q-15 5 -28 11.5t-27 17.5q-26 19 -42 42l117 111l-138 29q3 16 8 31t14 32t17 31t19 27l129 -56l8 143q16 5 31 6.5t33 1.5t33 -1.5t30 -6.5l-37 -143l140 56q7 -13 10.5 -27t7.5 -31q4 -29 1 -63l-145 -29l78 -111q-22 -23 -55 -42q-16 -10 -30 -16.5t-29 -11.5
l-52 122l-93 -123v0z" />
    <glyph glyph-name="dagger" unicode="&#x2020;" 
d="M584 555q2 -16 1.5 -31t-3.5 -34t-7 -34t-11 -31h-155l-93 -585q-19 -5 -37 -6.5t-40 -1.5t-40 1.5t-35 6.5l93 585h-157q-2 16 -1.5 31t3.5 34t7 34t11 31h157l27 170q19 5 37 6.5t40 1.5t40 -1.5t35 -6.5l-27 -170h155v0z" />
    <glyph glyph-name="daggerdbl" unicode="&#x2021;" 
d="M584 555q2 -16 1.5 -31t-3.5 -34t-7 -34t-11 -31h-155l-27 -170h155q3 -29 -3 -65q-3 -19 -7 -34t-11 -31h-155l-45 -285q-19 -5 -37 -6.5t-40 -1.5t-40 1.5t-35 6.5l45 285h-157q-2 16 -1.5 31t3.5 34t7 34t12 31h157l27 170h-157q-2 16 -1.5 31t3.5 34t7 34t11 31h157
l27 170q19 5 37 6.5t40 1.5t40 -1.5t35 -6.5l-27 -170h155v0z" />
    <glyph glyph-name="section" unicode="&#xa7;" horiz-adv-x="543" 
d="M327 619q-37 0 -59 -9t-22 -27q0 -11 7.5 -18t20.5 -12t30 -9.5t36 -9.5q26 -8 53.5 -18.5t49.5 -29t36 -47t14 -71.5q0 -39 -12.5 -69.5t-35.5 -53.5q14 -15 22 -35t8 -48q0 -45 -19 -78.5t-52.5 -55.5t-79.5 -33t-100 -11q-61 0 -118.5 14t-96.5 34q6 31 23 64
q10 17 19 30t22 25q42 -20 80 -30.5t82 -10.5q45 0 64.5 11.5t19.5 31.5q0 25 -26 35.5t-62 18.5q-27 6 -56.5 15t-53.5 25.5t-39.5 44.5t-15.5 73q0 42 15.5 73t41.5 54q-14 16 -23 36.5t-9 48.5q0 38 17.5 69t50 53t78.5 34t103 12t105 -13t82 -30q-2 -16 -7.5 -30
t-13.5 -31t-17.5 -29.5t-23.5 -24.5q-17 9 -50.5 20.5t-87.5 11.5zM268 421q-13 5 -26 9t-26 9q-9 -11 -14.5 -24t-5.5 -28q0 -32 25.5 -47.5t62.5 -25.5q17 -5 34.5 -9.5t34.5 -9.5q14 18 14 42q0 17 -8 30t-21.5 22.5t-31.5 17t-38 14.5z" />
    <glyph glyph-name="paragraph" unicode="&#xb6;" horiz-adv-x="660" 
d="M580 733q20 0 35.5 -1.5t30.5 -6.5l-115 -721q-17 -5 -33 -6.5t-36 -1.5t-36 1.5t-31 6.5l117 721q17 5 32.5 6.5t35.5 1.5zM436 729l-127 -789q-14 -85 -68 -134.5t-149 -49.5q-34 0 -66.5 7t-66.5 19q1 15 3.5 29t7.5 29q7 20 15 35.5t19 29.5q19 -8 42 -13t47 -5
q38 0 56.5 16t24.5 51l52 314q-85 5 -127 51t-42 125q0 12 1 25.5t3 27.5q18 112 85 172t176 60h114z" />
    <glyph glyph-name="copyright" unicode="&#xa9;" horiz-adv-x="927" 
d="M464 -102q-88 0 -165 33t-134 90t-90 134t-33 165t33 165t90 134t134 90t165 33t165 -33t134 -90t90 -134t33 -165t-33 -165t-90 -134t-134 -90t-165 -33zM464 -22q73 0 135 27t107.5 73.5t71.5 108.5t26 133t-26 133t-71.5 108.5t-107.5 73.5t-135 27t-135 -27
t-107.5 -73.5t-71.5 -108.5t-26 -133t26 -133t71.5 -108.5t107.5 -73.5t135 -27zM619 532q1 -21 -6 -46q-4 -12 -7.5 -21.5t-9.5 -18.5q-26 6 -57.5 11t-54.5 5t-44.5 -6t-38 -21t-27 -41.5t-10.5 -67.5q0 -40 8.5 -66.5t23 -42t34 -22t42.5 -6.5q35 0 69.5 7t62.5 15
q6 -9 10 -19t8 -22q3 -12 4 -22t1 -22q-12 -5 -30 -10.5t-39 -10.5t-44.5 -8.5t-45.5 -3.5q-110 0 -162.5 62t-52.5 171q0 53 15.5 96t44.5 73t70.5 46.5t94.5 16.5q22 0 44.5 -3t41.5 -7.5t33.5 -8.5t21.5 -7z" />
    <glyph glyph-name="registered" unicode="&#xae;" horiz-adv-x="927" 
d="M464 742q88 0 165 -33t134 -90t90 -134t33 -165t-33 -165t-90 -134t-134 -90t-165 -33t-165 33t-134 90t-90 134t-33 165t33 165t90 134t134 90t165 33zM464 -22q73 0 135 27t107.5 73.5t71.5 108.5t26 133t-26 133t-71.5 108.5t-107.5 73.5t-135 27t-135 -27
t-107.5 -73.5t-71.5 -108.5t-26 -133t26 -133t71.5 -108.5t107.5 -73.5t135 -27zM569 274q4 -5 10 -13t13 -17t13.5 -18t10.5 -15l70 -109q-15 -5 -30 -6.5t-33 -1.5t-33 1.5t-30 6.5l-87 151h-71v-151q-23 -8 -54 -8t-54 8v450h187q41 0 72 -11.5t52 -31.5t31.5 -47.5
t10.5 -59.5q0 -26 -7 -47t-18 -37t-25 -27t-28 -17zM477 340q26 0 43 14t17 45q0 29 -16 44t-44 15h-75v-118h75z" />
    <glyph glyph-name="trademark" unicode="&#x2122;" horiz-adv-x="807" 
d="M738 737q17 0 30 -1.5t27 -6.5l-37 -346q-12 -5 -24 -6.5t-26 -1.5q-27 0 -46 8l32 237l-95 -237q-17 -8 -39 -8q-20 0 -35 8l-21 237l-42 -237q-12 -5 -24 -6.5t-26 -1.5q-27 0 -46 8l71 346q15 5 30.5 6.5t32.5 1.5t31 -1.5t28 -6.5l20 -245l97 245q15 5 30 6.5t32 1.5
zM399 684q-3 -24 -15 -45h-97l-40 -256q-23 -8 -53 -8t-50 8l40 256h-97q-3 10 -3 21q0 6 0.5 12t1.5 12q2 13 5.5 23.5t9.5 21.5h297q3 -12 3 -23q0 -5 -0.5 -10.5t-1.5 -11.5z" />
    <glyph glyph-name="at" unicode="@" horiz-adv-x="983" 
d="M554 777q94 0 168 -22.5t125.5 -66t78.5 -106.5t27 -145q0 -76 -18 -143t-53 -116.5t-88.5 -78t-123.5 -28.5q-61 0 -108 19l-6 60q-26 -34 -62 -54t-83 -20q-70 0 -106.5 44.5t-36.5 133.5q0 54 14 105.5t41.5 92t68 65.5t93.5 25q83 0 117 -63l11 38q9 3 22.5 4.5
t28.5 1.5q19 0 34.5 -1.5t24.5 -4.5l-53 -342q5 -1 8.5 -1h7.5q39 0 65 22t42 57t23 77.5t7 82.5q0 120 -71 184.5t-206 64.5q-91 0 -162 -33.5t-120 -90.5t-74.5 -133.5t-25.5 -162.5q0 -138 70.5 -208t207.5 -70q52 0 106 9t100 26q5 -11 8.5 -24t5.5 -26q2 -17 1 -32
t-3 -22q-46 -22 -109 -33.5t-133 -11.5q-187 0 -285.5 99.5t-98.5 285.5q0 117 35 216.5t101.5 172t163 113t220.5 40.5zM467 190q27 0 47 14t32.5 36.5t19 50.5t6.5 56q0 82 -65 82q-27 0 -47 -14t-32.5 -36.5t-18.5 -49.5t-6 -52q0 -87 64 -87z" />
    <glyph glyph-name="numbersign" unicode="#" 
d="M633 535q3 -11 3 -22q0 -6 -0.5 -12t-1.5 -13q-4 -26 -16 -48h-121l-43 -152h109q3 -11 3 -21q0 -11 -3 -26q-4 -28 -15 -48h-121l-54 -189q-12 -5 -24 -6.5t-26 -1.5q-29 0 -48 8l54 189h-109l-53 -189q-12 -5 -24 -6.5t-26 -1.5q-29 0 -48 8l53 189h-109v-1
q-3 12 -3 25q0 5 0.5 11t1.5 12q4 26 16 48h121l43 152h-111q-3 10 -3 21q0 12 3 27q2 14 5.5 25t9.5 22h123l54 190q12 5 24 6.5t26 1.5q29 0 48 -8l-54 -190h109l54 190q12 5 24 6.5t26 1.5q29 0 48 -8l-54 -190h109zM399 440h-109l-43 -152h109z" />
    <glyph glyph-name="zero" unicode="0" 
d="M273 -16q-60 0 -105.5 19.5t-76 55.5t-45.5 86.5t-15 112.5q0 88 20 175.5t62 156.5t106.5 112t153.5 43q60 0 105.5 -19.5t76 -54.5t45.5 -85.5t15 -111.5q0 -89 -20 -176.5t-62 -157t-106.5 -113t-153.5 -43.5zM289 124q37 0 67 28t52 75t34 108.5t12 129.5
q0 69 -22 104.5t-76 35.5q-36 0 -66.5 -27.5t-52 -74t-33.5 -107.5t-12 -129q0 -69 22 -106t75 -37z" />
    <glyph glyph-name="one" unicode="1" 
d="M549 128q2 -20 1 -33t-3 -30q-3 -20 -7 -35t-11 -30h-491q-2 20 -1 33t4 32q4 35 17 63h170l69 433l-146 -37q-8 14 -14 29t-10 35q-4 21 -4.5 41t1.5 32l218 63q12 4 30 7.5t41 3.5q21 0 36.5 -2.5t28.5 -7.5l-95 -597h166v0z" />
    <glyph glyph-name="two" unicode="2" 
d="M536 140q1 -5 1 -10v-11q0 -11 -1 -23.5t-3 -25.5q-6 -39 -19 -70h-486q0 73 17 127t45 94.5t63.5 69.5t73 52t73 42t63.5 39.5t45 45t17 58.5q0 36 -23.5 55.5t-71.5 19.5q-42 0 -85.5 -18t-82.5 -41q-11 12 -20 26t-17 33q-11 25 -13.5 41.5t-4.5 28.5q23 15 51.5 28.5
t59.5 23t63 15t62 5.5q120 0 182.5 -54.5t62.5 -148.5q0 -61 -25.5 -106t-65 -79t-86.5 -60.5t-89.5 -50.5t-75 -49t-42.5 -57h332z" />
    <glyph glyph-name="three" unicode="3" 
d="M437 394q24 -8 45 -21.5t36 -33t24 -46t9 -61.5q0 -59 -22 -105t-63 -77t-98.5 -47t-128.5 -16q-79 0 -138 23t-94 53q6 16 15 30.5t20 31.5q11 16 22.5 28.5t23.5 24.5q35 -26 73 -39t83 -13q69 0 106 29t37 81q0 48 -28.5 69t-76.5 21h-102q-3 15 -2.5 31.5t2.5 27.5
q2 17 6 30.5t12 27.5h83q62 0 97.5 20t35.5 68q0 39 -24.5 57t-66.5 18q-78 0 -164 -52q-19 23 -32 57q-6 17 -10 32.5t-6 32.5q46 31 106.5 50t138.5 19q52 0 94.5 -12.5t72.5 -36t46 -58t16 -78.5q0 -62 -38 -105.5t-110 -60.5z" />
    <glyph glyph-name="four" unicode="4" 
d="M586 281q2 -13 0.5 -33t-3.5 -35q-3 -20 -7 -36t-12 -32h-93l-22 -141q-19 -5 -37 -6.5t-40 -1.5t-40 1.5t-35 6.5l22 141h-314q-2 14 0 35.5t4 35.5q3 20 7 37t12 34l394 438q17 5 34 6t37 1t37 -1t33 -6l-70 -444h93zM341 281l34 219l-193 -219h159z" />
    <glyph glyph-name="five" unicode="5" 
d="M591 729q2 -14 1 -32t-4 -35q-3 -18 -8 -36t-10 -31h-288l-25 -147q18 7 46 12.5t60 5.5q36 0 73 -9.5t66.5 -33.5t48 -64.5t18.5 -101.5q0 -63 -22 -113.5t-62.5 -86t-99 -54.5t-131.5 -19q-88 0 -150.5 22t-97.5 54q6 16 15 31t21 32t23 30t25 25q35 -23 73 -37.5
t89 -14.5q30 0 57.5 7.5t48 22t32.5 36t12 49.5q0 41 -27.5 68.5t-80.5 27.5q-26 0 -50 -7t-52 -18q-27 8 -52 24q-14 8 -25 16t-20 19l57 358h439v0z" />
    <glyph glyph-name="six" unicode="6" 
d="M370 460q51 0 91.5 -15t68 -42t42 -64.5t14.5 -81.5q0 -66 -21 -117t-59 -85.5t-90.5 -52.5t-114.5 -18q-130 0 -191.5 74t-61.5 216q0 87 19.5 171t64 151t116 108t175.5 41q54 0 99 -12t79 -29q-3 -16 -6 -31t-11 -33q-8 -19 -17 -34.5t-17 -27.5q-32 12 -62 19t-61 7
q-166 0 -207 -182q37 18 74.5 28t75.5 10zM314 122q54 0 85 33t31 92q0 39 -26 62.5t-77 23.5q-30 0 -61.5 -8t-60.5 -23v-30q0 -34 4.5 -62t17 -47.5t33.5 -30t54 -10.5z" />
    <glyph glyph-name="seven" unicode="7" 
d="M628 729q1 -9 1 -17.5v-16.5q0 -17 -1.5 -31.5t-3.5 -28.5q-4 -25 -11 -42.5t-22 -38.5q-73 -80 -129.5 -149t-98 -134.5t-67.5 -131.5t-38 -139q-19 -5 -39.5 -6.5t-41.5 -1.5q-22 0 -42.5 1.5t-37.5 6.5q13 80 41 154.5t71 146.5t101.5 144t131.5 148h-334
q-2 20 -1 35.5t4 32.5q3 20 7 36t11 32h499v0z" />
    <glyph glyph-name="eight" unicode="8" 
d="M452 388q25 -13 48 -29.5t40.5 -38t27.5 -49t10 -62.5q0 -54 -22 -95.5t-62.5 -70t-98 -43t-127.5 -14.5q-58 0 -105 13.5t-80 38.5t-51 60t-18 79t13.5 76.5t36.5 57t53.5 42t64.5 30.5q-39 26 -65.5 62.5t-26.5 95.5q0 52 20.5 90.5t58.5 63.5t90.5 37.5t117.5 12.5
q118 0 178.5 -48.5t60.5 -127.5q0 -38 -13 -66t-35.5 -49t-52 -37t-63.5 -29zM357 613q-56 0 -84 -20.5t-28 -54.5q0 -37 29.5 -59.5t72.5 -42.5q48 17 79 40.5t31 65.5q0 38 -27.5 54.5t-72.5 16.5zM287 119q63 0 96.5 24t33.5 65q0 23 -10.5 40.5t-27.5 32t-40 26
t-48 22.5q-49 -20 -82.5 -48.5t-33.5 -72.5q0 -49 31 -69t81 -20z" />
    <glyph glyph-name="nine" unicode="9" 
d="M344 745q64 0 112 -20.5t79 -58.5t46.5 -91.5t15.5 -119.5q0 -61 -8 -119.5t-26 -111t-47 -96.5t-70 -76t-95.5 -50t-124.5 -18q-57 0 -102.5 12t-79.5 29q3 16 6 31t11 33q8 19 17 34.5t17 27.5q32 -12 62 -19t61 -7q83 0 135.5 43t72.5 139q-38 -17 -75.5 -27.5
t-75.5 -10.5q-51 0 -91.5 15t-68 42t-42 64.5t-14.5 81.5q0 66 21 117t59 85.5t90.5 52.5t114.5 18zM318 396q30 0 61.5 8t60.5 23v30q0 34 -4.5 62t-17 47.5t-33.5 30t-54 10.5q-54 0 -85 -33t-31 -92q0 -39 26 -62.5t77 -23.5z" />
    <glyph glyph-name="uni00B9" unicode="&#xb9;" horiz-adv-x="378" 
d="M348 364q2 -11 1.5 -23.5t-2.5 -24.5q-2 -14 -5 -25.5t-9 -22.5h-283q-2 9 -1 24.5t3 23.5q2 14 5 25.5t8 22.5h86l40 249l-76 -18q-5 11 -7 22t-4 25t0 26.5t4 24.5l134 34q22 5 44 5q9 0 18.5 -1t18.5 -4l-58 -363h83v0z" />
    <glyph glyph-name="uni00B2" unicode="&#xb2;" horiz-adv-x="429" 
d="M384 377q2 -10 1 -26.5t-3 -24.5q-2 -14 -5.5 -26.5t-8.5 -24.5h-318q-3 14 -2 23t3 23t5 25t9 22q16 22 35 40t39 33q27 21 54 38.5t48.5 35t35 35.5t13.5 40q0 26 -14.5 37t-44.5 11q-22 0 -48.5 -8t-54.5 -22q-13 17 -22 43q-4 13 -4.5 24t-0.5 24q36 21 78 32.5
t89 11.5q69 0 109.5 -31.5t40.5 -98.5q0 -44 -18.5 -75t-47 -54.5t-62 -43t-63.5 -41.5q-15 -10 -26 -22h183z" />
    <glyph glyph-name="uni00B3" unicode="&#xb3;" horiz-adv-x="436" 
d="M333 524q27 -6 49 -27.5t22 -72.5q0 -38 -16 -68t-43.5 -50t-64 -30.5t-77.5 -10.5q-54 0 -96.5 11.5t-71.5 32.5q5 13 9 24t12 24q14 23 35 43q26 -14 54 -22t53 -8q40 0 63.5 12.5t23.5 41.5q0 26 -15 36t-57 10h-42q-2 13 -1.5 22.5t1.5 19.5q2 12 5 22t8 20h40
q34 0 55 10.5t21 39.5q0 17 -13.5 25.5t-47.5 8.5q-22 0 -51 -8t-57 -22q-7 9 -11.5 19.5t-9.5 23.5q-4 13 -4.5 24t-0.5 24q35 21 79 32.5t83 11.5q75 0 117 -24.5t42 -85.5q0 -38 -23.5 -68t-69.5 -41z" />
    <glyph glyph-name="onequarter" unicode="&#xbc;" horiz-adv-x="965" 
d="M698 770q20 0 37 -1.5t34 -6.5l-428 -796q-18 -5 -36 -6.5t-38 -1.5t-37 1.5t-34 6.5l428 796q18 5 36 6.5t38 1.5zM335 316q-2 -14 -5 -25.5t-9 -22.5h-283q-2 9 -1 24.5t3 23.5q2 14 5 25.5t8 22.5h86l40 249l-76 -18q-5 11 -7 22t-4 25t0 26.5t4 24.5l134 34
q22 5 44 5q9 0 18.5 -1t18.5 -4l-58 -363h83q2 -11 1.5 -23.5t-2.5 -24.5zM912 178q1 -21 -3 -47q-2 -14 -5 -25.5t-8 -22.5h-59l-13 -83q-14 -3 -27 -4t-29 -1q-17 0 -30 1t-27 4l13 83h-202q-1 22 3 50q3 15 5.5 27t7.5 24l250 272h1q25 6 55 6q16 0 28.5 -1.5t25.5 -4.5
h-1l-45 -278h60zM739 178l19 117l-107 -117h88z" />
    <glyph glyph-name="onehalf" unicode="&#xbd;" horiz-adv-x="999" 
d="M705 770q20 0 37 -1.5t34 -6.5l-428 -796q-18 -5 -36 -6.5t-38 -1.5t-37 1.5t-34 6.5l428 796q18 5 36 6.5t38 1.5zM331 316q-2 -14 -5 -25.5t-9 -22.5h-283q-2 9 -1 24.5t3 23.5q2 14 5 25.5t8 22.5h86l40 249l-76 -18q-5 11 -7 22t-4 25t0 26.5t4 24.5l134 34
q22 5 44 5q9 0 18.5 -1t18.5 -4l-58 -363h83q2 -11 1.5 -23.5t-2.5 -24.5zM930 102q2 -10 1 -26.5t-3 -24.5q-2 -14 -5.5 -26.5t-8.5 -24.5h-318q-3 14 -2 23t3 23t5 25t9 22q16 22 35 40t39 33q27 21 54 38.5t48.5 35t35 35.5t13.5 40q0 26 -14.5 37t-44.5 11
q-22 0 -48.5 -8t-54.5 -22q-13 17 -22 43q-4 13 -4.5 24t-0.5 24q36 21 78 32.5t89 11.5q69 0 109.5 -31.5t40.5 -98.5q0 -44 -18.5 -75t-47 -54.5t-62 -43t-63.5 -41.5q-15 -10 -26 -22h183z" />
    <glyph glyph-name="threequarters" unicode="&#xbe;" horiz-adv-x="1021" 
d="M754 770q20 0 37 -1.5t34 -6.5l-428 -796q-18 -5 -36 -6.5t-38 -1.5t-37 1.5t-34 6.5l428 796q18 5 36 6.5t38 1.5zM398 424q0 -38 -16 -68t-43.5 -50t-64 -30.5t-77.5 -10.5q-54 0 -96.5 11.5t-71.5 32.5q5 13 9 24t12 24q14 23 35 43q26 -14 54 -22t53 -8
q40 0 63.5 12.5t23.5 41.5q0 26 -15 36t-57 10h-42q-2 13 -1.5 22.5t1.5 19.5q2 12 5 22t8 20h40q34 0 55 10.5t21 39.5q0 17 -13.5 25.5t-47.5 8.5q-22 0 -51 -8t-57 -22q-7 9 -11.5 19.5t-9.5 23.5q-4 13 -4.5 24t-0.5 24q35 21 79 32.5t83 11.5q75 0 117 -24.5t42 -85.5
q0 -38 -23.5 -68t-69.5 -41q27 -6 49 -27.5t22 -72.5zM968 178q1 -21 -3 -47q-2 -14 -5 -25.5t-8 -22.5h-59l-13 -83q-14 -3 -27 -4t-29 -1q-17 0 -30 1t-27 4l13 83h-202q-1 22 3 50q3 15 5.5 27t7.5 24l250 272h1q25 6 55 6q16 0 28.5 -1.5t25.5 -4.5h-1l-45 -278h60z
M795 178l19 117l-107 -117h88z" />
    <glyph glyph-name="dollar" unicode="$" 
d="M543 551q-27 19 -58.5 32t-67.5 18l-26 -159q36 -9 70 -22.5t60.5 -36t42 -57t15.5 -84.5q0 -107 -66 -175t-194 -80l-14 -90q-13 -3 -25 -4.5t-26 -1.5q-26 0 -48 6l14 91q-74 7 -131.5 32.5t-89.5 55.5q14 29 39 63q12 17 23 30t24 25q30 -22 69.5 -40t88.5 -24l28 180
q-38 9 -73 23.5t-62 38.5t-43 58t-16 81q0 50 17.5 92t51 73t82.5 49t113 21l13 85q25 6 51 6q25 0 48 -6l-14 -90q60 -9 109 -29t76 -43q-6 -16 -14.5 -31t-19.5 -32q-12 -17 -23 -30t-24 -25zM240 528q0 -23 13.5 -37.5t42.5 -25.5l22 136q-37 -6 -57.5 -24t-20.5 -49z
M416 216q0 26 -12 42t-38 27l-24 -152q74 17 74 83z" />
    <glyph glyph-name="cent" unicode="&#xa2;" 
d="M512 487q-32 23 -74 32l-48 -306q48 10 90 37q20 -22 32 -53q13 -33 12 -62q-33 -23 -73 -37.5t-82 -20.5l-20 -123q-13 -3 -25 -4.5t-26 -1.5q-26 0 -48 6l20 123q-90 14 -137 73.5t-47 156.5q0 68 18.5 128.5t53.5 107t86 76.5t117 37l19 119q25 6 51 6q25 0 48 -6
l-19 -123q35 -8 64.5 -22t52.5 -33q-8 -29 -26 -60q-18 -32 -39 -50zM233 334q0 -40 15 -69.5t44 -43.5l46 291q-27 -11 -46.5 -30t-32.5 -43t-19.5 -51t-6.5 -54z" />
    <glyph glyph-name="sterling" unicode="&#xa3;" 
d="M454 745q67 0 112.5 -19t72.5 -45q-6 -16 -15 -31t-21 -32t-23 -30t-25 -25q-21 21 -48 30.5t-53 9.5q-51 0 -84 -37t-44 -106l-9 -56h180q2 -15 1.5 -29t-2.5 -29q-6 -31 -18 -59h-183q-12 -43 -32.5 -82t-52.5 -71h338q2 -16 1.5 -30.5t-3.5 -36.5q-3 -20 -7.5 -35.5
t-11.5 -31.5h-485q-8 14 -13 30t-8 38q-3 23 -3.5 39.5t1.5 26.5q44 13 72.5 51.5t44.5 101.5h-81q-1 6 -1 13.5t1 16t1.5 16t1.5 12.5q3 20 6.5 32.5t9.5 26.5h83l10 66q23 140 96.5 207.5t190.5 67.5z" />
    <glyph glyph-name="currency" unicode="&#xa4;" 
d="M622 184q-9 -15 -20.5 -28t-26.5 -27q-29 -27 -58 -44l-85 81q-24 -11 -51.5 -17.5t-57.5 -6.5t-57.5 6.5t-51.5 17.5l-84 -81q-30 17 -57 44q-14 14 -25.5 26.5t-20.5 26.5l-2 2l86 83q-24 45 -24 103q0 57 24 102l-85 83q9 15 20 28.5t25 27.5q27 29 56 46l88 -84
q48 24 108 24t108 -24l88 84q29 -17 56 -46q15 -15 26 -28.5t20 -28.5l-86 -82q24 -45 24 -102q0 -58 -24 -103zM323 272q43 0 69 26.5t26 71.5t-26 71t-69 26t-69 -26t-26 -71t26 -71.5t69 -26.5z" />
    <glyph glyph-name="yen" unicode="&#xa5;" 
d="M533 371q4 -12 3.5 -23.5t-2.5 -22.5q-2 -14 -5.5 -24.5t-10.5 -21.5h-136l-7 -46h136q3 -13 3 -24t-2 -22q-2 -14 -5.5 -24.5t-9.5 -21.5h-136l-22 -137q-19 -5 -37 -6.5t-40 -1.5t-40 1.5t-35 6.5l22 137h-131q-3 13 -3 24t2 22q2 14 5.5 24.5t9.5 21.5h131l7 46h-131
q-3 23 0 46q2 14 5.5 24.5t9.5 21.5h92l-127 354q22 5 43 6.5t47 1.5q25 0 40 -1.5t35 -6.5l49 -192q2 -8 6 -25.5t8.5 -37t8 -35.5t4.5 -20l10 20t17.5 35.5t18.5 37.5t14 26l110 191q21 5 47.5 6.5t51.5 1.5t45 -1.5t40 -6.5h1l-239 -354h97z" />
    <glyph glyph-name="Euro" unicode="&#x20ac;" 
d="M455 604q-65 0 -106.5 -37.5t-64.5 -95.5h221q2 -8 2.5 -21.5t-1.5 -24.5q-3 -26 -16 -46h-229q-2 -11 -2.5 -23t-1.5 -23h226q3 -11 3 -23t-2 -23q-2 -14 -5.5 -24.5t-10.5 -21.5h-205q12 -62 46 -88t82 -26q35 0 71 12t73 33q12 -17 19 -30.5t12 -28.5q7 -17 10.5 -35
t4.5 -31q-26 -18 -54.5 -30t-56 -19.5t-52.5 -10.5t-44 -3q-119 0 -190.5 64t-84.5 193h-90q-3 23 0 46q2 14 5.5 24.5t9.5 21.5h73q1 12 2 23.5t3 22.5h-71q-3 23 0 46q3 25 15 46h76q18 59 48.5 109.5t71.5 87t91.5 57t109.5 20.5q70 0 117.5 -21t81.5 -49q-4 -14 -11 -31
t-15 -32q-8 -13 -19.5 -28t-24.5 -28q-33 25 -60 36.5t-57 11.5z" />
    <glyph glyph-name="florin" unicode="&#x192;" horiz-adv-x="456" 
d="M384 811q38 0 73.5 -7t70.5 -19q-2 -16 -7 -31t-12 -32q-8 -18 -15 -32t-17 -28q-20 8 -41.5 13t-47.5 5q-35 0 -53 -16t-23 -51l-9 -58h141q0 -16 -0.5 -29t-2.5 -29q-2 -24 -5.5 -40t-10.5 -32h-142l-63 -412q-35 -230 -222 -257q-7 15 -12.5 31t-10.5 36t-7.5 37
t-4.5 35q92 21 102 87l67 443h-61v31t2 34q4 35 17 65h61l11 72q12 85 68.5 134.5t153.5 49.5z" />
    <glyph glyph-name="percent" unicode="%" horiz-adv-x="984" 
d="M759 733q17 0 32.5 -1.5t29.5 -6.5l-506 -721q-17 -5 -33 -6.5t-34 -1.5q-17 0 -32.5 1.5t-29.5 6.5l506 721q16 5 32.5 6.5t34.5 1.5zM456 551q0 -58 -17 -106t-47 -82t-71 -52.5t-89 -18.5q-46 0 -79 14.5t-54.5 39.5t-31.5 57t-10 68q0 58 17 106t47.5 81.5t72.5 52
t92 18.5q45 0 77 -14.5t52.5 -38.5t30.5 -56.5t10 -68.5zM180 475q0 -76 60 -76q24 0 42 13t29.5 34t17 48t5.5 55q0 38 -16 55t-45 17q-25 0 -42.5 -13t-29 -33.5t-16.5 -46.5t-5 -53zM771 426q45 0 77 -14.5t52.5 -38.5t30.5 -56.5t10 -68.5q0 -58 -17 -106t-47 -82
t-71 -52.5t-89 -18.5q-46 0 -79 14.5t-54.5 39.5t-31.5 57t-10 68q0 58 17 106t47.5 81.5t72.5 52t92 18.5zM725 96q24 0 42 13t29.5 34t17 48t5.5 55q0 38 -16 55t-45 17q-25 0 -42.5 -13t-29 -33.5t-16.5 -46.5t-5 -53q0 -76 60 -76z" />
    <glyph glyph-name="perthousand" unicode="&#x2030;" horiz-adv-x="1426" 
d="M759 733q17 0 32.5 -1.5t29.5 -6.5l-506 -721q-17 -5 -33 -6.5t-34 -1.5q-17 0 -32.5 1.5t-29.5 6.5l506 721q16 5 32.5 6.5t34.5 1.5zM456 551q0 -58 -17 -106t-47 -82t-71 -52.5t-89 -18.5q-46 0 -79 14.5t-54.5 39.5t-31.5 57t-10 68q0 58 17 106t47.5 81.5t72.5 52
t92 18.5q45 0 77 -14.5t52.5 -38.5t30.5 -56.5t10 -68.5zM180 475q0 -76 60 -76q24 0 42 13t29.5 34t17 48t5.5 55q0 38 -16 55t-45 17q-25 0 -42.5 -13t-29 -33.5t-16.5 -46.5t-5 -53zM771 426q45 0 77 -14.5t52.5 -38.5t30.5 -56.5t10 -68.5q0 -58 -17 -106t-47 -82
t-71 -52.5t-89 -18.5q-46 0 -79 14.5t-54.5 39.5t-31.5 57t-10 68q0 58 17 106t47.5 81.5t72.5 52t92 18.5zM1214 426q45 0 77 -14.5t52.5 -38.5t30.5 -56.5t10 -68.5q0 -58 -17 -106t-47 -82t-71 -52.5t-89 -18.5q-46 0 -79 14.5t-54.5 39.5t-31.5 57t-10 68q0 58 17 106
t47.5 81.5t72.5 52t92 18.5zM725 96q24 0 42 13t29.5 34t17 48t5.5 55q0 38 -16 55t-45 17q-25 0 -42.5 -13t-29 -33.5t-16.5 -46.5t-5 -53q0 -76 60 -76zM1168 96q24 0 42 13t29.5 34t17 48t5.5 55q0 38 -16 55t-45 17q-25 0 -42.5 -13t-29 -33.5t-16.5 -46.5t-5 -53
q0 -76 60 -76z" />
    <glyph glyph-name="plus" unicode="+" 
d="M573 348q0 -18 -1.5 -33t-6.5 -30h-179v-182q-16 -5 -31 -6.5t-34 -1.5t-34.5 1.5t-31.5 6.5v182h-180q-5 15 -6.5 30t-1.5 33t1.5 33t6.5 30h180v183q16 5 31 6.5t34 1.5t34.5 -1.5t31.5 -6.5v-183h179q5 -15 6.5 -30t1.5 -33z" />
    <glyph glyph-name="minus" unicode="&#x2212;" 
d="M564 411q5 -15 6.5 -30t1.5 -33t-1.5 -33t-6.5 -30h-490q-5 15 -6.5 30t-1.5 33t1.5 33t6.5 30h490v0z" />
    <glyph glyph-name="plusminus" unicode="&#xb1;" 
d="M60 355q-5 15 -6.5 30t-1.5 33t1.5 33t6.5 30h180v183q16 5 31 6.5t34 1.5t34.5 -1.5t31.5 -6.5v-183h179q5 -15 6.5 -30t1.5 -33t-1.5 -33t-6.5 -30h-179v-182q-16 -5 -31 -6.5t-34 -1.5t-34.5 1.5t-31.5 6.5v182h-180zM553 126q5 -15 6.5 -30t1.5 -33t-1.5 -33
t-6.5 -30h-490q-5 15 -6.5 30t-1.5 33t1.5 33t6.5 30h490z" />
    <glyph glyph-name="divide" unicode="&#xf7;" 
d="M326 487q-22 0 -40 2t-36 7q-5 17 -6.5 34.5t-1.5 39.5q0 21 1.5 38.5t6.5 34.5q18 5 36 7t40 2t40 -2t36 -7q5 -17 6.5 -34.5t1.5 -38.5q0 -22 -1.5 -39.5t-6.5 -34.5q-18 -5 -36 -7t-40 -2zM565 411q5 -15 6.5 -30t1.5 -33t-1.5 -33t-6.5 -30h-490q-5 15 -6.5 30
t-1.5 33t1.5 33t6.5 30h490zM326 209q22 0 40 -2t36 -7q5 -17 6.5 -34.5t1.5 -38.5q0 -22 -1.5 -39.5t-6.5 -34.5q-18 -5 -36 -7t-40 -2t-40 2t-36 7q-5 17 -6.5 34.5t-1.5 39.5q0 21 1.5 38.5t6.5 34.5q18 5 36 7t40 2z" />
    <glyph glyph-name="multiply" unicode="&#xd7;" 
d="M561 201q-8 -15 -17.5 -26.5t-22.5 -25.5q-25 -25 -53 -41l-149 147l-147 -148q-15 8 -26.5 17.5t-25.5 22.5q-14 14 -23.5 26.5t-17.5 26.5l147 148l-149 148q8 14 17 26t23 26t26.5 23.5t26.5 17.5l149 -148l148 150q14 -8 26.5 -17.5t25.5 -22.5q14 -14 23.5 -26.5
t17.5 -26.5l-148 -149z" />
    <glyph glyph-name="equal" unicode="=" 
d="M71 398q-5 15 -6.5 30t-1.5 33t1.5 33t6.5 30h490q5 -15 6.5 -30t1.5 -33t-1.5 -33t-6.5 -30h-490zM561 296q5 -15 6.5 -30t1.5 -33t-1.5 -33t-6.5 -30h-490q-5 15 -6.5 30t-1.5 33t1.5 33t6.5 30h490z" />
    <glyph glyph-name="less" unicode="&#x3c;" 
d="M547 221q5 -17 6.5 -33t1.5 -36t-1.5 -35.5t-6.5 -32.5l-490 222q-5 14 -6.5 27.5t-1.5 30.5t1.5 30.5t6.5 27.5l490 222q5 -17 6.5 -33t1.5 -36t-1.5 -35.5t-6.5 -32.5l-329 -144z" />
    <glyph glyph-name="greater" unicode="&#x3e;" 
d="M588 422q5 -14 6.5 -27.5t1.5 -30.5t-1.5 -30.5t-6.5 -27.5l-490 -222q-5 17 -6.5 33t-1.5 36t1.5 35.5t6.5 32.5l329 144l-329 142q-5 17 -6.5 33t-1.5 36t1.5 35.5t6.5 32.5l490 -222v0z" />
    <glyph glyph-name="lessequal" unicode="&#x2264;" 
d="M555 246q0 -20 -1.5 -35.5t-6.5 -32.5l-490 222q-5 14 -6.5 27.5t-1.5 30.5t1.5 30.5t6.5 27.5l490 222q5 -17 6.5 -33t1.5 -36t-1.5 -35.5t-6.5 -32.5l-329 -144l329 -142q5 -17 6.5 -33t1.5 -36zM559 127q5 -15 6.5 -30t1.5 -33t-1.5 -33t-6.5 -30h-490q-5 15 -6.5 30
t-1.5 33t1.5 33t6.5 30h490z" />
    <glyph glyph-name="greaterequal" unicode="&#x2265;" 
d="M577 516q5 -14 6.5 -27.5t1.5 -30.5t-1.5 -30.5t-6.5 -27.5l-490 -222q-5 17 -6.5 32.5t-1.5 35.5t1.5 36t6.5 33l329 142l-329 144q-5 17 -6.5 32.5t-1.5 35.5t1.5 36t6.5 33zM559 127q5 -15 6.5 -30t1.5 -33t-1.5 -33t-6.5 -30h-490q-5 15 -6.5 30t-1.5 33t1.5 33
t6.5 30h490z" />
    <glyph glyph-name="approxequal" unicode="&#x2248;" 
d="M185 358q-14 -5 -27.5 -6.5t-30.5 -1.5t-31 1.5t-28 6.5q7 103 45.5 149t117.5 46q32 0 60 -14.5t51 -29.5q17 -11 31.5 -18.5t26.5 -7.5q21 0 33.5 16.5t17.5 52.5q14 5 27.5 6.5t30.5 1.5t31 -1.5t28 -6.5q-6 -105 -44.5 -152.5t-117.5 -47.5q-24 0 -45.5 8.5
t-40.5 19.5q-25 15 -46 28.5t-38 13.5q-20 0 -32.5 -15t-18.5 -49zM451 320q14 5 27.5 6.5t30.5 1.5t31 -1.5t28 -6.5q-6 -105 -44.5 -152t-117.5 -47q-26 0 -48.5 10t-42.5 22q-23 14 -42 26t-37 12q-20 0 -32.5 -15t-18.5 -50q-14 -5 -27.5 -6.5t-30.5 -1.5t-31 1.5
t-28 6.5q7 103 45.5 149.5t117.5 46.5q31 0 58.5 -14t50.5 -28q17 -11 32 -19.5t28 -8.5q21 0 33.5 16t17.5 52z" />
    <glyph glyph-name="notequal" unicode="&#x2260;" 
d="M561 296q5 -15 6.5 -30t1.5 -33t-1.5 -33t-6.5 -30h-238l-37 -130q-15 -5 -30 -6.5t-32 -1.5q-18 0 -33 1.5t-30 6.5l37 130h-127q-5 15 -6.5 30t-1.5 33t1.5 33t6.5 30h164l29 102h-193q-5 15 -6.5 30t-1.5 33t1.5 33t6.5 30h229l38 131q15 5 30 6.5t33 1.5
q17 0 32 -1.5t30 -6.5l-38 -131h136q5 -15 6.5 -30t1.5 -33t-1.5 -33t-6.5 -30h-172l-29 -102h201z" />
    <glyph glyph-name="logicalnot" unicode="&#xac;" 
d="M550 411v-308q-16 -5 -31.5 -6.5t-34.5 -1.5q-20 0 -35.5 1.5t-31.5 6.5v182h-358q-5 15 -6.5 30t-1.5 33t1.5 33t6.5 30h491z" />
    <glyph glyph-name="uni2113" unicode="&#x2113;" horiz-adv-x="476" 
d="M185 179q-1 -5 -1 -13q-2 -51 66 -51q22 0 49 6.5t56 20.5q8 -11 13.5 -24t10.5 -34q3 -14 3.5 -30t-2.5 -33q-42 -19 -92 -28t-95 -9q-32 0 -61.5 9.5t-51.5 27.5t-35 44.5t-13 61.5q0 21 4 43t8 46l52 329q16 97 71.5 148.5t151.5 51.5q37 0 67 -11t52 -33.5t33.5 -56
t10.5 -78.5q-9 -146 -83 -233t-210 -131zM302 608q-23 0 -39.5 -19t-22.5 -57l-30 -189q63 31 97 80.5t34 117.5q0 38 -11 52.5t-28 14.5z" />
    <glyph glyph-name="estimated" unicode="&#x212e;" 
d="M377 745q125 0 191 -68.5t66 -208.5q0 -64 -12 -140l-4 -27h-449v-7q0 -182 155 -182q51 0 96 20t89 60q24 -12 44 -35q22 -24 32 -50q-60 -62 -128.5 -92.5t-156.5 -30.5q-64 0 -116 19t-89 56.5t-57 93t-20 127.5q0 98 21 183t65.5 147.5t112 98.5t160.5 36zM369 616
q-38 0 -68.5 -15t-53 -41t-38.5 -60.5t-25 -74.5h300q1 12 1.5 22.5t0.5 21.5q0 147 -117 147z" />
    <glyph glyph-name="partialdiff" unicode="&#x2202;" horiz-adv-x="629" 
d="M332 745q60 0 107.5 -17.5t81 -53.5t51.5 -91.5t18 -131.5q0 -92 -14 -176.5t-49.5 -149t-97 -103t-156.5 -38.5q-47 0 -91.5 13t-79.5 40t-56 70t-21 103q0 59 17 110t50.5 89t83 60t114.5 22q79 0 139 -39q5 76 -22.5 120.5t-103.5 44.5q-35 0 -71.5 -11.5t-71.5 -28.5
q-9 12 -14.5 26t-10.5 31t-7 32.5t-1 31.5q45 23 99.5 35t105.5 12zM287 121q33 0 56.5 11t37.5 30t20.5 44t6.5 53q0 51 -28 73.5t-74 22.5q-34 0 -56.5 -11.5t-36.5 -30.5t-20 -44t-6 -53q0 -51 27.5 -73t72.5 -22z" />
    <glyph glyph-name="product" unicode="&#x220f;" 
d="M680 729q3 -31 -3 -69q-3 -20 -7.5 -36t-11.5 -33h-70l-110 -697q-19 -5 -37.5 -6.5t-40.5 -1.5t-39.5 1.5t-34.5 6.5l110 697h-155l-110 -697q-19 -5 -37.5 -6.5t-40.5 -1.5t-39.5 1.5t-34.5 6.5l110 697h-69q-2 17 -1 33t4 36t7 36t12 33h598v0z" />
    <glyph glyph-name="summation" unicode="&#x2211;" 
d="M629 729q1 -5 1 -11v-11q0 -24 -4 -47q-3 -20 -7 -36t-12 -33h-324l122 -253q3 -11 3 -21q0 -31 -15 -53l-186 -231h331q1 -5 1 -11v-11q0 -11 -1 -22.5t-3 -25.5q-3 -20 -7.5 -36t-11.5 -33h-532q-1 5 -1.5 11t-0.5 11q0 9 1 18.5t3 20.5q4 33 17 60l238 298l-139 296
v-1q-1 5 -1.5 11t-0.5 11q0 9 1 18.5t3 20.5q4 33 17 60h508v0z" />
    <glyph glyph-name="radical" unicode="&#x221a;" 
d="M605 733q20 0 38.5 -1.5t34.5 -6.5l-371 -721q-12 -5 -22.5 -6.5t-24.5 -1.5q-26 0 -45 8l-79 318h-96q-1 5 -1 10.5v10.5q0 19 3 43q3 18 7 33.5t12 30.5h192l38 -212l240 487q17 5 35.5 6.5t38.5 1.5z" />
    <glyph glyph-name="infinity" unicode="&#x221e;" horiz-adv-x="939" 
d="M688 624q99 0 152.5 -68t53.5 -194t-53.5 -194t-152.5 -68q-57 0 -111 39t-99 111q-18 -30 -41.5 -57.5t-50.5 -48t-57.5 -32.5t-64.5 -12q-98 0 -151.5 68t-53.5 194t53.5 194t151.5 68q63 0 117.5 -38t93.5 -109q40 72 94.5 109.5t118.5 37.5zM284 246q35 0 69 29
t65 83q-35 58 -69.5 89t-64.5 31q-41 0 -63 -30t-22 -86t22 -86t63 -30zM668 246q42 0 64 30t22 86t-22 86t-64 30q-44 0 -77 -30t-60 -86q31 -56 66.5 -86t70.5 -30z" />
    <glyph glyph-name="integral" unicode="&#x222b;" 
d="M429 791q38 0 75 -7t73 -19q0 -16 -3 -31t-8 -32q-8 -34 -23 -60q-20 8 -42.5 13t-48.5 5q-35 0 -51 -16t-16 -51v-643q0 -85 -49.5 -134.5t-146.5 -49.5q-38 0 -75 7t-73 19q1 16 3.5 31t7.5 32q8 34 23 60q20 -8 42.5 -13t48.5 -5q35 0 51 16t16 51v643
q0 85 49.5 134.5t146.5 49.5z" />
    <glyph glyph-name="asciicircum" unicode="^" 
d="M610 336q-19 -5 -38 -6.5t-42 -1.5t-42 1.5t-38 6.5l-129 225l-129 -226q-19 -5 -38 -6.5t-42 -1.5t-41.5 1.5t-37.5 6.5l243 390q20 8 48 8t48 -8z" />
    <glyph glyph-name="asciitilde" unicode="~" 
d="M534 524q19 0 34.5 -1.5t31.5 -6.5q0 -71 -8.5 -120.5t-28 -80.5t-50.5 -44.5t-76 -13.5q-34 0 -59.5 10.5t-45.5 26.5q-16 12 -29 25.5t-25 25t-23.5 18.5t-23.5 7q-24 0 -34 -18.5t-10 -63.5v-25q-16 -5 -31.5 -6.5t-34.5 -1.5t-34.5 1.5t-31.5 6.5q0 71 8.5 120t28 80
t50.5 44.5t76 13.5q47 0 77 -17.5t53 -39.5q23 -20 40 -37.5t36 -17.5q24 0 34 18.5t10 63.5v25q16 5 31.5 6.5t34.5 1.5z" />
    <glyph glyph-name="degree" unicode="&#xb0;" horiz-adv-x="457" 
d="M263 346q-89 0 -140.5 51.5t-51.5 140.5t51.5 140t140.5 51q88 0 139 -51t51 -140t-51 -140.5t-139 -51.5zM263 459q69 0 69 79q0 78 -69 78q-71 0 -71 -78q0 -79 71 -79z" />
    <glyph glyph-name="uni2206" unicode="&#x2206;" 
d="M563 0h-596l343 725q17 5 36.5 6.5t39.5 1.5t35.5 -1.5t30.5 -6.5zM392 138l-43 375l-161 -375h204z" />
    <glyph glyph-name="uni2126" unicode="&#x2126;" 
d="M564 128q1 -5 1.5 -11t0.5 -12q0 -9 -1 -19.5t-3 -21.5q-6 -37 -18 -64h-246q-1 5 -1 11v13q0 17 3 40q3 19 8 34.5t10 29.5q35 31 62 72.5t45.5 87t28 92t9.5 88.5q0 69 -29.5 101t-79.5 32q-45 0 -75 -23.5t-47.5 -61.5t-24.5 -85t-7 -94q0 -64 14 -115t43 -94
q1 -5 1.5 -11t0.5 -12q0 -9 -1 -19.5t-3 -21.5q-6 -37 -18 -64h-246q-1 5 -1 11v13q0 17 3 40q3 19 8 34.5t10 29.5h116q-83 112 -83 254q0 76 20 142t60 115t100.5 77t141.5 28q60 0 107.5 -15t80.5 -46.5t51 -80t18 -115.5q0 -106 -43.5 -193.5t-129.5 -165.5h114z" />
    <glyph glyph-name="pi" unicode="&#x3c0;" horiz-adv-x="618" 
d="M616 555q2 -13 0.5 -35.5t-3.5 -33.5q-3 -20 -7 -36t-12 -33h-62l-65 -413q-19 -5 -37 -6.5t-40 -1.5t-40 1.5t-35 6.5l65 413h-111l-65 -413q-19 -5 -37 -6.5t-40 -1.5t-40 1.5t-35 6.5l65 413h-61q-2 13 -0.5 35.5t3.5 33.5q3 20 7.5 36t11.5 33h538v0z" />
    <glyph glyph-name="uni00B5" unicode="&#xb5;" 
d="M510 559q22 0 40 -1.5t35 -6.5l-87 -547q-17 -5 -32.5 -6.5t-34.5 -1.5t-34.5 1.5t-30.5 6.5l2 44q-25 -31 -54.5 -47.5t-64.5 -16.5q-38 0 -66 18l-35 -220h1q-19 -5 -37 -6.5t-40 -1.5t-40 1.5t-35 6.5l122 769q19 5 37 6.5t40 1.5t40 -1.5t35 -6.5l-41 -259l-11 -63
v-4q-3 -20 -3 -35q0 -32 15.5 -48t44.5 -16q20 0 38 8.5t33 28t26 51t19 78.5l41 259q19 5 37 6.5t40 1.5z" />
    <glyph glyph-name="lozenge" unicode="&#x25ca;" 
d="M615 365l-279 -325q-16 -5 -31.5 -6.5t-33.5 -1.5t-32.5 1.5t-28.5 6.5l-180 325l281 324q16 5 31.5 6.5t33.5 1.5t32.5 -1.5t28.5 -6.5zM445 377l-88 165l-161 -190l87 -158z" />
    <glyph glyph-name="gravecomb" unicode="&#x300;" horiz-adv-x="0" 
d="M102 619q-23 -8 -52 -8q-30 0 -50 8l-82 199q16 5 32 6.5t35 1.5t35 -1.5t30 -6.5z" />
    <glyph glyph-name="acutecomb" unicode="&#x301;" horiz-adv-x="0" 
d="M179 826q21 0 38 -1.5t33 -6.5l-148 -199q-14 -5 -27 -6.5t-30 -1.5t-30 1.5t-25 6.5l116 199q17 5 34.5 6.5t38.5 1.5z" />
    <glyph glyph-name="uni0302" unicode="&#x302;" horiz-adv-x="0" 
d="M215 618q-23 -8 -51 -8q-30 0 -50 8l-42 114l-77 -114q-23 -8 -51 -8q-30 0 -50 8l118 200q19 5 36.5 6.5t39.5 1.5t39.5 -1.5t34.5 -6.5z" />
    <glyph glyph-name="uni030C" unicode="&#x30c;" horiz-adv-x="0" 
d="M196 826q30 0 50 -8l-118 -200q-19 -5 -36.5 -6.5t-39.5 -1.5t-39.5 1.5t-34.5 6.5l-53 200q23 8 51 8q30 0 50 -8l42 -114l77 114q23 8 51 8z" />
    <glyph glyph-name="tildecomb" unicode="&#x303;" horiz-adv-x="0" 
d="M235 760q26 -8 42 -17q-24 -66 -66 -97t-93 -31q-22 0 -38.5 5t-30.5 13q-17 8 -32 15.5t-31 7.5q-18 0 -32 -9.5t-24 -31.5q-24 2 -47 10q-26 8 -42 17q26 66 67 97t90 31q28 0 47.5 -8.5t36.5 -16.5q13 -7 24.5 -11.5t23.5 -4.5q18 0 32.5 9t25.5 32q24 -2 47 -10z" />
    <glyph glyph-name="uni0308" unicode="&#x308;" horiz-adv-x="0" 
d="M-53 616q-20 0 -37 1.5t-34 6.5q-2 15 -1 29.5t4 32.5t7 32.5t10 29.5q18 5 35.5 6.5t37.5 1.5t37 -1.5t34 -6.5q3 -28 -3 -62q-3 -18 -7 -32.5t-10 -29.5q-18 -5 -35.5 -6.5t-37.5 -1.5zM163 616q-20 0 -37 1.5t-34 6.5q-2 15 -1 29.5t4 32.5t7 32.5t10 29.5
q18 5 35.5 6.5t37.5 1.5t37 -1.5t34 -6.5q3 -28 -3 -62q-3 -18 -7 -32.5t-10 -29.5q-18 -5 -35.5 -6.5t-37.5 -1.5z" />
    <glyph glyph-name="uni030A" unicode="&#x30a;" horiz-adv-x="0" 
d="M62 615q-62 0 -93.5 31.5t-31.5 83.5q0 30 11 53t31 39t46.5 24.5t58.5 8.5q63 0 94 -31t31 -81q0 -62 -41.5 -95t-105.5 -33zM71 693q24 0 35.5 15t11.5 32q0 19 -12 28t-29 9q-25 0 -37.5 -14.5t-12.5 -31.5q0 -19 13 -28.5t31 -9.5z" />
    <glyph glyph-name="uni0304" unicode="&#x304;" horiz-adv-x="0" 
d="M237 734q3 -12 2.5 -24.5t-2.5 -27.5q-4 -29 -16 -52h-330q-3 12 -2.5 24.5t2.5 27.5q4 29 16 52h330v0z" />
    <glyph glyph-name="uni0306" unicode="&#x306;" horiz-adv-x="0" 
d="M208 825q28 0 47 -8q-8 -50 -26.5 -86t-44.5 -58.5t-59 -33t-69 -10.5t-64.5 11t-47.5 34t-26 58.5t1 84.5q23 8 51 8t47 -8q-6 -38 4.5 -63t51.5 -25q38 0 58 25.5t26 62.5q23 8 51 8z" />
    <glyph glyph-name="uni0307" unicode="&#x307;" horiz-adv-x="0" 
d="M53 614q-22 0 -39.5 1.5t-34.5 6.5q-2 16 -1.5 31.5t3.5 34.5t7 34.5t11 31.5q19 5 37.5 6.5t40.5 1.5t39.5 -1.5t34.5 -6.5q2 -16 1.5 -31.5t-3.5 -34.5t-7 -34.5t-11 -31.5q-19 -5 -37.5 -6.5t-40.5 -1.5z" />
    <glyph glyph-name="uni030B" unicode="&#x30b;" horiz-adv-x="0" 
d="M93 826q34 0 57 -8l-136 -199q-12 -5 -23.5 -6.5t-25.5 -1.5q-27 0 -46 8l115 199q14 5 28 6.5t31 1.5zM263 826q34 0 57 -8l-136 -199q-12 -5 -23 -6.5t-25 -1.5q-28 0 -47 8l115 199q14 5 28 6.5t31 1.5z" />
    <glyph glyph-name="uni0327" unicode="&#x327;" horiz-adv-x="0" 
d="M40 28q13 -23 20 -48t7 -48q0 -60 -38.5 -98t-102.5 -38q-35 0 -67.5 6.5t-55.5 19.5q2 13 6 24t11 25q6 14 13 24t16 20q31 -14 56 -14q29 0 45 19.5t16 55.5q0 18 -3 41l77 11v0z" />
    <glyph glyph-name="uni0328" unicode="&#x328;" horiz-adv-x="0" 
d="M-76 -107q7 -17 11 -42q1 -8 1.5 -14.5t0.5 -13.5v-8.5t-1 -8.5q-23 -8 -51 -15t-62 -7q-41 0 -63.5 15t-22.5 48q0 26 12.5 49.5t31 43t39.5 34.5t37 26h93q-12 -8 -26.5 -20t-27 -25.5t-21 -27t-8.5 -23.5q0 -11 7 -14t16 -3t19 2t15 4z" />
    <glyph glyph-name="uni0326" unicode="&#x326;" horiz-adv-x="0" 
d="M-51 -35q19 0 34 -1.5t30 -6.5q0 -28 -2.5 -49.5t-8.5 -40.5t-15.5 -37.5t-24.5 -40.5q-11 -4 -23 -5.5t-23 -1.5q-22 0 -39 7l23 56q-9 2 -16.5 3.5t-15.5 3.5q-2 11 -1.5 26.5t2.5 26.5q2 15 5.5 27.5t9.5 24.5q16 5 31.5 6.5t33.5 1.5z" />
    <glyph glyph-name="uni0312" unicode="&#x312;" horiz-adv-x="0" 
d="M136 736q2 -11 1.5 -26.5t-2.5 -26.5q-2 -15 -5.5 -27.5t-9.5 -24.5q-16 -5 -31.5 -6.5t-33.5 -1.5q-19 0 -34 1.5t-30 6.5q0 28 2.5 49.5t8.5 40.5t15.5 37.5t24.5 40.5q11 4 23 5.5t23 1.5q22 0 39 -7l-23 -56q9 -2 16.5 -3.5t15.5 -3.5z" />
    <glyph glyph-name="uni0338" unicode="&#x338;" horiz-adv-x="0" 
d="M342 786q17 -11 29 -21t22 -24l-638 -812q-31 12 -60 32q-16 11 -27 20.5t-22 20.5l638 812q16 -5 29.5 -11.5t28.5 -16.5z" />
    <glyph glyph-name="uni0337" unicode="&#x337;" horiz-adv-x="0" 
d="M-160 257q-8 11 -11.5 22t-8.5 25t-6.5 26t-2.5 25l386 157q7 -11 11 -21.5t8 -24.5q5 -15 7.5 -27.5t2.5 -26.5l-386 -155v0z" />
    <glyph glyph-name="uni0336" unicode="&#x336;" horiz-adv-x="0" 
d="M181 372q3 -12 2.5 -24.5t-2.5 -27.5q-4 -29 -16 -52h-330q-3 12 -2.5 24.5t2.5 27.5q4 29 16 52h330v0z" />
    <glyph glyph-name="uni0335" unicode="&#x335;" horiz-adv-x="0" 
d="M181 372q3 -12 2.5 -24.5t-2.5 -27.5q-4 -29 -16 -52h-330q-3 12 -2.5 24.5t2.5 27.5q4 29 16 52h330v0z" />
    </font>
</defs>
</svg>
