<?xml version="1.0" standalone="no"?>
<!DOCTYPE svg PUBLIC "-//W3C//DTD SVG 1.1//EN" "http://www.w3.org/Graphics/SVG/1.1/DTD/svg11.dtd" >
<svg>
<metadata>
Created by FontForge 20131121 at Fri Sep 04 15:20:42 2015

Copyright (c) 2015 by Newlyn Works Limited. All rights reserved.
</metadata>
<defs>
<font id="Telkom123-RegularItalic" horiz-adv-x="630" >
  <font-face 
    font-family="Telkom 123"
    font-weight="400"
    font-style="italic"
    font-stretch="normal"
    units-per-em="1000"
    panose-1="2 0 0 0 0 0 0 0 0 0"
    ascent="800"
    descent="-200"
    x-height="550"
    cap-height="732"
    bbox="-326 -231 3390 1026"
    underline-thickness="50"
    underline-position="-50"
    slope="-9"
    unicode-range="U+000D-FB02"
  />
<missing-glyph horiz-adv-x="650" 
d="M111 729h443v-729h-443v729zM467 87v555h-270v-555h270z" />
    <glyph glyph-name="fi" unicode="fi" horiz-adv-x="602" 
d="M546 457l-72 -454q-12 -3 -24.5 -4.5t-29.5 -1.5t-29 1.5t-23 4.5l72 454h-202l-72 -454q-12 -3 -24.5 -4.5t-29.5 -1.5t-29 1.5t-23 4.5l72 454h-63q-2 11 -1.5 21.5t2.5 25.5q2 14 5 24.5t8 21.5h64l12 79q14 83 66 128.5t136 45.5q37 0 68 -7.5t58 -17.5
q-2 -11 -5 -21.5t-10 -24.5q-6 -14 -11.5 -24t-11.5 -19q-18 7 -41 12.5t-51 5.5q-39 0 -62 -20.5t-31 -65.5l-11 -71h307z" />
    <glyph glyph-name="fl" unicode="fl" horiz-adv-x="603" 
d="M548 794q29 0 52 -6l-117 -738l-8 -49q-20 -6 -44 -6q-26 0 -42.5 14t-11.5 41l99 628q-24 13 -53 21t-59 8q-27 0 -45 -7t-29.5 -20t-17.5 -30.5t-10 -39.5l-9 -60h116q1 -11 1 -21.5t-2 -25.5q-6 -26 -14 -46h-116l-72 -453q-12 -3 -24.5 -4.5t-29.5 -1.5q-31 0 -52 6
l72 453h-63q-2 11 -1.5 21.5t2.5 25.5q2 14 5 24.5t8 21.5h64l12 80q13 81 64 127t140 46q64 0 128 -31l3 16q22 6 54 6z" />
    <glyph glyph-name="Telkom" unicode="Telkom" horiz-adv-x="3439" 
d="M1251 788q22 6 54 6q17 0 29 -1.5t23 -4.5l-125 -787q-18 -6 -45 -6q-29 0 -43 15.5t-11 39.5zM1569 794q31 0 52 -6l-125 -786q-23 -6 -54 -6q-30 0 -52 6l125 786q12 3 24.5 4.5t29.5 1.5zM409 631l-100 -631q-13 -3 -25 -4.5t-29 -1.5q-31 0 -52 6l100 631h-221
q0 4 -0.5 8t-0.5 8q0 13 3 33q2 15 5.5 26.5t7.5 22.5h547q2 -10 2 -17t-1 -15t-3 -17q-2 -15 -5 -26.5t-8 -22.5h-220zM864 564q93 0 142 -44t49 -116q0 -51 -26 -88t-74.5 -62t-119 -37.5t-160.5 -14.5q7 -68 43 -96.5t102 -28.5q41 0 81 11t78 31q15 -14 23 -39
q4 -12 5 -23.5t0 -21.5q-53 -26 -104 -38t-108 -12q-112 0 -169 60t-57 173q0 70 18.5 132.5t55 110t92 75.5t129.5 28zM2248 564q49 0 90.5 -15.5t71 -45t46 -72t16.5 -95.5q0 -78 -20 -142.5t-58 -111t-92.5 -72t-124.5 -25.5q-50 0 -91 16t-70.5 45.5t-46 72t-16.5 96.5
q0 78 20 142t58.5 110t93 71.5t123.5 25.5zM3239 564q70 0 110.5 -39t40.5 -108q-1 -32 -16.5 -140.5t-43.5 -273.5q-27 -6 -54 -6q-25 0 -52 6q25 156 40 256.5t16 126.5q1 38 -19.5 58.5t-58.5 20.5q-57 0 -98.5 -46t-59.5 -128q-8 -55 -19 -127t-26 -161q-29 -6 -54 -6
q-27 0 -52 6q25 156 39.5 256.5t15.5 126.5q1 38 -19.5 58.5t-58.5 20.5q-62 0 -105 -54t-57 -150h-1l-41 -258q-11 -3 -24 -4.5t-30 -1.5t-29 1.5t-23 4.5l86 544q11 2 21.5 3.5t24.5 1.5t24 -1.5t19 -3.5l-4 -80q34 47 78.5 72t97.5 25q60 0 98.5 -29t49.5 -80
q35 53 81 81t103 28zM1868 554q40 0 66 -6l-252 -269l178 -277q-14 -3 -27.5 -4.5t-30.5 -1.5q-37 0 -62 6l-179 281l244 265q14 3 28.5 4.5t34.5 1.5zM677 284q129 -1 201.5 28.5t72.5 87.5q0 32 -24 53.5t-75 21.5q-41 0 -71.5 -15t-52 -41t-34.5 -61t-17 -74zM2188 79
q40 0 71.5 18t53.5 51t34 79.5t12 102.5q0 65 -33 101.5t-90 38.5q-39 0 -71 -18t-54 -51t-34 -79t-12 -103q0 -65 34 -102.5t89 -37.5z" />
    <glyph glyph-name=".notdef" horiz-adv-x="650" 
d="M111 729h443v-729h-443v729zM467 87v555h-270v-555h270z" />
    <glyph glyph-name="space" unicode=" " horiz-adv-x="257" 
 />
    <glyph glyph-name="NULL" horiz-adv-x="0" 
 />
    <glyph glyph-name="nonmarkingreturn" unicode="&#xd;" horiz-adv-x="217" 
 />
    <glyph glyph-name="uni00A0" unicode="&#xa0;" horiz-adv-x="258" 
 />
    <glyph glyph-name="A" unicode="A" horiz-adv-x="685" 
d="M627 2q-14 -2 -26.5 -3.5t-30.5 -1.5q-17 0 -30 1.5t-25 3.5h-1l-36 184h-306l-93 -183h-2q-12 -3 -26 -4.5t-35 -1.5q-35 0 -57 6l381 723q15 2 31.5 3.5t36.5 1.5q21 0 36.5 -1.5t29.5 -3.5zM459 282l-66 338l-172 -338h238z" />
    <glyph glyph-name="B" unicode="B" horiz-adv-x="668" 
d="M496 390q106 -34 106 -149q0 -59 -21 -104t-59 -75.5t-91.5 -46t-117.5 -15.5h-273l15 97l101 632h256q213 0 213 -162q0 -66 -34 -110t-95 -67zM248 632l-34 -210h155q69 0 105 33t36 91q0 45 -28 65.5t-88 20.5h-146zM316 97q83 0 128 36t45 105q0 52 -34 75.5
t-104 23.5h-150l-38 -240h153z" />
    <glyph glyph-name="C" unicode="C" horiz-adv-x="621" 
d="M418 744q76 0 127.5 -22t85.5 -48q-2 -9 -6.5 -21.5t-10.5 -23.5q-5 -10 -14 -21t-18 -20q-32 24 -70 40.5t-91 16.5q-65 0 -112 -29.5t-78 -78.5t-45.5 -112t-14.5 -130q0 -109 50.5 -159.5t134.5 -50.5q44 0 85.5 14.5t84.5 40.5q14 -18 22 -41q5 -12 7.5 -25t3.5 -22
q-49 -33 -107.5 -50t-107.5 -17q-66 0 -119 19.5t-90.5 57t-57.5 93t-20 128.5q0 92 24 175.5t70 147t113 101t154 37.5z" />
    <glyph glyph-name="D" unicode="D" horiz-adv-x="716" 
d="M156 729h225q151 0 222 -71.5t71 -212.5q0 -95 -25.5 -176.5t-75.5 -141t-125 -93.5t-174 -34h-234zM266 97q77 0 133 24.5t92 69.5t53.5 107.5t17.5 138.5q0 54 -11.5 91t-36 60.5t-62 33.5t-88.5 10h-118l-85 -535h105z" />
    <glyph glyph-name="E" unicode="E" horiz-adv-x="602" 
d="M603 729q2 -11 1.5 -25t-2.5 -25q-2 -14 -5.5 -25.5t-8.5 -22.5h-339l-33 -206h298q2 -9 1.5 -23t-2.5 -25q-4 -26 -14 -49h-298l-37 -230h353q2 -11 1 -24t-3 -25q-2 -14 -5.5 -26t-8.5 -23h-461l116 729h447v0z" />
    <glyph glyph-name="F" unicode="F" horiz-adv-x="579" 
d="M602 729q2 -11 1 -25t-3 -25q-2 -14 -5.5 -25.5t-8.5 -22.5h-340l-38 -241h299q2 -9 1.5 -22.5t-2.5 -24.5q-4 -28 -14 -49h-300l-46 -291q-12 -3 -24.5 -4.5t-29.5 -1.5t-29 1.5t-23 4.5l115 726h447v0z" />
    <glyph glyph-name="G" unicode="G" horiz-adv-x="688" 
d="M381 341q2 13 5 23t8 21h244l-53 -335q-55 -32 -118.5 -48.5t-123.5 -16.5q-140 0 -213 76t-73 221q0 96 25 180t73.5 146.5t120 99t164.5 36.5q35 0 67.5 -5t61 -13.5t51.5 -19t40 -22.5q-6 -19 -22 -44q-9 -14 -16 -24t-15 -19q-32 21 -77 34.5t-97 13.5
q-69 0 -118.5 -30.5t-82 -80.5t-47.5 -113.5t-15 -130.5q0 -109 45 -157.5t141 -48.5q41 0 74.5 8t62.5 20l28 181h-142q-1 10 -0.5 22.5t2.5 25.5z" />
    <glyph glyph-name="H" unicode="H" horiz-adv-x="746" 
d="M668 732q31 0 52 -6l-114 -723q-12 -3 -24.5 -4.5t-29.5 -1.5q-30 0 -52 6l51 319h-354l-50 -319q-12 -3 -24.5 -4.5t-29.5 -1.5q-31 0 -52 6l114 723q12 3 24.5 4.5t29.5 1.5q31 0 52 -6l-48 -306h353l48 306q25 6 54 6z" />
    <glyph glyph-name="I" unicode="I" horiz-adv-x="286" 
d="M209 732q31 0 52 -6l-114 -723q-12 -3 -24.5 -4.5t-29.5 -1.5q-31 0 -52 6l114 723q12 3 24.5 4.5t29.5 1.5z" />
    <glyph glyph-name="J" unicode="J" horiz-adv-x="396" 
d="M322 732q31 0 52 -6l-89 -563q-8 -51 -25.5 -85.5t-42.5 -55t-55 -29t-64 -8.5q-73 0 -126 32q6 21 19 47q14 26 29 43q15 -10 34.5 -17.5t42.5 -7.5q32 0 53 19.5t28 64.5l90 560q12 3 24.5 4.5t29.5 1.5z" />
    <glyph glyph-name="K" unicode="K" horiz-adv-x="646" 
d="M209 732q31 0 52 -6l-114 -723q-12 -3 -24.5 -4.5t-29.5 -1.5q-31 0 -52 6l114 723q12 3 24.5 4.5t29.5 1.5zM353 363l236 -360q-14 -3 -29 -4.5t-35 -1.5q-35 0 -59 6h-1l-236 367l333 356q27 6 63 6q22 0 37.5 -1.5t29.5 -4.5z" />
    <glyph glyph-name="L" unicode="L" horiz-adv-x="554" 
d="M499 98q2 -10 1 -24.5t-3 -24.5q-4 -27 -14 -49h-443l115 726q12 3 24.5 4.5t29.5 1.5q31 0 52 -6l-100 -628h338v0z" />
    <glyph glyph-name="M" unicode="M" horiz-adv-x="881" 
d="M763 732q26 0 44 -1.5t35 -4.5l-87 -723q-13 -3 -26 -4.5t-30 -1.5q-32 0 -53 6l64 464q5 41 12.5 85.5t11.5 74.5h-2q-5 -13 -13 -31t-17.5 -38t-19.5 -40.5t-20 -38.5l-216 -416q-20 -6 -46 -6q-27 0 -45 6l-80 417q-3 16 -6.5 35.5t-7.5 40t-7 39t-5 32.5h-2
q-3 -16 -6 -36t-6.5 -41t-7.5 -42t-7 -39l-86 -466q-24 -6 -55 -6q-32 0 -54 6l145 723q18 3 37 4.5t44 1.5t43.5 -1.5t35.5 -4.5l96 -501h3l255 501q17 3 36 4.5t43 1.5z" />
    <glyph glyph-name="N" unicode="N" horiz-adv-x="753" 
d="M677 732q29 0 50 -6l-114 -723q-16 -3 -32 -4.5t-38 -1.5t-38 1.5t-30 4.5l-193 482q-6 15 -12.5 32.5t-12.5 35.5l-11.5 34.5t-9.5 29.5q-2 -13 -3.5 -30t-4 -35t-4.5 -36t-5 -34l-75 -479q-24 -6 -53 -6t-50 6l114 723q17 3 34.5 4.5t40.5 1.5t39.5 -1.5t31.5 -4.5
l186 -467q6 -15 12.5 -34t13 -37.5t12 -36.5t8.5 -31q3 27 8 68t10 74l73 464q24 6 53 6z" />
    <glyph glyph-name="O" unicode="O" horiz-adv-x="738" 
d="M333 -15q-129 0 -202.5 72.5t-73.5 218.5q0 90 22 174.5t67 150t114 104.5t163 39q126 0 199.5 -73.5t73.5 -221.5q0 -89 -22 -172.5t-67 -148.5t-113 -104t-161 -39zM335 84q65 0 112 31t77 81.5t44.5 115.5t14.5 133q0 103 -43.5 151.5t-124.5 48.5q-65 0 -111.5 -31.5
t-76.5 -82.5t-44 -116t-14 -132q0 -104 43.5 -151.5t122.5 -47.5z" />
    <glyph glyph-name="P" unicode="P" horiz-adv-x="622" 
d="M383 729q112 0 171 -52t59 -149q0 -129 -76 -202t-219 -73h-132l-40 -250q-11 -3 -25.5 -4.5t-28.5 -1.5t-28 1.5t-24 4.5l115 726h228zM319 350q94 0 137.5 43.5t43.5 119.5q0 60 -32.5 89.5t-104.5 29.5h-117l-45 -282h118z" />
    <glyph glyph-name="Q" unicode="Q" horiz-adv-x="738" 
d="M696 449q0 -78 -16.5 -151.5t-50.5 -134.5t-85.5 -105t-121.5 -62l98 -167q-13 -2 -27 -3.5t-32 -1.5q-19 0 -33 1.5t-27 3.5l-80 156q-123 4 -193.5 76.5t-70.5 214.5q0 90 22 174.5t67 150t114 104.5t163 39q126 0 199.5 -73.5t73.5 -221.5zM335 84q65 0 112 31
t77 81.5t44.5 115.5t14.5 133q0 103 -43.5 151.5t-124.5 48.5q-65 0 -111.5 -31.5t-76.5 -82.5t-44 -116t-14 -132q0 -104 43.5 -151.5t122.5 -47.5z" />
    <glyph glyph-name="R" unicode="R" horiz-adv-x="652" 
d="M627 534q0 -106 -58 -169.5t-164 -77.5l166 -284q-15 -4 -30 -5t-32 -1t-31.5 1t-28.5 5l-158 280h-100l-45 -280q-26 -6 -54 -6t-52 6l115 726h250q106 0 164 -50.5t58 -144.5zM206 377h154q72 0 114 35.5t42 110.5q0 54 -30.5 81.5t-85.5 27.5h-154z" />
    <glyph glyph-name="S" unicode="S" horiz-adv-x="618" 
d="M271 -14q-44 0 -83 8t-72.5 21t-60 29.5t-44.5 33.5q5 11 11 20.5t16 22.5t19 22t17 16q40 -32 91 -53t114 -21q87 0 125.5 35.5t38.5 91.5q0 30 -10.5 48.5t-29.5 31t-47 20.5t-62 17q-40 10 -76.5 23.5t-64.5 35t-44.5 54t-16.5 80.5t17 88.5t50.5 70.5t83.5 47t117 17
q40 0 77.5 -7t69 -18t56.5 -25t41 -27q-4 -10 -10 -20t-14 -23q-18 -25 -34 -40q-34 25 -82.5 43t-108.5 18q-78 0 -114.5 -32t-36.5 -83q0 -26 10 -42t29.5 -27.5t47 -19t62.5 -16.5q40 -10 77 -23.5t65 -36t44.5 -57t16.5 -86.5q0 -53 -18.5 -96.5t-54.5 -74.5
t-89.5 -48.5t-122.5 -17.5z" />
    <glyph glyph-name="T" unicode="T" horiz-adv-x="592" 
d="M634 729q2 -10 2 -17t-1 -15t-2 -17q-2 -15 -5.5 -26.5t-8.5 -22.5h-220l-100 -631q-12 -3 -24.5 -4.5t-29.5 -1.5q-31 0 -52 6l100 631h-221q0 4 -0.5 8t-0.5 8q0 13 3 33q2 15 5.5 26.5t8.5 22.5h546v0z" />
    <glyph glyph-name="U" unicode="U" horiz-adv-x="729" 
d="M658 732q31 0 52 -6l-73 -459q-21 -132 -100 -207t-216 -75q-123 0 -185.5 58.5t-62.5 167.5q0 28 5 69t14.5 102t23 145t31.5 199q12 3 24.5 4.5t29.5 1.5q31 0 52 -6q-17 -111 -30 -193.5t-22 -142.5t-14 -100t-5 -66q-1 -74 36.5 -106.5t110.5 -32.5q84 0 136.5 49
t68.5 150l70 442q13 3 25 4.5t29 1.5z" />
    <glyph glyph-name="V" unicode="V" horiz-adv-x="670" 
d="M670 732q33 0 56 -6l-378 -723h-1q-14 -3 -29 -4.5t-35 -1.5q-36 0 -61 6l-149 723q14 3 27 4.5t30 1.5q32 0 55 -6l98 -498q5 -25 10 -54t9 -54q11 25 24.5 54t27.5 54l257 498q14 3 27.5 4.5t31.5 1.5z" />
    <glyph glyph-name="W" unicode="W" horiz-adv-x="963" 
d="M949 732q18 0 31.5 -1.5t25.5 -4.5l-290 -723q-14 -3 -29.5 -4.5t-35.5 -1.5q-21 0 -35.5 1.5t-28.5 4.5q-8 79 -16.5 164.5t-15.5 169t-12.5 159t-8.5 133.5h-3q-22 -58 -52.5 -133.5t-65 -159t-70.5 -169t-69 -164.5q-15 -3 -30 -4.5t-35 -1.5q-38 0 -63 6l-57 723
q13 3 25 4.5t29 1.5q31 0 52 -6q5 -69 10 -149.5t9.5 -162.5t7.5 -160.5t3 -143.5h3q22 58 51.5 132.5t62.5 156.5t66.5 166t64.5 161q16 3 33.5 5t38.5 2t39.5 -2t32.5 -5q6 -77 13 -161t13.5 -166t12 -156.5t8.5 -132.5h3q18 58 44.5 133t57 157.5t63 166.5t61.5 159
q13 3 25.5 4.5t30.5 1.5z" />
    <glyph glyph-name="X" unicode="X" horiz-adv-x="637" 
d="M392 365l182 -362q-14 -3 -27.5 -4.5t-31.5 -1.5q-35 0 -59 6l-139 282l-226 -282q-27 -6 -67 -6q-37 0 -61 6l303 372l-176 351q14 3 28 4.5t34 1.5q17 0 29.5 -1.5t24.5 -4.5l136 -272l210 272q28 6 65 6t61 -6z" />
    <glyph glyph-name="Y" unicode="Y" horiz-adv-x="633" 
d="M368 302l-48 -302q-12 -3 -24.5 -4.5t-29.5 -1.5q-32 0 -54 6l49 304l-193 422q14 3 27 4.5t32 1.5t32.5 -1.5t25.5 -4.5l101 -224q11 -26 21.5 -54t19.5 -56q17 29 34.5 56.5t38.5 54.5l173 223q25 6 62 6t61 -6z" />
    <glyph glyph-name="Z" unicode="Z" horiz-adv-x="615" 
d="M620 692q0 -26 -9 -47.5t-26 -40.5l-443 -506h394q1 -4 1 -8v-9q0 -8 -0.5 -15.5t-2.5 -16.5q-4 -29 -13 -49h-526q-1 5 -1 16q0 17 4 36q4 31 13 51l461 528h-360q-2 10 -1.5 22t2.5 27q2 14 5.5 26t8.5 23h489q1 -6 2.5 -13.5t1.5 -23.5z" />
    <glyph glyph-name="Agrave" unicode="&#xc0;" horiz-adv-x="685" 
d="M627 2q-14 -2 -26.5 -3.5t-30.5 -1.5q-17 0 -30 1.5t-25 3.5h-1l-36 184h-306l-93 -183h-2q-12 -3 -26 -4.5t-35 -1.5q-35 0 -57 6l381 723q15 2 31.5 3.5t36.5 1.5q21 0 36.5 -1.5t29.5 -3.5zM459 282l-66 338l-172 -338h238zM464 814q-8 -2 -17.5 -3.5t-21.5 -1.5
t-21 1.5t-17 3.5l-72 184q21 6 50 6t49 -6z" />
    <glyph glyph-name="Aacute" unicode="&#xc1;" horiz-adv-x="685" 
d="M627 2q-14 -2 -26.5 -3.5t-30.5 -1.5q-17 0 -30 1.5t-25 3.5h-1l-36 184h-306l-93 -183h-2q-12 -3 -26 -4.5t-35 -1.5q-35 0 -57 6l381 723q15 2 31.5 3.5t36.5 1.5q21 0 36.5 -1.5t29.5 -3.5zM459 282l-66 338l-172 -338h238zM540 1004q31 0 54 -6l-134 -184
q-9 -2 -19 -3.5t-24 -1.5t-24 1.5t-19 3.5l111 184q22 6 55 6z" />
    <glyph glyph-name="Acircumflex" unicode="&#xc2;" horiz-adv-x="685" 
d="M627 2q-14 -2 -26.5 -3.5t-30.5 -1.5q-17 0 -30 1.5t-25 3.5h-1l-36 184h-306l-93 -183h-2q-12 -3 -26 -4.5t-35 -1.5q-35 0 -57 6l381 723q15 2 31.5 3.5t36.5 1.5q21 0 36.5 -1.5t29.5 -3.5zM459 282l-66 338l-172 -338h238zM564 813q-9 -2 -18 -3.5t-21 -1.5
q-13 0 -21.5 1.5t-16.5 3.5l-44 120l-78 -120q-9 -2 -19 -3.5t-22 -1.5q-13 0 -22 1.5t-17 3.5l112 185q13 3 25.5 4.5t31.5 1.5t31.5 -1.5t24.5 -4.5z" />
    <glyph glyph-name="Atilde" unicode="&#xc3;" horiz-adv-x="685" 
d="M627 2q-14 -2 -26.5 -3.5t-30.5 -1.5q-17 0 -30 1.5t-25 3.5h-1l-36 184h-306l-93 -183h-2q-12 -3 -26 -4.5t-35 -1.5q-35 0 -57 6l381 723q15 2 31.5 3.5t36.5 1.5q21 0 36.5 -1.5t29.5 -3.5zM459 282l-66 338l-172 -338h238zM591 927q11 -5 18.5 -9t12.5 -9
q-19 -47 -53.5 -75.5t-81.5 -28.5q-26 0 -42.5 6t-28.5 14q-17 10 -31 18.5t-31 8.5q-20 0 -35 -10.5t-26 -34.5q-16 0 -38 8q-11 4 -17.5 8.5t-11.5 9.5q19 47 53 75.5t81 28.5q33 0 53 -10t35 -21q11 -7 22 -12t23 -5q40 0 62 46q8 -1 17 -2t19 -6z" />
    <glyph glyph-name="Adieresis" unicode="&#xc4;" horiz-adv-x="685" 
d="M627 2q-14 -2 -26.5 -3.5t-30.5 -1.5q-17 0 -30 1.5t-25 3.5h-1l-36 184h-306l-93 -183h-2q-12 -3 -26 -4.5t-35 -1.5q-35 0 -57 6l381 723q15 2 31.5 3.5t36.5 1.5q21 0 36.5 -1.5t29.5 -3.5zM459 282l-66 338l-172 -338h238zM331 825q-29 0 -50 6q-2 10 -1.5 21t3.5 26
q2 14 5 25t7 21q24 6 53 6t50 -6q1 -10 0.5 -21t-2.5 -25q-3 -15 -5.5 -26t-7.5 -21q-12 -3 -24 -4.5t-28 -1.5zM521 825q-29 0 -50 6q-1 10 -0.5 21t2.5 26q3 14 5.5 25t7.5 21q22 6 52 6q29 0 50 -6q2 -10 1.5 -21t-3.5 -25q-2 -15 -5 -26t-7 -21q-24 -6 -53 -6z" />
    <glyph glyph-name="Aring" unicode="&#xc5;" horiz-adv-x="685" 
d="M627 2q-14 -2 -26.5 -3.5t-30.5 -1.5q-17 0 -30 1.5t-25 3.5h-1l-36 184h-306l-93 -183h-2q-12 -3 -26 -4.5t-35 -1.5q-35 0 -57 6l381 723q15 2 31.5 3.5t36.5 1.5q21 0 36.5 -1.5t29.5 -3.5zM459 282l-66 338l-172 -338h238zM427 804q-52 0 -80.5 26.5t-28.5 74.5
q0 54 36 87.5t97 33.5q53 0 81 -26t28 -74q0 -55 -36 -88.5t-97 -33.5zM434 867q26 0 40.5 15.5t14.5 38.5q0 42 -43 42q-27 0 -42 -16t-15 -39q0 -20 12.5 -30.5t32.5 -10.5z" />
    <glyph glyph-name="AE" unicode="&#xc6;" horiz-adv-x="914" 
d="M915 729q2 -11 1 -22.5t-3 -26.5t-5 -26t-8 -22v-1h-307l-32 -206h266q2 -11 1.5 -22.5t-2.5 -26.5q-4 -26 -15 -48h-266l-36 -230h321q2 -11 1 -22.5t-3 -26.5t-5.5 -26.5t-8.5 -22.5h-429l32 204h-231l-105 -201q-27 -6 -63 -6t-60 6l396 726h561zM485 632h-76
l-172 -331h196z" />
    <glyph glyph-name="Ccedilla" unicode="&#xc7;" horiz-adv-x="621" 
d="M418 744q76 0 127.5 -22t85.5 -48q-2 -9 -6.5 -21.5t-10.5 -23.5q-5 -10 -14 -21t-18 -20q-32 24 -70 40.5t-91 16.5q-65 0 -112 -29.5t-78 -78.5t-45.5 -112t-14.5 -130q0 -109 50.5 -159.5t134.5 -50.5q44 0 85.5 14.5t84.5 40.5q14 -18 22 -41q5 -12 7.5 -25t3.5 -22
q-42 -28 -90.5 -44t-93.5 -21q9 -29 9 -56q0 -60 -37.5 -98t-100.5 -38q-29 0 -56.5 6.5t-48.5 19.5q2 9 5.5 17.5t9.5 19.5q11 21 22 33q31 -17 60 -17q35 0 52.5 23.5t17.5 65.5v11t-1 13q-116 10 -183 85t-67 211q0 92 24 175.5t70 147t113 101t154 37.5z" />
    <glyph glyph-name="Egrave" unicode="&#xc8;" horiz-adv-x="602" 
d="M603 729q2 -11 1.5 -25t-2.5 -25q-2 -14 -5.5 -25.5t-8.5 -22.5h-339l-33 -206h298q2 -9 1.5 -23t-2.5 -25q-4 -26 -14 -49h-298l-37 -230h353q2 -11 1 -24t-3 -25q-2 -14 -5.5 -26t-8.5 -23h-461l116 729h447v0zM419 813q-8 -2 -17.5 -3.5t-21.5 -1.5t-21 1.5t-17 3.5
l-72 184q21 6 50 6t49 -6z" />
    <glyph glyph-name="Eacute" unicode="&#xc9;" horiz-adv-x="602" 
d="M603 729q2 -11 1.5 -25t-2.5 -25q-2 -14 -5.5 -25.5t-8.5 -22.5h-339l-33 -206h298q2 -9 1.5 -23t-2.5 -25q-4 -26 -14 -49h-298l-37 -230h353q2 -11 1 -24t-3 -25q-2 -14 -5.5 -26t-8.5 -23h-461l116 729h447v0zM494 1004q31 0 54 -6l-134 -184q-9 -2 -19 -3.5t-24 -1.5
t-24 1.5t-19 3.5l111 184q22 6 55 6z" />
    <glyph glyph-name="Ecircumflex" unicode="&#xca;" horiz-adv-x="602" 
d="M603 729q2 -11 1.5 -25t-2.5 -25q-2 -14 -5.5 -25.5t-8.5 -22.5h-339l-33 -206h298q2 -9 1.5 -23t-2.5 -25q-4 -26 -14 -49h-298l-37 -230h353q2 -11 1 -24t-3 -25q-2 -14 -5.5 -26t-8.5 -23h-461l116 729h447v0zM517 813q-9 -2 -18 -3.5t-21 -1.5q-13 0 -21.5 1.5
t-16.5 3.5l-44 120l-78 -120q-9 -2 -19 -3.5t-22 -1.5q-13 0 -22 1.5t-17 3.5l112 185q13 3 25.5 4.5t31.5 1.5t31.5 -1.5t24.5 -4.5z" />
    <glyph glyph-name="Edieresis" unicode="&#xcb;" horiz-adv-x="602" 
d="M603 729q2 -11 1.5 -25t-2.5 -25q-2 -14 -5.5 -25.5t-8.5 -22.5h-339l-33 -206h298q2 -9 1.5 -23t-2.5 -25q-4 -26 -14 -49h-298l-37 -230h353q2 -11 1 -24t-3 -25q-2 -14 -5.5 -26t-8.5 -23h-461l116 729h447v0zM285 824q-29 0 -50 6q-2 10 -1.5 21t3.5 26q2 14 5 25
t7 21q24 6 53 6t50 -6q1 -10 0.5 -21t-2.5 -25q-3 -15 -5.5 -26t-7.5 -21q-12 -3 -24 -4.5t-28 -1.5zM475 824q-29 0 -50 6q-1 10 -0.5 21t2.5 26q3 14 5.5 25t7.5 21q22 6 52 6q29 0 50 -6q2 -10 1.5 -21t-3.5 -25q-2 -15 -5 -26t-7 -21q-24 -6 -53 -6z" />
    <glyph glyph-name="Igrave" unicode="&#xcc;" horiz-adv-x="286" 
d="M209 732q31 0 52 -6l-114 -723q-12 -3 -24.5 -4.5t-29.5 -1.5q-31 0 -52 6l114 723q12 3 24.5 4.5t29.5 1.5zM266 813q-8 -2 -17.5 -3.5t-21.5 -1.5t-21 1.5t-17 3.5l-72 184q21 6 50 6t49 -6z" />
    <glyph glyph-name="Iacute" unicode="&#xcd;" horiz-adv-x="286" 
d="M209 732q31 0 52 -6l-114 -723q-12 -3 -24.5 -4.5t-29.5 -1.5q-31 0 -52 6l114 723q12 3 24.5 4.5t29.5 1.5zM342 1003q31 0 54 -6l-134 -184q-9 -2 -19 -3.5t-24 -1.5t-24 1.5t-19 3.5l111 184q22 6 55 6z" />
    <glyph glyph-name="Icircumflex" unicode="&#xce;" horiz-adv-x="286" 
d="M209 732q31 0 52 -6l-114 -723q-12 -3 -24.5 -4.5t-29.5 -1.5q-31 0 -52 6l114 723q12 3 24.5 4.5t29.5 1.5zM364 812q-9 -2 -18 -3.5t-21 -1.5q-13 0 -21.5 1.5t-16.5 3.5l-44 120l-78 -120q-9 -2 -19 -3.5t-22 -1.5q-13 0 -22 1.5t-17 3.5l112 185q13 3 25.5 4.5
t31.5 1.5t31.5 -1.5t24.5 -4.5z" />
    <glyph glyph-name="Idieresis" unicode="&#xcf;" horiz-adv-x="286" 
d="M209 732q31 0 52 -6l-114 -723q-12 -3 -24.5 -4.5t-29.5 -1.5q-31 0 -52 6l114 723q12 3 24.5 4.5t29.5 1.5zM132 825q-29 0 -50 6q-2 10 -1.5 21t3.5 26q2 14 5 25t7 21q24 6 53 6t50 -6q1 -10 0.5 -21t-2.5 -25q-3 -15 -5.5 -26t-7.5 -21q-12 -3 -24 -4.5t-28 -1.5z
M322 825q-29 0 -50 6q-1 10 -0.5 21t2.5 26q3 14 5.5 25t7.5 21q22 6 52 6q29 0 50 -6q2 -10 1.5 -21t-3.5 -25q-2 -15 -5 -26t-7 -21q-24 -6 -53 -6z" />
    <glyph glyph-name="Eth" unicode="&#xd0;" horiz-adv-x="734" 
d="M399 729q151 0 222 -71t71 -213q0 -95 -25.5 -176.5t-75.5 -141t-125 -93.5t-174 -34h-235l52 325h-88q-2 8 -2 17.5t2 22.5q4 23 12 40h88l52 324h226zM283 97q77 0 133 24.5t92 69.5t53.5 107.5t17.5 138.5q0 54 -11.5 91t-35.5 60.5t-61.5 33.5t-89.5 10h-117
l-36 -227h104q3 -16 0 -40q-4 -24 -13 -40h-104l-36 -228h104z" />
    <glyph glyph-name="Lslash" unicode="&#x141;" horiz-adv-x="576" 
d="M522 98q2 -10 1 -24.5t-3 -24.5q-2 -14 -5.5 -25.5t-8.5 -23.5h-443l46 288l-84 -38q-5 8 -8.5 16.5t-7.5 20.5t-5.5 21t-3.5 18l124 56l54 344q12 3 24.5 4.5t29.5 1.5q31 0 52 -6l-46 -292l118 54q5 -7 9 -15.5t8 -19.5q4 -13 6 -22t3 -19l-159 -72l-38 -242h337v0z
" />
    <glyph glyph-name="Ntilde" unicode="&#xd1;" horiz-adv-x="753" 
d="M677 732q29 0 50 -6l-114 -723q-16 -3 -32 -4.5t-38 -1.5t-38 1.5t-30 4.5l-193 482q-6 15 -12.5 32.5t-12.5 35.5l-11.5 34.5t-9.5 29.5q-2 -13 -3.5 -30t-4 -35t-4.5 -36t-5 -34l-75 -479q-24 -6 -53 -6t-50 6l114 723q17 3 34.5 4.5t40.5 1.5t39.5 -1.5t31.5 -4.5
l186 -467q6 -15 12.5 -34t13 -37.5t12 -36.5t8.5 -31q3 27 8 68t10 74l73 464q24 6 53 6zM625 927q11 -5 18.5 -9t12.5 -9q-19 -47 -53.5 -75.5t-81.5 -28.5q-26 0 -42.5 6t-28.5 14q-17 10 -31 18.5t-31 8.5q-20 0 -35 -10.5t-26 -34.5q-16 0 -38 8q-11 4 -17.5 8.5
t-11.5 9.5q19 47 53 75.5t81 28.5q33 0 53 -10t35 -21q11 -7 22 -12t23 -5q40 0 62 46q8 -1 17 -2t19 -6z" />
    <glyph glyph-name="Ograve" unicode="&#xd2;" horiz-adv-x="738" 
d="M333 -15q-129 0 -202.5 72.5t-73.5 218.5q0 90 22 174.5t67 150t114 104.5t163 39q126 0 199.5 -73.5t73.5 -221.5q0 -89 -22 -172.5t-67 -148.5t-113 -104t-161 -39zM335 84q65 0 112 31t77 81.5t44.5 115.5t14.5 133q0 103 -43.5 151.5t-124.5 48.5q-65 0 -111.5 -31.5
t-76.5 -82.5t-44 -116t-14 -132q0 -104 43.5 -151.5t122.5 -47.5zM489 813q-8 -2 -17.5 -3.5t-21.5 -1.5t-21 1.5t-17 3.5l-72 184q21 6 50 6t49 -6z" />
    <glyph glyph-name="Oacute" unicode="&#xd3;" horiz-adv-x="738" 
d="M333 -15q-129 0 -202.5 72.5t-73.5 218.5q0 90 22 174.5t67 150t114 104.5t163 39q126 0 199.5 -73.5t73.5 -221.5q0 -89 -22 -172.5t-67 -148.5t-113 -104t-161 -39zM335 84q65 0 112 31t77 81.5t44.5 115.5t14.5 133q0 103 -43.5 151.5t-124.5 48.5q-65 0 -111.5 -31.5
t-76.5 -82.5t-44 -116t-14 -132q0 -104 43.5 -151.5t122.5 -47.5zM564 1004q31 0 54 -6l-134 -184q-9 -2 -19 -3.5t-24 -1.5t-24 1.5t-19 3.5l111 184q22 6 55 6z" />
    <glyph glyph-name="Ocircumflex" unicode="&#xd4;" horiz-adv-x="738" 
d="M333 -15q-129 0 -202.5 72.5t-73.5 218.5q0 90 22 174.5t67 150t114 104.5t163 39q126 0 199.5 -73.5t73.5 -221.5q0 -89 -22 -172.5t-67 -148.5t-113 -104t-161 -39zM335 84q65 0 112 31t77 81.5t44.5 115.5t14.5 133q0 103 -43.5 151.5t-124.5 48.5q-65 0 -111.5 -31.5
t-76.5 -82.5t-44 -116t-14 -132q0 -104 43.5 -151.5t122.5 -47.5zM587 812q-9 -2 -18 -3.5t-21 -1.5q-13 0 -21.5 1.5t-16.5 3.5l-44 120l-78 -120q-9 -2 -19 -3.5t-22 -1.5q-13 0 -22 1.5t-17 3.5l112 185q13 3 25.5 4.5t31.5 1.5t31.5 -1.5t24.5 -4.5z" />
    <glyph glyph-name="Otilde" unicode="&#xd5;" horiz-adv-x="738" 
d="M333 -15q-129 0 -202.5 72.5t-73.5 218.5q0 90 22 174.5t67 150t114 104.5t163 39q126 0 199.5 -73.5t73.5 -221.5q0 -89 -22 -172.5t-67 -148.5t-113 -104t-161 -39zM335 84q65 0 112 31t77 81.5t44.5 115.5t14.5 133q0 103 -43.5 151.5t-124.5 48.5q-65 0 -111.5 -31.5
t-76.5 -82.5t-44 -116t-14 -132q0 -104 43.5 -151.5t122.5 -47.5zM615 927q11 -5 18.5 -9t12.5 -9q-19 -47 -53.5 -75.5t-81.5 -28.5q-26 0 -42.5 6t-28.5 14q-17 10 -31 18.5t-31 8.5q-20 0 -35 -10.5t-26 -34.5q-16 0 -38 8q-11 4 -17.5 8.5t-11.5 9.5q19 47 53 75.5
t81 28.5q33 0 53 -10t35 -21q11 -7 22 -12t23 -5q40 0 62 46q8 -1 17 -2t19 -6z" />
    <glyph glyph-name="Odieresis" unicode="&#xd6;" horiz-adv-x="738" 
d="M333 -15q-129 0 -202.5 72.5t-73.5 218.5q0 90 22 174.5t67 150t114 104.5t163 39q126 0 199.5 -73.5t73.5 -221.5q0 -89 -22 -172.5t-67 -148.5t-113 -104t-161 -39zM335 84q65 0 112 31t77 81.5t44.5 115.5t14.5 133q0 103 -43.5 151.5t-124.5 48.5q-65 0 -111.5 -31.5
t-76.5 -82.5t-44 -116t-14 -132q0 -104 43.5 -151.5t122.5 -47.5zM355 825q-29 0 -50 6q-2 10 -1.5 21t3.5 26q2 14 5 25t7 21q24 6 53 6t50 -6q1 -10 0.5 -21t-2.5 -25q-3 -15 -5.5 -26t-7.5 -21q-12 -3 -24 -4.5t-28 -1.5zM545 825q-29 0 -50 6q-1 10 -0.5 21t2.5 26
q3 14 5.5 25t7.5 21q22 6 52 6q29 0 50 -6q2 -10 1.5 -21t-3.5 -25q-2 -15 -5 -26t-7 -21q-24 -6 -53 -6z" />
    <glyph glyph-name="Oslash" unicode="&#xd8;" horiz-adv-x="738" 
d="M644 644q25 -36 38.5 -84.5t13.5 -110.5q0 -89 -22 -172.5t-67 -148.5t-113 -104t-161 -39q-96 0 -160 39l-65 -85q-11 4 -21 8.5t-21 12.5q-12 8 -20 15t-15 15l75 98q-49 72 -49 188q0 90 22 174.5t67 150t114 104.5t163 39q88 0 153 -37l63 82q19 -6 41 -20
q13 -8 21 -15.5t15 -15.5zM415 645q-65 0 -111.5 -31.5t-76.5 -82.5t-44 -116t-14 -132q0 -31 4 -56.5t12 -46.5l328 439q-40 26 -98 26zM335 84q65 0 112 31t77 81.5t44.5 115.5t14.5 133q0 64 -18 108l-330 -441q40 -28 100 -28z" />
    <glyph glyph-name="OE" unicode="&#x152;" horiz-adv-x="1026" 
d="M1028 729q2 -11 1.5 -25t-2.5 -25q-2 -14 -5.5 -25.5t-8.5 -22.5h-311l-33 -206h270q2 -9 1.5 -23t-2.5 -25q-4 -26 -14 -49h-271l-36 -230h325q2 -11 1 -24t-3 -25q-2 -14 -5.5 -26t-8.5 -23h-430l11 71q-38 -41 -86 -63.5t-108 -22.5q-57 0 -104 18t-81 54.5t-52.5 91
t-18.5 127.5q0 90 22 174.5t65.5 150t109 104.5t153.5 39q62 0 111.5 -25.5t79.5 -77.5l14 88h416zM331 84q62 0 106 31t72.5 82.5t41.5 117.5t13 137q0 98 -40.5 145.5t-112.5 47.5q-63 0 -108.5 -31.5t-75.5 -82.5t-44 -116t-14 -132q0 -104 43 -151.5t119 -47.5z" />
    <glyph glyph-name="Thorn" unicode="&#xde;" horiz-adv-x="622" 
d="M363 608q107 0 168 -52.5t61 -151.5q0 -63 -20.5 -113.5t-58.5 -85.5t-92.5 -54t-123.5 -19h-130l-20 -129q-12 -3 -24.5 -4.5t-29.5 -1.5q-31 0 -52 6l114 723q12 3 24.5 4.5t29.5 1.5q31 0 52 -6l-19 -118h121zM299 229q85 0 133 44t48 119q0 57 -36 88t-101 31h-116
l-44 -282h116z" />
    <glyph glyph-name="Scaron" unicode="&#x160;" horiz-adv-x="618" 
d="M271 -14q-44 0 -83 8t-72.5 21t-60 29.5t-44.5 33.5q5 11 11 20.5t16 22.5t19 22t17 16q40 -32 91 -53t114 -21q87 0 125.5 35.5t38.5 91.5q0 30 -10.5 48.5t-29.5 31t-47 20.5t-62 17q-40 10 -76.5 23.5t-64.5 35t-44.5 54t-16.5 80.5t17 88.5t50.5 70.5t83.5 47t117 17
q40 0 77.5 -7t69 -18t56.5 -25t41 -27q-4 -10 -10 -20t-14 -23q-18 -25 -34 -40q-34 25 -82.5 43t-108.5 18q-78 0 -114.5 -32t-36.5 -83q0 -26 10 -42t29.5 -27.5t47 -19t62.5 -16.5q40 -10 77 -23.5t65 -36t44.5 -57t16.5 -86.5q0 -53 -18.5 -96.5t-54.5 -74.5
t-89.5 -48.5t-122.5 -17.5zM438 814h1q-14 -3 -26 -4.5t-30 -1.5q-17 0 -29 1.5t-24 4.5l-58 185q9 2 19 3.5t22 1.5q13 0 22 -1.5t18 -3.5l41 -122l74 122q20 5 43 5t41 -5z" />
    <glyph glyph-name="Ugrave" unicode="&#xd9;" horiz-adv-x="729" 
d="M658 732q31 0 52 -6l-73 -459q-21 -132 -100 -207t-216 -75q-123 0 -185.5 58.5t-62.5 167.5q0 28 5 69t14.5 102t23 145t31.5 199q12 3 24.5 4.5t29.5 1.5q31 0 52 -6q-17 -111 -30 -193.5t-22 -142.5t-14 -100t-5 -66q-1 -74 36.5 -106.5t110.5 -32.5q84 0 136.5 49
t68.5 150l70 442q13 3 25 4.5t29 1.5zM485 813q-8 -2 -17.5 -3.5t-21.5 -1.5t-21 1.5t-17 3.5l-72 184q21 6 50 6t49 -6z" />
    <glyph glyph-name="Uacute" unicode="&#xda;" horiz-adv-x="729" 
d="M658 732q31 0 52 -6l-73 -459q-21 -132 -100 -207t-216 -75q-123 0 -185.5 58.5t-62.5 167.5q0 28 5 69t14.5 102t23 145t31.5 199q12 3 24.5 4.5t29.5 1.5q31 0 52 -6q-17 -111 -30 -193.5t-22 -142.5t-14 -100t-5 -66q-1 -74 36.5 -106.5t110.5 -32.5q84 0 136.5 49
t68.5 150l70 442q13 3 25 4.5t29 1.5zM560 1003q31 0 54 -6l-134 -184q-9 -2 -19 -3.5t-24 -1.5t-24 1.5t-19 3.5l111 184q22 6 55 6z" />
    <glyph glyph-name="Ucircumflex" unicode="&#xdb;" horiz-adv-x="729" 
d="M658 732q31 0 52 -6l-73 -459q-21 -132 -100 -207t-216 -75q-123 0 -185.5 58.5t-62.5 167.5q0 28 5 69t14.5 102t23 145t31.5 199q12 3 24.5 4.5t29.5 1.5q31 0 52 -6q-17 -111 -30 -193.5t-22 -142.5t-14 -100t-5 -66q-1 -74 36.5 -106.5t110.5 -32.5q84 0 136.5 49
t68.5 150l70 442q13 3 25 4.5t29 1.5zM584 812q-9 -2 -18 -3.5t-21 -1.5q-13 0 -21.5 1.5t-16.5 3.5l-44 120l-78 -120q-9 -2 -19 -3.5t-22 -1.5q-13 0 -22 1.5t-17 3.5l112 185q13 3 25.5 4.5t31.5 1.5t31.5 -1.5t24.5 -4.5z" />
    <glyph glyph-name="Udieresis" unicode="&#xdc;" horiz-adv-x="729" 
d="M658 732q31 0 52 -6l-73 -459q-21 -132 -100 -207t-216 -75q-123 0 -185.5 58.5t-62.5 167.5q0 28 5 69t14.5 102t23 145t31.5 199q12 3 24.5 4.5t29.5 1.5q31 0 52 -6q-17 -111 -30 -193.5t-22 -142.5t-14 -100t-5 -66q-1 -74 36.5 -106.5t110.5 -32.5q84 0 136.5 49
t68.5 150l70 442q13 3 25 4.5t29 1.5zM352 825q-29 0 -50 6q-2 10 -1.5 21t3.5 26q2 14 5 25t7 21q24 6 53 6t50 -6q1 -10 0.5 -21t-2.5 -25q-3 -15 -5.5 -26t-7.5 -21q-12 -3 -24 -4.5t-28 -1.5zM542 825q-29 0 -50 6q-1 10 -0.5 21t2.5 26q3 14 5.5 25t7.5 21q22 6 52 6
q29 0 50 -6q2 -10 1.5 -21t-3.5 -25q-2 -15 -5 -26t-7 -21q-24 -6 -53 -6z" />
    <glyph glyph-name="Yacute" unicode="&#xdd;" horiz-adv-x="633" 
d="M368 302l-48 -302q-12 -3 -24.5 -4.5t-29.5 -1.5q-32 0 -54 6l49 304l-193 422q14 3 27 4.5t32 1.5t32.5 -1.5t25.5 -4.5l101 -224q11 -26 21.5 -54t19.5 -56q17 29 34.5 56.5t38.5 54.5l173 223q25 6 62 6t61 -6zM512 1003q31 0 54 -6l-134 -184q-9 -2 -19 -3.5
t-24 -1.5t-24 1.5t-19 3.5l111 184q22 6 55 6z" />
    <glyph glyph-name="Ydieresis" unicode="&#x178;" horiz-adv-x="633" 
d="M368 302l-48 -302q-12 -3 -24.5 -4.5t-29.5 -1.5q-32 0 -54 6l49 304l-193 422q14 3 27 4.5t32 1.5t32.5 -1.5t25.5 -4.5l101 -224q11 -26 21.5 -54t19.5 -56q17 29 34.5 56.5t38.5 54.5l173 223q25 6 62 6t61 -6zM304 825q-29 0 -50 6q-2 10 -1.5 21t3.5 26q2 14 5 25
t7 21q24 6 53 6t50 -6q1 -10 0.5 -21t-2.5 -25q-3 -15 -5.5 -26t-7.5 -21q-12 -3 -24 -4.5t-28 -1.5zM494 825q-29 0 -50 6q-1 10 -0.5 21t2.5 26q3 14 5.5 25t7.5 21q22 6 52 6q29 0 50 -6q2 -10 1.5 -21t-3.5 -25q-2 -15 -5 -26t-7 -21q-24 -6 -53 -6z" />
    <glyph glyph-name="Zcaron" unicode="&#x17d;" horiz-adv-x="615" 
d="M620 692q0 -26 -9 -47.5t-26 -40.5l-443 -506h394q1 -4 1 -8v-9q0 -8 -0.5 -15.5t-2.5 -16.5q-4 -29 -13 -49h-526q-1 5 -1 16q0 17 4 36q4 31 13 51l461 528h-360q-2 10 -1.5 22t2.5 27q2 14 5.5 26t8.5 23h489q1 -6 2.5 -13.5t1.5 -23.5zM443 814h1q-14 -3 -26 -4.5
t-30 -1.5q-17 0 -29 1.5t-24 4.5l-58 185q9 2 19 3.5t22 1.5q13 0 22 -1.5t18 -3.5l41 -122l74 122q20 5 43 5t41 -5z" />
    <glyph glyph-name="a" unicode="a" horiz-adv-x="624" 
d="M542 555q13 0 22.5 -1.5t18.5 -3.5l-87 -550q-20 -6 -43 -6t-41 6l1 73q-34 -42 -79.5 -65t-99.5 -23q-42 0 -77.5 15t-61.5 43.5t-40.5 68.5t-14.5 91q0 78 19 144t54.5 114.5t85 75.5t111.5 27q56 0 98 -26.5t65 -74.5l26 87q10 2 20 3.5t23 1.5zM268 80
q40 0 72.5 17.5t55.5 50t35.5 77.5t12.5 100q0 66 -31.5 104.5t-84.5 38.5q-40 0 -72.5 -19t-55.5 -52t-35.5 -78.5t-12.5 -98.5q0 -66 31.5 -103t84.5 -37z" />
    <glyph glyph-name="b" unicode="b" horiz-adv-x="624" 
d="M377 564q42 0 77 -15t61 -43t40.5 -68.5t14.5 -91.5q0 -78 -19 -144t-54.5 -114t-85 -75t-110.5 -27q-56 0 -97.5 25.5t-64.5 73.5l-21 -83q-11 -3 -21.5 -4.5t-24.5 -1.5q-25 0 -43 6l125 786q22 6 53 6q17 0 29.5 -1.5t23.5 -4.5l-47 -293q33 33 74.5 51t89.5 18z
M283 81q40 0 72 19t55 52t35.5 78.5t12.5 98.5q0 66 -31.5 103.5t-83.5 37.5q-40 0 -72.5 -18t-56 -50.5t-36 -77.5t-12.5 -100q0 -66 32 -104.5t85 -38.5z" />
    <glyph glyph-name="c" unicode="c" horiz-adv-x="517" 
d="M334 564q51 0 92 -15t75 -39q-2 -10 -6 -20t-12 -23q-14 -23 -29 -37q-27 17 -57.5 28.5t-65.5 11.5q-42 0 -75 -19t-56 -52.5t-35 -79.5t-12 -99q0 -63 33 -101.5t91 -38.5q33 0 67.5 11.5t66.5 31.5q7 -6 13.5 -15t11.5 -23q6 -13 8 -23.5t2 -20.5q-43 -29 -91.5 -42
t-93.5 -13q-107 0 -164 61.5t-57 167.5q0 76 20.5 140t59 110.5t92.5 72.5t122 26z" />
    <glyph glyph-name="d" unicode="d" horiz-adv-x="623" 
d="M568 794q29 0 52 -6l-125 -786q-10 -3 -20 -4.5t-24 -1.5q-26 0 -45 6l5 68q-34 -41 -78.5 -63t-98.5 -22q-42 0 -77.5 15t-61.5 43.5t-40.5 68.5t-14.5 91q0 78 19 144t54.5 114.5t85 75.5t111.5 27q51 0 91 -22t64 -64l49 310q12 3 24.5 4.5t29.5 1.5zM268 80
q40 0 72.5 17.5t55.5 50t35.5 77.5t12.5 100q0 66 -31.5 104.5t-84.5 38.5q-40 0 -72.5 -19t-55.5 -52t-35.5 -78.5t-12.5 -98.5q0 -66 31.5 -103t84.5 -37z" />
    <glyph glyph-name="e" unicode="e" horiz-adv-x="566" 
d="M526 404q0 -51 -25.5 -88t-74.5 -62t-119 -37.5t-160 -13.5q7 -69 43 -97.5t101 -28.5q42 0 81.5 11t78.5 31q7 -7 13 -17t10 -22q3 -12 4 -23.5t1 -21.5q-54 -26 -104.5 -38t-107.5 -12q-112 0 -169 60t-57 173q0 70 18 132.5t55 110t92.5 75.5t129.5 28q93 0 141.5 -44
t48.5 -116zM149 284q129 -1 201 28.5t72 87.5q0 32 -23.5 53.5t-74.5 21.5q-41 0 -71.5 -15t-52 -41t-34.5 -61t-17 -74z" />
    <glyph glyph-name="f" unicode="f" horiz-adv-x="378" 
d="M367 803q37 0 67 -7.5t57 -17.5q-1 -11 -3 -21t-7 -22q-11 -29 -25 -46q-17 7 -41 12.5t-52 5.5q-39 0 -62 -20.5t-31 -65.5l-11 -71h131q1 -5 1 -10v-10q0 -6 -0.5 -12.5t-1.5 -14.5q-6 -26 -14 -46h-131l-73 -456q-11 -2 -24 -3.5t-30 -1.5q-16 0 -28.5 1.5t-23.5 3.5
l73 456h-86q-1 5 -1 8.5v8.5q0 12 3 30q2 14 5 24.5t7 21.5h87l12 79q14 83 66 128.5t136 45.5z" />
    <glyph glyph-name="g" unicode="g" horiz-adv-x="620" 
d="M534 552q14 0 24 -1.5t19 -3.5l-85 -538q-10 -64 -37 -109.5t-65 -74.5t-85 -42.5t-97 -13.5q-57 0 -107.5 12t-94.5 34q1 10 3.5 21.5t8.5 25.5q7 15 14 24t16 17q41 -18 81.5 -29t78.5 -11q69 0 117.5 33.5t61.5 115.5l10 64q-34 -33 -76.5 -51t-93.5 -18
q-42 0 -76 14.5t-58.5 41.5t-37.5 66t-13 87q0 76 19 139.5t53.5 110t84 72.5t110.5 26q55 0 96.5 -23t65.5 -65l17 71q11 2 21.5 3.5t24.5 1.5zM269 102q40 0 72.5 17.5t55.5 49t35.5 75.5t12.5 97q0 59 -32 93t-86 34q-39 0 -71 -17.5t-54.5 -49t-35 -74t-12.5 -91.5
q0 -63 31.5 -98.5t83.5 -35.5z" />
    <glyph glyph-name="h" unicode="h" horiz-adv-x="600" 
d="M380 564q73 0 115 -39t41 -108q0 -16 -4 -52t-11.5 -89t-18.5 -122t-25 -151q-29 -6 -54 -6q-27 0 -52 6q25 156 39.5 256.5t15.5 126.5q1 38 -20 58.5t-62 20.5q-63 0 -107 -52.5t-60 -145.5l-42 -264q-12 -3 -24.5 -4.5t-29.5 -1.5t-29 1.5t-23 4.5l125 785q22 6 53 6
q17 0 29.5 -1.5t23.5 -4.5l-49 -309q34 42 76.5 63.5t92.5 21.5z" />
    <glyph glyph-name="i" unicode="i" horiz-adv-x="262" 
d="M254 748q3 -20 -2 -49q-6 -35 -14 -52q-11 -3 -25.5 -4.5t-29.5 -1.5q-35 0 -56 6q-2 21 3 53q2 13 5 25.5t8 22.5q27 6 57 6q17 0 29.5 -1.5t24.5 -4.5zM114 547q12 2 25 3.5t30 1.5t28.5 -1.5t22.5 -3.5l-86 -544q-23 -6 -54 -6q-17 0 -29 1.5t-23 4.5z" />
    <glyph glyph-name="j" unicode="j" horiz-adv-x="263" 
d="M253 748q3 -20 -2 -49q-6 -35 -14 -52q-11 -3 -25.5 -4.5t-29.5 -1.5q-35 0 -56 6q-2 21 3 53q2 13 5 25.5t8 22.5q27 6 57 6q17 0 29.5 -1.5t24.5 -4.5zM115 548q12 3 24.5 4.5t29.5 1.5t29 -1.5t23 -4.5l-87 -553q-14 -91 -62 -149t-133 -77q-8 8 -13 19t-10 24
q-8 27 -6 48q51 17 79.5 46.5t36.5 79.5z" />
    <glyph glyph-name="k" unicode="k" horiz-adv-x="554" 
d="M207 794q17 0 29 -1.5t23 -4.5l-125 -786q-23 -6 -54 -6q-17 0 -29 1.5t-23 4.5l125 786q12 3 24.5 4.5t29.5 1.5zM320 279l178 -277q-14 -3 -27.5 -4.5t-30.5 -1.5q-20 0 -34.5 1.5t-27.5 4.5l-179 281l244 265q14 3 28.5 4.5t34.5 1.5q21 0 36.5 -1.5t29.5 -4.5z" />
    <glyph glyph-name="l" unicode="l" horiz-adv-x="262" 
d="M89 -5q-29 0 -43.5 15.5t-10.5 39.5l117 738q12 3 24.5 4.5t29.5 1.5t29 -1.5t23 -4.5l-125 -787q-18 -6 -44 -6z" />
    <glyph glyph-name="m" unicode="m" horiz-adv-x="922" 
d="M707 564q70 0 111 -39t40 -108q-1 -32 -16.5 -140.5t-43.5 -273.5q-27 -6 -54 -6q-25 0 -52 6q25 156 40 256.5t16 126.5q1 38 -19.5 58.5t-58.5 20.5q-58 0 -100 -48t-59 -133q-8 -54 -19 -124.5t-25 -156.5q-29 -6 -54 -6q-27 0 -52 6q25 156 39.5 256.5t15.5 126.5
q1 38 -19 58.5t-58 20.5q-63 0 -106 -54t-57 -150h-1l-41 -258q-11 -3 -24 -4.5t-30 -1.5t-29 1.5t-23 4.5l86 544q11 2 21.5 3.5t24.5 1.5t24 -1.5t20 -3.5l-5 -81q34 48 78.5 73t97.5 25q60 0 98.5 -29t49.5 -80q35 53 81 81t103 28z" />
    <glyph glyph-name="n" unicode="n" horiz-adv-x="600" 
d="M380 564q72 0 114.5 -39t41.5 -108q-1 -32 -16.5 -140.5t-43.5 -273.5q-27 -6 -54 -6q-25 0 -52 6q25 156 40 256.5t16 126.5q1 38 -20.5 58.5t-62.5 20.5q-64 0 -108 -54t-60 -150l-41 -258q-27 -6 -54 -6q-25 0 -52 6l86 544q12 3 23.5 4t22.5 1q12 0 22.5 -1t21.5 -4
l-5 -83q35 49 80.5 74.5t100.5 25.5z" />
    <glyph glyph-name="o" unicode="o" horiz-adv-x="613" 
d="M265 -15q-50 0 -91 16t-70.5 45.5t-46 72t-16.5 96.5q0 78 20 142t58 110t92.5 71.5t123.5 25.5q50 0 91 -15.5t70.5 -45t46 -72t16.5 -95.5q0 -78 -20 -142.5t-57.5 -111t-92 -72t-124.5 -25.5zM276 79q40 0 71.5 18t53.5 51t34 79.5t12 102.5q0 65 -33 101.5t-90 38.5
q-40 0 -71.5 -18t-53.5 -51t-34 -79t-12 -103q0 -65 33.5 -102.5t89.5 -37.5z" />
    <glyph glyph-name="p" unicode="p" horiz-adv-x="625" 
d="M378 564q42 0 77.5 -15t61.5 -43t40.5 -68.5t14.5 -91.5q0 -78 -19 -144t-54.5 -114t-85.5 -75t-111 -27q-51 0 -91 22.5t-64 64.5l-46 -288q-26 -6 -55 -6t-51 6l120 762q11 3 22.5 4t23.5 1q13 0 23.5 -1t19.5 -4l-4 -69q34 42 79 64t99 22zM284 81q40 0 72.5 19
t55.5 52t35.5 78.5t12.5 98.5q0 66 -31.5 103.5t-84.5 37.5q-40 0 -72.5 -18t-55.5 -50.5t-35.5 -77.5t-12.5 -100q0 -66 31.5 -104.5t84.5 -38.5z" />
    <glyph glyph-name="q" unicode="q" horiz-adv-x="625" 
d="M463 -215q-24 -6 -55 -6q-17 0 -28.5 1.5t-22.5 4.5l43 273q-33 -35 -75 -54t-91 -19q-42 0 -77.5 15t-61.5 43.5t-40.5 68.5t-14.5 91q0 78 19 144t54.5 114.5t85 75.5t111.5 27q56 0 98 -26.5t65 -75.5l21 85h-1q11 2 21.5 3.5t24.5 1.5t24.5 -1.5t19.5 -3.5zM268 80
q40 0 72.5 17.5t55.5 50t35.5 77.5t12.5 100q0 66 -31.5 104.5t-84.5 38.5q-40 0 -72.5 -19t-55.5 -52t-35.5 -78.5t-12.5 -98.5q0 -66 31.5 -103t84.5 -37z" />
    <glyph glyph-name="r" unicode="r" horiz-adv-x="386" 
d="M363 564q12 0 22 -1.5t21 -3.5q0 -12 -3 -26.5t-6 -25.5q-4 -14 -8 -26t-11 -25q-25 5 -43 5q-30 0 -54.5 -9.5t-44.5 -32t-35 -58.5t-24 -89l-43 -269q-23 -6 -54 -6q-17 0 -29 1.5t-23 4.5l86 544h1q10 2 20.5 3.5t24.5 1.5t24 -1.5t19 -3.5h1l-5 -78q35 49 77 72
t87 23z" />
    <glyph glyph-name="s" unicode="s" horiz-adv-x="509" 
d="M280 474q-48 0 -79.5 -17t-31.5 -61q0 -30 25 -44t82 -29q38 -10 68.5 -20.5t52 -27.5t33 -42.5t11.5 -65.5q0 -47 -17.5 -81.5t-47.5 -57t-71 -33t-89 -10.5q-65 0 -117.5 14.5t-89.5 34.5q2 10 4.5 21t10.5 25q7 14 13.5 23.5t14.5 17.5q32 -18 74.5 -31.5t92.5 -13.5
q59 0 86.5 22t27.5 60q0 17 -5.5 28.5t-18.5 20t-34.5 15.5t-52.5 15q-35 9 -64 20t-50 28t-33 41t-12 60q0 45 16 78.5t45 56t68.5 33.5t86.5 11q59 0 107.5 -13t85.5 -31q-1 -9 -4 -21t-9 -24q-11 -26 -26 -41q-13 8 -31.5 15t-39.5 12.5t-42 8.5t-40 3z" />
    <glyph glyph-name="t" unicode="t" horiz-adv-x="398" 
d="M388 550q1 -4 1 -8v-9q0 -6 -0.5 -13.5t-2.5 -16.5q-2 -14 -5 -24.5t-7 -21.5h-135q-13 -80 -22.5 -138t-15.5 -98t-9 -63.5t-3 -33.5q0 -23 16.5 -32.5t42.5 -9.5q20 0 37.5 4.5t33.5 12.5q12 -18 18 -42q6 -22 3 -44q-21 -11 -54.5 -19t-78.5 -8q-21 0 -43.5 6
t-41 18.5t-30.5 33t-12 49.5q0 13 2.5 37t9 66t16.5 105.5t25 155.5h-83q-1 5 -1 8.5v8.5q0 7 0.5 14.5t1.5 15.5q2 14 5 24.5t8 21.5h86l54 147q18 5 38 5t35 -5q-6 -41 -12 -77.5t-11 -69.5h134v0z" />
    <glyph glyph-name="u" unicode="u" horiz-adv-x="590" 
d="M496 552q14 0 26.5 -1t25.5 -4l-86 -544q-23 -6 -46 -6q-22 0 -43 6l5 79q-34 -47 -78.5 -72t-97.5 -25q-71 0 -111.5 39.5t-39.5 108.5q0 32 15.5 140t43.5 274q14 3 27 4t27 1t26.5 -1t25.5 -4q-13 -78 -23 -143t-17 -114t-11 -81.5t-4 -45.5q-1 -37 19 -57.5t58 -20.5
q60 0 102 49.5t59 137.5l43 275q14 3 27 4t27 1z" />
    <glyph glyph-name="v" unicode="v" horiz-adv-x="539" 
d="M502 552q17 0 30.5 -1.5t24.5 -3.5l-275 -544q-14 -3 -28.5 -4.5t-34.5 -1.5t-34 1.5t-27 4.5l-103 544q12 2 25.5 3.5t30.5 1.5q28 0 51 -5l56 -335q5 -33 9 -67.5t5 -51.5q3 9 9 22.5t12.5 29.5t14 33.5t15.5 33.5l161 335q25 5 58 5z" />
    <glyph glyph-name="w" unicode="w" horiz-adv-x="801" 
d="M762 552q16 0 28.5 -1.5t23.5 -3.5l-242 -544q-24 -6 -59 -6q-18 0 -31.5 1.5t-25.5 4.5l-34 305q-3 28 -4.5 62.5t-1.5 63.5q-9 -30 -21.5 -63.5t-24.5 -62.5l-128 -305q-24 -6 -58 -6q-35 0 -57 6l-67 544q11 2 23.5 3.5t28.5 1.5q15 0 26.5 -1.5t21.5 -3.5l30 -315
q3 -36 4.5 -71.5t1.5 -66.5q6 21 18.5 57.5t29.5 80.5l127 315q14 2 30 3.5t36 1.5q17 0 30 -1.5t24 -3.5l32 -315q2 -32 3.5 -67.5t1.5 -69.5q5 20 18.5 56.5t30.5 80.5l129 315q12 2 25.5 3.5t30.5 1.5z" />
    <glyph glyph-name="x" unicode="x" horiz-adv-x="532" 
d="M322 270l140 -267q-13 -3 -27 -4.5t-32 -1.5q-17 0 -30 1.5t-25 4.5l-102 194l-149 -194q-27 -6 -64 -6q-20 0 -34 1.5t-28 4.5l229 281l-137 263q13 2 27 3.5t32 1.5q17 0 30 -1.5t25 -3.5l98 -187l142 187q14 2 29 3.5t35 1.5t34 -1.5t28 -3.5z" />
    <glyph glyph-name="y" unicode="y" horiz-adv-x="590" 
d="M497 552q16 0 28 -1.5t23 -3.5l-84 -538q-10 -66 -36.5 -111.5t-64 -74t-83 -41.5t-94.5 -13q-54 0 -104.5 11.5t-91.5 32.5q0 11 3.5 23.5t8.5 23.5q6 12 13.5 23t16.5 18q38 -18 77.5 -29t75.5 -11q33 0 62 8t51.5 26t38 47t21.5 70l13 83q-33 -40 -76 -61.5t-93 -21.5
q-70 0 -110 36.5t-39 97.5q0 32 15 135.5t43 265.5q14 3 27 4t27 1t26 -1t26 -4q-26 -153 -40 -248.5t-14 -121.5q-1 -30 18.5 -47.5t57.5 -17.5q61 0 104 49.5t59 130.5l40 255q12 2 25 3.5t30 1.5z" />
    <glyph glyph-name="z" unicode="z" horiz-adv-x="524" 
d="M505 550q1 -5 1 -10v-10q0 -16 -3 -32q-2 -11 -7.5 -22.5t-13.5 -21.5l-330 -362h288v-16v-13.5t-2 -16.5q-6 -27 -13 -46h-426q0 5 -0.5 9t-0.5 9t0.5 11t1.5 14q4 25 13 42l339 372h-275v17v14t2 16q2 14 5 24.5t8 21.5h413v0z" />
    <glyph glyph-name="agrave" unicode="&#xe0;" horiz-adv-x="624" 
d="M542 555q13 0 22.5 -1.5t18.5 -3.5l-87 -550q-20 -6 -43 -6t-41 6l1 73q-34 -42 -79.5 -65t-99.5 -23q-42 0 -77.5 15t-61.5 43.5t-40.5 68.5t-14.5 91q0 78 19 144t54.5 114.5t85 75.5t111.5 27q56 0 98 -26.5t65 -74.5l26 87q10 2 20 3.5t23 1.5zM268 80
q40 0 72.5 17.5t55.5 50t35.5 77.5t12.5 100q0 66 -31.5 104.5t-84.5 38.5q-40 0 -72.5 -19t-55.5 -52t-35.5 -78.5t-12.5 -98.5q0 -66 31.5 -103t84.5 -37zM392 634q-8 -2 -17.5 -3.5t-21.5 -1.5t-21 1.5t-17 3.5l-72 184q21 6 50 6t49 -6z" />
    <glyph glyph-name="aacute" unicode="&#xe1;" horiz-adv-x="624" 
d="M542 555q13 0 22.5 -1.5t18.5 -3.5l-87 -550q-20 -6 -43 -6t-41 6l1 73q-34 -42 -79.5 -65t-99.5 -23q-42 0 -77.5 15t-61.5 43.5t-40.5 68.5t-14.5 91q0 78 19 144t54.5 114.5t85 75.5t111.5 27q56 0 98 -26.5t65 -74.5l26 87q10 2 20 3.5t23 1.5zM268 80
q40 0 72.5 17.5t55.5 50t35.5 77.5t12.5 100q0 66 -31.5 104.5t-84.5 38.5q-40 0 -72.5 -19t-55.5 -52t-35.5 -78.5t-12.5 -98.5q0 -66 31.5 -103t84.5 -37zM467 824q31 0 54 -6l-134 -184q-9 -2 -19 -3.5t-24 -1.5t-24 1.5t-19 3.5l111 184q22 6 55 6z" />
    <glyph glyph-name="acircumflex" unicode="&#xe2;" horiz-adv-x="624" 
d="M542 555q13 0 22.5 -1.5t18.5 -3.5l-87 -550q-20 -6 -43 -6t-41 6l1 73q-34 -42 -79.5 -65t-99.5 -23q-42 0 -77.5 15t-61.5 43.5t-40.5 68.5t-14.5 91q0 78 19 144t54.5 114.5t85 75.5t111.5 27q56 0 98 -26.5t65 -74.5l26 87q10 2 20 3.5t23 1.5zM268 80
q40 0 72.5 17.5t55.5 50t35.5 77.5t12.5 100q0 66 -31.5 104.5t-84.5 38.5q-40 0 -72.5 -19t-55.5 -52t-35.5 -78.5t-12.5 -98.5q0 -66 31.5 -103t84.5 -37zM491 633q-9 -2 -18 -3.5t-21 -1.5q-13 0 -21.5 1.5t-16.5 3.5l-44 120l-78 -120q-9 -2 -19 -3.5t-22 -1.5
q-13 0 -22 1.5t-17 3.5l112 185q13 3 25.5 4.5t31.5 1.5t31.5 -1.5t24.5 -4.5z" />
    <glyph glyph-name="atilde" unicode="&#xe3;" horiz-adv-x="624" 
d="M542 555q13 0 22.5 -1.5t18.5 -3.5l-87 -550q-20 -6 -43 -6t-41 6l1 73q-34 -42 -79.5 -65t-99.5 -23q-42 0 -77.5 15t-61.5 43.5t-40.5 68.5t-14.5 91q0 78 19 144t54.5 114.5t85 75.5t111.5 27q56 0 98 -26.5t65 -74.5l26 87q10 2 20 3.5t23 1.5zM268 80
q40 0 72.5 17.5t55.5 50t35.5 77.5t12.5 100q0 66 -31.5 104.5t-84.5 38.5q-40 0 -72.5 -19t-55.5 -52t-35.5 -78.5t-12.5 -98.5q0 -66 31.5 -103t84.5 -37zM519 748q11 -5 18.5 -9t12.5 -9q-19 -47 -53.5 -75.5t-81.5 -28.5q-26 0 -42.5 6t-28.5 14q-17 10 -31 18.5
t-31 8.5q-20 0 -35 -10.5t-26 -34.5q-16 0 -38 8q-11 4 -17.5 8.5t-11.5 9.5q19 47 53 75.5t81 28.5q33 0 53 -10t35 -21q11 -7 22 -12t23 -5q40 0 62 46q8 -1 17 -2t19 -6z" />
    <glyph glyph-name="adieresis" unicode="&#xe4;" horiz-adv-x="624" 
d="M542 555q13 0 22.5 -1.5t18.5 -3.5l-87 -550q-20 -6 -43 -6t-41 6l1 73q-34 -42 -79.5 -65t-99.5 -23q-42 0 -77.5 15t-61.5 43.5t-40.5 68.5t-14.5 91q0 78 19 144t54.5 114.5t85 75.5t111.5 27q56 0 98 -26.5t65 -74.5l26 87q10 2 20 3.5t23 1.5zM268 80
q40 0 72.5 17.5t55.5 50t35.5 77.5t12.5 100q0 66 -31.5 104.5t-84.5 38.5q-40 0 -72.5 -19t-55.5 -52t-35.5 -78.5t-12.5 -98.5q0 -66 31.5 -103t84.5 -37zM259 645q-29 0 -50 6q-2 10 -1.5 21t3.5 26q2 14 5 25t7 21q24 6 53 6t50 -6q1 -10 0.5 -21t-2.5 -25
q-3 -15 -5.5 -26t-7.5 -21q-12 -3 -24 -4.5t-28 -1.5zM449 645q-29 0 -50 6q-1 10 -0.5 21t2.5 26q3 14 5.5 25t7.5 21q22 6 52 6q29 0 50 -6q2 -10 1.5 -21t-3.5 -25q-2 -15 -5 -26t-7 -21q-24 -6 -53 -6z" />
    <glyph glyph-name="aring" unicode="&#xe5;" horiz-adv-x="624" 
d="M542 555q13 0 22.5 -1.5t18.5 -3.5l-87 -550q-20 -6 -43 -6t-41 6l1 73q-34 -42 -79.5 -65t-99.5 -23q-42 0 -77.5 15t-61.5 43.5t-40.5 68.5t-14.5 91q0 78 19 144t54.5 114.5t85 75.5t111.5 27q56 0 98 -26.5t65 -74.5l26 87q10 2 20 3.5t23 1.5zM268 80
q40 0 72.5 17.5t55.5 50t35.5 77.5t12.5 100q0 66 -31.5 104.5t-84.5 38.5q-40 0 -72.5 -19t-55.5 -52t-35.5 -78.5t-12.5 -98.5q0 -66 31.5 -103t84.5 -37zM355 625q-52 0 -80.5 26.5t-28.5 74.5q0 54 36 87.5t97 33.5q53 0 81 -26t28 -74q0 -55 -36 -88.5t-97 -33.5z
M362 688q26 0 40.5 15.5t14.5 38.5q0 42 -43 42q-27 0 -42 -16t-15 -39q0 -20 12.5 -30.5t32.5 -10.5z" />
    <glyph glyph-name="ae" unicode="&#xe6;" horiz-adv-x="975" 
d="M936 404q0 -51 -26.5 -88t-76 -62t-122 -37.5t-163.5 -13.5q7 -69 44.5 -97.5t103.5 -28.5q43 0 84 11t81 31q7 -7 13 -17t10 -22q3 -12 4 -23.5t1 -21.5q-54 -26 -104.5 -38t-107.5 -12q-117 0 -172 73l-9 -58q-20 -6 -43 -6t-41 6l1 73q-34 -42 -79.5 -65t-99.5 -23
q-42 0 -77.5 15t-61.5 43.5t-40.5 68.5t-14.5 91q0 78 19 144t54.5 114.5t85 75.5t111.5 27q56 0 98 -26.5t65 -74.5l26 87q10 2 20 3.5t23 1.5t22.5 -1.5t18.5 -3.5l-7 -42q33 26 75.5 41t94.5 15q93 0 141.5 -44t48.5 -116zM550 284q133 -1 207.5 28.5t74.5 87.5
q0 32 -25 53.5t-78 21.5q-42 0 -73.5 -15t-53.5 -41t-35 -61t-17 -74zM268 80q40 0 72.5 17.5t55.5 50t35.5 77.5t12.5 100q0 66 -31.5 104.5t-84.5 38.5q-40 0 -72.5 -19t-55.5 -52t-35.5 -78.5t-12.5 -98.5q0 -66 31.5 -103t84.5 -37z" />
    <glyph glyph-name="ccedilla" unicode="&#xe7;" horiz-adv-x="517" 
d="M334 564q51 0 92 -15t75 -39q-2 -10 -6 -20t-12 -23q-14 -23 -29 -37q-28 17 -58 28.5t-65 11.5q-42 0 -75 -19t-56.5 -52.5t-35.5 -79.5t-12 -99q0 -63 33.5 -101.5t91.5 -38.5q32 0 67 11.5t67 31.5q7 -6 13.5 -15t11.5 -23q5 -13 7 -23.5t2 -20.5q-35 -24 -75.5 -37
t-79.5 -17q5 -14 7.5 -28t2.5 -28q0 -60 -37.5 -98t-101.5 -38q-29 0 -56 6.5t-49 19.5q2 9 5.5 17.5t9.5 19.5t11.5 18.5t11.5 14.5q31 -17 60 -17q35 0 52 23.5t17 65.5v12t-1 13q-88 11 -135 70.5t-47 156.5q0 76 20.5 140t59 110.5t92.5 72.5t122 26z" />
    <glyph glyph-name="egrave" unicode="&#xe8;" horiz-adv-x="566" 
d="M526 404q0 -51 -25.5 -88t-74.5 -62t-119 -37.5t-160 -13.5q7 -69 43 -97.5t101 -28.5q42 0 81.5 11t78.5 31q7 -7 13 -17t10 -22q3 -12 4 -23.5t1 -21.5q-54 -26 -104.5 -38t-107.5 -12q-112 0 -169 60t-57 173q0 70 18 132.5t55 110t92.5 75.5t129.5 28q93 0 141.5 -44
t48.5 -116zM149 284q129 -1 201 28.5t72 87.5q0 32 -23.5 53.5t-74.5 21.5q-41 0 -71.5 -15t-52 -41t-34.5 -61t-17 -74zM378 634q-8 -2 -17.5 -3.5t-21.5 -1.5t-21 1.5t-17 3.5l-72 184q21 6 50 6t49 -6z" />
    <glyph glyph-name="eacute" unicode="&#xe9;" horiz-adv-x="566" 
d="M526 404q0 -51 -25.5 -88t-74.5 -62t-119 -37.5t-160 -13.5q7 -69 43 -97.5t101 -28.5q42 0 81.5 11t78.5 31q7 -7 13 -17t10 -22q3 -12 4 -23.5t1 -21.5q-54 -26 -104.5 -38t-107.5 -12q-112 0 -169 60t-57 173q0 70 18 132.5t55 110t92.5 75.5t129.5 28q93 0 141.5 -44
t48.5 -116zM149 284q129 -1 201 28.5t72 87.5q0 32 -23.5 53.5t-74.5 21.5q-41 0 -71.5 -15t-52 -41t-34.5 -61t-17 -74zM454 824q31 0 54 -6l-134 -184q-9 -2 -19 -3.5t-24 -1.5t-24 1.5t-19 3.5l111 184q22 6 55 6z" />
    <glyph glyph-name="ecircumflex" unicode="&#xea;" horiz-adv-x="566" 
d="M526 404q0 -51 -25.5 -88t-74.5 -62t-119 -37.5t-160 -13.5q7 -69 43 -97.5t101 -28.5q42 0 81.5 11t78.5 31q7 -7 13 -17t10 -22q3 -12 4 -23.5t1 -21.5q-54 -26 -104.5 -38t-107.5 -12q-112 0 -169 60t-57 173q0 70 18 132.5t55 110t92.5 75.5t129.5 28q93 0 141.5 -44
t48.5 -116zM149 284q129 -1 201 28.5t72 87.5q0 32 -23.5 53.5t-74.5 21.5q-41 0 -71.5 -15t-52 -41t-34.5 -61t-17 -74zM477 633q-9 -2 -18 -3.5t-21 -1.5q-13 0 -21.5 1.5t-16.5 3.5l-44 120l-78 -120q-9 -2 -19 -3.5t-22 -1.5q-13 0 -22 1.5t-17 3.5l112 185
q13 3 25.5 4.5t31.5 1.5t31.5 -1.5t24.5 -4.5z" />
    <glyph glyph-name="edieresis" unicode="&#xeb;" horiz-adv-x="566" 
d="M526 404q0 -51 -25.5 -88t-74.5 -62t-119 -37.5t-160 -13.5q7 -69 43 -97.5t101 -28.5q42 0 81.5 11t78.5 31q7 -7 13 -17t10 -22q3 -12 4 -23.5t1 -21.5q-54 -26 -104.5 -38t-107.5 -12q-112 0 -169 60t-57 173q0 70 18 132.5t55 110t92.5 75.5t129.5 28q93 0 141.5 -44
t48.5 -116zM149 284q129 -1 201 28.5t72 87.5q0 32 -23.5 53.5t-74.5 21.5q-41 0 -71.5 -15t-52 -41t-34.5 -61t-17 -74zM245 645q-29 0 -50 6q-2 10 -1.5 21t3.5 26q2 14 5 25t7 21q24 6 53 6t50 -6q1 -10 0.5 -21t-2.5 -25q-3 -15 -5.5 -26t-7.5 -21q-12 -3 -24 -4.5
t-28 -1.5zM435 645q-29 0 -50 6q-1 10 -0.5 21t2.5 26q3 14 5.5 25t7.5 21q22 6 52 6q29 0 50 -6q2 -10 1.5 -21t-3.5 -25q-2 -15 -5 -26t-7 -21q-24 -6 -53 -6z" />
    <glyph glyph-name="dotlessi" unicode="&#x131;" horiz-adv-x="262" 
d="M169 552q17 0 28.5 -1.5t22.5 -3.5l-86 -544q-23 -6 -54 -6q-17 0 -29 1.5t-23 4.5l86 544q12 2 25 3.5t30 1.5z" />
    <glyph glyph-name="igrave" unicode="&#xec;" horiz-adv-x="262" 
d="M169 552q17 0 28.5 -1.5t22.5 -3.5l-86 -544q-23 -6 -54 -6q-17 0 -29 1.5t-23 4.5l86 544q12 2 25 3.5t30 1.5zM223 634q-8 -2 -17.5 -3.5t-21.5 -1.5t-21 1.5t-17 3.5l-72 184q21 6 50 6t49 -6z" />
    <glyph glyph-name="iacute" unicode="&#xed;" horiz-adv-x="262" 
d="M169 552q17 0 28.5 -1.5t22.5 -3.5l-86 -544q-23 -6 -54 -6q-17 0 -29 1.5t-23 4.5l86 544q12 2 25 3.5t30 1.5zM298 824q31 0 54 -6l-134 -184q-9 -2 -19 -3.5t-24 -1.5t-24 1.5t-19 3.5l111 184q22 6 55 6z" />
    <glyph glyph-name="icircumflex" unicode="&#xee;" horiz-adv-x="262" 
d="M169 552q17 0 28.5 -1.5t22.5 -3.5l-86 -544q-23 -6 -54 -6q-17 0 -29 1.5t-23 4.5l86 544q12 2 25 3.5t30 1.5zM322 633q-9 -2 -18 -3.5t-21 -1.5q-13 0 -21.5 1.5t-16.5 3.5l-44 120l-78 -120q-9 -2 -19 -3.5t-22 -1.5q-13 0 -22 1.5t-17 3.5l112 185q13 3 25.5 4.5
t31.5 1.5t31.5 -1.5t24.5 -4.5z" />
    <glyph glyph-name="idieresis" unicode="&#xef;" horiz-adv-x="262" 
d="M169 552q17 0 28.5 -1.5t22.5 -3.5l-86 -544q-23 -6 -54 -6q-17 0 -29 1.5t-23 4.5l86 544q12 2 25 3.5t30 1.5zM89 645q-29 0 -50 6q-2 10 -1.5 21t3.5 26q2 14 5 25t7 21q24 6 53 6t50 -6q1 -10 0.5 -21t-2.5 -25q-3 -15 -5.5 -26t-7.5 -21q-12 -3 -24 -4.5t-28 -1.5z
M279 645q-29 0 -50 6q-1 10 -0.5 21t2.5 26q3 14 5.5 25t7.5 21q22 6 52 6q29 0 50 -6q2 -10 1.5 -21t-3.5 -25q-2 -15 -5 -26t-7 -21q-24 -6 -53 -6z" />
    <glyph glyph-name="eth" unicode="&#xf0;" horiz-adv-x="608" 
d="M468 691q42 -75 64 -155.5t22 -170.5q0 -79 -17 -148.5t-53 -121t-92.5 -81t-135.5 -29.5q-50 0 -89.5 13t-67.5 40.5t-43 71t-15 105.5q0 66 17 126.5t51.5 106t86.5 73t123 27.5q35 0 60.5 -7t42.5 -16q-9 35 -20 64.5t-25 60.5l-138 -63q-4 6 -7 12.5t-6 17.5
q-6 18 -6 32l126 58q-11 18 -23 38.5t-27 43.5q10 4 22 7.5t27 6.5q11 2 25.5 2h22.5q11 -14 21.5 -29t20.5 -29l140 64q4 -6 7.5 -12.5t6.5 -17.5q3 -10 4 -17.5t1 -15.5zM276 81q45 0 76 19.5t51 52t29 73.5t9 84q0 78 -29 110.5t-86 32.5q-48 0 -81.5 -20t-54.5 -52
t-30.5 -72t-9.5 -79q0 -76 33 -112.5t93 -36.5z" />
    <glyph glyph-name="lslash" unicode="&#x142;" horiz-adv-x="401" 
d="M255 377l-60 -376q-18 -6 -45 -6q-29 0 -43 15.5t-11 39.5l44 275l-100 -45q-5 8 -8 16.5t-7 20.5q-5 12 -6.5 21t-2.5 18l139 63l59 369q22 6 54 6q17 0 29 -1.5t23 -4.5l-50 -317l102 47q5 -7 8.5 -15t7.5 -20q5 -12 6.5 -21.5t2.5 -19.5z" />
    <glyph glyph-name="ntilde" unicode="&#xf1;" horiz-adv-x="600" 
d="M380 564q72 0 114.5 -39t41.5 -108q-1 -32 -16.5 -140.5t-43.5 -273.5q-27 -6 -54 -6q-25 0 -52 6q25 156 40 256.5t16 126.5q1 38 -20.5 58.5t-62.5 20.5q-64 0 -108 -54t-60 -150l-41 -258q-27 -6 -54 -6q-25 0 -52 6l86 544q12 3 23.5 4t22.5 1q12 0 22.5 -1t21.5 -4
l-5 -83q35 49 80.5 74.5t100.5 25.5zM521 748q11 -5 18.5 -9t12.5 -9q-19 -47 -53.5 -75.5t-81.5 -28.5q-26 0 -42.5 6t-28.5 14q-17 10 -31 18.5t-31 8.5q-20 0 -35 -10.5t-26 -34.5q-16 0 -38 8q-11 4 -17.5 8.5t-11.5 9.5q19 47 53 75.5t81 28.5q33 0 53 -10t35 -21
q11 -7 22 -12t23 -5q40 0 62 46q8 -1 17 -2t19 -6z" />
    <glyph glyph-name="ograve" unicode="&#xf2;" horiz-adv-x="613" 
d="M265 -15q-50 0 -91 16t-70.5 45.5t-46 72t-16.5 96.5q0 78 20 142t58 110t92.5 71.5t123.5 25.5q50 0 91 -15.5t70.5 -45t46 -72t16.5 -95.5q0 -78 -20 -142.5t-57.5 -111t-92 -72t-124.5 -25.5zM276 79q40 0 71.5 18t53.5 51t34 79.5t12 102.5q0 65 -33 101.5t-90 38.5
q-40 0 -71.5 -18t-53.5 -51t-34 -79t-12 -103q0 -65 33.5 -102.5t89.5 -37.5zM396 634q-8 -2 -17.5 -3.5t-21.5 -1.5t-21 1.5t-17 3.5l-72 184q21 6 50 6t49 -6z" />
    <glyph glyph-name="oacute" unicode="&#xf3;" horiz-adv-x="613" 
d="M265 -15q-50 0 -91 16t-70.5 45.5t-46 72t-16.5 96.5q0 78 20 142t58 110t92.5 71.5t123.5 25.5q50 0 91 -15.5t70.5 -45t46 -72t16.5 -95.5q0 -78 -20 -142.5t-57.5 -111t-92 -72t-124.5 -25.5zM276 79q40 0 71.5 18t53.5 51t34 79.5t12 102.5q0 65 -33 101.5t-90 38.5
q-40 0 -71.5 -18t-53.5 -51t-34 -79t-12 -103q0 -65 33.5 -102.5t89.5 -37.5zM472 824q31 0 54 -6l-134 -184q-9 -2 -19 -3.5t-24 -1.5t-24 1.5t-19 3.5l111 184q22 6 55 6z" />
    <glyph glyph-name="ocircumflex" unicode="&#xf4;" horiz-adv-x="613" 
d="M265 -15q-50 0 -91 16t-70.5 45.5t-46 72t-16.5 96.5q0 78 20 142t58 110t92.5 71.5t123.5 25.5q50 0 91 -15.5t70.5 -45t46 -72t16.5 -95.5q0 -78 -20 -142.5t-57.5 -111t-92 -72t-124.5 -25.5zM276 79q40 0 71.5 18t53.5 51t34 79.5t12 102.5q0 65 -33 101.5t-90 38.5
q-40 0 -71.5 -18t-53.5 -51t-34 -79t-12 -103q0 -65 33.5 -102.5t89.5 -37.5zM495 633q-9 -2 -18 -3.5t-21 -1.5q-13 0 -21.5 1.5t-16.5 3.5l-44 120l-78 -120q-9 -2 -19 -3.5t-22 -1.5q-13 0 -22 1.5t-17 3.5l112 185q13 3 25.5 4.5t31.5 1.5t31.5 -1.5t24.5 -4.5z" />
    <glyph glyph-name="otilde" unicode="&#xf5;" horiz-adv-x="613" 
d="M265 -15q-50 0 -91 16t-70.5 45.5t-46 72t-16.5 96.5q0 78 20 142t58 110t92.5 71.5t123.5 25.5q50 0 91 -15.5t70.5 -45t46 -72t16.5 -95.5q0 -78 -20 -142.5t-57.5 -111t-92 -72t-124.5 -25.5zM276 79q40 0 71.5 18t53.5 51t34 79.5t12 102.5q0 65 -33 101.5t-90 38.5
q-40 0 -71.5 -18t-53.5 -51t-34 -79t-12 -103q0 -65 33.5 -102.5t89.5 -37.5zM522 748q11 -5 18.5 -9t12.5 -9q-19 -47 -53.5 -75.5t-81.5 -28.5q-26 0 -42.5 6t-28.5 14q-17 10 -31 18.5t-31 8.5q-20 0 -35 -10.5t-26 -34.5q-16 0 -38 8q-11 4 -17.5 8.5t-11.5 9.5
q19 47 53 75.5t81 28.5q33 0 53 -10t35 -21q11 -7 22 -12t23 -5q40 0 62 46q8 -1 17 -2t19 -6z" />
    <glyph glyph-name="odieresis" unicode="&#xf6;" horiz-adv-x="613" 
d="M265 -15q-50 0 -91 16t-70.5 45.5t-46 72t-16.5 96.5q0 78 20 142t58 110t92.5 71.5t123.5 25.5q50 0 91 -15.5t70.5 -45t46 -72t16.5 -95.5q0 -78 -20 -142.5t-57.5 -111t-92 -72t-124.5 -25.5zM276 79q40 0 71.5 18t53.5 51t34 79.5t12 102.5q0 65 -33 101.5t-90 38.5
q-40 0 -71.5 -18t-53.5 -51t-34 -79t-12 -103q0 -65 33.5 -102.5t89.5 -37.5zM263 645q-29 0 -50 6q-2 10 -1.5 21t3.5 26q2 14 5 25t7 21q24 6 53 6t50 -6q1 -10 0.5 -21t-2.5 -25q-3 -15 -5.5 -26t-7.5 -21q-12 -3 -24 -4.5t-28 -1.5zM453 645q-29 0 -50 6q-1 10 -0.5 21
t2.5 26q3 14 5.5 25t7.5 21q22 6 52 6q29 0 50 -6q2 -10 1.5 -21t-3.5 -25q-2 -15 -5 -26t-7 -21q-24 -6 -53 -6z" />
    <glyph glyph-name="oslash" unicode="&#xf8;" horiz-adv-x="613" 
d="M501 499q28 -29 43 -70.5t15 -92.5q0 -78 -20 -142.5t-57.5 -111t-92 -72t-124.5 -25.5q-55 0 -101 20l-46 -68q-9 4 -18.5 8.5t-20.5 12.5q-11 6 -19 12t-15 12l50 73q-54 60 -54 160q0 78 20 142t58 110t92.5 71.5t123.5 25.5q52 0 97 -17l44 64q9 -3 17.5 -6.5
t19.5 -10.5q13 -7 20.5 -13.5t14.5 -14.5zM324 470q-40 0 -71.5 -18t-53.5 -51t-34 -79t-12 -103q0 -41 14 -72l212 310q-23 11 -55 13zM276 79q40 0 71.5 18t53.5 51t34 79.5t12 102.5q0 46 -17 78l-213 -315q26 -14 59 -14z" />
    <glyph glyph-name="oe" unicode="&#x153;" horiz-adv-x="968" 
d="M928 404q0 -50 -25.5 -87t-74.5 -61.5t-119 -37.5t-160 -15q7 -69 43 -97.5t101 -28.5q42 0 82 11t78 31q7 -7 13 -17t10 -22q6 -26 5 -45q-54 -26 -104.5 -38t-107.5 -12q-72 0 -120 29t-71 85q-38 -54 -94.5 -84t-128.5 -30q-49 0 -88.5 15.5t-67.5 45t-43.5 72
t-15.5 95.5q0 78 21 142.5t60 111t93.5 72t121.5 25.5q65 0 112.5 -28.5t73.5 -82.5q35 51 88.5 81t127.5 30q93 0 141.5 -44t48.5 -116zM551 284q129 0 201 29.5t72 86.5q0 32 -23.5 53.5t-74.5 21.5q-41 0 -71.5 -15t-52 -41t-34.5 -61t-17 -74zM275 79q39 0 70.5 18
t54 51t35 79.5t12.5 103.5q0 64 -33 100.5t-89 38.5q-39 0 -71 -18t-54.5 -51t-35 -79.5t-12.5 -103.5q0 -64 34 -101.5t89 -37.5z" />
    <glyph glyph-name="thorn" unicode="&#xfe;" horiz-adv-x="626" 
d="M386 564q42 0 76.5 -15t58.5 -42.5t37.5 -67.5t13.5 -90q0 -79 -19 -145.5t-54.5 -115t-85 -75.5t-110.5 -27q-52 0 -92.5 22.5t-64.5 64.5l-45 -288q-24 -6 -55 -6q-30 0 -51 6l158 1001q12 3 24.5 4.5t29.5 1.5t29 -1.5t23 -4.5l-47 -296q34 35 78 54.5t96 19.5z
M285 81q40 0 72 19t55 52t35.5 78.5t12.5 98.5q0 66 -31.5 103.5t-83.5 37.5q-40 0 -72.5 -18t-56 -50.5t-36 -77.5t-12.5 -100q0 -66 32 -104.5t85 -38.5z" />
    <glyph glyph-name="scaron" unicode="&#x161;" horiz-adv-x="509" 
d="M280 474q-48 0 -79.5 -17t-31.5 -61q0 -30 25 -44t82 -29q38 -10 68.5 -20.5t52 -27.5t33 -42.5t11.5 -65.5q0 -47 -17.5 -81.5t-47.5 -57t-71 -33t-89 -10.5q-65 0 -117.5 14.5t-89.5 34.5q2 10 4.5 21t10.5 25q7 14 13.5 23.5t14.5 17.5q32 -18 74.5 -31.5t92.5 -13.5
q59 0 86.5 22t27.5 60q0 17 -5.5 28.5t-18.5 20t-34.5 15.5t-52.5 15q-35 9 -64 20t-50 28t-33 41t-12 60q0 45 16 78.5t45 56t68.5 33.5t86.5 11q59 0 107.5 -13t85.5 -31q-1 -9 -4 -21t-9 -24q-11 -26 -26 -41q-13 8 -31.5 15t-39.5 12.5t-42 8.5t-40 3zM359 634h1
q-14 -3 -26 -4.5t-30 -1.5q-17 0 -29 1.5t-24 4.5l-58 185q9 2 19 3.5t22 1.5q13 0 22 -1.5t18 -3.5l41 -122l74 122q20 5 43 5t41 -5z" />
    <glyph glyph-name="germandbls" unicode="&#xdf;" horiz-adv-x="616" 
d="M463 320q16 -13 33.5 -27.5t31.5 -33t23 -41.5t9 -53q0 -37 -14.5 -69.5t-41 -57t-64 -38.5t-83.5 -14q-27 0 -52.5 4t-47.5 10t-38.5 12t-25.5 10q1 11 2 20.5t6 22.5q8 24 22 39q10 -4 25.5 -8.5t32.5 -8.5t35.5 -6.5t34.5 -2.5q20 0 38.5 6t32.5 17t22.5 27t8.5 36
q0 18 -6 31.5t-16.5 24.5t-23.5 20.5t-27 18.5q-15 10 -30 21t-26.5 25t-18.5 32.5t-7 42.5q0 25 7 44.5t18 35.5t25 29.5t29 26.5q27 24 48.5 50.5t21.5 65.5q0 41 -28.5 58t-69.5 17q-16 0 -34.5 -3.5t-35.5 -16t-31 -36t-20 -62.5l-93 -586q-24 -6 -55 -6
q-17 0 -28.5 1.5t-22.5 4.5l94 595q10 65 36 105.5t59 62.5t70 29.5t71 7.5q44 0 80.5 -10t63 -29.5t41.5 -47.5t15 -65q0 -34 -9 -60.5t-23 -47.5t-31.5 -37.5t-33.5 -30.5q-23 -20 -40 -38t-17 -40q0 -24 17.5 -41.5t40.5 -35.5z" />
    <glyph glyph-name="ugrave" unicode="&#xf9;" horiz-adv-x="590" 
d="M496 552q14 0 26.5 -1t25.5 -4l-86 -544q-23 -6 -46 -6q-22 0 -43 6l5 79q-34 -47 -78.5 -72t-97.5 -25q-71 0 -111.5 39.5t-39.5 108.5q0 32 15.5 140t43.5 274q14 3 27 4t27 1t26.5 -1t25.5 -4q-13 -78 -23 -143t-17 -114t-11 -81.5t-4 -45.5q-1 -37 19 -57.5t58 -20.5
q60 0 102 49.5t59 137.5l43 275q14 3 27 4t27 1zM379 634q-8 -2 -17.5 -3.5t-21.5 -1.5t-21 1.5t-17 3.5l-72 184q21 6 50 6t49 -6z" />
    <glyph glyph-name="uacute" unicode="&#xfa;" horiz-adv-x="590" 
d="M496 552q14 0 26.5 -1t25.5 -4l-86 -544q-23 -6 -46 -6q-22 0 -43 6l5 79q-34 -47 -78.5 -72t-97.5 -25q-71 0 -111.5 39.5t-39.5 108.5q0 32 15.5 140t43.5 274q14 3 27 4t27 1t26.5 -1t25.5 -4q-13 -78 -23 -143t-17 -114t-11 -81.5t-4 -45.5q-1 -37 19 -57.5t58 -20.5
q60 0 102 49.5t59 137.5l43 275q14 3 27 4t27 1zM456 824q31 0 54 -6l-134 -184q-9 -2 -19 -3.5t-24 -1.5t-24 1.5t-19 3.5l111 184q22 6 55 6z" />
    <glyph glyph-name="ucircumflex" unicode="&#xfb;" horiz-adv-x="590" 
d="M496 552q14 0 26.5 -1t25.5 -4l-86 -544q-23 -6 -46 -6q-22 0 -43 6l5 79q-34 -47 -78.5 -72t-97.5 -25q-71 0 -111.5 39.5t-39.5 108.5q0 32 15.5 140t43.5 274q14 3 27 4t27 1t26.5 -1t25.5 -4q-13 -78 -23 -143t-17 -114t-11 -81.5t-4 -45.5q-1 -37 19 -57.5t58 -20.5
q60 0 102 49.5t59 137.5l43 275q14 3 27 4t27 1zM479 633q-9 -2 -18 -3.5t-21 -1.5q-13 0 -21.5 1.5t-16.5 3.5l-44 120l-78 -120q-9 -2 -19 -3.5t-22 -1.5q-13 0 -22 1.5t-17 3.5l112 185q13 3 25.5 4.5t31.5 1.5t31.5 -1.5t24.5 -4.5z" />
    <glyph glyph-name="udieresis" unicode="&#xfc;" horiz-adv-x="590" 
d="M496 552q14 0 26.5 -1t25.5 -4l-86 -544q-23 -6 -46 -6q-22 0 -43 6l5 79q-34 -47 -78.5 -72t-97.5 -25q-71 0 -111.5 39.5t-39.5 108.5q0 32 15.5 140t43.5 274q14 3 27 4t27 1t26.5 -1t25.5 -4q-13 -78 -23 -143t-17 -114t-11 -81.5t-4 -45.5q-1 -37 19 -57.5t58 -20.5
q60 0 102 49.5t59 137.5l43 275q14 3 27 4t27 1zM247 645q-29 0 -50 6q-2 10 -1.5 21t3.5 26q2 14 5 25t7 21q24 6 53 6t50 -6q1 -10 0.5 -21t-2.5 -25q-3 -15 -5.5 -26t-7.5 -21q-12 -3 -24 -4.5t-28 -1.5zM437 645q-29 0 -50 6q-1 10 -0.5 21t2.5 26q3 14 5.5 25t7.5 21
q22 6 52 6q29 0 50 -6q2 -10 1.5 -21t-3.5 -25q-2 -15 -5 -26t-7 -21q-24 -6 -53 -6z" />
    <glyph glyph-name="yacute" unicode="&#xfd;" horiz-adv-x="590" 
d="M497 552q16 0 28 -1.5t23 -3.5l-84 -538q-10 -66 -36.5 -111.5t-64 -74t-83 -41.5t-94.5 -13q-54 0 -104.5 11.5t-91.5 32.5q0 11 3.5 23.5t8.5 23.5q6 12 13.5 23t16.5 18q38 -18 77.5 -29t75.5 -11q33 0 62 8t51.5 26t38 47t21.5 70l13 83q-33 -40 -76 -61.5t-93 -21.5
q-70 0 -110 36.5t-39 97.5q0 32 15 135.5t43 265.5q14 3 27 4t27 1t26 -1t26 -4q-26 -153 -40 -248.5t-14 -121.5q-1 -30 18.5 -47.5t57.5 -17.5q61 0 104 49.5t59 130.5l40 255q12 2 25 3.5t30 1.5zM461 824q31 0 54 -6l-134 -184q-9 -2 -19 -3.5t-24 -1.5t-24 1.5t-19 3.5
l111 184q22 6 55 6z" />
    <glyph glyph-name="ydieresis" unicode="&#xff;" horiz-adv-x="590" 
d="M497 552q16 0 28 -1.5t23 -3.5l-84 -538q-10 -66 -36.5 -111.5t-64 -74t-83 -41.5t-94.5 -13q-54 0 -104.5 11.5t-91.5 32.5q0 11 3.5 23.5t8.5 23.5q6 12 13.5 23t16.5 18q38 -18 77.5 -29t75.5 -11q33 0 62 8t51.5 26t38 47t21.5 70l13 83q-33 -40 -76 -61.5t-93 -21.5
q-70 0 -110 36.5t-39 97.5q0 32 15 135.5t43 265.5q14 3 27 4t27 1t26 -1t26 -4q-26 -153 -40 -248.5t-14 -121.5q-1 -30 18.5 -47.5t57.5 -17.5q61 0 104 49.5t59 130.5l40 255q12 2 25 3.5t30 1.5zM252 645q-29 0 -50 6q-2 10 -1.5 21t3.5 26q2 14 5 25t7 21q24 6 53 6
t50 -6q1 -10 0.5 -21t-2.5 -25q-3 -15 -5.5 -26t-7.5 -21q-12 -3 -24 -4.5t-28 -1.5zM442 645q-29 0 -50 6q-1 10 -0.5 21t2.5 26q3 14 5.5 25t7.5 21q22 6 52 6q29 0 50 -6q2 -10 1.5 -21t-3.5 -25q-2 -15 -5 -26t-7 -21q-24 -6 -53 -6z" />
    <glyph glyph-name="zcaron" unicode="&#x17e;" horiz-adv-x="524" 
d="M505 550q1 -5 1 -10v-10q0 -16 -3 -32q-2 -11 -7.5 -22.5t-13.5 -21.5l-330 -362h288v-16v-13.5t-2 -16.5q-6 -27 -13 -46h-426q0 5 -0.5 9t-0.5 9t0.5 11t1.5 14q4 25 13 42l339 372h-275v17v14t2 16q2 14 5 24.5t8 21.5h413v0zM363 634h1q-14 -3 -26 -4.5t-30 -1.5
q-17 0 -29 1.5t-24 4.5l-58 185q9 2 19 3.5t22 1.5q13 0 22 -1.5t18 -3.5l41 -122l74 122q20 5 43 5t41 -5z" />
    <glyph glyph-name="ordfeminine" unicode="&#xaa;" horiz-adv-x="569" 
d="M508 735q11 0 20 -1.5t17 -3.5l-73 -460q-14 -5 -38 -5q-23 0 -37 5l1 62q-29 -35 -69 -55t-88 -20q-71 0 -113.5 48t-42.5 133q0 66 16 121.5t45.5 96t71.5 63.5t93 23q47 0 82 -21.5t55 -63.5l22 73q18 5 38 5zM276 344q32 0 58 14.5t44.5 40.5t28.5 62.5t10 80.5
q0 53 -25 83.5t-66 30.5q-32 0 -58 -15.5t-44.5 -42.5t-28.5 -64t-10 -80q0 -52 24.5 -81t66.5 -29z" />
    <glyph glyph-name="ordmasculine" unicode="&#xba;" horiz-adv-x="545" 
d="M275 256q-88 0 -138.5 49t-50.5 153q0 59 15 111t45.5 90.5t76.5 61t108 22.5q85 0 135 -47.5t50 -149.5q0 -59 -14.5 -112t-44.5 -92.5t-75.5 -62.5t-106.5 -23zM281 344q36 0 62 16.5t42 44t23.5 62.5t7.5 71q0 62 -22.5 89.5t-69.5 27.5q-37 0 -63 -16t-42.5 -42.5
t-24.5 -61t-8 -71.5q0 -120 95 -120z" />
    <glyph glyph-name="ampersand" unicode="&#x26;" horiz-adv-x="724" 
d="M673 370q-23 -81 -50.5 -141t-60.5 -105q26 -28 52.5 -58t55.5 -63q-15 -5 -31.5 -7.5t-36.5 -2.5t-35 2.5t-28 7.5q-11 14 -22 26.5t-22 24.5q-46 -36 -100 -51.5t-117 -15.5q-112 0 -175.5 45t-63.5 141q0 43 14.5 74.5t38.5 55.5t55.5 41.5t66.5 31.5q-37 49 -57.5 92
t-20.5 85q0 41 16 76t46.5 60.5t74.5 40t99 14.5q45 0 82.5 -10.5t65 -31.5t43 -53t15.5 -75q0 -51 -19 -87t-49.5 -62t-70 -44t-80.5 -33q29 -33 64.5 -72t78.5 -86q44 67 72 180q11 4 23 6t27 2q16 0 27.5 -2t21.5 -6zM244 550q0 -30 16 -63.5t48 -75.5q33 12 63.5 25
t53 30.5t36 39.5t13.5 52q0 48 -29.5 71t-77.5 23q-65 0 -94 -29.5t-29 -72.5zM293 81q42 0 77.5 9.5t65.5 30.5q-48 54 -91.5 101t-80.5 91q-26 -11 -47.5 -23t-37.5 -27.5t-25 -34.5t-9 -43t7 -43.5t24 -33t45.5 -20.5t71.5 -7z" />
    <glyph glyph-name="period" unicode="." horiz-adv-x="254" 
d="M78 -3q-34 0 -56 6q-2 11 -0.5 26.5t3.5 29.5q6 33 14 55q25 7 58 7q35 0 56 -7q2 -11 0.5 -26.5t-3.5 -28.5q-6 -34 -14 -56q-14 -3 -27.5 -4.5t-30.5 -1.5z" />
    <glyph glyph-name="comma" unicode="," horiz-adv-x="256" 
d="M154 114q1 -4 1 -10.5v-14.5q0 -23 -6.5 -49t-19.5 -49l-64 -123q-15 -6 -36 -6q-11 0 -18 1.5t-15 4.5l54 130l-14 2t-14 3q0 29 5 60t13 51q24 7 58 7t56 -7z" />
    <glyph glyph-name="colon" unicode=":" horiz-adv-x="275" 
d="M151 413q-34 0 -56 6q-2 11 -0.5 26.5t3.5 29.5q3 17 6 30.5t8 25.5q14 3 27.5 4.5t30.5 1.5q18 0 31.5 -1.5t24.5 -4.5q2 -11 0.5 -27t-3.5 -29q-3 -17 -6 -30.5t-8 -25.5q-14 -3 -27.5 -4.5t-30.5 -1.5zM90 -3q-34 0 -56 6q-2 11 -0.5 26.5t3.5 29.5q6 33 14 55
q25 7 58 7q35 0 56 -7q2 -11 0.5 -26.5t-3.5 -28.5q-6 -34 -14 -56q-14 -3 -27.5 -4.5t-30.5 -1.5z" />
    <glyph glyph-name="semicolon" unicode=";" horiz-adv-x="283" 
d="M226 531q2 -11 0.5 -27t-3.5 -29q-3 -17 -6.5 -30.5t-8.5 -25.5q-13 -3 -26.5 -4.5t-31.5 -1.5q-33 0 -55 6q-2 11 -1 26.5t3 29.5q3 17 6.5 30.5t8.5 25.5q13 3 26.5 4.5t31.5 1.5q32 0 56 -6zM116 121q34 0 56 -7q1 -4 1 -10.5v-14.5q0 -23 -6.5 -49t-19.5 -49
l-64 -123q-15 -6 -36 -6q-20 0 -33 6l54 130q-8 2 -14.5 2.5t-13.5 2.5q0 29 5 60t13 51q24 7 58 7z" />
    <glyph glyph-name="ellipsis" unicode="&#x2026;" horiz-adv-x="732" 
d="M317 -3q-34 0 -56 6q-2 11 -0.5 26.5t3.5 29.5q6 33 14 55q25 7 58 7q35 0 56 -7q2 -11 0.5 -26.5t-3.5 -28.5q-6 -34 -14 -56q-14 -3 -27.5 -4.5t-30.5 -1.5zM556 -3q-34 0 -56 6q-2 11 -0.5 26.5t3.5 29.5q6 33 14 55q25 7 58 7q35 0 56 -7q2 -11 0.5 -26.5t-3.5 -28.5
q-6 -34 -14 -56q-14 -3 -27.5 -4.5t-30.5 -1.5zM78 -3q-34 0 -56 6q-2 11 -0.5 26.5t3.5 29.5q6 33 14 55q25 7 58 7q35 0 56 -7q2 -11 0.5 -26.5t-3.5 -28.5q-6 -34 -14 -56q-14 -3 -27.5 -4.5t-30.5 -1.5z" />
    <glyph glyph-name="exclam" unicode="!" horiz-adv-x="280" 
d="M207 735q17 0 29 -1.5t23 -4.5l-94 -537q-11 -3 -21 -5t-24 -2t-24 2t-19 5l76 537q12 3 24.5 4.5t29.5 1.5zM107 112q31 0 51 -7q2 -12 1 -24t-3 -27q-2 -16 -5.5 -28t-8.5 -23q-12 -3 -24.5 -5t-28.5 -2q-17 0 -28.5 2t-22.5 5q-2 12 -1.5 26t2.5 25q6 32 14 51
q22 7 54 7z" />
    <glyph glyph-name="exclamdown" unicode="&#xa1;" horiz-adv-x="269" 
d="M224 547q2 -12 1.5 -26t-2.5 -26q-3 -16 -6.5 -28t-8.5 -23q-12 -3 -24 -5t-29 -2t-28.5 2t-22.5 5q-2 12 -1.5 24.5t2.5 26.5q2 17 5.5 29t8.5 23q12 3 24.5 4.5t29.5 1.5t28.5 -1.5t22.5 -4.5zM97 358q19 6 45 6q25 0 43 -6l-76 -537q-12 -3 -24.5 -4.5t-29.5 -1.5
t-29 1.5t-23 4.5z" />
    <glyph glyph-name="question" unicode="?" horiz-adv-x="518" 
d="M293 743q107 0 164.5 -47t57.5 -128q0 -50 -19.5 -85.5t-48 -63t-62.5 -51t-62.5 -49t-48 -57t-19.5 -74.5q-11 -2 -23.5 -4t-27.5 -2q-16 0 -27.5 2t-22.5 4q0 56 18 95.5t45.5 68t59 50.5t59 43t45.5 45.5t18 59.5q0 44 -31 69t-92 25q-39 0 -80.5 -11.5t-76.5 -31.5
q-12 15 -23 40q-5 13 -7 23.5t-4 20.5q42 28 95.5 43t112.5 15zM202 112q31 0 51 -7q2 -17 1 -28.5t-3 -22.5q-2 -16 -5.5 -28t-8.5 -23q-12 -3 -24.5 -5t-28.5 -2q-17 0 -29 2t-23 5q-2 13 -1 24.5t3 26.5q2 17 6 28.5t9 22.5q21 7 53 7z" />
    <glyph glyph-name="questiondown" unicode="&#xbf;" horiz-adv-x="512" 
d="M300 437q-17 0 -28.5 2t-22.5 5q-2 17 -1 28.5t3 22.5q2 17 5.5 29t8.5 23q12 3 24 4.5t29 1.5t28.5 -1.5t22.5 -4.5q2 -13 1.5 -24.5t-2.5 -27.5t-6 -28t-9 -23q-11 -3 -24 -5t-29 -2zM405 -91q5 -13 7.5 -23.5t4.5 -20.5q-42 -29 -95.5 -44t-112.5 -15
q-107 0 -164.5 47.5t-57.5 128.5q0 50 19.5 85t48 63t62.5 51t62.5 48.5t48 57t19.5 74.5q11 3 23.5 5t27.5 2q16 0 27 -2t22 -5q0 -56 -18 -95.5t-45 -68t-59 -50t-59 -43t-45 -46t-18 -58.5q0 -45 31 -70t91 -25q40 0 81.5 11.5t76.5 31.5q12 -15 22 -39z" />
    <glyph glyph-name="quotesingle" unicode="'" horiz-adv-x="225" 
d="M177 732q16 0 27 -1.5t21 -4.5l-54 -267q-18 -6 -38 -6q-22 0 -35 6l29 267q11 3 22.5 4.5t27.5 1.5z" />
    <glyph glyph-name="quotedbl" unicode="&#x22;" horiz-adv-x="397" 
d="M348 732q16 0 27 -1.5t21 -4.5l-54 -267q-9 -3 -17.5 -4.5t-20.5 -1.5q-20 0 -35 6l29 267q22 6 50 6zM127 726q11 3 22.5 4.5t27.5 1.5t27 -1.5t21 -4.5l-54 -267q-18 -6 -38 -6q-22 0 -35 6z" />
    <glyph glyph-name="quoteleft" unicode="&#x2018;" horiz-adv-x="248" 
d="M193 600q8 -1 14.5 -2t14.5 -3q0 -29 -5.5 -60t-12.5 -51q-13 -3 -27 -4.5t-32 -1.5q-17 0 -30 1.5t-25 4.5q-1 5 -1 11v14q0 23 6.5 49t19.5 49l63 123q16 6 37 6q11 0 18 -1.5t15 -4.5z" />
    <glyph glyph-name="quoteright" unicode="&#x2019;" horiz-adv-x="244" 
d="M250 729q1 -5 1 -11v-15q0 -23 -6.5 -48.5t-19.5 -48.5l-63 -123q-17 -6 -37 -6q-11 0 -18 1.5t-15 4.5l55 130q-8 1 -14.5 2t-14.5 2q0 29 5.5 60.5t12.5 51.5q25 6 59 6q17 0 30 -1.5t25 -4.5z" />
    <glyph glyph-name="quotedblleft" unicode="&#x201c;" horiz-adv-x="426" 
d="M215 735q11 0 18 -1.5t15 -4.5l-55 -130q8 -1 14.5 -2t14.5 -3q0 -29 -5.5 -60t-12.5 -51q-13 -3 -27 -4.5t-32 -1.5q-17 0 -30 1.5t-25 4.5q-1 5 -1 11v14q0 23 6.5 49t19.5 49l63 123q16 6 37 6zM372 599q8 -2 14.5 -2.5t13.5 -2.5q0 -29 -5 -60t-13 -51q-26 -6 -58 -6
q-18 0 -31 1.5t-25 4.5q-1 5 -1 11v14q0 23 6.5 49t19.5 49l64 123q15 6 36 6q19 0 33 -6z" />
    <glyph glyph-name="quotedblright" unicode="&#x201d;" horiz-adv-x="423" 
d="M195 736q34 0 56 -7q1 -4 1 -10.5v-14.5q0 -23 -6.5 -49t-19.5 -49l-64 -123q-15 -6 -36 -6q-20 0 -33 6l54 130q-8 1 -14.5 2t-14.5 3q0 29 5.5 60t13.5 51q24 7 58 7zM430 729q1 -4 1 -10.5v-14.5q0 -23 -6.5 -49t-19.5 -49l-64 -123q-15 -6 -36 -6q-11 0 -18 1.5
t-15 4.5l55 130q-8 1 -14.5 2t-14.5 3q0 29 5.5 60t12.5 51q24 7 59 7q33 0 55 -7z" />
    <glyph glyph-name="quotesinglbase" unicode="&#x201a;" horiz-adv-x="256" 
d="M154 114q1 -4 1 -10.5v-14.5q0 -23 -6.5 -49t-19.5 -49l-64 -123q-15 -6 -36 -6q-11 0 -18 1.5t-15 4.5l54 130l-14 2t-14 3q0 29 5 60t13 51q24 7 58 7t56 -7z" />
    <glyph glyph-name="quotedblbase" unicode="&#x201e;" horiz-adv-x="433" 
d="M331 114q1 -4 1 -10.5v-14.5q0 -23 -6.5 -49t-19.5 -49l-63 -123q-17 -6 -37 -6q-11 0 -18 1.5t-15 4.5l55 130q-8 1 -14.5 2t-14.5 3q0 29 5.5 60t12.5 51q24 7 59 7q33 0 55 -7zM98 121q34 0 56 -7q1 -4 1 -10.5v-14.5q0 -23 -6.5 -49t-19.5 -49l-64 -123
q-15 -6 -36 -6q-11 0 -18 1.5t-15 4.5l54 130l-14 2t-14 3q0 29 5 60t13 51q24 7 58 7z" />
    <glyph glyph-name="guilsinglleft" unicode="&#x2039;" horiz-adv-x="383" 
d="M352 560q2 -11 0 -27t-4 -31q-3 -18 -6.5 -32t-8.5 -27l-190 -116l153 -117q2 -11 1 -26.5t-3 -29.5q-3 -17 -6.5 -30.5t-9.5 -25.5l-236 182q-2 9 -1 23.5t3 25.5q2 15 5.5 26t7.5 22l295 183v0z" />
    <glyph glyph-name="guilsinglright" unicode="&#x203a;" horiz-adv-x="383" 
d="M345 378q2 -9 1 -23.5t-3 -25.5q-4 -29 -13 -48l-295 -183q-2 11 0 27t4 30q3 19 6.5 33t8.5 27l190 116l-153 117q-2 11 -1 26.5t3 28.5q3 17 6.5 31t9.5 26l236 -182v0z" />
    <glyph glyph-name="guillemotleft" unicode="&#xab;" horiz-adv-x="674" 
d="M643 560q2 -11 0.5 -27t-3.5 -31q-3 -18 -6.5 -32t-8.5 -27l-190 -116l153 -117q2 -11 1 -26.5t-3 -29.5q-6 -32 -16 -56l-237 182q-1 9 -0.5 23.5t2.5 25.5q2 15 5.5 26t8.5 22zM296 210q2 -11 1 -26.5t-3 -29.5q-3 -17 -6.5 -30.5t-9.5 -25.5l-236 182q-2 9 -1 23.5
t3 25.5q2 15 5.5 26t7.5 22l295 183q2 -11 0 -27t-4 -31q-3 -18 -6.5 -32t-8.5 -27l-190 -116z" />
    <glyph glyph-name="guillemotright" unicode="&#xbb;" horiz-adv-x="675" 
d="M343 329q-4 -29 -13 -48l-295 -183q-2 11 0 27t4 30q3 19 6.5 33t8.5 27l190 116l-153 117q-2 11 -1 26.5t3 28.5q3 17 6.5 31t9.5 26l236 -182q2 -9 1 -23.5t-3 -25.5zM637 378q2 -9 1 -23.5t-3 -25.5q-2 -15 -5 -26.5t-8 -21.5l-295 -183q-2 11 0 27t4 30q3 19 6.5 33
t8.5 27l190 116l-153 117q-2 11 -1 26.5t3 28.5q3 17 6.5 31t9.5 26z" />
    <glyph glyph-name="hyphen" unicode="-" horiz-adv-x="471" 
d="M400 366q2 -11 1.5 -21.5t-2.5 -26.5q-3 -15 -5.5 -26t-7.5 -21h-315q-2 10 -1.5 21t2.5 26q3 15 6 26t7 22h315v0z" />
    <glyph glyph-name="uni00AD" unicode="&#xad;" horiz-adv-x="471" 
d="M400 366q2 -11 1.5 -21.5t-2.5 -26.5q-3 -15 -5.5 -26t-7.5 -21h-315q-2 10 -1.5 21t2.5 26q3 15 6 26t7 22h315v0z" />
    <glyph glyph-name="endash" unicode="&#x2013;" horiz-adv-x="639" 
d="M569 366q2 -11 1.5 -21.5t-3.5 -26.5q-4 -28 -13 -47h-483q-2 10 -1.5 21t2.5 26q3 15 6 26t7 22h484v0z" />
    <glyph glyph-name="emdash" unicode="&#x2014;" horiz-adv-x="949" 
d="M879 366q1 -11 1 -21.5t-3 -26.5q-4 -28 -13 -47h-793q-2 10 -1.5 21t2.5 26q3 15 6 26t7 22h794v0z" />
    <glyph glyph-name="periodcentered" unicode="&#xb7;" horiz-adv-x="268" 
d="M132 307q-34 0 -56 7q-1 12 -0.5 25t3.5 31q3 17 6.5 30t8.5 25q13 3 26.5 4.5t31.5 1.5q32 0 56 -6q1 -12 0.5 -25t-3.5 -30q-3 -18 -6.5 -31t-8.5 -25q-24 -7 -58 -7z" />
    <glyph glyph-name="bullet" unicode="&#x2022;" horiz-adv-x="408" 
d="M194 256q-32 0 -56 3t-45 8q-2 22 -0.5 46t6.5 56t11.5 56t14.5 46q23 5 48 8t57 3t55.5 -3t44.5 -8q2 -22 0.5 -46t-6.5 -56t-11.5 -56t-14.5 -46q-23 -5 -47.5 -8t-56.5 -3z" />
    <glyph glyph-name="uni2219" unicode="&#x2219;" horiz-adv-x="274" 
d="M135 307q-34 0 -56 7q-1 12 -0.5 25t3.5 31q3 17 6.5 30t8.5 25q13 3 26.5 4.5t31.5 1.5q32 0 55 -6q3 -22 -3 -55q-2 -18 -5.5 -31t-8.5 -25q-24 -7 -58 -7z" />
    <glyph glyph-name="underscore" unicode="_" horiz-adv-x="554" 
d="M485 -84q2 -11 1.5 -21.5t-3.5 -26.5q-4 -26 -13 -47v-1h-542q-2 11 -1.5 21.5t2.5 26.5q3 15 5.5 25.5t7.5 21.5v1h543v0z" />
    <glyph glyph-name="slash" unicode="/" horiz-adv-x="415" 
d="M399 768q15 0 27 -1.5t23 -4.5l-377 -865q-23 -6 -52 -6t-51 6l378 865q22 6 52 6z" />
    <glyph glyph-name="backslash" unicode="\" horiz-adv-x="394" 
d="M298 -103q-11 -3 -22 -4.5t-26 -1.5t-25.5 1.5t-21.5 4.5l-102 865q11 3 22 4.5t27 1.5q26 0 47 -6z" />
    <glyph glyph-name="uni2215" unicode="&#x2215;" horiz-adv-x="428" 
d="M437 768q28 0 51 -6l-428 -796q-24 -6 -54 -6q-29 0 -50 6l428 796q22 6 53 6z" />
    <glyph glyph-name="fraction" unicode="&#x2044;" horiz-adv-x="425" 
d="M57 -34h1q-23 -6 -53 -6q-28 0 -49 6l428 796q22 6 52 6q28 0 49 -6z" />
    <glyph glyph-name="bar" unicode="|" horiz-adv-x="329" 
d="M172 832q29 0 50 -6v-928q-21 -6 -50 -6t-50 6v928q21 6 50 6z" />
    <glyph glyph-name="brokenbar" unicode="&#xa6;" horiz-adv-x="331" 
d="M173 832q29 0 50 -6v-375q-21 -6 -50 -6t-51 6v375q22 6 51 6zM122 271q22 6 51 6t50 -6v-375q-21 -6 -50 -6t-51 6v375z" />
    <glyph glyph-name="parenleft" unicode="(" horiz-adv-x="326" 
d="M374 786q-112 -117 -169 -249t-57 -275q0 -94 23.5 -171t71.5 -150q-8 -8 -17 -16t-21 -16q-13 -8 -22.5 -13.5t-19.5 -8.5q-57 84 -83.5 171.5t-26.5 195.5q0 169 63.5 315.5t186.5 274.5q18 -7 40 -23q11 -10 18.5 -18t12.5 -17z" />
    <glyph glyph-name="parenright" unicode=")" horiz-adv-x="326" 
d="M178 837q57 -84 83.5 -171.5t26.5 -195.5q0 -169 -63.5 -315.5t-186.5 -274.5q-21 8 -40 23q-11 10 -18.5 18t-12.5 17q112 117 169 249t57 275q0 94 -23.5 171t-71.5 150q8 8 17 16t21 16q24 16 42 22z" />
    <glyph glyph-name="bracketleft" unicode="[" horiz-adv-x="338" 
d="M377 826q2 -10 1.5 -20.5t-2.5 -24.5q-4 -28 -13 -45h-109l-119 -748h109q3 -19 -1 -45q-2 -14 -4.5 -24.5t-7.5 -20.5h-205l146 928h205v0z" />
    <glyph glyph-name="bracketright" unicode="]" horiz-adv-x="339" 
d="M328 826l-146 -928h-206q-1 10 -1 20.5t2 24.5q4 28 13 45h110l119 748h-110q-3 19 1 45q2 14 5 24.5t7 20.5h206z" />
    <glyph glyph-name="braceleft" unicode="{" horiz-adv-x="373" 
d="M414 833q3 -19 0 -43q-2 -14 -5.5 -25.5t-7.5 -21.5q-54 -5 -81.5 -31t-35.5 -77l-16 -97q-6 -36 -15.5 -65t-26.5 -50.5t-43 -36.5t-63 -23q54 -14 75 -42.5t21 -76.5q0 -19 -3.5 -45.5t-8 -53.5t-8 -51t-3.5 -38q0 -36 20.5 -54.5t64.5 -23.5q2 -10 2 -21t-2 -22
q-3 -23 -13 -42q-82 2 -127.5 41t-45.5 110q0 16 3.5 40t8 50.5t8 51t3.5 42.5q0 45 -20.5 67.5t-72.5 27.5q-2 9 -2 20.5t1 19.5q2 13 5 23.5t7 18.5q35 3 59 13t39.5 28t25 45t15.5 65l14 94q14 88 71 134.5t157 48.5z" />
    <glyph glyph-name="braceright" unicode="}" horiz-adv-x="374" 
d="M367 403q2 -9 1.5 -20.5t-1.5 -19.5q-2 -14 -4.5 -24t-7.5 -19q-35 -3 -58.5 -12.5t-39.5 -28t-25.5 -45.5t-15.5 -64l-14 -95q-14 -87 -71 -133.5t-157 -48.5q-3 19 0 42q2 15 5.5 26t7.5 22q54 5 81.5 31t36.5 77l15 96q6 36 16 65t27 51t42.5 37t63.5 23
q-55 14 -75.5 42t-20.5 76q0 19 3.5 46t8 54t8 50.5t3.5 37.5q0 71 -86 78q-2 10 -2 21.5t2 22.5q2 12 5 22.5t8 19.5q83 -2 128 -41t45 -110q0 -17 -3.5 -41t-8 -50t-8 -51t-3.5 -42q0 -45 20.5 -67.5t73.5 -27.5z" />
    <glyph glyph-name="asterisk" unicode="*" horiz-adv-x="502" 
d="M174 330q-10 3 -20 8t-22 14q-11 8 -18.5 15.5t-12.5 15.5l124 123l-148 35q2 11 5.5 22t11.5 25t13.5 24.5t13.5 18.5l137 -58l12 156q21 6 49 6q15 0 26 -1.5t21 -4.5l-38 -157l151 59q8 -15 13 -43q2 -14 2.5 -25t-0.5 -22l-156 -35l81 -123q-8 -8 -17 -15.5
t-23 -15.5q-13 -8 -23 -13t-19 -8l-59 132l-104 -133v0z" />
    <glyph glyph-name="dagger" unicode="&#x2020;" 
d="M573 550q1 -11 0.5 -22t-2.5 -26q-2 -16 -5.5 -27t-8.5 -22h-167l-96 -602q-12 -3 -24 -4.5t-29 -1.5q-31 0 -53 6l96 602h-168q-2 11 -1.5 22t2.5 27q6 29 14 48h168l28 176q24 6 53 6q17 0 29.5 -1.5t23.5 -4.5l-28 -176h168v0z" />
    <glyph glyph-name="daggerdbl" unicode="&#x2021;" 
d="M572 550q2 -11 1 -22t-3 -26q-2 -16 -5 -27t-8 -22h-168l-28 -177h168l-16 -96h-167l-52 -329q-12 -3 -24.5 -4.5t-29.5 -1.5q-31 0 -52 6l52 329h-168l-1 -5q-2 11 -1 22t3 26t5 26t8 22l1 5h168l28 177h-168q-2 11 -1 22t3 27q2 15 5.5 26t7.5 22h168l28 176
q12 3 24.5 4.5t29.5 1.5q31 0 52 -6l-28 -176h168zM528 271q1 -10 0.5 -21.5t-2.5 -26.5t-5.5 -26t-7.5 -22z" />
    <glyph glyph-name="section" unicode="&#xa7;" horiz-adv-x="539" 
d="M334 653q-53 0 -86.5 -14.5t-33.5 -46.5q0 -15 8.5 -25t23 -17.5t33 -13.5t39.5 -12q28 -9 56.5 -20t51.5 -29t38 -46t15 -70q0 -41 -13.5 -72t-38.5 -54q13 -15 20.5 -34t7.5 -44q0 -43 -17.5 -75t-48.5 -53t-74.5 -31.5t-94.5 -10.5q-66 0 -119.5 14.5t-81.5 29.5
q2 11 5 21.5t10 24.5t13.5 23t14.5 17q32 -15 74 -27t91 -12q59 0 89 19t30 51q0 17 -8.5 28.5t-23 19.5t-33 14t-39.5 12q-28 7 -57 17.5t-53 28t-39 44t-15 65.5q0 42 17.5 73t47.5 54q-17 16 -27 36.5t-10 47.5q0 38 17.5 67.5t48.5 49.5t74.5 30.5t95.5 10.5t96 -11
t77 -28q-1 -20 -14 -45q-12 -25 -28 -39q-20 11 -55.5 21.5t-83.5 10.5zM269 441q-31 10 -59 21q-16 -12 -26.5 -30t-10.5 -41q0 -21 8.5 -35.5t23 -24.5t34 -17t40.5 -13q20 -5 40 -11t40 -14q27 25 27 63q0 24 -9.5 40t-26 27.5t-37.5 19.5t-44 15z" />
    <glyph glyph-name="paragraph" unicode="&#xb6;" horiz-adv-x="631" 
d="M556 732q15 0 26 -1.5t21 -4.5l-115 -723q-21 -6 -49 -6t-47 6l116 723q11 3 22 4.5t26 1.5zM408 729l-126 -787q-13 -83 -63 -128t-132 -45q-35 0 -65 7t-56 17q1 11 3 21t7 23q5 15 11 26t13 20q18 -7 42 -13t50 -6q41 0 64 20.5t31 66.5l55 338q-86 4 -127 47.5
t-41 119.5q0 12 1 25t3 27q17 107 81.5 164t167.5 57h81z" />
    <glyph glyph-name="copyright" unicode="&#xa9;" horiz-adv-x="954" 
d="M478 -102q-88 0 -165 33t-134.5 90.5t-90.5 134.5t-33 165t33 165t90.5 134t134.5 90t165 33t165 -33t134 -90t90 -134t33 -165t-33 -165t-90 -134.5t-134 -90.5t-165 -33zM478 -38q75 0 140 28t113.5 77t76 114.5t27.5 139.5t-27.5 139t-76 114t-113.5 77t-140 28
t-140.5 -28t-114 -77t-76 -114t-27.5 -139t27.5 -139.5t76 -114.5t114 -77t140.5 -28zM626 530q0 -8 -1 -15.5t-4 -18.5q-5 -19 -13 -31q-27 6 -57.5 11t-57.5 5q-26 0 -50 -7.5t-42.5 -25t-29.5 -47t-11 -74.5q0 -43 9 -72.5t25 -48t39 -27t50 -8.5q35 0 68.5 6.5
t64.5 16.5q9 -14 14 -31q4 -17 4 -34q-12 -5 -29 -10t-37.5 -10t-42.5 -8t-44 -3q-105 0 -156 61t-51 168q0 106 57.5 167t159.5 61q41 0 79.5 -9.5t55.5 -15.5z" />
    <glyph glyph-name="registered" unicode="&#xae;" horiz-adv-x="954" 
d="M478 743q88 0 165 -33t134 -90t90 -134t33 -165t-33 -165t-90 -134.5t-134 -90.5t-165 -33t-165 33t-134.5 90.5t-90.5 134.5t-33 165t33 165t90.5 134t134.5 90t165 33zM478 -38q75 0 140 28t113.5 77t76 114.5t27.5 139.5t-27.5 139t-76 114t-113.5 77t-140 28
t-140.5 -28t-114 -77t-76 -114t-27.5 -139t27.5 -139.5t76 -114.5t114 -77t140.5 -28zM568 283q8 -9 21.5 -26.5t21.5 -31.5l80 -120q-21 -6 -50 -6q-16 0 -27 1.5t-22 4.5l-100 162h-93v-162q-9 -3 -18.5 -4.5t-23.5 -1.5q-24 0 -42 6v444h177q78 0 119 -39t41 -102
q0 -50 -25 -81t-59 -44zM491 337q31 0 53 16t22 54q0 35 -20.5 52.5t-55.5 17.5h-91v-140h92z" />
    <glyph glyph-name="trademark" unicode="&#x2122;" horiz-adv-x="803" 
d="M735 735q14 0 24 -1.5t20 -4.5l-39 -347q-17 -6 -36 -6q-22 0 -35 6l35 263l-124 -263q-12 -6 -29 -6t-29 6l-39 264l-49 -264q-15 -6 -36 -6q-22 0 -35 6l71 347q11 3 22 4.5t26 1.5q27 0 45 -6l38 -270l123 270q19 6 47 6zM388 696q-2 -11 -4.5 -18.5t-6.5 -14.5h-104
l-44 -281q-17 -6 -39 -6t-37 6l44 281h-103q-2 8 -2 16q0 4 0.5 8t1.5 9q2 11 4.5 18t6.5 15h283q1 -4 1.5 -7.5t0.5 -8.5q0 -4 -0.5 -8t-1.5 -9z" />
    <glyph glyph-name="at" unicode="@" horiz-adv-x="970" 
d="M549 758q190 0 283 -86.5t93 -239.5q0 -68 -14.5 -132.5t-44.5 -114.5t-77.5 -80.5t-113.5 -30.5q-55 0 -98 20l-2 69q-28 -39 -67.5 -62t-90.5 -23q-75 0 -111 49t-36 135q0 55 14.5 107t42.5 92.5t70 65t96 24.5q95 0 129 -85l17 66q13 5 35 5q26 0 39 -5h-1l-59 -378
q16 -4 32 -4q42 0 69.5 26t44 65.5t23.5 87.5t7 91q0 125 -69 188.5t-217 63.5q-98 0 -172.5 -33.5t-125 -92t-76.5 -138t-26 -172.5q0 -142 74.5 -211.5t215.5 -69.5q59 0 113 9t97 25q3 -8 6 -17.5t5 -20.5q2 -14 1 -25t-3 -16q-19 -9 -45 -16t-57 -12.5t-65 -8.5t-69 -3
q-183 0 -276 95t-93 267q0 115 33.5 212t98 166.5t157.5 108.5t213 39zM455 162q34 0 60 17.5t42.5 45t25 61.5t8.5 67q0 31 -7 53t-19 35t-28 19t-34 6q-36 0 -61 -17t-41.5 -44.5t-24 -62t-7.5 -68.5q0 -55 19.5 -83.5t66.5 -28.5z" />
    <glyph glyph-name="numbersign" unicode="#" 
d="M625 527q1 -4 1.5 -7.5t0.5 -8.5t-0.5 -10t-1.5 -11q-2 -12 -5 -20.5t-7 -16.5h-124l-50 -175h115q2 -10 2 -15t-0.5 -10.5t-1.5 -12.5q-2 -11 -4.5 -20t-6.5 -17h-125l-56 -200q-18 -6 -40 -6t-37 6l57 200h-129l-56 -200q-9 -3 -18 -4.5t-21 -1.5q-22 0 -37 6l57 200
h-117q-2 5 -2 9.5v9.5v9t1 10q2 11 5 20t7 17h127l49 175h-118q-1 4 -1.5 8t-0.5 9t0.5 9.5t1.5 10.5q2 11 5 20t7 17h127l57 199q16 6 39 6q22 0 36 -6l-56 -199h129l56 199q9 3 18 4.5t21 1.5q22 0 37 -6l-56 -199h115zM413 453h-129l-50 -175h129z" />
    <glyph glyph-name="zero" unicode="0" 
d="M271 -15q-59 0 -102 20.5t-71.5 57.5t-42.5 87t-14 110q0 89 21 176t62.5 155.5t104 110.5t146.5 42q59 0 102 -20.5t71.5 -56.5t42 -86.5t13.5 -110.5q0 -90 -21 -177t-62.5 -155.5t-104 -110.5t-145.5 -42zM281 84q49 0 88 31.5t66.5 84t42 121t14.5 142.5
q0 87 -29 134.5t-99 47.5q-49 0 -88 -31.5t-66.5 -84.5t-42 -121.5t-14.5 -142.5q0 -85 29 -133t99 -48z" />
    <glyph glyph-name="one" unicode="1" 
d="M531 92q2 -13 1.5 -23.5t-2.5 -22.5q-2 -13 -5 -23.5t-8 -22.5h-466q-2 13 -1 23t3 24t4.5 24.5t7.5 20.5h181l83 519l-169 -43q-5 11 -9 23.5t-6 25.5q-2 14 -2.5 27t1.5 22l205 57q14 5 28 7.5t31 2.5q15 0 26.5 -2t20.5 -5l-100 -634h176v0z" />
    <glyph glyph-name="two" unicode="2" 
d="M517 99q1 -5 1 -16q0 -17 -3 -33q-3 -27 -13 -50h-464q0 63 18.5 112t48.5 87t68 67.5t78 54.5t78 48.5t68 48.5t48.5 54.5t18.5 67.5q0 104 -122 104q-48 0 -94 -17t-88 -42q-14 14 -26 42q-7 14 -9 25.5t-4 22.5q48 32 109 50.5t121 18.5q110 0 169 -52.5t59 -143.5
q0 -61 -28.5 -107t-71.5 -83t-95 -67.5t-98 -60t-80.5 -61t-43.5 -70.5h355z" />
    <glyph glyph-name="three" unicode="3" 
d="M416 392q25 -6 46.5 -19t38 -32.5t26 -47t9.5 -63.5q0 -57 -20.5 -102t-58.5 -76.5t-91.5 -48t-118.5 -16.5q-36 0 -70 6t-63.5 16t-53 23t-39.5 27q7 19 25 44q17 22 34 38q34 -26 75.5 -40.5t89.5 -14.5q84 0 130.5 38t46.5 105q0 59 -36.5 86t-105.5 29h-67
q-2 12 -2 23.5t2 19.5q2 13 5 23t8 19h58q81 2 126.5 29t45.5 90q0 47 -32.5 72t-88.5 25q-45 0 -89 -13.5t-86 -39.5q-7 8 -12.5 17.5t-11.5 23.5q-10 27 -11 46q42 27 98.5 46t125.5 19q105 0 164.5 -47t59.5 -131q0 -64 -38.5 -110.5t-118.5 -63.5z" />
    <glyph glyph-name="four" unicode="4" 
d="M577 256q2 -10 1 -23.5t-3 -24.5q-2 -14 -5 -25.5t-8 -22.5h-105l-24 -157q-13 -3 -25.5 -4.5t-29.5 -1.5q-31 0 -53 6l25 157h-333q-2 10 -1 26t3 30q2 17 6 30.5t9 25.5l403 454q13 3 26 4.5t30 1.5t30 -1.5t24 -4.5l-74 -470h104zM365 256l50 316l-278 -316h228z" />
    <glyph glyph-name="five" unicode="5" 
d="M583 729q3 -23 -2 -48q-2 -14 -5.5 -26.5t-7.5 -21.5h-313l-33 -204q23 10 53 16.5t65 6.5q42 0 81 -11t68.5 -35.5t47.5 -63.5t18 -95q0 -61 -22 -109.5t-61.5 -82t-94.5 -51.5t-121 -18q-77 0 -138.5 19.5t-96.5 49.5q10 22 26 44q9 12 17.5 22t17.5 17
q33 -23 76 -37.5t96 -14.5q38 0 71.5 9.5t58.5 28.5t39.5 47t14.5 66q0 56 -34.5 89t-100.5 33q-32 0 -63 -7.5t-61 -21.5q-9 2 -18.5 6t-20.5 12q-21 13 -33 26l57 355h419v0z" />
    <glyph glyph-name="six" unicode="6" 
d="M414 645q-93 0 -149.5 -62.5t-79.5 -168.5q38 19 79 30t87 11q106 0 163 -55t57 -152q0 -60 -19 -108.5t-54 -82.5t-84 -52.5t-110 -18.5q-63 0 -108.5 20.5t-75.5 57.5t-44 89.5t-14 115.5q0 90 20.5 175.5t64 152t110.5 107t161 40.5q54 0 96 -12.5t72 -27.5
q-2 -10 -4.5 -20.5t-7.5 -24.5q-11 -27 -25 -44q-29 12 -61.5 21t-73.5 9zM324 363q-38 0 -77 -10t-74 -29q-1 -13 -1 -26v-27q0 -43 6.5 -77.5t23 -59t43 -37.5t67.5 -13q72 0 110.5 43.5t38.5 114.5q0 59 -34 90t-103 31z" />
    <glyph glyph-name="seven" unicode="7" 
d="M623 729q1 -6 1.5 -12t0.5 -13q0 -10 -1 -19t-3 -19q-3 -19 -8.5 -32.5t-16.5 -27.5q-83 -87 -146.5 -166t-109 -152.5t-73.5 -144.5t-39 -143q-27 -6 -58 -6q-14 0 -28.5 1.5t-26.5 4.5q25 161 120 314t255 318h-371q-2 14 -1 26t3 23q2 13 5 25t8 23h489v0z" />
    <glyph glyph-name="eight" unicode="8" 
d="M426 386q28 -13 53 -29t44 -37.5t30.5 -49.5t11.5 -65q0 -51 -20.5 -91.5t-59 -68.5t-93 -43t-122.5 -15q-55 0 -100 13.5t-77.5 38t-50 58.5t-17.5 75q0 45 15 78t40.5 58t59 43t69.5 32q-45 25 -76 63t-31 97q0 49 19.5 86.5t55 63t86 38.5t112.5 13q108 0 169 -45
t61 -122q0 -40 -14.5 -69.5t-39 -52t-57 -39t-68.5 -30.5zM361 650q-70 0 -110 -27t-40 -73q0 -26 9.5 -45t26 -33.5t39 -26t47.5 -21.5q33 11 62 23t50.5 27t34.5 35t13 47q0 49 -36 71.5t-96 22.5zM284 82q80 0 124.5 32t44.5 85q0 31 -12.5 53t-33.5 38t-48 28.5
t-56 23.5q-34 -12 -64 -26t-52.5 -32t-36 -40.5t-13.5 -51.5q0 -58 40.5 -84t106.5 -26z" />
    <glyph glyph-name="nine" unicode="9" 
d="M341 744q63 0 108.5 -21.5t75.5 -59t44 -90t14 -113.5q0 -92 -19.5 -177.5t-61.5 -151.5t-109.5 -105.5t-163.5 -39.5q-56 0 -98 12.5t-72 27.5q2 10 4.5 20.5t7.5 24.5q6 14 12.5 25t12.5 19q29 -12 59.5 -21t72.5 -9q98 0 155 61.5t77 169.5q-38 -19 -79 -30.5
t-87 -11.5q-50 0 -90.5 14.5t-69.5 41t-45 64.5t-16 85q0 60 19 109t54 83.5t84.5 53.5t110.5 19zM321 367q38 0 77 10t73 28q1 13 1.5 26.5t0.5 27.5q0 42 -6.5 76.5t-23 59t-43.5 38t-67 13.5q-72 0 -111 -44t-39 -116q0 -57 34.5 -88t103.5 -31z" />
    <glyph glyph-name="uni00B9" unicode="&#xb9;" horiz-adv-x="378" 
d="M337 345q2 -19 -1 -36q-2 -11 -4.5 -19.5t-6.5 -16.5h-265q-2 8 -1.5 18t2.5 18q2 11 4 19.5t6 16.5h93l48 301l-85 -19q-6 12 -8 34q-2 11 -1 20t3 17l126 32q7 2 15 3t17 1q18 0 29 -4l-61 -385h90v0z" />
    <glyph glyph-name="uni00B2" unicode="&#xb2;" horiz-adv-x="437" 
d="M376 353q1 -10 0.5 -21t-2.5 -16q-2 -12 -4.5 -21.5t-5.5 -17.5h-304q-2 10 -1.5 17.5t2.5 19.5q4 22 11 37q16 24 35.5 42t39.5 34q29 22 60.5 41.5t57 39.5t42 42.5t16.5 49.5q0 35 -19.5 51t-54.5 16q-26 0 -55.5 -9.5t-55.5 -23.5q-9 10 -17 31q-4 11 -4.5 19.5
t-1.5 16.5q33 20 71.5 31t83.5 11q29 0 55 -7t45.5 -22.5t31 -39.5t11.5 -57q0 -45 -20 -78t-50.5 -58.5t-67 -47t-68.5 -45.5q-12 -8 -21.5 -16.5t-15.5 -18.5h206z" />
    <glyph glyph-name="uni00B3" unicode="&#xb3;" horiz-adv-x="439" 
d="M318 526q14 -3 27.5 -9.5t24.5 -18t17.5 -29.5t6.5 -44q0 -36 -14.5 -65.5t-40.5 -49.5t-61 -31t-75 -11q-45 0 -86.5 11t-67.5 31q3 8 5.5 16t9.5 19q13 19 25 31q24 -14 53.5 -22t56.5 -8q51 0 79.5 20.5t28.5 58.5q0 34 -21.5 47t-66.5 13h-36q-3 13 -1 32q3 22 10 33
h36q42 0 70 17t28 50q0 27 -19 37.5t-53 10.5q-26 0 -56.5 -8.5t-56.5 -22.5q-5 6 -9 13.5t-7 17.5q-4 12 -4.5 20.5t-0.5 16.5q32 19 72.5 30t79.5 11q63 0 103.5 -25.5t40.5 -80.5q0 -45 -25.5 -72t-72.5 -39z" />
    <glyph glyph-name="onequarter" unicode="&#xbc;" horiz-adv-x="942" 
d="M322 -34h1q-23 -6 -53 -6q-29 0 -50 6l428 796q22 6 52 6q29 0 50 -6zM321 309q-4 -21 -10 -36h-266q-1 8 -0.5 18t2.5 18q2 11 3.5 19.5t5.5 16.5h93l48 301l-85 -19q-3 7 -4.5 15t-3.5 19q-1 11 -0.5 20t2.5 17l127 32q6 2 14 3t18 1q17 0 28 -4l-61 -385h90
q2 -14 -1 -36zM884 163q1 -14 -2 -34q-2 -11 -4 -19.5t-6 -16.5h-65l-15 -93q-9 -2 -18.5 -3t-23.5 -1q-13 0 -22.5 1t-18.5 3l15 93h-204q-2 8 -1.5 18.5t2.5 18.5q4 22 10 36l255 290h1q15 4 39 4t39 -4l-47 -293h66zM735 163l27 168l-147 -168h120z" />
    <glyph glyph-name="onehalf" unicode="&#xbd;" horiz-adv-x="971" 
d="M319 -34h1q-23 -6 -53 -6q-28 0 -50 6l428 796q22 6 52 6q29 0 50 -6zM318 309q-3 -20 -10 -36h-265q-2 8 -1.5 18t2.5 18q2 11 4 19.5t6 16.5h92l49 301l-86 -19q-5 12 -7 34q-2 11 -1 20t3 17l126 32q6 2 14.5 3t17.5 1q18 0 29 -4l-61 -385h89q3 -18 -1 -36zM890 76
q1 -10 0.5 -21t-1.5 -17q-2 -11 -5 -20.5t-6 -17.5h-304q-2 9 -1 17t3 20q3 21 10 37q16 24 35.5 41.5t39.5 34.5q29 22 60.5 41.5t57 39.5t42 42.5t16.5 49.5q0 35 -19.5 51t-54.5 16q-26 0 -55.5 -9.5t-55.5 -23.5q-9 10 -17 31q-4 11 -4.5 19t-1.5 16q33 20 72 31.5
t83 11.5q29 0 55 -7t45.5 -22.5t31 -39.5t11.5 -57q0 -45 -20 -78t-50.5 -58.5t-66.5 -47.5t-68 -46q-12 -8 -22 -16t-16 -18h206z" />
    <glyph glyph-name="threequarters" unicode="&#xbe;" horiz-adv-x="960" 
d="M340 -34h1q-24 -6 -54 -6q-28 0 -49 6l428 796q22 6 52 6q15 0 27 -1.5t23 -4.5zM382 425q0 -36 -14.5 -65.5t-40 -49.5t-60.5 -31t-75 -11q-45 0 -87 11t-68 31l6 16t10 19q11 18 24 31q24 -14 53.5 -22t57.5 -8q50 0 78.5 20.5t28.5 58.5q0 34 -21 47t-66 13h-37
q-3 13 -1 32q5 23 11 33h35q42 0 70 17t28 50q0 27 -18.5 37.5t-52.5 10.5q-27 0 -57 -8.5t-57 -22.5q-8 11 -16 31q-3 12 -4 20.5t-1 16.5q32 19 73 30t79 11q63 0 104 -25.5t41 -80.5q0 -45 -26 -72t-73 -39q14 -3 27.5 -9.5t24.5 -18t17.5 -29.5t6.5 -44zM901 163
q1 -13 -2 -34q-3 -20 -9 -36h-66l-15 -93q-9 -2 -18.5 -3t-22.5 -1t-23 1t-19 3l15 93h-204q-1 8 -0.5 18.5t2.5 18.5q2 11 4 19.5t6 16.5l255 290q15 4 40 4q23 0 38 -4l-47 -293h66zM753 163l26 168l-146 -168h120z" />
    <glyph glyph-name="dollar" unicode="$" 
d="M551 585q-26 20 -62 35.5t-80 21.5l-35 -220q37 -10 71 -23.5t60 -36t41 -56.5t15 -83q0 -100 -65 -164t-191 -72l-14 -93q-16 -4 -41 -4q-22 0 -37 4l14 95q-71 8 -125.5 34t-86.5 55q5 11 11.5 20.5t16.5 22.5q20 26 36 38q32 -26 73 -45.5t91 -25.5l39 245
q-38 10 -71.5 23.5t-58.5 35t-40 53t-15 77.5t15.5 85.5t47 69.5t78.5 47.5t109 20.5l13 84h-1q17 4 41 4q23 0 38 -4l-14 -88q63 -8 111 -29.5t74 -43.5q-4 -10 -10 -20t-14 -23q-10 -13 -18 -22.5t-16 -17.5zM209 531q0 -39 23.5 -57.5t66.5 -31.5l32 203
q-63 -7 -92.5 -37.5t-29.5 -76.5zM448 212q0 23 -6 39t-18 27.5t-29 19.5t-38 15l-36 -226q67 8 97 42t30 83z" />
    <glyph glyph-name="cent" unicode="&#xa2;" 
d="M440 650q37 -5 68.5 -18.5t57.5 -32.5q-2 -10 -6 -20t-12 -23q-14 -23 -29 -37q-22 14 -45 23.5t-49 13.5l-61 -385q28 3 56.5 13.5t55.5 27.5q15 -14 25 -37q5 -14 7 -24.5t2 -20.5q-37 -26 -79 -38.5t-82 -15.5l-19 -123h-1q-9 -2 -18.5 -3t-22.5 -1t-22.5 1t-17.5 3
l21 127q-80 16 -122 74.5t-42 149.5q0 70 17.5 130t50.5 105.5t80 74.5t106 37l19 120h-1q9 2 19 3t23 1q12 0 22 -1t18 -3zM210 316q0 -50 19.5 -84.5t54.5 -50.5l59 370q-32 -11 -56.5 -33t-41.5 -52.5t-26 -68.5t-9 -81z" />
    <glyph glyph-name="sterling" unicode="&#xa3;" 
d="M452 744q63 0 105.5 -19t66.5 -43q-6 -19 -25 -44q-10 -12 -18 -20.5t-17 -16.5q-22 21 -50.5 32.5t-63.5 11.5q-69 0 -105.5 -44t-50.5 -138l-11 -66h195q3 -25 0 -43q-4 -26 -14 -45h-195q-12 -60 -35 -115t-72 -98h366q2 -11 1.5 -21.5t-2.5 -26.5q-2 -15 -5.5 -26
t-8.5 -22h-472q-5 9 -8.5 20t-6.5 28q-2 15 -2 27t1 21q32 13 54.5 34t37.5 48.5t24.5 60.5t16.5 70h-86q-1 10 -0.5 23t2.5 21q2 15 4.5 24.5t7.5 19.5h86l11 75q44 272 269 272z" />
    <glyph glyph-name="currency" unicode="&#xa4;" 
d="M545 369q0 -33 -8 -62t-22 -53l100 -97q-11 -18 -33 -40q-11 -11 -21 -18.5t-20 -12.5l-98 95q-26 -14 -55.5 -22t-64.5 -8q-34 0 -64 8t-56 22l-97 -95q-19 10 -41 31q-21 21 -32 39l-1 1l99 97q-14 24 -22 53t-8 62q0 32 7.5 61t21.5 54l-98 97q6 10 13.5 19.5
t18.5 20.5q22 22 40 33l100 -98q51 31 119 31q67 0 120 -31l100 98q9 -6 19 -14t21 -19t18.5 -20.5t13.5 -19.5l-100 -97q14 -25 22 -54t8 -61zM323 244q55 0 88.5 34t33.5 91t-33.5 91t-88.5 34t-88.5 -34t-33.5 -91t33.5 -91t88.5 -34z" />
    <glyph glyph-name="yen" unicode="&#xa5;" 
d="M522 362q2 -8 2 -19.5t-1 -18.5q-5 -23 -13 -37h-143l-9 -13l-8 -55h150q2 -8 1.5 -19.5t-2.5 -17.5q-3 -24 -11 -37h-150l-23 -142q-12 -3 -24.5 -4.5t-29.5 -1.5q-30 0 -52 6l23 142h-144q-2 8 -2 19.5t1 17.5q2 12 5 20.5t7 16.5h145l8 55l-4 13h-138q-1 13 -1.5 17
t2.5 20q3 25 11 38h100l-122 364q14 3 28.5 4.5t34.5 1.5q19 0 29 -1.5t23 -4.5l70 -238q3 -10 7.5 -27.5t9.5 -35t8.5 -32.5t5.5 -21q3 6 10.5 19.5t17 31t19.5 35t18 30.5l143 238q14 3 32.5 4.5t37.5 1.5q35 0 59 -6l-238 -364h107z" />
    <glyph glyph-name="Euro" unicode="&#x20ac;" 
d="M445 744q71 0 118 -21t81 -49q-2 -9 -6.5 -21.5t-10.5 -23.5q-5 -10 -14 -21t-18 -20q-32 26 -65.5 41.5t-81.5 15.5q-40 0 -72.5 -13.5t-58 -37.5t-44 -56.5t-30.5 -71.5h253q3 -16 0 -38q-2 -12 -4.5 -20.5t-7.5 -16.5h-258q-3 -17 -4.5 -34t-2.5 -34h254q2 -8 2 -19.5
t-2 -17.5q-2 -12 -4.5 -20.5t-7.5 -16.5h-240q10 -85 52 -124.5t106 -39.5q42 0 79.5 13t80.5 37q14 -17 22 -41q5 -11 7.5 -24t3.5 -23q-49 -32 -103 -47t-102 -15q-114 0 -183 67t-78 197h-90q-3 16 0 37q2 12 4.5 20.5t6.5 16.5h79q2 17 3.5 34t3.5 34h-75q-1 11 -1 18.5
t2 18.5q2 12 4.5 21t6.5 17h79q17 60 46 111t68.5 88t90 58t111.5 21z" />
    <glyph glyph-name="florin" unicode="&#x192;" horiz-adv-x="430" 
d="M367 803q37 0 68 -7.5t59 -17.5q-3 -20 -13 -46q-6 -14 -12 -24t-12 -19q-19 7 -41.5 12.5t-51.5 5.5q-38 0 -60.5 -20.5t-29.5 -65.5l-11 -71h154q0 -11 -0.5 -20.5t-2.5 -23.5q-2 -17 -4 -27.5t-7 -21.5h-154l-74 -493q-12 -83 -57 -132.5t-120 -62.5q-5 9 -9 19.5
t-9 25.5q-3 14 -5 26t-3 23q16 4 32 11t29 17t22 24.5t12 34.5l76 507h-63v21.5t2 25.5q2 14 4.5 24.5t6.5 21.5h64l12 79q12 83 63.5 128.5t134.5 45.5z" />
    <glyph glyph-name="percent" unicode="%" horiz-adv-x="950" 
d="M744 732q27 0 47 -6l-517 -723q-11 -3 -23 -4.5t-27 -1.5q-29 0 -48 6l517 723q22 6 51 6zM439 559q0 -52 -14.5 -98.5t-42 -82t-67.5 -56t-90 -20.5q-79 0 -119 46t-40 124q0 52 14.5 99t42 82t67.5 55.5t91 20.5q78 0 118 -46t40 -124zM155 472q0 -26 6.5 -44t17 -28.5
t25 -15t29.5 -4.5q33 0 55 17t35.5 43.5t19.5 58.5t6 62q0 52 -22.5 71t-53.5 19q-33 0 -55.5 -17t-36.5 -43.5t-20 -58t-6 -60.5zM740 416q78 0 118 -46.5t40 -124.5q0 -52 -14.5 -98.5t-42 -82t-67.5 -56t-90 -20.5q-79 0 -119.5 46.5t-40.5 124.5q0 52 14.5 98.5t42 82
t68 56t91.5 20.5zM692 66q33 0 55 17t35.5 44t19.5 59t6 62q0 26 -6 43t-16.5 27.5t-24.5 14.5t-29 4q-33 0 -55.5 -17t-36.5 -43t-20 -57.5t-6 -60.5q0 -53 23 -73t55 -20z" />
    <glyph glyph-name="perthousand" unicode="&#x2030;" horiz-adv-x="1376" 
d="M744 732q27 0 47 -6l-517 -723q-11 -3 -23 -4.5t-27 -1.5q-29 0 -48 6l517 723q22 6 51 6zM439 559q0 -52 -14.5 -98.5t-42 -82t-67.5 -56t-90 -20.5q-79 0 -119 46t-40 124q0 52 14.5 99t42 82t67.5 55.5t91 20.5q78 0 118 -46t40 -124zM155 472q0 -26 6.5 -44t17 -28.5
t25 -15t29.5 -4.5q33 0 55 17t35.5 43.5t19.5 58.5t6 62q0 52 -22.5 71t-53.5 19q-33 0 -55.5 -17t-36.5 -43.5t-20 -58t-6 -60.5zM740 416q78 0 118 -46.5t40 -124.5q0 -52 -14.5 -98.5t-42 -82t-67.5 -56t-90 -20.5q-79 0 -119.5 46.5t-40.5 124.5q0 52 14.5 98.5t42 82
t68 56t91.5 20.5zM1167 416q78 0 118 -46.5t40 -124.5q0 -52 -14.5 -98.5t-42 -82t-67.5 -56t-90 -20.5q-79 0 -119 46.5t-40 124.5q0 52 14.5 98.5t42 82t67.5 56t91 20.5zM692 66q33 0 55 17t35.5 44t19.5 59t6 62q0 26 -6 43t-16.5 27.5t-24.5 14.5t-29 4
q-33 0 -55.5 -17t-36.5 -43t-20 -57.5t-6 -60.5q0 -53 23 -73t55 -20zM1119 66q33 0 55 17t35.5 44t19.5 59t6 62q0 26 -6 43t-16.5 27.5t-24.5 14.5t-29 4q-33 0 -55.5 -17t-36.5 -43t-20 -57.5t-6 -60.5q0 -53 23.5 -73t54.5 -20z" />
    <glyph glyph-name="plus" unicode="+" 
d="M565 354q0 -15 -1.5 -25.5t-4.5 -20.5h-191v-196q-20 -6 -46 -6q-15 0 -26 1.5t-22 4.5v196h-191q-3 10 -4.5 20.5t-1.5 25.5q0 26 6 46h191v196q11 2 22 3.5t25 1.5q15 0 26 -1.5t21 -3.5v-196h191q6 -20 6 -46z" />
    <glyph glyph-name="minus" unicode="&#x2212;" 
d="M557 400q6 -20 6 -46q0 -15 -1.5 -25.5t-4.5 -20.5h-474q-2 10 -3.5 20.5t-1.5 25.5q0 14 1.5 25t3.5 21h474v0z" />
    <glyph glyph-name="plusminus" unicode="&#xb1;" 
d="M545 442q2 -10 3.5 -20.5t1.5 -24.5q0 -15 -1.5 -25.5t-3.5 -20.5h-191v-197q-11 -2 -21.5 -3.5t-25.5 -1.5q-14 0 -25 1.5t-22 3.5v197h-191q-3 10 -4.5 20.5t-1.5 25.5q0 14 1.5 24.5t4.5 20.5h191v196q11 3 21.5 4.5t25.5 1.5q26 0 47 -6v-196h191zM538 91
q3 -10 4.5 -20.5t1.5 -25.5q0 -27 -6 -46h-473q-6 19 -6 46q0 15 1.5 25.5t4.5 20.5h473z" />
    <glyph glyph-name="divide" unicode="&#xf7;" 
d="M320 505q-18 0 -31.5 1.5t-25.5 4.5q-3 12 -4.5 25t-1.5 31q0 17 1.5 30t4.5 25q12 3 25.5 4.5t31.5 1.5t31 -1.5t26 -4.5q3 -12 4.5 -25t1.5 -30q0 -18 -1.5 -31t-4.5 -25q-13 -3 -26 -4.5t-31 -1.5zM557 400q6 -20 6 -46q0 -15 -1.5 -25.5t-4.5 -20.5h-473
q-3 10 -4.5 20.5t-1.5 25.5q0 26 6 46h473zM320 203q18 0 31 -1.5t26 -4.5q6 -24 6 -56t-6 -56q-13 -3 -26 -4.5t-31 -1.5t-31.5 1.5t-25.5 4.5q-6 24 -6 56t6 56q12 3 25.5 4.5t31.5 1.5z" />
    <glyph glyph-name="multiply" unicode="&#xd7;" 
d="M547 188q-5 -11 -12 -19t-17 -19q-11 -11 -20 -17.5t-18 -11.5l-162 161l-161 -162q-10 5 -18.5 11.5t-19.5 17.5q-10 11 -16 19t-12 18l161 162l-163 162q10 19 29 38q11 11 19.5 17.5t18.5 11.5l162 -162l162 163q9 -5 18 -11.5t19 -17.5q10 -10 16.5 -18.5t11.5 -18.5
l-161 -162z" />
    <glyph glyph-name="equal" unicode="=" 
d="M81 410q-3 10 -4.5 20.5t-1.5 25.5q0 26 6 46h473q6 -20 6 -46q0 -15 -1.5 -25.5t-4.5 -20.5h-473zM554 295q6 -18 6 -45q0 -15 -1.5 -25.5t-4.5 -20.5h-473q-3 10 -4.5 20.5t-1.5 25.5q0 27 6 45h473z" />
    <glyph glyph-name="less" unicode="&#x3c;" 
d="M536 192q2 -11 3.5 -22.5t1.5 -27.5t-1.5 -27.5t-3.5 -23.5l-473 225q-6 19 -6 44q0 23 6 41l473 225q2 -11 3.5 -22t1.5 -27t-1.5 -27.5t-3.5 -22.5l-357 -169z" />
    <glyph glyph-name="greater" unicode="&#x3e;" 
d="M581 403q6 -20 6 -43q0 -24 -6 -42l-473 -225q-2 11 -3.5 22.5t-1.5 27.5t1.5 27.5t3.5 22.5l357 168l-357 166q-2 11 -3.5 22.5t-1.5 27.5t1.5 28t3.5 23l473 -225v0z" />
    <glyph glyph-name="lessequal" unicode="&#x2264;" 
d="M66 386q-2 10 -3.5 20t-1.5 24q0 13 1.5 22.5t3.5 18.5l473 225q3 -11 4.5 -22t1.5 -27q0 -17 -1.5 -28t-4.5 -22l-357 -169l357 -166q6 -21 6 -50t-6 -51zM544 91q6 -18 6 -45q0 -15 -1.5 -25.5t-4.5 -20.5h-473q-3 10 -4.5 20.5t-1.5 25.5q0 27 6 45h473z" />
    <glyph glyph-name="greaterequal" unicode="&#x2265;" 
d="M562 471q6 -18 6 -41q0 -25 -6 -44l-472 -225q-6 22 -6 51t6 50l357 166l-357 169q-3 11 -4.5 22t-1.5 28q0 16 1.5 27t4.5 22zM555 91q6 -18 6 -45q0 -15 -1.5 -25.5t-4.5 -20.5h-473q-3 10 -4.5 20.5t-1.5 25.5q0 27 6 45h473z" />
    <glyph glyph-name="approxequal" unicode="&#x2248;" 
d="M163 369q-18 -6 -43 -6q-24 0 -42 6q10 91 45 132t105 41q35 0 63.5 -17.5t53.5 -34.5q18 -13 34.5 -22.5t31.5 -9.5q26 0 41.5 19.5t23.5 63.5q9 2 19 3.5t23 1.5q14 0 23.5 -1.5t18.5 -3.5q-9 -94 -44.5 -135.5t-104.5 -41.5q-27 0 -51 12.5t-45 27.5
q-23 17 -44.5 30.5t-42.5 13.5q-25 0 -40.5 -18.5t-24.5 -60.5zM476 318q18 6 42 6q14 0 23.5 -1.5t18.5 -4.5q-9 -93 -44.5 -134.5t-104.5 -41.5q-29 0 -53 13.5t-47 29.5q-22 16 -42 28.5t-41 12.5q-25 0 -40.5 -18.5t-24.5 -60.5q-18 -6 -43 -6q-24 0 -42 6q10 91 45 132
t105 41q32 0 59.5 -15.5t51.5 -32.5q20 -14 37.5 -24.5t34.5 -10.5q26 0 41.5 19t23.5 62z" />
    <glyph glyph-name="notequal" unicode="&#x2260;" 
d="M554 295q3 -10 4.5 -20.5t1.5 -24.5q0 -27 -6 -45h-238l-44 -158q-20 -6 -46 -6t-45 6l44 158h-144q-6 18 -6 45q0 14 1.5 24.5t4.5 20.5h170l33 116h-203q-6 18 -6 45q0 14 1.5 24.5t4.5 20.5h229l44 157q19 6 46 6t45 -6l-44 -157h153q3 -10 4.5 -20.5t1.5 -24.5
q0 -27 -6 -45h-179l-33 -116h212z" />
    <glyph glyph-name="logicalnot" unicode="&#xac;" 
d="M541 401v-294q-11 -3 -22 -4.5t-26 -1.5q-16 0 -27 1.5t-22 4.5v200h-376q-2 10 -3.5 21t-1.5 27q0 15 1.5 25.5t3.5 20.5h473z" />
    <glyph glyph-name="uni2113" unicode="&#x2113;" horiz-adv-x="434" 
d="M294 744q66 0 103.5 -42t35.5 -123q-5 -132 -74.5 -222t-194.5 -128l-10 -68q-3 -20 -3 -31q-1 -26 15.5 -37.5t45.5 -11.5q20 0 43.5 6t49.5 17q5 -8 10 -17.5t8 -24.5q3 -11 3 -23.5t-2 -24.5q-31 -13 -69.5 -20.5t-74.5 -7.5q-28 0 -52.5 8t-43 24t-29.5 39t-11 53
q0 14 3 31.5t6 38.5l64 403q12 76 57 118.5t120 42.5zM333 569q0 81 -49 81q-24 0 -41.5 -18t-23.5 -56l-39 -248q36 16 64.5 41t48 56.5t30 68t10.5 75.5z" />
    <glyph glyph-name="estimated" unicode="&#x212e;" 
d="M379 744q115 0 178.5 -69.5t63.5 -204.5q0 -29 -3 -61t-8 -67l-4 -26h-466q0 -9 -0.5 -17.5t-0.5 -17.5q0 -101 44 -152.5t129 -51.5q52 0 103 20t99 62q8 -5 15.5 -11t15.5 -17q15 -18 21 -37q-122 -109 -265 -109q-125 0 -197 76t-72 217q0 94 21 178.5t64 148.5
t108 101.5t154 37.5zM376 651q-47 0 -84 -19.5t-64.5 -53.5t-46.5 -78.5t-29 -93.5h360q2 16 3 30.5t1 28.5q0 91 -35.5 138.5t-104.5 47.5z" />
    <glyph glyph-name="partialdiff" unicode="&#x2202;" horiz-adv-x="628" 
d="M343 744q108 0 170.5 -68.5t62.5 -205.5q0 -96 -14.5 -183.5t-50 -154.5t-95.5 -107t-151 -40q-44 0 -85 13t-72.5 39t-51 66.5t-19.5 96.5q-1 59 16.5 110.5t51.5 90t83 61t111 22.5q52 0 95 -17t72 -49q4 49 0 92t-20 74.5t-45.5 49.5t-74.5 18q-40 0 -78 -12t-76 -30
q-7 8 -11.5 17.5t-9.5 22.5q-4 14 -6 24.5t-2 21.5q94 48 200 48zM272 80q44 0 75.5 15.5t51.5 41.5t29.5 59.5t9.5 70.5q0 60 -33.5 91t-93.5 31q-41 0 -71.5 -14t-50.5 -38.5t-30 -58.5t-10 -73q0 -63 34.5 -94t88.5 -31z" />
    <glyph glyph-name="product" unicode="&#x220f;" 
d="M668 729q1 -11 1 -22.5t-3 -26.5q-2 -15 -5 -26t-8 -22h-85l-116 -738q-12 -3 -24.5 -4.5t-29.5 -1.5t-29 1.5t-23 4.5l116 738h-195l-116 -738q-12 -3 -24.5 -4.5t-29.5 -1.5t-29 1.5t-23 4.5l116 738h-83q-3 17 2 48q4 30 14 49h574v0z" />
    <glyph glyph-name="summation" unicode="&#x2211;" 
d="M-6 -90q0 12 3 32q2 15 5 25.5t8 21.5l261 325l-153 321q-1 4 -1.5 7.5t-0.5 8.5q0 7 1 14.5t2 16.5q2 15 5.5 25.5t8.5 21.5h486q1 -4 1 -8v-8q0 -14 -3 -33q-2 -15 -5 -26t-8 -22h-366l147 -299q1 -5 1.5 -8.5t0.5 -8.5q0 -12 -3 -21.5t-8 -17.5l-229 -285h375
q1 -4 1 -8v-8q0 -14 -3 -33q-2 -15 -5.5 -26.5t-7.5 -22.5h-512q0 4 -0.5 8t-0.5 8z" />
    <glyph glyph-name="radical" unicode="&#x221a;" 
d="M615 732q33 0 53 -6l-365 -723q-15 -6 -31 -6q-18 0 -30 6l-66 364h-122q-1 5 -1 8.5v8.5q0 7 0.5 14t1.5 15q6 29 14 46h192l39 -270l262 537q22 6 53 6z" />
    <glyph glyph-name="infinity" unicode="&#x221e;" horiz-adv-x="954" 
d="M700 613q45 0 82 -17t63 -49t40 -78t14 -104q0 -60 -14 -107.5t-40 -80.5t-63 -50.5t-82 -17.5q-64 0 -120 41.5t-96 115.5q-19 -34 -42.5 -62.5t-51.5 -49.5t-59 -32.5t-65 -11.5q-45 0 -81 17.5t-62 50.5t-40 80.5t-14 106.5q0 58 14 104t40 78t62 49t81 17
q66 0 122.5 -41.5t94.5 -113.5q38 73 94 114t123 41zM278 212q44 0 86 39t76 109q-35 71 -77.5 111t-84.5 40q-48 0 -77 -39t-29 -107q0 -72 29 -112.5t77 -40.5zM688 211q50 0 79.5 41t29.5 113q0 68 -29.5 107t-79.5 39t-91.5 -40t-71.5 -111q32 -70 74.5 -109.5
t88.5 -39.5z" />
    <glyph glyph-name="integral" unicode="&#x222b;" 
d="M431 794q36 0 68.5 -7.5t61.5 -17.5q0 -11 -1.5 -21.5t-6.5 -24.5q-3 -14 -7.5 -24t-9.5 -19q-19 7 -42.5 12.5t-51.5 5.5q-39 0 -59 -20.5t-20 -65.5v-666q0 -82 -45 -127.5t-128 -45.5q-37 0 -69.5 7.5t-61.5 17.5q1 11 2 21t6 24q4 15 8 25t9 19q19 -7 42.5 -12.5
t52.5 -5.5q39 0 58.5 20t19.5 66v665q0 83 45 128.5t129 45.5z" />
    <glyph glyph-name="asciicircum" unicode="^" 
d="M594 335q-13 -3 -26.5 -4.5t-32.5 -1.5q-34 0 -59 6l-154 272l-154 -273q-24 -6 -58 -6q-19 0 -32.5 1.5t-26.5 4.5l235 392q15 6 37 6t39 -6z" />
    <glyph glyph-name="asciitilde" unicode="~" 
d="M546 515q28 0 49 -6q0 -135 -36 -193t-120 -58q-42 0 -69.5 19.5t-48.5 45.5q-14 15 -26 30t-23.5 27t-23.5 19.5t-26 7.5q-34 0 -48.5 -27.5t-14.5 -91.5v-25q-21 -6 -50 -6q-28 0 -49 6q0 135 36 193t120 58q25 0 45.5 -7t37 -18.5t29.5 -26t25 -29.5q21 -26 39 -46.5
t41 -20.5q34 0 48.5 28.5t14.5 94.5v20q21 6 50 6z" />
    <glyph glyph-name="degree" unicode="&#xb0;" horiz-adv-x="466" 
d="M268 355q-43 0 -77 14t-57.5 38.5t-36 59t-12.5 75.5q0 87 48 137t135 50q86 0 133.5 -50t47.5 -137q0 -41 -12.5 -75.5t-35.5 -59t-56.5 -38.5t-76.5 -14zM268 439q91 0 91 103q0 102 -91 102q-92 0 -92 -102q0 -103 92 -103z" />
    <glyph glyph-name="uni2206" unicode="&#x2206;" 
d="M552 0h-575l353 726q22 6 54 6q31 0 49 -6zM427 97l-68 483l-224 -483h292z" />
    <glyph glyph-name="uni2126" unicode="&#x2126;" 
d="M555 93q1 -5 1 -18q0 -11 -3 -29q-2 -14 -5.5 -25t-7.5 -21h-235q0 4 -0.5 7.5t-0.5 8.5q0 12 3 32q2 15 5.5 26.5t7.5 20.5q45 30 79.5 72.5t58 91.5t35.5 102t12 103q0 88 -37 133t-106 45q-54 0 -93 -26t-64 -68.5t-37 -97t-12 -110.5q0 -76 22 -138.5t65 -106.5
q0 -4 0.5 -7.5t0.5 -8.5q0 -15 -3 -31q-2 -15 -5.5 -26.5t-7.5 -21.5h-235q-1 4 -1 8v9q0 6 0.5 13.5t1.5 15.5q3 15 6 26t7 21h125q-87 101 -87 262q0 79 20 149.5t60.5 123.5t101 84t140.5 31q118 0 184 -66.5t66 -198.5q0 -110 -47 -210t-138 -175h123z" />
    <glyph glyph-name="pi" unicode="&#x3c0;" horiz-adv-x="595" 
d="M587 550q1 -9 0.5 -24t-2.5 -25q-4 -29 -13 -49h-65l-72 -449q-11 -3 -23.5 -4.5t-29.5 -1.5q-31 0 -53 6l72 449h-164l-72 -449q-12 -3 -24 -4.5t-29 -1.5q-31 0 -53 6l72 449h-63q-1 11 -0.5 24.5t2.5 24.5q2 15 5.5 26.5t7.5 22.5h504v0z" />
    <glyph glyph-name="uni00B5" unicode="&#xb5;" 
d="M518 552q17 0 29.5 -1.5t23.5 -3.5l-87 -544q-18 -6 -43 -6q-24 0 -40 6l-1 69q-31 -45 -69.5 -66t-83.5 -21q-58 0 -93 33l-36 -225h1q-12 -2 -24.5 -3.5t-29.5 -1.5q-16 0 -28.5 1.5t-23.5 3.5l120 754q11 2 23.5 3.5t29.5 1.5t29.5 -1.5t23.5 -3.5l-42 -259h1l-11 -65
q-2 -14 -3 -26t-1 -23q0 -89 80 -89q55 0 97 42.5t62 147.5l43 272q11 2 23.5 3.5t29.5 1.5z" />
    <glyph glyph-name="lozenge" unicode="&#x25ca;" 
d="M599 365l-279 -314q-11 -3 -22 -4.5t-26 -1.5t-25.5 1.5t-19.5 4.5l-181 314l279 313q22 6 48 6q15 0 25.5 -1.5t19.5 -4.5zM477 373l-116 203l-196 -220l116 -199z" />
    <glyph glyph-name="gravecomb" unicode="&#x300;" horiz-adv-x="0" 
d="M98 634q-8 -2 -17.5 -3.5t-21.5 -1.5t-21 1.5t-17 3.5l-72 184q21 6 50 6t49 -6z" />
    <glyph glyph-name="acutecomb" unicode="&#x301;" horiz-adv-x="0" 
d="M174 824q31 0 54 -6l-134 -184q-9 -2 -19 -3.5t-24 -1.5t-24 1.5t-19 3.5l111 184q22 6 55 6z" />
    <glyph glyph-name="uni0302" unicode="&#x302;" horiz-adv-x="0" 
d="M197 633q-9 -2 -18 -3.5t-21 -1.5q-13 0 -21.5 1.5t-16.5 3.5l-44 120l-78 -120q-9 -2 -19 -3.5t-22 -1.5q-13 0 -22 1.5t-17 3.5l112 185q13 3 25.5 4.5t31.5 1.5t31.5 -1.5t24.5 -4.5z" />
    <glyph glyph-name="uni030C" unicode="&#x30c;" horiz-adv-x="0" 
d="M112 634h1q-14 -3 -26 -4.5t-30 -1.5q-17 0 -29 1.5t-24 4.5l-58 185q9 2 19 3.5t22 1.5q13 0 22 -1.5t18 -3.5l41 -122l74 122q20 5 43 5t41 -5z" />
    <glyph glyph-name="tildecomb" unicode="&#x303;" horiz-adv-x="0" 
d="M225 748q11 -5 18.5 -9t12.5 -9q-19 -47 -53.5 -75.5t-81.5 -28.5q-26 0 -42.5 6t-28.5 14q-17 10 -31 18.5t-31 8.5q-20 0 -35 -10.5t-26 -34.5q-16 0 -38 8q-11 4 -17.5 8.5t-11.5 9.5q19 47 53 75.5t81 28.5q33 0 53 -10t35 -21q11 -7 22 -12t23 -5q40 0 62 46
q8 -1 17 -2t19 -6z" />
    <glyph glyph-name="uni0308" unicode="&#x308;" horiz-adv-x="0" 
d="M-35 645q-29 0 -50 6q-2 10 -1.5 21t3.5 26q2 14 5 25t7 21q24 6 53 6t50 -6q1 -10 0.5 -21t-2.5 -25q-3 -15 -5.5 -26t-7.5 -21q-12 -3 -24 -4.5t-28 -1.5zM155 645q-29 0 -50 6q-1 10 -0.5 21t2.5 26q3 14 5.5 25t7.5 21q22 6 52 6q29 0 50 -6q2 -10 1.5 -21t-3.5 -25
q-2 -15 -5 -26t-7 -21q-24 -6 -53 -6z" />
    <glyph glyph-name="uni030A" unicode="&#x30a;" horiz-adv-x="0" 
d="M61 625q-52 0 -80.5 26.5t-28.5 74.5q0 54 36 87.5t97 33.5q53 0 81 -26t28 -74q0 -55 -36 -88.5t-97 -33.5zM68 688q26 0 40.5 15.5t14.5 38.5q0 42 -43 42q-27 0 -42 -16t-15 -39q0 -20 12.5 -30.5t32.5 -10.5z" />
    <glyph glyph-name="uni0304" unicode="&#x304;" horiz-adv-x="0" 
d="M221 725q3 -16 0 -40q-4 -24 -13 -40h-298q-2 8 -2 17.5t2 22.5q4 23 12 40h299v0z" />
    <glyph glyph-name="uni0306" unicode="&#x306;" horiz-adv-x="0" 
d="M203 817q12 0 21 -1.5t17 -3.5q-16 -91 -64 -132t-119 -41q-74 0 -109.5 42t-22.5 131q9 2 18.5 3.5t22.5 1.5t22 -1.5t17 -3.5q-7 -45 7 -69.5t56 -24.5q39 0 61.5 24.5t30.5 69.5q9 2 19 3.5t23 1.5z" />
    <glyph glyph-name="uni0307" unicode="&#x307;" horiz-adv-x="0" 
d="M57 634q-17 0 -29 1.5t-23 4.5q-2 11 -1.5 22t3.5 27q2 15 5 26t8 22q12 3 24.5 4.5t29.5 1.5q31 0 52 -6q2 -11 1.5 -22t-3.5 -26q-2 -16 -5 -27t-8 -22q-12 -3 -24.5 -4.5t-29.5 -1.5z" />
    <glyph glyph-name="uni030B" unicode="&#x30b;" horiz-adv-x="0" 
d="M95 824q27 0 45 -6l-126 -184q-8 -2 -17 -3.5t-21 -1.5q-11 0 -19.5 1.5t-16.5 3.5l109 184q19 6 46 6zM250 824q27 0 45 -6l-125 -184q-8 -2 -17 -3.5t-21 -1.5t-20 1.5t-16 3.5l109 184q19 6 45 6z" />
    <glyph glyph-name="uni0327" unicode="&#x327;" horiz-adv-x="0" 
d="M4 23q25 -45 25 -92q0 -60 -37.5 -98t-101.5 -38q-29 0 -56 6.5t-49 19.5q2 9 5.5 17.5t9.5 19.5t11.5 18.5t11.5 14.5q31 -17 60 -17q35 0 52 23.5t17 65.5q0 21 -3 45l55 15v0z" />
    <glyph glyph-name="uni0328" unicode="&#x328;" horiz-adv-x="0" 
d="M-78 -129q3 -8 5 -15.5t4 -18.5q0 -5 0.5 -9t0.5 -8q0 -8 -2 -18q-17 -7 -41.5 -12t-52.5 -5q-33 0 -52 14t-19 43q0 24 11.5 45.5t29 41.5t38.5 37.5t40 33.5h67l-30 -30t-29.5 -31.5t-22 -29.5t-8.5 -26q0 -19 22 -19q11 0 21.5 2.5t17.5 4.5z" />
    <glyph glyph-name="uni0326" unicode="&#x326;" horiz-adv-x="0" 
d="M-50 -38q16 0 28 -1.5t23 -4.5q0 -25 -3 -45.5t-9.5 -39.5t-16.5 -38.5t-25 -41.5q-8 -2 -16 -3.5t-19 -1.5q-10 0 -17 1.5t-14 3.5l30 68q-8 1 -15 1.5t-13 2.5q-3 19 2 47q4 27 13 46q11 3 23 4.5t29 1.5z" />
    <glyph glyph-name="uni0312" unicode="&#x312;" horiz-adv-x="0" 
d="M95 729q8 -1 14.5 -1.5t12.5 -2.5q2 -10 1.5 -22t-2.5 -25q-4 -27 -13 -46q-23 -6 -52 -6q-17 0 -28.5 1.5t-22.5 4.5q0 25 3 45.5t9.5 39.5t16.5 38t25 42q17 5 34 5q18 0 31 -5l-29 -68v0z" />
    <glyph glyph-name="uni0338" unicode="&#x338;" horiz-adv-x="0" 
d="M324 769q13 -8 21 -15.5t15 -15.5l-609 -799q-10 4 -20 8.5t-22 12.5t-19.5 15t-15.5 15l609 799q20 -6 41 -20z" />
    <glyph glyph-name="uni0337" unicode="&#x337;" horiz-adv-x="0" 
d="M-140 264q-5 7 -8.5 15.5t-7.5 20.5t-5.5 21.5t-3.5 18.5l356 162q5 -8 9 -16t8 -19q4 -13 6 -22t3 -20l-357 -161v0z" />
    <glyph glyph-name="uni0336" unicode="&#x336;" horiz-adv-x="0" 
d="M161 358q3 -17 -1 -40q-2 -12 -5 -22t-7 -18h-299q-3 18 1 40q2 13 5 22.5t7 17.5h299v0z" />
    <glyph glyph-name="uni0335" unicode="&#x335;" horiz-adv-x="0" 
d="M161 358q3 -17 -1 -40q-2 -12 -5 -22t-7 -18h-299q-3 18 1 40q2 13 5 22.5t7 17.5h299v0z" />
    </font>
</defs>
</svg>
